<svg height="100mm" units="mm" viewBox="0 0 150 100" width="150mm" xmlns="http://www.w3.org/2000/svg">
<path d="M46.854176,30.625 M77.16506,52.125 L73.700966,50.125 L73.700966,46.125 L77.16506,44.125 L80.629166,46.125 L80.629166,50.125 L77.16506,52.125 M77.16506,53.125 L72.83494,50.625 L72.83494,45.625 L77.16506,43.125 L81.49519,45.625 L81.49519,50.625 L77.16506,53.125 L77.16506,58.125 L72.83494,60.625 L68.50481,58.125 L68.50481,53.125 L72.83494,50.625 M77.16506,53.125 M81.49519,50.625 L85.82532,53.125 L85.82532,58.125 L81.49519,60.625 L77.16506,58.125 M77.16506,53.125 M68.50481,43.125 L68.50481,38.125 L72.83494,35.625 L77.16506,38.125 L77.16506,43.125 M72.83494,45.625 L68.50481,43.125 L64.17468,45.625 L59.844555,43.125 L59.844555,38.125 L64.17468,35.625 L68.50481,38.125 M68.50481,43.125 M72.83494,45.625 M72.83494,50.625 M68.50481,53.125 L64.17468,50.625 L64.17468,45.625 M68.50481,43.125 M72.83494,60.625 M77.16506,58.125 M81.49519,60.625 L81.49519,65.625 L77.16506,68.125 L72.83494,65.625 L72.83494,60.625 M72.83494,65.625 L68.50481,68.125 L64.17468,65.625 L64.17468,60.625 L68.50481,58.125 M72.83494,60.625 M72.83494,65.625 M77.16506,68.125 L77.16506,73.125 L72.83494,75.625 L68.50481,73.125 L68.50481,68.125 M72.83494,65.625 M85.82532,23.125 L85.82532,28.125 L81.49519,30.625 L77.16506,28.125 L77.16506,23.125 L81.49519,20.625 L85.82532,23.125 L90.15544,20.625 L94.48557,23.125 L94.48557,28.125 L90.15544,30.625 L85.82532,28.125 M85.82532,23.125 M81.49519,35.625 L77.16506,38.125 M72.83494,35.625 L72.83494,30.625 L77.16506,28.125 M81.49519,30.625 L81.49519,35.625 M81.49519,30.625 M85.82532,28.125 M90.15544,30.625 L90.15544,35.625 L85.82532,38.125 L81.49519,35.625 M85.82532,38.125 L85.82532,43.125 L81.49519,45.625 M77.16506,43.125 M77.16506,38.125 M81.49519,35.625 M64.17468,75.625 L59.844555,73.125 L59.844555,68.125 L64.17468,65.625 M68.50481,68.125 M68.50481,73.125 L64.17468,75.625 M68.50481,28.125 L68.50481,23.125 L72.83494,20.625 L77.16506,23.125 M77.16506,28.125 M72.83494,30.625 L68.50481,28.125 L64.17468,30.625 L59.844555,28.125 L59.844555,23.125 L64.17468,20.625 L68.50481,23.125 M68.50481,28.125 M72.83494,30.625 M72.83494,35.625 M68.50481,38.125 M64.17468,35.625 L64.17468,30.625 M68.50481,28.125 M82.36122,31.125 L85.82532,29.125 L89.28941,31.125 L89.28941,35.125 L85.82532,37.125 L82.36122,35.125 L82.36122,31.125 M85.82532,43.125 L90.15544,45.625 L90.15544,50.625 L85.82532,53.125 M81.49519,50.625 M81.49519,45.625 M85.82532,43.125 M85.82532,38.125 M90.15544,35.625 L94.48557,38.125 L94.48557,43.125 L90.15544,45.625 M85.82532,43.125 M71.96891,61.125 L71.96891,65.125 L68.50481,67.125 L65.04071,65.125 L65.04071,61.125 L68.50481,59.125 L71.96891,61.125 M68.50481,58.125 M64.17468,60.625 L59.844555,58.125 L59.844555,53.125 L64.17468,50.625 M68.50481,53.125 M68.50481,58.125 M85.82532,68.125 L81.49519,65.625 M81.49519,60.625 M85.82532,58.125 L90.15544,60.625 L90.15544,65.625 L85.82532,68.125 L85.82532,73.125 L81.49519,75.625 L77.16506,73.125 M77.16506,68.125 M81.49519,65.625 M85.82532,68.125 M90.15544,65.625 L94.48557,68.125 L94.48557,73.125 L90.15544,75.625 L85.82532,73.125 M85.82532,68.125 M51.184303,73.125 L51.184303,68.125 L55.514427,65.625 L59.844555,68.125 M59.844555,73.125 L55.514427,75.625 L51.184303,73.125 L46.854176,75.625 L42.524048,73.125 L42.524048,68.125 L46.854176,65.625 L51.184303,68.125 M51.184303,73.125 M60.710583,38.625 L64.17468,36.625 L67.63878,38.625 L67.63878,42.625 L64.17468,44.625 L60.710583,42.625 L60.710583,38.625 M85.82532,59.125 L89.28941,61.125 L89.28941,65.125 L85.82532,67.125 L82.36122,65.125 L82.36122,61.125 L85.82532,59.125 M64.17468,60.625 M64.17468,65.625 M59.844555,68.125 M55.514427,65.625 L55.514427,60.625 L59.844555,58.125 M64.17468,60.625 M98.8157,35.625 L94.48557,38.125 M90.15544,35.625 M90.15544,30.625 M94.48557,28.125 L98.8157,30.625 L98.8157,35.625 M98.8157,30.625 L103.14583,28.125 L107.47595,30.625 L107.47595,35.625 L103.14583,38.125 L98.8157,35.625 M103.14583,38.125 L103.14583,43.125 L98.8157,45.625 L94.48557,43.125 M94.48557,38.125 M98.8157,35.625 M55.514427,60.625 L51.184303,58.125 L51.184303,53.125 L55.514427,50.625 L59.844555,53.125 M59.844555,58.125 M55.514427,60.625 M55.514427,65.625 M51.184303,68.125 M46.854176,65.625 L46.854176,60.625 L51.184303,58.125 M55.514427,60.625 M52.05033,57.625 L52.05033,53.625 L55.514427,51.625 L58.978527,53.625 L58.978527,57.625 L55.514427,59.625 L52.05033,57.625 M91.02147,31.125 L94.48557,29.125 L97.94967,31.125 L97.94967,35.125 L94.48557,37.125 L91.02147,35.125 L91.02147,31.125 M59.844555,43.125 M64.17468,45.625 M64.17468,50.625 M59.844555,53.125 M55.514427,50.625 L55.514427,45.625 L59.844555,43.125 M55.514427,45.625 L51.184303,43.125 L51.184303,38.125 L55.514427,35.625 L59.844555,38.125 M59.844555,43.125 M97.25685,31.525 L97.25685,34.725 L94.48557,36.325 L91.71429,34.725 L91.71429,31.525 L94.48557,29.925 L97.25685,31.525 M98.8157,50.625 L94.48557,53.125 L90.15544,50.625 M90.15544,45.625 M94.48557,43.125 M98.8157,45.625 L98.8157,50.625 M98.8157,45.625 M103.14583,43.125 L107.47595,45.625 L107.47595,50.625 L103.14583,53.125 L98.8157,50.625 M103.14583,53.125 L103.14583,58.125 L98.8157,60.625 L94.48557,58.125 L94.48557,53.125 M98.8157,50.625 M55.514427,30.625 L51.184303,28.125 L51.184303,23.125 L55.514427,20.625 L59.844555,23.125 M59.844555,28.125 L55.514427,30.625 L55.514427,35.625 M51.184303,38.125 L46.854176,35.625 L46.854176,30.625 L51.184303,28.125 M55.514427,30.625 M59.844555,28.125 M64.17468,30.625 M64.17468,35.625 M59.844555,38.125 M55.514427,35.625 M55.514427,30.625 M85.82532,58.125 M85.82532,53.125 M90.15544,50.625 M94.48557,53.125 M94.48557,58.125 L90.15544,60.625 M85.82532,58.125 M43.39007,53.625 L46.854176,51.625 L50.318275,53.625 L50.318275,57.625 L46.854176,59.625 L43.39007,57.625 L43.39007,53.625 M94.48557,58.125 M98.8157,60.625 L98.8157,65.625 L94.48557,68.125 M90.15544,65.625 M90.15544,60.625 M94.48557,58.125 M51.184303,53.125 M51.184303,58.125 M46.854176,60.625 L42.524048,58.125 L42.524048,53.125 L46.854176,50.625 L51.184303,53.125 M46.854176,50.625 L46.854176,45.625 L51.184303,43.125 M55.514427,45.625 M55.514427,50.625 M51.184303,53.125 M103.14583,28.125 M98.8157,30.625 M94.48557,28.125 M94.48557,23.125 L98.8157,20.625 L103.14583,23.125 L103.14583,28.125 M103.14583,68.125 L98.8157,65.625 M98.8157,60.625 M103.14583,58.125 L107.47595,60.625 L107.47595,65.625 L103.14583,68.125 L103.14583,73.125 L98.8157,75.625 L94.48557,73.125 M94.48557,68.125 M98.8157,65.625 M103.14583,68.125 M42.524048,43.125 L42.524048,38.125 L46.854176,35.625 M51.184303,38.125 M51.184303,43.125 M46.854176,45.625 L42.524048,43.125 M42.524048,23.125 L46.854176,20.625 L51.184303,23.125 M51.184303,28.125 M46.854176,30.625 L42.524048,28.125 L42.524048,23.125 M103.14583,59.125 L106.609924,61.125 L106.609924,65.125 L103.14583,67.125 L99.681725,65.125 L99.681725,61.125 L103.14583,59.125" fill="none" stroke="black" stroke-width="0.4"/>
</svg>