<svg height="100mm" units="mm" viewBox="0 0 150 100" width="150mm" xmlns="http://www.w3.org/2000/svg">
<path d="M7.45002,43.5 M83.66025,55.5 L80.19615,53.5 L80.19615,49.5 L83.66025,47.5 L87.124344,49.5 L87.124344,53.5 L83.66025,55.5 L83.66025,59.5 L80.19615,61.5 L76.73205,59.5 L76.73205,55.5 L80.19615,53.5 M83.66025,55.5 M87.124344,53.5 L90.58845,55.5 L90.58845,59.5 L87.124344,61.5 L83.66025,59.5 M83.66025,55.5 M83.66025,54.3 L81.235374,52.9 L81.235374,50.1 L83.66025,48.7 L86.08512,50.1 L86.08512,52.9 L83.66025,54.3 M84.69948,46.9 L84.69948,44.1 L87.124344,42.7 L89.54922,44.1 L89.54922,46.9 L87.124344,48.3 L84.69948,46.9 M87.12435,37.5 L90.588455,35.5 L94.05255,37.5 L94.05255,41.5 L90.588455,43.5 L87.12435,41.5 L87.12435,37.5 M87.124344,41.5 M90.58845,43.5 L90.58845,47.5 L87.124344,49.5 M83.66025,47.5 L83.66025,43.5 L87.124344,41.5 M83.66025,43.5 L80.19615,41.5 L80.19615,37.5 L83.66025,35.5 L87.124344,37.5 M87.124344,41.5 M93.01332,38.1 L93.01332,40.9 L90.588455,42.3 L88.16358,40.9 L88.16358,38.1 L90.588455,36.7 L93.01332,38.1 M92.285866,40.48 L90.588455,41.46 L88.89104,40.48 L88.89104,38.52 L90.588455,37.54 L92.285866,38.52 L92.285866,40.48 M76.73205,55.5 L73.26795,53.5 L73.26795,49.5 L76.73205,47.5 L80.19615,49.5 M80.19615,53.5 M76.73205,55.5 M90.588455,47.5 M90.588455,43.5 M94.05255,41.5 L97.51665,43.5 L97.51665,47.5 L94.05255,49.5 L90.588455,47.5 M94.05255,49.5 L94.05255,53.5 L90.588455,55.5 M87.12435,53.5 M87.12435,49.5 M90.588455,47.5 M76.73205,43.5 L80.19615,41.5 M83.66025,43.5 M83.66025,47.5 M80.19615,49.5 M76.73205,47.5 L76.73205,43.5 L73.26795,41.5 L73.26795,37.5 L76.73205,35.5 L80.19615,37.5 M80.19615,41.5 M76.73205,43.5 M90.588455,48.7 L93.01332,50.1 L93.01332,52.9 L90.588455,54.3 L88.16358,52.9 L88.16358,50.1 L90.588455,48.7 M78.42946,38.52 L78.42946,40.48 L76.73205,41.46 L75.03464,40.48 L75.03464,38.52 L76.73205,37.54 L78.42946,38.52 M97.51665,59.5 L94.05255,61.5 L90.588455,59.5 M90.588455,55.5 M94.05255,53.5 L97.51665,55.5 L97.51665,59.5 M76.73205,42.3 L74.307175,40.9 L74.307175,38.1 L76.73205,36.7 L79.15692,38.1 L79.15692,40.9 L76.73205,42.3 M91.62768,58.9 L91.62768,56.1 L94.05255,54.7 L96.477425,56.1 L96.477425,58.9 L94.05255,60.3 L91.62768,58.9 M69.80385,55.5 L73.267944,53.5 M76.73204,55.5 M76.73204,59.5 L73.267944,61.5 L69.80385,59.5 L69.80385,55.5 L66.339745,53.5 L66.339745,49.5 L69.80385,47.5 L73.267944,49.5 M73.267944,53.5 M69.80385,55.5 M94.05255,55.54 L95.74996,56.52 L95.74996,58.48 L94.05255,59.46 L92.35514,58.48 L92.35514,56.52 L94.05255,55.54 M100.98076,37.5 L100.98076,41.5 L97.516655,43.5 M94.05256,41.5 M94.05256,37.5 L97.516655,35.5 L100.98076,37.5 M75.69282,46.9 L73.267944,48.3 L70.84307,46.9 L70.84307,44.1 L73.267944,42.7 L75.69282,44.1 L75.69282,46.9 M97.516655,42.3 L95.09178,40.9 L95.09178,38.1 L97.516655,36.7 L99.94153,38.1 L99.94153,40.9 L97.516655,42.3 M69.80385,47.5 L69.80385,43.5 L73.267944,41.5 M76.73204,43.5 M76.73204,47.5 M73.267944,49.5 M69.80385,47.5 M95.819244,38.52 L97.516655,37.54 L99.214066,38.52 L99.214066,40.48 L97.516655,41.46 L95.819244,40.48 L95.819244,38.52 M69.80385,35.5 L73.267944,37.5 M73.267944,41.5 M69.80385,43.5 L66.339745,41.5 L66.339745,37.5 L69.80385,35.5 M98.70485,38.814003 L98.70485,40.185997 L97.516655,40.872 L96.32847,40.185997 L96.32847,38.814003 L97.516655,38.128 L98.70485,38.814003 M69.80384,59.5 L66.33974,61.5 L62.87564,59.5 L62.87564,55.5 L66.33974,53.5 M69.80384,55.5 M69.80384,59.5 M100.98076,49.5 L97.516655,47.5 M97.516655,43.5 M100.98076,41.5 L104.44486,43.5 L104.44486,47.5 L100.98076,49.5 L100.98076,53.5 L97.516655,55.5 M94.05256,53.5 M94.05256,49.5 M97.516655,47.5 M100.98076,49.5 M60.450768,52.9 L60.450768,50.1 L62.87564,48.7 L65.300514,50.1 L65.300514,52.9 L62.87564,54.3 L60.450768,52.9 M59.41154,49.5 L62.87564,47.5 L66.33974,49.5 M66.33974,53.5 M62.87564,55.5 L59.41154,53.5 L59.41154,49.5 M100.98076,53.5 L104.44486,55.5 L104.44486,59.5 L100.98076,61.5 L97.516655,59.5 M97.516655,55.5 M100.98076,53.5 M69.80384,43.5 M69.80384,47.5 M66.33974,49.5 M62.87564,47.5 L62.87564,43.5 L66.33974,41.5 M69.80384,43.5 M107.90896,41.5 L104.44486,43.5 M100.98076,41.5 M100.98076,37.5 L104.44486,35.5 L107.90896,37.5 L107.90896,41.5 L111.37306,43.5 L111.37306,47.5 L107.90896,49.5 L104.44486,47.5 M104.44486,43.5 M107.90896,41.5 M62.87564,43.5 L59.41154,41.5 L59.41154,37.5 L62.87564,35.5 L66.33974,37.5 M66.33974,41.5 M62.87564,43.5 M55.947437,59.5 L55.947437,55.5 L59.411537,53.5 M62.875633,55.5 M62.875633,59.5 L59.411537,61.5 L55.947437,59.5 L52.483337,61.5 L49.019234,59.5 L49.019234,55.5 L52.483337,53.5 L55.947437,55.5 M55.947437,59.5 M102.01999,38.1 L104.44486,36.7 L106.86973,38.1 L106.86973,40.9 L104.44486,42.3 L102.01999,40.9 L102.01999,38.1 M107.90896,42.7 L110.333824,44.1 L110.333824,46.9 L107.90896,48.3 L105.48409,46.9 L105.48409,44.1 L107.90896,42.7 M58.372307,50.1 L58.372307,52.9 L55.947437,54.3 L53.522564,52.9 L53.522564,50.1 L55.947437,48.7 L58.372307,50.1 M109.60637,46.48 L107.90896,47.46 L106.21155,46.48 L106.21155,44.52 L107.90896,43.54 L109.60637,44.52 L109.60637,46.48 M55.947437,55.5 M52.483337,53.5 L52.483337,49.5 L55.947437,47.5 L59.411537,49.5 M59.411537,53.5 M55.947437,55.5 M106.72078,46.185997 L106.72078,44.814003 L107.90896,44.128 L109.097145,44.814003 L109.097145,46.185997 L107.90896,46.872 L106.72078,46.185997 M55.947437,43.5 L59.411537,41.5 M62.875633,43.5 M62.875633,47.5 M59.411537,49.5 M55.947437,47.5 L55.947437,43.5 M55.947437,47.5 M52.483337,49.5 L49.019234,47.5 L49.019234,43.5 L52.483337,41.5 L55.947437,43.5 M52.483337,41.5 L52.483337,37.5 L55.947437,35.5 L59.411537,37.5 M59.411537,41.5 M55.947437,43.5 M104.44486,48.7 L106.86973,50.1 L106.86973,52.9 L104.44486,54.3 L102.01999,52.9 L102.01999,50.1 L104.44486,48.7 M107.90896,49.5 L107.90896,53.5 L104.44486,55.5 M100.98076,53.5 M100.98076,49.5 M104.44486,47.5 M107.90896,49.5 M111.37306,59.5 L107.90896,61.5 L104.44486,59.5 M104.44486,55.5 M107.90896,53.5 L111.37306,55.5 L111.37306,59.5 M55.947437,40.872 L54.759247,40.185997 L54.759247,38.814003 L55.947437,38.128 L57.135628,38.814003 L57.135628,40.185997 L55.947437,40.872 M107.90897,41.5 M107.90897,37.5 L111.37307,35.5 L114.83717,37.5 L114.83717,41.5 L111.37307,43.5 M107.90897,41.5 M54.250023,38.52 L55.947437,37.54 L57.644848,38.52 L57.644848,40.48 L55.947437,41.46 L54.250023,40.48 L54.250023,38.52 M114.83717,41.5 L118.30127,43.5 L118.30127,47.5 L114.83717,49.5 L111.37307,47.5 M111.37307,43.5 M114.83717,41.5 M114.83717,37.5 L118.30127,35.5 L121.765366,37.5 L121.765366,41.5 L118.30127,43.5 M114.83717,41.5 M58.372307,38.1 L58.372307,40.9 L55.947437,42.3 L53.522564,40.9 L53.522564,38.1 L55.947437,36.7 L58.372307,38.1 M52.483337,53.5 M49.019238,55.5 L45.555138,53.5 L45.555138,49.5 L49.019238,47.5 M52.483337,49.5 M52.483337,53.5 M114.83717,48.3 L112.41231,46.9 L112.41231,44.1 L114.83717,42.7 L117.26204,44.1 L117.26204,46.9 L114.83717,48.3 M50.058464,46.9 L50.058464,44.1 L52.483337,42.7 L54.90821,44.1 L54.90821,46.9 L52.483337,48.3 L50.058464,46.9 M107.90897,49.5 M111.37307,47.5 M114.83717,49.5 L114.83717,53.5 L111.37307,55.5 M107.90897,53.5 M107.90897,49.5 M49.019238,37.54 L50.71665,38.52 L50.71665,40.48 L49.019238,41.46 L47.32183,40.48 L47.32183,38.52 L49.019238,37.54 M113.797935,50.1 L113.797935,52.9 L111.37307,54.3 L108.948204,52.9 L108.948204,50.1 L111.37307,48.7 L113.797935,50.1 M51.44411,40.9 L49.019238,42.3 L46.594368,40.9 L46.594368,38.1 L49.019238,36.7 L51.44411,38.1 L51.44411,40.9 M111.37307,53.46 L109.67566,52.48 L109.67566,50.52 L111.37307,49.54 L113.07048,50.52 L113.07048,52.48 L111.37307,53.46 M45.555138,41.5 L45.555138,37.5 L49.019238,35.5 L52.483337,37.5 M52.483337,41.5 M49.019238,43.5 L45.555138,41.5 L42.091034,43.5 L38.62693,41.5 L38.62693,37.5 L42.091034,35.5 L45.555138,37.5 M45.555138,41.5 M110.18489,50.814003 L111.37307,50.128 L112.56126,50.814003 L112.56126,52.185997 L111.37307,52.871998 L110.18489,52.185997 L110.18489,50.814003 M111.37307,50.5396 L112.204796,51.0198 L112.204796,51.9802 L111.37307,52.4604 L110.54134,51.9802 L110.54134,51.0198 L111.37307,50.5396 M49.01924,55.5 M49.01924,59.5 L45.555138,61.5 L42.091038,59.5 L42.091038,55.5 L45.555138,53.5 M49.01924,55.5 M118.30127,59.5 L114.83717,61.5 L111.37307,59.5 M111.37307,55.5 M114.83717,53.5 L118.30127,55.5 L118.30127,59.5 M118.30127,55.5 L121.765366,53.5 L125.22947,55.5 L125.22947,59.5 L121.765366,61.5 L118.30127,59.5 M42.091034,55.5 L38.62693,53.5 L38.62693,49.5 L42.091034,47.5 L45.555138,49.5 M45.555138,53.5 M42.091034,55.5 M42.091038,47.5 L42.091038,43.5 M45.555138,41.5 M49.01924,43.5 M49.01924,47.5 M45.555138,49.5 M42.091038,47.5 M38.626934,49.5 L35.162834,47.5 L35.162834,43.5 L38.626934,41.5 M42.091038,43.5 M42.091038,47.5 M112.41231,56.1 L114.83717,54.7 L117.26204,56.1 L117.26204,58.9 L114.83717,60.3 L112.41231,58.9 L112.41231,56.1 M121.765366,41.5 L125.22947,43.5 L125.22947,47.5 L121.765366,49.5 L118.30127,47.5 M118.30127,43.5 M121.765366,41.5 M121.765366,37.5 L125.22947,35.5 L128.69357,37.5 L128.69357,41.5 L125.22947,43.5 M121.765366,41.5 M42.091038,55.5 M42.091038,59.5 L38.626934,61.5 L35.162834,59.5 L35.162834,55.5 L38.626934,53.5 M42.091038,55.5 M38.62693,53.5 M35.16283,55.5 L31.698727,53.5 L31.698727,49.5 L35.16283,47.5 M38.62693,49.5 M38.62693,53.5 M118.30127,55.5 M114.83717,53.5 M114.83717,49.5 M118.30127,47.5 M121.765366,49.5 L121.765366,53.5 M118.30127,55.5 M36.202065,46.9 L36.202065,44.1 L38.626934,42.7 L41.051807,44.1 L41.051807,46.9 L38.626934,48.3 L36.202065,46.9 M115.8764,50.1 L118.30127,48.7 L120.726135,50.1 L120.726135,52.9 L118.30127,54.3 L115.8764,52.9 L115.8764,50.1 M35.16283,36.7 L37.5877,38.1 L37.5877,40.9 L35.16283,42.3 L32.737957,40.9 L32.737957,38.1 L35.16283,36.7 M124.19023,56.1 L124.19023,58.9 L121.765366,60.3 L119.3405,58.9 L119.3405,56.1 L121.765366,54.7 L124.19023,56.1 M38.62693,41.5 M35.16283,43.5 L31.698727,41.5 L31.698727,37.5 L35.16283,35.5 L38.62693,37.5 M38.62693,41.5 M128.69357,49.5 L125.22947,47.5 M125.22947,43.5 M128.69357,41.5 L132.15767,43.5 L132.15767,47.5 L128.69357,49.5 L128.69357,53.5 L125.22947,55.5 M121.765366,53.5 M121.765366,49.5 M125.22947,47.5 M128.69357,49.5 M28.234629,59.5 L28.234629,55.5 L31.69873,53.5 M35.162834,55.5 M35.162834,59.5 L31.69873,61.5 L28.234629,59.5 L24.770527,61.5 L21.306427,59.5 L21.306427,55.5 L24.770527,53.5 L28.234629,55.5 M28.234629,59.5 M122.8046,50.1 L125.22947,48.7 L127.654335,50.1 L127.654335,52.9 L125.22947,54.3 L122.8046,52.9 L122.8046,50.1 M28.234629,48.7 L30.6595,50.1 L30.6595,52.9 L28.234629,54.3 L25.809757,52.9 L25.809757,50.1 L28.234629,48.7 M132.15767,55.5 L132.15767,59.5 L128.69357,61.5 L125.22947,59.5 M125.22947,55.5 M128.69357,53.5 L132.15767,55.5 M31.69873,53.5 M28.234629,55.5 M24.770527,53.5 L24.770527,49.5 L28.234629,47.5 L31.69873,49.5 M31.69873,53.5 M132.15768,43.5 M128.69357,41.5 M128.69357,37.5 L132.15768,35.5 L135.62178,37.5 L135.62178,41.5 L132.15768,43.5 M135.62178,41.5 L139.08588,43.5 L139.08588,47.5 L135.62178,49.5 L132.15768,47.5 M132.15768,43.5 M28.234629,47.5 L28.234629,43.5 L31.69873,41.5 M35.162834,43.5 M35.162834,47.5 M31.69873,49.5 M28.234629,47.5 M24.770527,49.5 L21.306427,47.5 L21.306427,43.5 L24.770527,41.5 L28.234629,43.5 M28.234629,47.5 M129.73282,38.1 L132.15768,36.7 L134.58255,38.1 L134.58255,40.9 L132.15768,42.3 L129.73282,40.9 L129.73282,38.1 M28.234629,35.5 L31.69873,37.5 M31.69873,41.5 M28.234629,43.5 M24.770527,41.5 L24.770527,37.5 L28.234629,35.5 M133.85509,38.52 L133.85509,40.48 L132.15768,41.46 L130.46027,40.48 L130.46027,38.52 L132.15768,37.54 L133.85509,38.52 M24.770527,53.5 M21.306425,55.5 L17.842325,53.5 L17.842325,49.5 L21.306425,47.5 M24.770527,49.5 M24.770527,53.5 M132.15768,55.5 M128.69357,53.5 M128.69357,49.5 M132.15768,47.5 M135.62178,49.5 L135.62178,53.5 L132.15768,55.5 M135.62178,53.5 L139.08588,55.5 L139.08588,59.5 L135.62178,61.5 L132.15768,59.5 M132.15768,55.5 M17.842325,41.5 L17.842325,37.5 L21.306425,35.5 L24.770527,37.5 M24.770527,41.5 M21.306425,43.5 L17.842325,41.5 L14.378222,43.5 L10.914122,41.5 L10.914122,37.5 L14.378222,35.5 L17.842325,37.5 M17.842325,41.5 M21.306427,43.5 M21.306427,47.5 M17.842325,49.5 L14.378222,47.5 L14.378222,43.5 M17.842325,41.5 M133.19691,56.1 L135.62178,54.7 L138.04665,56.1 L138.04665,58.9 L135.62178,60.3 L133.19691,58.9 L133.19691,56.1 M135.62178,55.54 L137.31918,56.52 L137.31918,58.48 L135.62178,59.46 L133.92436,58.48 L133.92436,56.52 L135.62178,55.54 M21.306427,55.5 M21.306427,59.5 L17.842325,61.5 L14.378222,59.5 L14.378222,55.5 L17.842325,53.5 M21.306427,55.5 M136.80997,58.185997 L135.62178,58.871998 L134.4336,58.185997 L134.4336,56.814003 L135.62178,56.128002 L136.80997,56.814003 L136.80997,58.185997 M14.378222,55.5 L10.914122,53.5 L10.914122,49.5 L14.378222,47.5 M17.842325,49.5 M17.842325,53.5 M14.378222,55.5 M14.378222,59.5 L10.914122,61.5 L7.45002,59.5 L7.45002,55.5 L10.914122,53.5 M14.378222,55.5 M135.62178,41.5 M135.62178,37.5 L139.08588,35.5 L142.54997,37.5 L142.54997,41.5 L139.08588,43.5 M135.62178,41.5 M139.08588,43.5 M142.54997,41.5 L146.01407,43.5 L146.01407,47.5 L142.54997,49.5 L139.08588,47.5 M139.08588,43.5 M7.45002,47.5 L10.914122,49.5 M10.914122,53.5 M7.45002,55.5 L3.9859185,53.5 L3.9859185,49.5 L7.45002,47.5 L7.45002,43.5 L10.914122,41.5 M14.378222,43.5 M14.378222,47.5 M10.914122,49.5 M7.45002,47.5 M142.54997,49.5 L142.54997,53.5 L139.08588,55.5 M135.62178,53.5 M135.62178,49.5 M139.08588,47.5 M142.54997,49.5 M141.51074,52.9 L139.08588,54.3 L136.66101,52.9 L136.66101,50.1 L139.08588,48.7 L141.51074,50.1 L141.51074,52.9 M7.45002,43.5 L3.9859185,41.5 L3.9859185,37.5 L7.45002,35.5 L10.914122,37.5 M10.914122,41.5 M7.45002,43.5 M139.08588,59.5 M139.08588,55.5 M142.54997,53.5 L146.01407,55.5 L146.01407,59.5 L142.54997,61.5 L139.08588,59.5 M129.8664,98.2084 L129.4128,99.4 M129.8664,98.2084 L130.31999,99.4 M129.582,99.004 L130.15079,99.004 M130.6026,98.6062 L130.6026,99.4 M130.6026,98.833 L130.7736,98.662 L130.887,98.6062 L131.0562,98.6062 L131.1714,98.662 L131.2272,98.833 L131.2272,99.4 M131.7366,98.2084 L131.7366,99.1732 L131.79422,99.3433 L131.9058,99.4 L132.02101,99.4 M131.56741,98.6062 L131.96341,98.6062 M132.58621,98.6062 L132.47461,98.662 L132.3594,98.7772 L132.3036,98.946396 L132.3036,99.0598 L132.3594,99.229904 L132.47461,99.3433 L132.58621,99.4 L132.7572,99.4 L132.8706,99.3433 L132.98401,99.229904 L133.03981,99.0598 L133.03981,98.946396 L132.98401,98.7772 L132.8706,98.662 L132.7572,98.6062 L132.58621,98.6062 M133.4358,98.6062 L133.4358,99.4 M133.4358,98.833 L133.60681,98.662 L133.7202,98.6062 L133.8894,98.6062 L134.00461,98.662 L134.06041,98.833 L134.06041,99.4 M134.5122,98.2084 L134.5122,99.4 M134.5122,98.2084 L134.9658,99.4 M135.4194,98.2084 L134.9658,99.4 M135.4194,98.2084 L135.4194,99.4 M136.49762,98.6062 L136.49762,99.4 M136.49762,98.7772 L136.38422,98.662 L136.27081,98.6062 L136.09982,98.6062 L135.98822,98.662 L135.87302,98.7772 L135.81721,98.946396 L135.81721,99.0598 L135.87302,99.229904 L135.98822,99.3433 L136.09982,99.4 L136.27081,99.4 L136.38422,99.3433 L136.49762,99.229904 M136.94942,98.2084 L136.94942,99.4 M137.51822,98.6062 L136.94942,99.1732 M137.17622,98.946396 L137.57402,99.4 M137.85841,98.946396 L138.53882,98.946396 L138.53882,98.833 L138.483,98.7196 L138.42542,98.662 L138.31201,98.6062 L138.14102,98.6062 L138.02942,98.662 L137.91422,98.7772 L137.85841,98.946396 L137.85841,99.0598 L137.91422,99.229904 L138.02942,99.3433 L138.14102,99.4 L138.31201,99.4 L138.42542,99.3433 L138.53882,99.229904 M139.50362,98.7772 L139.44601,98.662 L139.27682,98.6062 L139.10582,98.6062 L138.93481,98.662 L138.87901,98.7772 L138.93481,98.8888 L139.05002,98.946396 L139.33261,99.004 L139.44601,99.0598 L139.50362,99.1732 L139.50362,99.229904 L139.44601,99.3433 L139.27682,99.4 L139.10582,99.4 L138.93481,99.3433 L138.87901,99.229904 M140.69522,98.4928 L140.6376,98.3794 L140.52422,98.266 L140.41081,98.2084 L140.184,98.2084 L140.07062,98.266 L139.95721,98.3794 L139.89961,98.4928 L139.84381,98.662 L139.84381,98.946396 L139.89961,99.1156 L139.95721,99.229904 L140.07062,99.3433 L140.184,99.4 L140.41081,99.4 L140.52422,99.3433 L140.6376,99.229904 L140.69522,99.1156 L140.69522,98.946396 M140.41081,98.946396 L140.69522,98.946396 M141.71582,98.6062 L141.71582,99.4 M141.71582,98.7772 L141.60242,98.662 L141.48901,98.6062 L141.31802,98.6062 L141.20642,98.662 L141.09122,98.7772 L141.03542,98.946396 L141.03542,99.0598 L141.09122,99.229904 L141.20642,99.3433 L141.31802,99.4 L141.48901,99.4 L141.60242,99.3433 L141.71582,99.229904 M142.16762,98.6062 L142.16762,99.4 M142.16762,98.833 L142.33862,98.662 L142.45201,98.6062 L142.62122,98.6062 L142.73642,98.662 L142.79222,98.833 L142.79222,99.4 M142.79222,98.833 L142.96323,98.662 L143.07481,98.6062 L143.24582,98.6062 L143.35922,98.662 L143.41682,98.833 L143.41682,99.4 M143.81282,98.946396 L144.49323,98.946396 L144.49323,98.833 L144.43741,98.7196 L144.37982,98.662 L144.26642,98.6062 L144.09543,98.6062 L143.98383,98.662 L143.86862,98.7772 L143.81282,98.946396 L143.81282,99.0598 L143.86862,99.229904 L143.98383,99.3433 L144.09543,99.4 L144.26642,99.4 L144.37982,99.3433 L144.49323,99.229904 M145.45802,98.7772 L145.40042,98.662 L145.23123,98.6062 L145.06023,98.6062 L144.88922,98.662 L144.83342,98.7772 L144.88922,98.8888 L145.00443,98.946396 L145.28702,99.004 L145.40042,99.0598 L145.45802,99.1732 L145.45802,99.229904 L145.40042,99.3433 L145.23123,99.4 L145.06023,99.4 L144.88922,99.3433 L144.83342,99.229904 M146.67842,98.2084 L146.50923,98.266 L146.39401,98.435196 L146.33823,98.7196 L146.33823,98.8888 L146.39401,99.1732 L146.50923,99.3433 L146.67842,99.4 L146.79182,99.4 L146.96281,99.3433 L147.07443,99.1732 L147.13202,98.8888 L147.13202,98.7196 L147.07443,98.435196 L146.96281,98.266 L146.79182,98.2084 L146.67842,98.2084 M147.58562,98.2084 L148.20842,98.2084 L147.87003,98.662 L148.03922,98.662 L148.15262,98.7196 L148.20842,98.7772 L148.26602,98.946396 L148.26602,99.0598 L148.20842,99.229904 L148.09682,99.3433 L147.92581,99.4 L147.75482,99.4 L147.58562,99.3433 L147.52802,99.286606 L147.47221,99.1732 M149.17322,98.2084 L148.60622,99.004 L149.45761,99.004 M149.17322,98.2084 L149.17322,99.4" fill="none" stroke="black" stroke-width="0.4"/>
</svg>