<svg height="100mm" units="mm" viewBox="0 0 150 100" width="150mm" xmlns="http://www.w3.org/2000/svg">
<path d="M62.87564,37.5 M83.66025,49.5 L80.19615,47.5 L80.19615,43.5 L83.66025,41.5 L87.124344,43.5 L87.124344,47.5 L83.66025,49.5 L83.66025,53.5 L80.19615,55.5 L76.73205,53.5 L76.73205,49.5 L80.19615,47.5 M83.66025,49.5 M76.73204,49.5 L73.267944,47.5 L73.267944,43.5 L76.73204,41.5 L80.196144,43.5 M80.196144,47.5 M76.73204,49.5 M76.73204,53.5 L73.267944,55.5 L69.80385,53.5 L69.80385,49.5 L73.267944,47.5 M76.73204,49.5 M66.339745,47.5 L66.339745,43.5 L69.80385,41.5 L73.267944,43.5 M73.267944,47.5 M69.80385,49.5 L66.339745,47.5 M62.87564,49.5 L66.33974,47.5 M69.80384,49.5 M69.80384,53.5 L66.33974,55.5 L62.87564,53.5 L62.87564,49.5 L59.41154,47.5 L59.41154,43.5 L62.87564,41.5 L66.33974,43.5 M66.33974,47.5 M62.87564,49.5 M87.12435,47.5 L90.588455,49.5 L90.588455,53.5 L87.12435,55.5 L83.660255,53.5 M83.660255,49.5 M87.12435,47.5 M90.588455,37.5 L90.588455,41.5 L87.12435,43.5 M83.660255,41.5 L83.660255,37.5 L87.12435,35.5 L90.588455,37.5 M66.33974,59.5 L62.87564,61.5 L59.41154,59.5 L59.41154,55.5 L62.87564,53.5 M66.33974,55.5 L66.33974,59.5 L69.80384,61.5 L69.80384,65.5 L66.33974,67.5 L62.87564,65.5 L62.87564,61.5 M66.33974,59.5 M80.19615,43.5 M76.73205,41.5 L76.73205,37.5 L80.19615,35.5 L83.66025,37.5 M83.66025,41.5 M80.19615,43.5 M69.80385,41.5 L69.80385,37.5 L73.267944,35.5 L76.73204,37.5 M76.73204,41.5 M73.267944,43.5 M69.80385,41.5 M66.339745,55.5 M69.80385,53.5 M73.267944,55.5 L73.267944,59.5 L69.80385,61.5 M66.339745,59.5 M66.339745,55.5 M66.33974,35.5 L69.80384,37.5 M69.80384,41.5 M66.33974,43.5 M62.87564,41.5 L62.87564,37.5 L66.33974,35.5 M62.87564,37.5 L59.41154,35.5 L59.41154,31.5 L62.87564,29.5 L66.33974,31.5 L66.33974,35.5 M80.196144,55.5 L80.196144,59.5 L76.73204,61.5 L73.267944,59.5 M73.267944,55.5 M76.73204,53.5 M80.196144,55.5 M87.124344,59.5 L83.66025,61.5 L80.19615,59.5 M80.19615,55.5 M83.66025,53.5 M87.124344,55.5 L87.124344,59.5 M83.66025,37.5 M80.19615,35.5 L80.19615,31.5 L83.66025,29.5 L87.124344,31.5 L87.124344,35.5 M83.66025,37.5 M69.80385,65.5 M69.80385,61.5 M73.267944,59.5 M76.73204,61.5 L76.73204,65.5 L73.267944,67.5 L69.80385,65.5 M73.267944,31.5 L76.73204,29.5 L80.196144,31.5 M80.196144,35.5 M76.73204,37.5 M73.267944,35.5 L73.267944,31.5 M73.267944,35.5 M69.80385,37.5 M66.339745,35.5 M66.339745,31.5 L69.80385,29.5 L73.267944,31.5 M80.19615,59.5 M83.66025,61.5 L83.66025,65.5 L80.19615,67.5 L76.73205,65.5 M76.73205,61.5 M80.19615,59.5 M90.588455,61.5 L90.588455,65.5 L87.12435,67.5 L83.660255,65.5 M83.660255,61.5 M87.12435,59.5 L90.588455,61.5 M129.8664,98.2084 L129.4128,99.4 M129.8664,98.2084 L130.31999,99.4 M129.582,99.004 L130.15079,99.004 M130.6026,98.6062 L130.6026,99.4 M130.6026,98.833 L130.7736,98.662 L130.887,98.6062 L131.0562,98.6062 L131.1714,98.662 L131.2272,98.833 L131.2272,99.4 M131.7366,98.2084 L131.7366,99.1732 L131.79422,99.3433 L131.9058,99.4 L132.02101,99.4 M131.56741,98.6062 L131.96341,98.6062 M132.58621,98.6062 L132.47461,98.662 L132.3594,98.7772 L132.3036,98.946396 L132.3036,99.0598 L132.3594,99.229904 L132.47461,99.3433 L132.58621,99.4 L132.7572,99.4 L132.8706,99.3433 L132.98401,99.229904 L133.03981,99.0598 L133.03981,98.946396 L132.98401,98.7772 L132.8706,98.662 L132.7572,98.6062 L132.58621,98.6062 M133.4358,98.6062 L133.4358,99.4 M133.4358,98.833 L133.60681,98.662 L133.7202,98.6062 L133.8894,98.6062 L134.00461,98.662 L134.06041,98.833 L134.06041,99.4 M134.5122,98.2084 L134.5122,99.4 M134.5122,98.2084 L134.9658,99.4 M135.4194,98.2084 L134.9658,99.4 M135.4194,98.2084 L135.4194,99.4 M136.49762,98.6062 L136.49762,99.4 M136.49762,98.7772 L136.38422,98.662 L136.27081,98.6062 L136.09982,98.6062 L135.98822,98.662 L135.87302,98.7772 L135.81721,98.946396 L135.81721,99.0598 L135.87302,99.229904 L135.98822,99.3433 L136.09982,99.4 L136.27081,99.4 L136.38422,99.3433 L136.49762,99.229904 M136.94942,98.2084 L136.94942,99.4 M137.51822,98.6062 L136.94942,99.1732 M137.17622,98.946396 L137.57402,99.4 M137.85841,98.946396 L138.53882,98.946396 L138.53882,98.833 L138.483,98.7196 L138.42542,98.662 L138.31201,98.6062 L138.14102,98.6062 L138.02942,98.662 L137.91422,98.7772 L137.85841,98.946396 L137.85841,99.0598 L137.91422,99.229904 L138.02942,99.3433 L138.14102,99.4 L138.31201,99.4 L138.42542,99.3433 L138.53882,99.229904 M139.50362,98.7772 L139.44601,98.662 L139.27682,98.6062 L139.10582,98.6062 L138.93481,98.662 L138.87901,98.7772 L138.93481,98.8888 L139.05002,98.946396 L139.33261,99.004 L139.44601,99.0598 L139.50362,99.1732 L139.50362,99.229904 L139.44601,99.3433 L139.27682,99.4 L139.10582,99.4 L138.93481,99.3433 L138.87901,99.229904 M140.69522,98.4928 L140.6376,98.3794 L140.52422,98.266 L140.41081,98.2084 L140.184,98.2084 L140.07062,98.266 L139.95721,98.3794 L139.89961,98.4928 L139.84381,98.662 L139.84381,98.946396 L139.89961,99.1156 L139.95721,99.229904 L140.07062,99.3433 L140.184,99.4 L140.41081,99.4 L140.52422,99.3433 L140.6376,99.229904 L140.69522,99.1156 L140.69522,98.946396 M140.41081,98.946396 L140.69522,98.946396 M141.71582,98.6062 L141.71582,99.4 M141.71582,98.7772 L141.60242,98.662 L141.48901,98.6062 L141.31802,98.6062 L141.20642,98.662 L141.09122,98.7772 L141.03542,98.946396 L141.03542,99.0598 L141.09122,99.229904 L141.20642,99.3433 L141.31802,99.4 L141.48901,99.4 L141.60242,99.3433 L141.71582,99.229904 M142.16762,98.6062 L142.16762,99.4 M142.16762,98.833 L142.33862,98.662 L142.45201,98.6062 L142.62122,98.6062 L142.73642,98.662 L142.79222,98.833 L142.79222,99.4 M142.79222,98.833 L142.96323,98.662 L143.07481,98.6062 L143.24582,98.6062 L143.35922,98.662 L143.41682,98.833 L143.41682,99.4 M143.81282,98.946396 L144.49323,98.946396 L144.49323,98.833 L144.43741,98.7196 L144.37982,98.662 L144.26642,98.6062 L144.09543,98.6062 L143.98383,98.662 L143.86862,98.7772 L143.81282,98.946396 L143.81282,99.0598 L143.86862,99.229904 L143.98383,99.3433 L144.09543,99.4 L144.26642,99.4 L144.37982,99.3433 L144.49323,99.229904 M145.45802,98.7772 L145.40042,98.662 L145.23123,98.6062 L145.06023,98.6062 L144.88922,98.662 L144.83342,98.7772 L144.88922,98.8888 L145.00443,98.946396 L145.28702,99.004 L145.40042,99.0598 L145.45802,99.1732 L145.45802,99.229904 L145.40042,99.3433 L145.23123,99.4 L145.06023,99.4 L144.88922,99.3433 L144.83342,99.229904 M146.67842,98.2084 L146.50923,98.266 L146.39401,98.435196 L146.33823,98.7196 L146.33823,98.8888 L146.39401,99.1732 L146.50923,99.3433 L146.67842,99.4 L146.79182,99.4 L146.96281,99.3433 L147.07443,99.1732 L147.13202,98.8888 L147.13202,98.7196 L147.07443,98.435196 L146.96281,98.266 L146.79182,98.2084 L146.67842,98.2084 M148.03922,98.2084 L147.47221,99.004 L148.32362,99.004 M148.03922,98.2084 L148.03922,99.4 M148.94641,98.2084 L148.77722,98.266 L148.66202,98.435196 L148.60622,98.7196 L148.60622,98.8888 L148.66202,99.1732 L148.77722,99.3433 L148.94641,99.4 L149.05981,99.4 L149.2308,99.3433 L149.34242,99.1732 L149.40001,98.8888 L149.40001,98.7196 L149.34242,98.435196 L149.2308,98.266 L149.05981,98.2084 L148.94641,98.2084 M62.509644,31.514002 L62.227642,31.61 L62.035637,31.892002 L61.94264,32.366 L61.94264,32.648003 L62.035637,33.122 L62.227642,33.4055 L62.509644,33.5 L62.69864,33.5 L62.983643,33.4055 L63.16964,33.122 L63.265644,32.648003 L63.265644,32.366 L63.16964,31.892002 L62.983643,31.61 L62.69864,31.514002 L62.509644,31.514002 M69.155846,31.892002 L69.34184,31.799 L69.62685,31.514002 L69.62685,33.5 M75.892044,31.988 L75.892044,31.892002 L75.988045,31.706 L76.084045,31.61 L76.27004,31.514002 L76.64804,31.514002 L76.84004,31.61 L76.933044,31.706 L77.02605,31.892002 L77.02605,32.084 L76.933044,32.27 L76.74404,32.555 L75.79904,33.5 L77.12205,33.5 M82.916245,31.514002 L83.95425,31.514002 L83.39024,32.27 L83.67225,32.27 L83.86125,32.366 L83.95425,32.461998 L84.05025,32.744 L84.05025,32.933 L83.95425,33.2165 L83.76825,33.4055 L83.483246,33.5 L83.19825,33.5 L82.916245,33.4055 L82.820244,33.310997 L82.72725,33.122 M66.35174,37.514 L65.40674,38.84 L66.82574,38.84 M66.35174,37.514 L66.35174,39.5 M73.46895,37.514 L72.52394,37.514 L72.42794,38.366 L72.52394,38.27 L72.80595,38.177 L73.09094,38.177 L73.375946,38.27 L73.56194,38.461998 L73.65794,38.744 L73.65794,38.933 L73.56194,39.2165 L73.375946,39.4055 L73.09094,39.5 L72.80595,39.5 L72.52394,39.4055 L72.42794,39.310997 L72.334946,39.122 M80.49015,37.799 L80.39715,37.61 L80.112144,37.514 L79.92615,37.514 L79.64115,37.61 L79.45215,37.892002 L79.35615,38.366 L79.35615,38.84 L79.45215,39.2165 L79.64115,39.4055 L79.92615,39.5 L80.01915,39.5 L80.30415,39.4055 L80.49015,39.2165 L80.58615,38.933 L80.58615,38.84 L80.49015,38.555 L80.30415,38.366 L80.01915,38.27 L79.92615,38.27 L79.64115,38.366 L79.45215,38.555 L79.35615,38.84 M87.51436,37.514 L86.56935,39.5 M86.19135,37.514 L87.51436,37.514 M62.413643,43.514 L62.13164,43.61 L62.035637,43.799 L62.035637,43.988 L62.13164,44.177 L62.32064,44.27 L62.69864,44.366 L62.983643,44.461998 L63.16964,44.648003 L63.265644,44.84 L63.265644,45.122 L63.16964,45.310997 L63.07664,45.4055 L62.791637,45.5 L62.413643,45.5 L62.13164,45.4055 L62.035637,45.310997 L61.94264,45.122 L61.94264,44.84 L62.035637,44.648003 L62.227642,44.461998 L62.509644,44.366 L62.88764,44.27 L63.07664,44.177 L63.16964,43.988 L63.16964,43.799 L63.07664,43.61 L62.791637,43.514 L62.413643,43.514 M70.09785,44.177 L70.004845,44.461998 L69.81584,44.648003 L69.533844,44.744 L69.43785,44.744 L69.155846,44.648003 L68.963844,44.461998 L68.87084,44.177 L68.87084,44.084 L68.963844,43.799 L69.155846,43.61 L69.43785,43.514 L69.533844,43.514 L69.81584,43.61 L70.004845,43.799 L70.09785,44.177 L70.09785,44.648003 L70.004845,45.122 L69.81584,45.4055 L69.533844,45.5 L69.34184,45.5 L69.059845,45.4055 L68.963844,45.2165 M76.084045,43.892002 L76.27004,43.799 L76.55504,43.514 L76.55504,45.5 M78.25605,43.514 L77.974045,43.61 L77.78204,43.892002 L77.68904,44.366 L77.68904,44.648003 L77.78204,45.122 L77.974045,45.4055 L78.25605,45.5 L78.445045,45.5 L78.73005,45.4055 L78.916046,45.122 L79.01205,44.648003 L79.01205,44.366 L78.916046,43.892002 L78.73005,43.61 L78.445045,43.514 L78.25605,43.514 M83.01225,43.892002 L83.19825,43.799 L83.483246,43.514 L83.483246,45.5 M84.90225,43.892002 L85.08825,43.799 L85.373245,43.514 L85.373245,45.5 M65.69174,49.892002 L65.87774,49.799 L66.162735,49.514 L66.162735,51.5 M67.38974,49.988 L67.38974,49.892002 L67.48574,49.706 L67.58174,49.61 L67.767746,49.514 L68.14574,49.514 L68.337746,49.61 L68.43074,49.706 L68.52374,49.892002 L68.52374,50.084 L68.43074,50.27 L68.241745,50.555 L67.29674,51.5 L68.61974,51.5 M72.61995,49.892002 L72.80595,49.799 L73.09094,49.514 L73.09094,51.5 M74.41395,49.514 L75.45195,49.514 L74.88795,50.27 L75.169945,50.27 L75.35895,50.366 L75.45195,50.461998 L75.54795,50.744 L75.54795,50.933 L75.45195,51.2165 L75.265945,51.4055 L74.98094,51.5 L74.695946,51.5 L74.41395,51.4055 L74.31795,51.310997 L74.224945,51.122 M79.54815,49.892002 L79.734146,49.799 L80.01915,49.514 L80.01915,51.5 M82.09815,49.514 L81.15315,50.84 L82.57215,50.84 M82.09815,49.514 L82.09815,51.5 M86.47636,49.892002 L86.66235,49.799 L86.94735,49.514 L86.94735,51.5 M89.215355,49.514 L88.270355,49.514 L88.174355,50.366 L88.270355,50.27 L88.55235,50.177 L88.83736,50.177 L89.12236,50.27 L89.30836,50.461998 L89.40436,50.744 L89.40436,50.933 L89.30836,51.2165 L89.12236,51.4055 L88.83736,51.5 L88.55235,51.5 L88.270355,51.4055 L88.174355,51.310997 L88.08135,51.122 M62.227642,55.892 L62.413643,55.799 L62.69864,55.514 L62.69864,57.5 M65.05965,55.799 L64.966644,55.609997 L64.68164,55.514 L64.49564,55.514 L64.21065,55.609997 L64.021645,55.892 L63.92564,56.365997 L63.92564,56.840004 L64.021645,57.2165 L64.21065,57.4055 L64.49564,57.5 L64.58864,57.5 L64.87364,57.4055 L65.05965,57.2165 L65.15565,56.933002 L65.15565,56.840004 L65.05965,56.555 L64.87364,56.365997 L64.58864,56.27 L64.49564,56.27 L64.21065,56.365997 L64.021645,56.555 L63.92564,56.840004 M69.155846,55.892 L69.34184,55.799 L69.62685,55.514 L69.62685,57.5 M72.08385,55.514 L71.13885,57.5 M70.76085,55.514 L72.08385,55.514 M76.084045,55.892 L76.27004,55.799 L76.55504,55.514 L76.55504,57.5 M78.16005,55.514 L77.878044,55.609997 L77.78204,55.799 L77.78204,55.988 L77.878044,56.177002 L78.06705,56.27 L78.445045,56.365997 L78.73005,56.461998 L78.916046,56.648 L79.01205,56.840004 L79.01205,57.121998 L78.916046,57.310997 L78.823044,57.4055 L78.53804,57.5 L78.16005,57.5 L77.878044,57.4055 L77.78204,57.310997 L77.68904,57.121998 L77.68904,56.840004 L77.78204,56.648 L77.974045,56.461998 L78.25605,56.365997 L78.63405,56.27 L78.823044,56.177002 L78.916046,55.988 L78.916046,55.799 L78.823044,55.609997 L78.53804,55.514 L78.16005,55.514 M83.01225,55.892 L83.19825,55.799 L83.483246,55.514 L83.483246,57.5 M85.84425,56.177002 L85.75125,56.461998 L85.56225,56.648 L85.28025,56.744 L85.18425,56.744 L84.90225,56.648 L84.71025,56.461998 L84.61725,56.177002 L84.61725,56.084003 L84.71025,55.799 L84.90225,55.609997 L85.18425,55.514 L85.28025,55.514 L85.56225,55.609997 L85.75125,55.799 L85.84425,56.177002 L85.84425,56.648 L85.75125,57.121998 L85.56225,57.4055 L85.28025,57.5 L85.08825,57.5 L84.80625,57.4055 L84.71025,57.2165 M65.49974,61.988 L65.49974,61.892 L65.59574,61.706 L65.69174,61.609997 L65.87774,61.514 L66.25574,61.514 L66.44774,61.609997 L66.54074,61.706 L66.63374,61.892 L66.63374,62.084003 L66.54074,62.27 L66.35174,62.555 L65.40674,63.5 L66.729744,63.5 M67.86375,61.514 L67.58174,61.609997 L67.38974,61.892 L67.29674,62.365997 L67.29674,62.648 L67.38974,63.121998 L67.58174,63.4055 L67.86375,63.5 L68.05274,63.5 L68.337746,63.4055 L68.52374,63.121998 L68.61974,62.648 L68.61974,62.365997 L68.52374,61.892 L68.337746,61.609997 L68.05274,61.514 L67.86375,61.514 M72.42794,61.988 L72.42794,61.892 L72.52394,61.706 L72.61995,61.609997 L72.80595,61.514 L73.183945,61.514 L73.375946,61.609997 L73.46895,61.706 L73.56194,61.892 L73.56194,62.084003 L73.46895,62.27 L73.279945,62.555 L72.334946,63.5 L73.65794,63.5 M74.50995,61.892 L74.695946,61.799 L74.98094,61.514 L74.98094,63.5 M79.35615,61.988 L79.35615,61.892 L79.45215,61.706 L79.54815,61.609997 L79.734146,61.514 L80.112144,61.514 L80.30415,61.609997 L80.39715,61.706 L80.49015,61.892 L80.49015,62.084003 L80.39715,62.27 L80.208145,62.555 L79.263145,63.5 L80.58615,63.5 M81.24615,61.988 L81.24615,61.892 L81.34215,61.706 L81.438156,61.609997 L81.62415,61.514 L82.00215,61.514 L82.19415,61.609997 L82.287155,61.706 L82.38015,61.892 L82.38015,62.084003 L82.287155,62.27 L82.09815,62.555 L81.15315,63.5 L82.47615,63.5 M86.28435,61.988 L86.28435,61.892 L86.380356,61.706 L86.47636,61.609997 L86.66235,61.514 L87.04035,61.514 L87.23235,61.609997 L87.325356,61.706 L87.41835,61.892 L87.41835,62.084003 L87.325356,62.27 L87.13635,62.555 L86.19135,63.5 L87.51436,63.5 M88.270355,61.514 L89.30836,61.514 L88.744354,62.27 L89.02635,62.27 L89.215355,62.365997 L89.30836,62.461998 L89.40436,62.744 L89.40436,62.933002 L89.30836,63.2165 L89.12236,63.4055 L88.83736,63.5 L88.55235,63.5 L88.270355,63.4055 L88.174355,63.310997 L88.08135,63.121998" fill="none" stroke="black" stroke-width="0.4"/>
</svg>