<svg height="100mm" units="mm" viewBox="0 0 150 100" width="150mm" xmlns="http://www.w3.org/2000/svg">
<path d="M55.601032,14 M117.95486,16.4 L119.3405,14 M90.24205,83.6 L87.470764,83.6 M22.345655,18.8 L19.574375,18.8 M7.1036096,83.6 L9.874891,83.6 M62.52923,35.6 L63.914875,33.2 M113.797935,42.8 L116.569214,42.8 M37.587704,74 L40.358986,74 M73.61436,40.4 L75,38 M127.65434,23.6 L126.2687,21.2 M19.574375,62 L18.188734,59.6 M61.143593,71.6 L63.914875,71.6 M30.6595,52.4 L29.27386,54.8 M40.358986,26 L41.744625,23.6 M79.15692,45.2 L80.54256,47.6 M112.41231,54.8 L113.797935,57.2 M63.914875,52.4 L61.143593,52.4 M48.67283,50 L47.28719,47.6 M93.01332,30.8 L90.24205,30.8 M52.82975,28.4 L51.0977,28.4 L50.675514,28.34375 L50.448177,28.175 L50.415703,27.89375 L51.44411,26 M55.601032,33.2 L56.467052,31.7 L56.726868,31.3625 L56.98667,31.25 L57.24647,31.3625 L58.372314,33.2 M45.901546,35.6 L45.035522,34.1 L44.775715,33.7625 L44.515907,33.65 L44.2561,33.7625 L43.13027,35.6 M75,71.6 L76.732056,71.6 L77.15424,71.54375 L77.38158,71.375 L77.41405,71.09375 L76.385635,69.2 M5.717969,33.2 L6.5839944,31.7 L6.7788496,31.25 L6.843802,30.8 L6.7788496,30.35 L5.717969,28.4 M106.869736,78.8 L105.137695,78.8 L104.65055,78.85625 L104.22837,79.025 L103.87113,79.30625 L102.712814,81.2 M26.502579,50 L24.770527,50 L24.25091,50 L23.731297,50 L23.211681,50 L20.960014,50 M52.82975,47.6 L54.561806,47.6 L54.98399,47.54375 L55.211323,47.375 L55.243793,47.09375 L54.215385,45.2 M112.41231,30.8 L110.68025,30.8 L110.25806,30.85625 L110.03074,31.025 L109.99825,31.30625 L111.02666,33.2 M84.69948,50 L83.83346,51.5 L83.671074,51.89375 L83.70355,52.175 L83.93089,52.34375 L86.08513,52.4 M27.88822,66.8 L27.022192,65.3 L26.729908,64.90625 L26.372675,64.625 L25.950489,64.45625 L23.731297,64.4 M33.43078,33.2 L32.564754,31.7 L32.3699,31.25 L32.30495,30.8 L32.3699,30.35 L33.43078,28.4 M119.3405,81.2 L120.20653,82.7 L120.36891,83.09375 L120.336426,83.375 L120.10911,83.54375 L117.95486,83.6 M62.52923,50 L60.79718,50 L60.374992,49.94375 L60.147663,49.775 L60.115185,49.49375 L61.143593,47.6 M54.215385,54.8 L53.349365,53.3 L53.154503,52.85 L53.089558,52.4 L53.154503,51.95 L54.215385,50 M141.51076,47.6 L142.37679,46.1 L142.53915,45.70625 L142.50668,45.425 L142.27934,45.25625 L140.1251,45.2 M51.44411,74 L49.71206,74 L49.192444,74 L48.67283,74 L48.153217,74 L45.901546,74 M12.646173,16.4 L13.5121975,14.9 L13.674578,14.50625 L13.6421,14.225 L13.414769,14.05625 L11.260531,14 M76.385635,83.6 L77.25166,82.1 L77.511475,81.65 L77.771286,81.2 L78.03109,80.75 L79.15692,78.8 M56.98667,69.2 L55.254616,69.2 L54.767475,69.25625 L54.345287,69.425 L53.988056,69.70625 L52.82975,71.6 M16.803095,42.8 L17.669119,41.3 L17.961403,40.90625 L18.318638,40.625 L18.740826,40.45625 L20.960014,40.4 M88.85641,47.6 L87.99038,46.1 L87.73057,45.7625 L87.470764,45.65 L87.21096,45.7625 L86.08513,47.6 M129.04,83.6 L129.90602,82.1 L130.16582,81.7625 L130.42563,81.65 L130.68542,81.7625 L131.29166,82.7 L131.55147,83.0375 L131.81126,83.15 L132.07108,83.0375 L133.19691,81.2 M137.35384,64.4 L139.08589,64.4 L139.6055,64.4 L140.1251,64.4 L140.64473,64.4 L141.85716,64.4 L142.27934,64.34375 L142.50668,64.175 L142.53915,63.89375 L141.51076,62 M9.874891,35.6 L10.740916,37.1 L10.935773,37.55 L11.000724,38 L10.935773,38.45 L10.394506,39.5 L10.232126,39.89375 L10.264603,40.175 L10.491934,40.34375 L12.646173,40.4 M73.61436,26 L72.74833,27.5 L72.553474,27.95 L72.488525,28.4 L72.553474,28.85 L73.09474,29.9 L73.2896,30.35 L73.354546,30.8 L73.2896,31.25 L72.228714,33.2 M102.712814,14 L100.98076,14 L100.55858,14.05625 L100.33124,14.225 L100.29876,14.50625 L100.807556,15.5 L101.06736,15.95 L101.32716,16.4 L101.586975,16.85 L102.712814,18.8 M86.08513,62 L87.81718,62 L88.30431,61.94375 L88.7265,61.775 L89.08374,61.49375 L89.722435,60.5 L89.98224,60.1625 L90.24205,60.05 L90.501854,60.1625 L91.627686,62 M45.901546,21.2 L46.76757,19.7 L46.929955,19.30625 L46.897476,19.025 L46.670147,18.85625 L45.555138,18.8 L45.132946,18.74375 L44.905617,18.575 L44.873142,18.29375 L45.901546,16.4 M36.202065,28.4 L35.336037,29.9 L35.141182,30.35 L35.076225,30.8 L35.141182,31.25 L35.682446,32.3 L35.942253,32.6375 L36.202065,32.75 L36.461872,32.6375 L37.587704,30.8 M26.502579,30.8 L27.368603,32.3 L27.660889,32.69375 L28.018122,32.975 L28.440308,33.14375 L29.62027,33.2 L30.042456,33.14375 L30.26979,32.975 L30.302265,32.69375 L29.27386,30.8 M86.08513,23.6 L86.95115,25.1 L87.11353,25.49375 L87.081055,25.775 L86.853714,25.94375 L85.73871,26 L85.25157,25.94375 L84.829384,25.775 L84.47215,25.49375 L83.31384,23.6 M106.869736,59.6 L105.137695,59.6 L104.65055,59.65625 L104.22837,59.825 L103.87113,60.10625 L103.23244,61.1 L102.97262,61.55 L102.712814,62 L102.45302,62.45 L101.32716,64.4 M142.8964,78.8 L141.16434,78.8 L140.74216,78.74375 L140.51482,78.575 L140.48235,78.29375 L140.99113,77.3 L141.25095,76.85 L141.51076,76.4 L141.77055,75.95 L142.8964,74 M77.771286,47.6 L76.03923,47.6 L75.61705,47.65625 L75.38971,47.825 L75.35723,48.10625 L75.86603,49.1 L76.028404,49.49375 L75.995926,49.775 L75.7686,49.94375 L74.65359,50 L74.16645,49.94375 L73.74426,49.775 L73.387024,49.49375 L72.228714,47.6 M54.215385,83.6 L52.483337,83.6 L51.963722,83.6 L51.44411,83.6 L50.9245,83.6 L49.71206,83.6 L49.192444,83.6 L48.67283,83.6 L48.153217,83.6 L46.940777,83.6 L46.518593,83.54375 L46.291256,83.375 L46.25878,83.09375 L47.28719,81.2 M84.69948,64.4 L86.43153,64.4 L86.95115,64.4 L87.470764,64.4 L87.99038,64.4 L89.20282,64.4 L89.62501,64.45625 L89.85234,64.625 L89.88481,64.90625 L89.37602,65.9 L89.21364,66.29375 L89.24612,66.575 L89.47345,66.74375 L91.627686,66.8 M34.81642,83.6 L33.08437,83.6 L32.66218,83.54375 L32.434853,83.375 L32.402374,83.09375 L32.911167,82.1 L33.170975,81.65 L33.43078,81.2 L33.69059,80.75 L34.296806,79.7 L34.556618,79.3625 L34.81642,79.25 L35.076225,79.3625 L36.202065,81.2 M65.300514,26 L63.56846,26 L63.081318,26.05625 L62.65913,26.225 L62.3019,26.50625 L61.663208,27.5 L61.370922,27.89375 L61.013683,28.175 L60.591503,28.34375 L59.41154,28.4 L58.891926,28.4 L58.372314,28.4 L57.8527,28.4 L55.601032,28.4 M130.42563,76.4 L129.5596,74.9 L129.36475,74.45 L129.2998,74 L129.36475,73.55 L129.90602,72.5 L130.16582,72.1625 L130.42563,72.05 L130.68542,72.1625 L131.29166,73.1 L131.55147,73.55 L131.81126,74 L132.07108,74.45 L132.67729,75.5 L132.9371,75.8375 L133.19691,75.95 L133.45671,75.8375 L134.58255,74 M37.587704,21.2 L38.453728,22.7 L38.71354,23.0375 L38.973343,23.15 L39.233147,23.0375 L39.839367,22.1 L40.03422,21.65 L40.099174,21.2 L40.03422,20.75 L39.492958,19.7 L39.200672,19.30625 L38.843437,19.025 L38.421253,18.85625 L37.24129,18.8 L36.75415,18.85625 L36.331963,19.025 L35.97473,19.30625 L34.81642,21.2 M105.48409,28.4 L104.61808,26.9 L104.35826,26.45 L104.098465,26 L103.83866,25.55 L103.23244,24.5 L103.07005,24.10625 L103.10254,23.825 L103.32986,23.65625 L104.44487,23.6 L104.93201,23.65625 L105.35419,23.825 L105.711426,24.10625 L106.35012,25.1 L106.60994,25.4375 L106.869736,25.55 L107.12954,25.4375 L107.735756,24.5 L107.99557,24.1625 L108.25537,24.05 L108.515175,24.1625 L109.641014,26 M30.6595,66.8 L29.793476,65.3 L29.598621,64.85 L29.533667,64.4 L29.598621,63.95 L30.139887,62.9 L30.334742,62.45 L30.399694,62 L30.334742,61.55 L29.793476,60.5 L29.533667,60.1625 L29.27386,60.05 L29.014057,60.1625 L28.407837,61.1 L28.115551,61.49375 L27.758316,61.775 L27.33613,61.94375 L26.156168,62 L25.733978,61.94375 L25.506649,61.775 L25.474173,61.49375 L26.502579,59.6 M37.587704,54.8 L38.453728,53.3 L38.71354,52.85 L38.973343,52.4 L39.233147,51.95 L39.839367,50.9 L40.099174,50.5625 L40.358986,50.45 L40.618793,50.5625 L41.225014,51.5 L41.41987,51.95 L41.48482,52.4 L41.41987,52.85 L40.8786,53.9 L40.71622,54.29375 L40.748695,54.575 L40.976025,54.74375 L42.091038,54.8 L42.57818,54.74375 L43.000362,54.575 L43.357597,54.29375 L44.515907,52.4 M116.569214,28.4 L115.703186,26.9 L115.54082,26.50625 L115.57329,26.225 L115.80062,26.05625 L116.91563,26 L117.43526,26 L117.95486,26 L118.474464,26 L119.68691,26 L120.10911,26.05625 L120.336426,26.225 L120.36891,26.50625 L119.86012,27.5 L119.66526,27.95 L119.60032,28.4 L119.66526,28.85 L120.20653,29.9 L120.40139,30.35 L120.46633,30.8 L120.40139,31.25 L119.3405,33.2 M101.32716,54.8 L100.46114,56.3 L100.29876,56.69375 L100.33124,56.975 L100.55858,57.14375 L101.673584,57.2 L102.09577,57.25625 L102.323105,57.425 L102.355576,57.70625 L101.84679,58.7 L101.586975,59.15 L101.32716,59.6 L101.06736,60.05 L100.46114,61.1 L100.20133,61.4375 L99.94153,61.55 L99.681725,61.4375 L99.0755,60.5 L98.8157,60.1625 L98.55589,60.05 L98.29608,60.1625 L97.17025,62 M117.95486,30.8 L117.08883,32.3 L116.79655,32.69375 L116.43931,32.975 L116.01713,33.14375 L114.83716,33.2 L114.35002,33.25625 L113.92784,33.425 L113.5706,33.70625 L112.93192,34.7 L112.76955,35.09375 L112.802025,35.375 L113.02934,35.54375 L114.14436,35.6 L114.63149,35.65625 L115.05367,35.825 L115.41091,36.10625 L116.0496,37.1 L116.24446,37.55 L116.3094,38 L116.24446,38.45 L115.703186,39.5 L115.44338,39.8375 L115.18358,39.95 L114.92378,39.8375 L113.797935,38 M75,28.4 L76.732056,28.4 L77.15424,28.45625 L77.38158,28.625 L77.41405,28.90625 L76.90526,29.9 L76.7104,30.35 L76.64545,30.8 L76.7104,31.25 L77.25166,32.3 L77.511475,32.6375 L77.771286,32.75 L78.03109,32.6375 L78.63731,31.7 L78.92959,31.30625 L79.28683,31.025 L79.70901,30.85625 L80.88897,30.8 L81.408585,30.8 L81.9282,30.8 L82.447815,30.8 L83.660255,30.8 L84.14739,30.85625 L84.56958,31.025 L84.92682,31.30625 L86.08513,33.2 M30.6595,57.2 L28.927448,57.2 L28.407831,57.2 L27.88822,57.2 L27.368607,57.2 L26.156168,57.2 L25.669027,57.25625 L25.246841,57.425 L24.889606,57.70625 L24.250912,58.7 L23.991102,59.15 L23.731297,59.6 L23.47149,60.05 L22.86527,61.1 L22.605463,61.4375 L22.345655,61.55 L22.08585,61.4375 L21.47963,60.5 L21.219822,60.05 L20.960014,59.6 L20.700207,59.15 L20.093988,58.1 L19.931608,57.70625 L19.964085,57.425 L20.191418,57.25625 L22.345655,57.2 M59.757954,59.6 L58.0259,59.6 L57.603718,59.54375 L57.37638,59.375 L57.343903,59.09375 L57.8527,58.1 L58.14498,57.70625 L58.50222,57.425 L58.9244,57.25625 L60.104362,57.2 L60.591503,57.25625 L61.013683,57.425 L61.370922,57.70625 L62.00962,58.7 L62.204475,59.15 L62.26942,59.6 L62.204475,60.05 L61.663208,61.1 L61.403393,61.55 L61.143593,62 L60.88379,62.45 L60.277565,63.5 L60.01776,63.8375 L59.757954,63.95 L59.498146,63.8375 L58.372314,62 M97.17025,81.2 L98.9023,81.2 L99.324486,81.14375 L99.55182,80.975 L99.5843,80.69375 L99.0755,79.7 L98.913124,79.30625 L98.9456,79.025 L99.17293,78.85625 L100.28794,78.8 L100.77508,78.74375 L101.197266,78.575 L101.554504,78.29375 L102.1932,77.3 L102.38806,76.85 L102.453,76.4 L102.38806,75.95 L101.84679,74.9 L101.6844,74.50625 L101.71688,74.225 L101.944214,74.05625 L103.05923,74 L103.54637,74.05625 L103.96855,74.225 L104.32579,74.50625 L104.96449,75.5 L105.22429,75.8375 L105.48409,75.95 L105.7439,75.8375 L106.869736,74 M116.569214,81.2 L117.43524,79.7 L117.69505,79.25 L117.95486,78.8 L118.21466,78.35 L118.820885,77.3 L118.98326,76.90625 L118.95078,76.625 L118.723465,76.45625 L117.608444,76.4 L117.18626,76.34375 L116.95894,76.175 L116.92645,75.89375 L117.43524,74.9 L117.59762,74.50625 L117.56514,74.225 L117.337814,74.05625 L116.2228,74 L115.80062,73.94375 L115.57329,73.775 L115.54082,73.49375 L116.0496,72.5 L116.30941,72.05 L116.569214,71.6 L116.82902,71.15 L117.43524,70.1 L117.72752,69.70625 L118.08476,69.425 L118.50694,69.25625 L120.72615,69.2 M122.11178,76.4 L121.245766,77.9 L121.0509,78.35 L120.98596,78.8 L121.0509,79.25 L121.59218,80.3 L121.851974,80.6375 L122.11178,80.75 L122.37158,80.6375 L122.977806,79.7 L123.270096,79.30625 L123.627335,79.025 L124.049515,78.85625 L125.22947,78.8 L125.71661,78.85625 L126.138794,79.025 L126.49603,79.30625 L127.13473,80.3 L127.297104,80.69375 L127.264626,80.975 L127.03731,81.14375 L125.92229,81.2 L125.43514,81.25625 L125.01296,81.425 L124.65572,81.70625 L124.01703,82.7 L123.85466,83.09375 L123.88713,83.375 L124.11446,83.54375 L126.2687,83.6 M102.712814,47.6 L101.84679,46.1 L101.554504,45.70625 L101.197266,45.425 L100.77508,45.25625 L99.595116,45.2 L99.10798,45.25625 L98.68579,45.425 L98.32856,45.70625 L97.689865,46.7 L97.39758,47.09375 L97.040344,47.375 L96.61816,47.54375 L95.438194,47.6 L94.91858,47.6 L94.39897,47.6 L93.87936,47.6 L92.666916,47.6 L92.244736,47.54375 L92.017395,47.375 L91.98492,47.09375 L92.49371,46.1 L92.75352,45.65 L93.01332,45.2 L93.27313,44.75 L93.87935,43.7 L94.13916,43.3625 L94.39897,43.25 L94.658775,43.3625 L95.78461,45.2 M94.39897,38 L96.13102,38 L96.55321,38.05625 L96.78054,38.225 L96.81302,38.50625 L96.30422,39.5 L96.01194,39.89375 L95.6547,40.175 L95.23251,40.34375 L94.05255,40.4 L93.565414,40.34375 L93.14323,40.175 L92.785995,39.89375 L92.1473,38.9 L91.95244,38.45 L91.8875,38 L91.95244,37.55 L92.49371,36.5 L92.785995,36.10625 L93.14323,35.825 L93.565414,35.65625 L94.74538,35.6 L95.26499,35.6 L95.78461,35.6 L96.30422,35.6 L97.51666,35.6 L98.0038,35.65625 L98.42599,35.825 L98.78322,36.10625 L99.94153,38 M138.73947,42.8 L140.47153,42.8 L140.95865,42.74375 L141.38084,42.575 L141.73808,42.29375 L142.37679,41.3 L142.57164,40.85 L142.6366,40.4 L142.57164,39.95 L142.03036,38.9 L141.77055,38.45 L141.51076,38 L141.25095,37.55 L140.64473,36.5 L140.35245,36.10625 L139.99521,35.825 L139.57303,35.65625 L138.39307,35.6 L137.90591,35.65625 L137.48373,35.825 L137.1265,36.10625 L136.48781,37.1 L136.29294,37.55 L136.228,38 L136.29294,38.45 L136.83421,39.5 L137.09402,39.8375 L137.35384,39.95 L137.61363,39.8375 L138.21986,38.9 L138.47966,38.5625 L138.73947,38.45 L138.99927,38.5625 L140.1251,40.4 M119.3405,71.6 L120.20653,73.1 L120.46635,73.4375 L120.72615,73.55 L120.98595,73.4375 L121.59218,72.5 L121.851974,72.1625 L122.11178,72.05 L122.37158,72.1625 L122.977806,73.1 L123.237625,73.4375 L123.49742,73.55 L123.757225,73.4375 L124.36344,72.5 L124.558304,72.05 L124.623245,71.6 L124.558304,71.15 L124.01703,70.1 L123.757225,69.65 L123.49742,69.2 L123.237625,68.75 L122.63139,67.7 L122.46902,67.30625 L122.50149,67.025 L122.72882,66.85625 L123.84383,66.8 L124.33097,66.74375 L124.75315,66.575 L125.11039,66.29375 L125.749084,65.3 L126.008896,64.9625 L126.2687,64.85 L126.5285,64.9625 L127.13473,65.9 L127.32959,66.35 L127.39453,66.8 L127.32959,67.25 L126.2687,69.2 M138.73947,18.8 L139.6055,20.3 L139.86531,20.6375 L140.1251,20.75 L140.38492,20.6375 L140.99113,19.7 L141.25095,19.3625 L141.51076,19.25 L141.77055,19.3625 L142.37679,20.3 L142.57164,20.75 L142.6366,21.2 L142.57164,21.65 L142.03036,22.7 L141.83551,23.15 L141.77055,23.6 L141.83551,24.05 L142.37679,25.1 L142.57164,25.55 L142.6366,26 L142.57164,26.45 L142.03036,27.5 L141.73808,27.89375 L141.38084,28.175 L140.95865,28.34375 L139.7787,28.4 L139.29156,28.34375 L138.86937,28.175 L138.51213,27.89375 L137.87344,26.9 L137.67859,26.45 L137.61365,26 L137.67859,25.55 L138.21986,24.5 L138.47966,24.1625 L138.73947,24.05 L138.99927,24.1625 L140.1251,26 M130.42563,33.2 L129.5596,31.7 L129.29979,31.25 L129.04,30.8 L128.78018,30.35 L128.17397,29.3 L128.01158,28.90625 L128.04407,28.625 L128.2714,28.45625 L129.3864,28.4 L129.87354,28.45625 L130.29572,28.625 L130.65295,28.90625 L131.29166,29.9 L131.58394,30.29375 L131.94118,30.575 L132.36337,30.74375 L133.54332,30.8 L133.9655,30.85625 L134.19284,31.025 L134.22531,31.30625 L133.71652,32.3 L133.45671,32.75 L133.19691,33.2 L132.9371,33.65 L132.33089,34.7 L132.07108,35.15 L131.81126,35.6 L131.55147,36.05 L130.94524,37.1 L130.68542,37.4375 L130.42563,37.55 L130.16582,37.4375 L129.5596,36.5 L129.29979,36.05 L129.04,35.6 L128.78018,35.15 L127.65434,33.2 M47.28719,62 L46.42116,63.5 L46.226307,63.95 L46.161354,64.4 L46.226307,64.85 L46.76757,65.9 L47.02738,66.35 L47.28719,66.8 L47.546997,67.25 L48.153217,68.3 L48.445503,68.69375 L48.802734,68.975 L49.224922,69.14375 L50.404884,69.2 L50.82707,69.14375 L51.0544,68.975 L51.086876,68.69375 L50.578083,67.7 L50.318275,67.25 L50.058468,66.8 L49.798664,66.35 L49.192444,65.3 L49.030067,64.90625 L49.06254,64.625 L49.289875,64.45625 L50.404884,64.4 L50.89202,64.45625 L51.31421,64.625 L51.67144,64.90625 L52.31013,65.9 L52.602417,66.29375 L52.959656,66.575 L53.381844,66.74375 L54.561806,66.8 L55.048943,66.74375 L55.47113,66.575 L55.82836,66.29375 L56.467052,65.3 L56.629436,64.90625 L56.596962,64.625 L56.36962,64.45625 L54.215385,64.4 M59.757954,21.2 L60.623974,22.7 L60.818836,23.15 L60.88378,23.6 L60.818836,24.05 L60.277565,25.1 L59.985283,25.49375 L59.62805,25.775 L59.205864,25.94375 L58.0259,26 L57.506287,26 L56.98667,26 L56.467052,26 L55.254616,26 L54.767475,25.94375 L54.345287,25.775 L53.988056,25.49375 L53.349365,24.5 L53.05708,24.10625 L52.69984,23.825 L52.27766,23.65625 L51.0977,23.6 L50.675514,23.54375 L50.448177,23.375 L50.415703,23.09375 L50.92449,22.1 L51.216778,21.70625 L51.574013,21.425 L51.996197,21.25625 L53.17616,21.2 L53.6633,21.25625 L54.085487,21.425 L54.442726,21.70625 L55.081413,22.7 L55.373695,23.09375 L55.730934,23.375 L56.15312,23.54375 L57.33308,23.6 L57.75527,23.54375 L57.982605,23.375 L58.015083,23.09375 L57.506287,22.1 L57.311424,21.65 L57.24648,21.2 L57.311424,20.75 L58.372314,18.8 M20.960014,54.8 L21.82604,53.3 L22.08585,52.9625 L22.345655,52.85 L22.605463,52.9625 L23.211681,53.9 L23.503965,54.29375 L23.8612,54.575 L24.283386,54.74375 L25.463348,54.8 L25.885534,54.74375 L26.11287,54.575 L26.145344,54.29375 L25.636555,53.3 L25.474173,52.90625 L25.506649,52.625 L25.733978,52.45625 L26.84899,52.4 L27.33613,52.34375 L27.758316,52.175 L28.115551,51.89375 L28.754248,50.9 L28.949102,50.45 L29.014057,50 L28.949102,49.55 L28.407837,48.5 L28.14803,48.05 L27.88822,47.6 L27.628412,47.15 L27.022192,46.1 L26.762384,45.7625 L26.502579,45.65 L26.242773,45.7625 L25.636555,46.7 L25.344269,47.09375 L24.987034,47.375 L24.564846,47.54375 L23.384886,47.6 L22.897747,47.54375 L22.47556,47.375 L22.118324,47.09375 L21.47963,46.1 L21.219822,45.7625 L20.960014,45.65 L20.700207,45.7625 L20.093988,46.7 L19.801704,47.09375 L19.44447,47.375 L19.022284,47.54375 L16.803095,47.6 M135.96819,52.4 L136.83421,50.9 L137.09402,50.45 L137.35384,50 L137.61363,49.55 L138.21986,48.5 L138.4147,48.05 L138.47966,47.6 L138.4147,47.15 L137.87344,46.1 L137.61363,45.65 L137.35384,45.2 L137.09402,44.75 L136.48781,43.7 L136.228,43.25 L135.96819,42.8 L135.70839,42.35 L135.10216,41.3 L134.84236,40.85 L134.58255,40.4 L134.32275,39.95 L133.71652,38.9 L133.52167,38.45 L133.45671,38 L133.52167,37.55 L134.06294,36.5 L134.32275,36.05 L134.58255,35.6 L134.84236,35.15 L135.44858,34.1 L135.70839,33.65 L135.96819,33.2 L136.228,32.75 L136.83421,31.7 L137.1265,31.30625 L137.48373,31.025 L137.90591,30.85625 L139.08589,30.8 L139.6055,30.8 L140.1251,30.8 L140.64473,30.8 L141.85716,30.8 L142.27934,30.85625 L142.50668,31.025 L142.53915,31.30625 L142.03036,32.3 L141.73808,32.69375 L141.38084,32.975 L140.95865,33.14375 L138.73947,33.2 M7.1036096,59.6 L8.835661,59.6 L9.257848,59.65625 L9.485179,59.825 L9.517655,60.10625 L9.008865,61.1 L8.814009,61.55 L8.749058,62 L8.814009,62.45 L9.355276,63.5 L9.517655,63.89375 L9.485179,64.175 L9.257848,64.34375 L8.142839,64.4 L7.7206526,64.45625 L7.4933214,64.625 L7.460845,64.90625 L7.969635,65.9 L8.164492,66.35 L8.229443,66.8 L8.164492,67.25 L7.6232247,68.3 L7.460845,68.69375 L7.4933214,68.975 L7.7206526,69.14375 L8.835661,69.2 L9.3228,69.25625 L9.7449875,69.425 L10.102223,69.70625 L10.740916,70.7 L11.0332,71.09375 L11.390436,71.375 L11.812623,71.54375 L12.992581,71.6 L13.479721,71.54375 L13.901907,71.375 L14.259142,71.09375 L14.897837,70.1 L15.092692,69.65 L15.157644,69.2 L15.092692,68.75 L14.551425,67.7 L14.291616,67.3625 L14.031812,67.25 L13.772006,67.3625 L13.165787,68.3 L12.905978,68.6375 L12.646173,68.75 L12.386365,68.6375 L11.780147,67.7 L11.585291,67.25 L11.520339,66.8 L11.585291,66.35 L12.126557,65.3 L12.321413,64.85 L12.386365,64.4 L12.321413,63.95 L11.260531,62 M134.58255,54.8 L135.44858,56.3 L135.70839,56.6375 L135.96819,56.75 L136.228,56.6375 L136.83421,55.7 L137.1265,55.30625 L137.48373,55.025 L137.90591,54.85625 L139.08589,54.8 L139.50807,54.74375 L139.7354,54.575 L139.76787,54.29375 L139.25908,53.3 L139.06422,52.85 L138.99927,52.4 L139.06422,51.95 L139.6055,50.9 L139.86531,50.5625 L140.1251,50.45 L140.38492,50.5625 L140.99113,51.5 L141.25095,51.95 L141.51076,52.4 L141.77055,52.85 L142.37679,53.9 L142.57164,54.35 L142.6366,54.8 L142.57164,55.25 L142.03036,56.3 L141.83551,56.75 L141.77055,57.2 L141.83551,57.65 L142.37679,58.7 L142.53915,59.09375 L142.50668,59.375 L142.27934,59.54375 L141.16434,59.6 L140.67722,59.54375 L140.25502,59.375 L139.89778,59.09375 L139.25908,58.1 L138.99927,57.7625 L138.73947,57.65 L138.47966,57.7625 L137.87344,58.7 L137.67859,59.15 L137.61365,59.6 L137.67859,60.05 L138.21986,61.1 L138.38223,61.49375 L138.34976,61.775 L138.12242,61.94375 L137.00742,62 L136.52028,61.94375 L136.0981,61.775 L135.74086,61.49375 L135.10216,60.5 L134.84236,60.1625 L134.58255,60.05 L134.32275,60.1625 L133.19691,62 M70.84308,69.2 L72.57513,69.2 L73.06227,69.14375 L73.48445,68.975 L73.84169,68.69375 L74.480385,67.7 L74.7402,67.25 L75,66.8 L75.2598,66.35 L75.86603,65.3 L76.12583,64.9625 L76.385635,64.85 L76.64545,64.9625 L77.25166,65.9 L77.511475,66.35 L77.771286,66.8 L78.03109,67.25 L78.63731,68.3 L78.89712,68.75 L79.15692,69.2 L79.416725,69.65 L80.02295,70.7 L80.31523,71.09375 L80.67246,71.375 L81.09465,71.54375 L82.27461,71.6 L82.79423,71.6 L83.31384,71.6 L83.83346,71.6 L85.0459,71.6 L85.533035,71.54375 L85.95522,71.375 L86.312454,71.09375 L86.95115,70.1 L87.14601,69.65 L87.21095,69.2 L87.14601,68.75 L86.60474,67.7 L86.34493,67.3625 L86.08513,67.25 L85.82532,67.3625 L85.2191,68.3 L84.92682,68.69375 L84.56958,68.975 L84.14739,69.14375 L82.96743,69.2 L82.54524,69.14375 L82.31791,68.975 L82.28543,68.69375 L82.79423,67.7 L82.98909,67.25 L83.05403,66.8 L82.98909,66.35 L82.447815,65.3 L82.25295,64.85 L82.188,64.4 L82.25295,63.95 L82.79423,62.9 L82.95661,62.50625 L82.92413,62.225 L82.69679,62.05625 L81.58179,62 L81.09465,62.05625 L80.67246,62.225 L80.31523,62.50625 L79.67654,63.5 L79.481674,63.95 L79.41673,64.4 L79.481674,64.85 L80.54256,66.8 M142.8964,16.4 L141.16434,16.4 L140.67722,16.34375 L140.25502,16.175 L139.89778,15.89375 L139.25908,14.9 L138.9668,14.50625 L138.60956,14.225 L138.18738,14.05625 L137.00742,14 L136.52028,14.05625 L136.0981,14.225 L135.74086,14.50625 L135.10216,15.5 L134.93979,15.89375 L134.97226,16.175 L135.1996,16.34375 L136.3146,16.4 L136.73679,16.45625 L136.96411,16.625 L136.9966,16.90625 L136.48781,17.9 L136.29294,18.35 L136.228,18.8 L136.29294,19.25 L136.83421,20.3 L137.02908,20.75 L137.09402,21.2 L137.02908,21.65 L136.48781,22.7 L136.228,23.15 L135.96819,23.6 L135.70839,24.05 L135.10216,25.1 L134.84236,25.55 L134.58255,26 L134.32275,26.45 L133.71652,27.5 L133.45671,27.8375 L133.19691,27.95 L132.9371,27.8375 L132.33089,26.9 L132.13602,26.45 L132.07108,26 L132.13602,25.55 L132.67729,24.5 L132.9371,24.05 L133.19691,23.6 L133.45671,23.15 L134.06294,22.1 L134.2578,21.65 L134.32275,21.2 L134.2578,20.75 L133.71652,19.7 L133.45671,19.3625 L133.19691,19.25 L132.9371,19.3625 L132.33089,20.3 L132.07108,20.6375 L131.81126,20.75 L131.55147,20.6375 L130.94524,19.7 L130.68542,19.25 L130.42563,18.8 L130.16582,18.35 L129.5596,17.3 L129.39723,16.90625 L129.42972,16.625 L129.65703,16.45625 L130.77205,16.4 L131.19423,16.34375 L131.42155,16.175 L131.45403,15.89375 L130.94524,14.9 L130.78287,14.50625 L130.81534,14.225 L131.04268,14.05625 L133.19691,14 M84.69948,83.6 L83.83346,82.1 L83.57365,81.7625 L83.31384,81.65 L83.05404,81.7625 L82.447815,82.7 L82.188,83.0375 L81.9282,83.15 L81.668396,83.0375 L81.06217,82.1 L80.86732,81.65 L80.80237,81.2 L80.86732,80.75 L81.408585,79.7 L81.60344,79.25 L81.66839,78.8 L81.60344,78.35 L81.06217,77.3 L80.86732,76.85 L80.80237,76.4 L80.86732,75.95 L81.408585,74.9 L81.668396,74.5625 L81.9282,74.45 L82.188,74.5625 L82.79423,75.5 L83.05404,75.8375 L83.31384,75.95 L83.57365,75.8375 L84.17987,74.9 L84.439674,74.5625 L84.69948,74.45 L84.95929,74.5625 L85.565506,75.5 L85.85779,75.89375 L86.21503,76.175 L86.637215,76.34375 L87.81718,76.4 L88.239365,76.45625 L88.4667,76.625 L88.499176,76.90625 L87.99038,77.9 L87.73057,78.35 L87.470764,78.8 L87.21096,79.25 L86.60474,80.3 L86.44236,80.69375 L86.47484,80.975 L86.70216,81.14375 L87.81718,81.2 L88.30431,81.14375 L88.7265,80.975 L89.08374,80.69375 L89.722435,79.7 L89.98224,79.25 L90.24205,78.8 L90.501854,78.35 L91.10807,77.3 L91.30293,76.85 L91.367874,76.4 L91.30293,75.95 L90.76166,74.9 L90.59928,74.50625 L90.63176,74.225 L90.859085,74.05625 L91.9741,74 L92.396286,73.94375 L92.62361,73.775 L92.65609,73.49375 L92.1473,72.5 L91.88749,72.05 L91.627686,71.6 L91.36788,71.15 L90.76166,70.1 L90.501854,69.7625 L90.24205,69.65 L89.98224,69.7625 L89.37602,70.7 L89.11621,71.15 L88.85641,71.6 L88.5966,72.05 L87.470764,74 M50.058468,71.6 L48.326416,71.6 L47.839275,71.54375 L47.41709,71.375 L47.059856,71.09375 L46.42116,70.1 L46.128876,69.70625 L45.771645,69.425 L45.349457,69.25625 L44.169495,69.2 L43.747307,69.14375 L43.519978,68.975 L43.4875,68.69375 L43.996292,67.7 L44.191147,67.25 L44.256096,66.8 L44.191147,66.35 L43.64988,65.3 L43.455025,64.85 L43.390076,64.4 L43.455025,63.95 L43.996292,62.9 L44.191147,62.45 L44.256096,62 L44.191147,61.55 L43.64988,60.5 L43.4875,60.10625 L43.519978,59.825 L43.747307,59.65625 L44.862316,59.6 L45.381935,59.6 L45.901546,59.6 L46.42116,59.6 L47.6336,59.6 L48.12074,59.65625 L48.542927,59.825 L48.900158,60.10625 L49.538857,61.1 L49.83114,61.49375 L50.188374,61.775 L50.610558,61.94375 L51.79052,62 L52.31014,62 L52.82975,62 L53.349365,62 L54.561806,62 L54.98399,61.94375 L55.211323,61.775 L55.243793,61.49375 L54.735004,60.5 L54.475197,60.05 L54.215385,59.6 L53.955578,59.15 L53.349365,58.1 L53.08955,57.7625 L52.82975,57.65 L52.569946,57.7625 L51.963722,58.7 L51.70392,59.0375 L51.44411,59.15 L51.184303,59.0375 L50.578083,58.1 L50.285797,57.70625 L49.928566,57.425 L49.50638,57.25625 L48.326416,57.2 L47.839275,57.14375 L47.41709,56.975 L47.059856,56.69375 L46.42116,55.7 L46.161354,55.3625 L45.901546,55.25 L45.641743,55.3625 L45.035522,56.3 L44.743237,56.69375 L44.386005,56.975 L43.963818,57.14375 L42.783855,57.2 L42.26424,57.2 L41.744625,57.2 L41.225014,57.2 L40.012573,57.2 L39.590385,57.25625 L39.363052,57.425 L39.330578,57.70625 L40.358986,59.6 M22.345655,81.2 L23.211681,79.7 L23.47149,79.25 L23.731297,78.8 L23.991102,78.35 L24.597322,77.3 L24.889606,76.90625 L25.246841,76.625 L25.669027,76.45625 L26.84899,76.4 L27.27118,76.34375 L27.498508,76.175 L27.530985,75.89375 L27.022192,74.9 L26.859814,74.50625 L26.892288,74.225 L27.119623,74.05625 L28.23463,74 L28.721771,73.94375 L29.143957,73.775 L29.50119,73.49375 L30.139887,72.5 L30.334742,72.05 L30.399694,71.6 L30.334742,71.15 L29.793476,70.1 L29.533667,69.7625 L29.27386,69.65 L29.014057,69.7625 L28.407837,70.7 L28.115551,71.09375 L27.758316,71.375 L27.33613,71.54375 L26.156168,71.6 L25.669027,71.65625 L25.246841,71.825 L24.889606,72.10625 L24.250912,73.1 L23.991102,73.55 L23.731297,74 L23.47149,74.45 L22.86527,75.5 L22.605463,75.95 L22.345655,76.4 L22.08585,76.85 L21.47963,77.9 L21.219822,78.35 L20.960014,78.8 L20.700207,79.25 L20.093988,80.3 L19.899134,80.75 L19.83418,81.2 L19.899134,81.65 L20.4404,82.7 L20.732683,83.09375 L21.089918,83.375 L21.512106,83.54375 L22.692066,83.6 L23.211681,83.6 L23.731297,83.6 L24.25091,83.6 L25.463348,83.6 L25.982965,83.6 L26.502579,83.6 L27.022192,83.6 L28.23463,83.6 L28.721771,83.54375 L29.143957,83.375 L29.50119,83.09375 L30.139887,82.1 L30.302265,81.70625 L30.26979,81.425 L30.042456,81.25625 L28.927448,81.2 L28.407831,81.2 L27.88822,81.2 L27.368607,81.2 L26.156168,81.2 L25.733978,81.14375 L25.506649,80.975 L25.474173,80.69375 L25.982965,79.7 L26.27525,79.30625 L26.632483,79.025 L27.054668,78.85625 L29.27386,78.8 M55.601032,14 L57.33308,14 L57.75527,14.05625 L57.982605,14.225 L58.015083,14.50625 L57.506287,15.5 L57.214,15.89375 L56.856762,16.175 L56.434578,16.34375 L55.254616,16.4 L54.832428,16.45625 L54.605095,16.625 L54.572624,16.90625 L55.081413,17.9 L55.243793,18.29375 L55.211323,18.575 L54.98399,18.74375 L53.86898,18.8 L53.349365,18.8 L52.82975,18.8 L52.31014,18.8 L51.0977,18.8 L50.610558,18.85625 L50.188374,19.025 L49.83114,19.30625 L49.192444,20.3 L48.932636,20.75 L48.67283,21.2 L48.413025,21.65 L47.806805,22.7 L47.61195,23.15 L47.546997,23.6 L47.61195,24.05 L48.153217,25.1 L48.315594,25.49375 L48.28312,25.775 L48.055786,25.94375 L46.940777,26 L46.453636,26.05625 L46.031452,26.225 L45.674217,26.50625 L45.035522,27.5 L44.775715,27.8375 L44.515907,27.95 L44.2561,27.8375 L43.64988,26.9 L43.455025,26.45 L43.390076,26 L43.455025,25.55 L43.996292,24.5 L44.191147,24.05 L44.256096,23.6 L44.191147,23.15 L43.64988,22.1 L43.39007,21.65 L43.13027,21.2 L42.87046,20.75 L42.26424,19.7 L42.069386,19.25 L42.004433,18.8 L42.069386,18.35 L42.61065,17.3 L42.773033,16.90625 L42.740555,16.625 L42.513226,16.45625 L41.398216,16.4 L40.911076,16.34375 L40.488888,16.175 L40.131653,15.89375 L39.492958,14.9 L39.330578,14.50625 L39.363052,14.225 L39.590385,14.05625 L40.705395,14 L41.225014,14 L41.744625,14 L42.26424,14 L43.476677,14 L43.996296,14 L44.515907,14 L45.03552,14 L46.24796,14 L46.767574,14 L47.28719,14 L47.8068,14 L49.019238,14 L49.441425,14.05625 L49.66876,14.225 L49.701233,14.50625 L49.192444,15.5 L49.030067,15.89375 L49.06254,16.175 L49.289875,16.34375 L50.404884,16.4 L50.89202,16.34375 L51.31421,16.175 L51.67144,15.89375 L52.82975,14 M50.058468,81.2 L49.192444,79.7 L48.932636,79.25 L48.67283,78.8 L48.413025,78.35 L47.806805,77.3 L47.51452,76.90625 L47.157284,76.625 L46.7351,76.45625 L45.555138,76.4 L45.132946,76.45625 L44.905617,76.625 L44.873142,76.90625 L45.381935,77.9 L45.57679,78.35 L45.641743,78.8 L45.57679,79.25 L45.035522,80.3 L44.775715,80.6375 L44.515907,80.75 L44.2561,80.6375 L43.64988,79.7 L43.357597,79.30625 L43.000362,79.025 L42.57818,78.85625 L41.398216,78.8 L40.976025,78.74375 L40.748695,78.575 L40.71622,78.29375 L41.225014,77.3 L41.48482,76.85 L41.744625,76.4 L42.004433,75.95 L42.61065,74.9 L42.87046,74.45 L43.13027,74 L43.39007,73.55 L43.996292,72.5 L44.158672,72.10625 L44.126198,71.825 L43.898865,71.65625 L42.783855,71.6 L42.26424,71.6 L41.744625,71.6 L41.225014,71.6 L40.012573,71.6 L39.590385,71.54375 L39.363052,71.375 L39.330578,71.09375 L39.839367,70.1 L40.099174,69.65 L40.358986,69.2 L40.618793,68.75 L41.225014,67.7 L41.41987,67.25 L41.48482,66.8 L41.41987,66.35 L40.8786,65.3 L40.683746,64.85 L40.618793,64.4 L40.683746,63.95 L41.225014,62.9 L41.38739,62.50625 L41.354916,62.225 L41.127583,62.05625 L40.012573,62 L39.525433,61.94375 L39.10325,61.775 L38.746014,61.49375 L38.10732,60.5 L37.815033,60.10625 L37.4578,59.825 L37.035614,59.65625 L35.85565,59.6 L35.433464,59.65625 L35.20613,59.825 L35.173656,60.10625 L35.682446,61.1 L35.942253,61.55 L36.202065,62 L36.461872,62.45 L37.068092,63.5 L37.262947,63.95 L37.3279,64.4 L37.262947,64.85 L36.72168,65.9 L36.5593,66.29375 L36.591774,66.575 L36.819103,66.74375 L37.934113,66.8 L38.3563,66.85625 L38.583633,67.025 L38.616108,67.30625 L38.10732,68.3 L37.84751,68.75 L37.587704,69.2 L37.3279,69.65 L36.72168,70.7 L36.461872,71.0375 L36.202065,71.15 L35.942253,71.0375 L34.81642,69.2 M122.11178,33.2 L123.84383,33.2 L124.33097,33.14375 L124.75315,32.975 L125.11039,32.69375 L125.749084,31.7 L125.94395,31.25 L126.00889,30.8 L125.94395,30.35 L125.40267,29.3 L125.11039,28.90625 L124.75315,28.625 L124.33097,28.45625 L123.151,28.4 L122.72882,28.34375 L122.50149,28.175 L122.46902,27.89375 L122.977806,26.9 L123.17267,26.45 L123.237625,26 L123.17267,25.55 L122.63139,24.5 L122.37158,24.05 L122.11178,23.6 L121.851974,23.15 L121.245766,22.1 L120.98595,21.7625 L120.72615,21.65 L120.46635,21.7625 L119.86012,22.7 L119.56783,23.09375 L119.210594,23.375 L118.788414,23.54375 L117.608444,23.6 L117.18626,23.54375 L116.95894,23.375 L116.92645,23.09375 L117.43524,22.1 L117.59762,21.70625 L117.56514,21.425 L117.337814,21.25625 L116.2228,21.2 L115.80062,21.14375 L115.57329,20.975 L115.54082,20.69375 L116.0496,19.7 L116.34188,19.30625 L116.69912,19.025 L117.1213,18.85625 L118.30127,18.8 L118.788414,18.74375 L119.210594,18.575 L119.56783,18.29375 L120.20653,17.3 L120.46635,16.85 L120.72615,16.4 L120.98595,15.95 L121.59218,14.9 L121.884445,14.50625 L122.241684,14.225 L122.663864,14.05625 L123.84383,14 L124.36345,14 L124.88306,14 L125.402664,14 L126.61511,14 L127.03731,14.05625 L127.264626,14.225 L127.297104,14.50625 L126.788315,15.5 L126.5285,15.95 L126.2687,16.4 L126.008896,16.85 L125.40267,17.9 L125.240295,18.29375 L125.27278,18.575 L125.5001,18.74375 L126.61511,18.8 L127.10226,18.85625 L127.52444,19.025 L127.881676,19.30625 L128.52037,20.3 L128.78018,20.75 L129.04,21.2 L129.29979,21.65 L129.90602,22.7 L130.10086,23.15 L130.16582,23.6 L130.10086,24.05 L129.5596,25.1 L129.26732,25.49375 L128.91008,25.775 L128.4879,25.94375 L127.30794,26 L126.820786,25.94375 L126.398605,25.775 L126.04137,25.49375 L125.40267,24.5 L125.14286,24.05 L124.88306,23.6 L124.62325,23.15 L124.01703,22.1 L123.757225,21.65 L123.49742,21.2 L123.237625,20.75 L122.63139,19.7 L122.43654,19.25 L122.37158,18.8 L122.43654,18.35 L123.49742,16.4 M115.18358,45.2 L113.45154,45.2 L112.96439,45.25625 L112.54221,45.425 L112.184975,45.70625 L111.54628,46.7 L111.28646,47.15 L111.02666,47.6 L110.76686,48.05 L110.16063,49.1 L109.99825,49.49375 L110.03074,49.775 L110.25806,49.94375 L111.37307,50 L111.8927,50 L112.41231,50 L112.93191,50 L114.14436,50 L114.56654,50.05625 L114.79387,50.225 L114.82634,50.50625 L114.31755,51.5 L114.02527,51.89375 L113.66803,52.175 L113.24585,52.34375 L112.065895,52.4 L111.57875,52.45625 L111.15657,52.625 L110.79933,52.90625 L110.16063,53.9 L109.90082,54.2375 L109.641014,54.35 L109.38121,54.2375 L108.77499,53.3 L108.482704,52.90625 L108.125465,52.625 L107.703285,52.45625 L106.523315,52.4 L106.101135,52.34375 L105.8738,52.175 L105.84133,51.89375 L106.35012,50.9 L106.54498,50.45 L106.60994,50 L106.54498,49.55 L106.00371,48.5 L105.84133,48.10625 L105.8738,47.825 L106.101135,47.65625 L107.21614,47.6 L107.703285,47.54375 L108.125465,47.375 L108.482704,47.09375 L109.1214,46.1 L109.38121,45.65 L109.641014,45.2 L109.90082,44.75 L110.50704,43.7 L110.76686,43.25 L111.02666,42.8 L111.28646,42.35 L111.892685,41.3 L112.08755,40.85 L112.15249,40.4 L112.08755,39.95 L111.54628,38.9 L111.25399,38.50625 L110.89675,38.225 L110.47457,38.05625 L109.2946,38 L108.87241,37.94375 L108.645096,37.775 L108.61261,37.49375 L109.1214,36.5 L109.31626,36.05 L109.3812,35.6 L109.31626,35.15 L108.77499,34.1 L108.515175,33.7625 L108.25537,33.65 L107.99557,33.7625 L107.38934,34.7 L107.12954,35.15 L106.869736,35.6 L106.60994,36.05 L106.00371,37.1 L105.7439,37.4375 L105.48409,37.55 L105.22429,37.4375 L104.61808,36.5 L104.42322,36.05 L104.35828,35.6 L104.42322,35.15 L104.96449,34.1 L105.22429,33.65 L105.48409,33.2 L105.7439,32.75 L106.35012,31.7 L106.5125,31.30625 L106.48003,31.025 L106.2527,30.85625 L105.137695,30.8 L104.65055,30.74375 L104.22837,30.575 L103.87113,30.29375 L103.23244,29.3 L102.97262,28.9625 L102.712814,28.85 L102.45302,28.9625 L101.84679,29.9 L101.65193,30.35 L101.586975,30.8 L101.65193,31.25 L102.712814,33.2 M119.3405,66.8 L117.608444,66.8 L117.1213,66.74375 L116.69912,66.575 L116.34188,66.29375 L115.703186,65.3 L115.44338,64.9625 L115.18358,64.85 L114.92378,64.9625 L114.31755,65.9 L114.05774,66.35 L113.797935,66.8 L113.53813,67.25 L112.93192,68.3 L112.73706,68.75 L112.67212,69.2 L112.73706,69.65 L113.278336,70.7 L113.4407,71.09375 L113.408226,71.375 L113.18089,71.54375 L112.065895,71.6 L111.57875,71.54375 L111.15657,71.375 L110.79933,71.09375 L110.16063,70.1 L109.90082,69.65 L109.641014,69.2 L109.38121,68.75 L108.77499,67.7 L108.61261,67.30625 L108.645096,67.025 L108.87241,66.85625 L109.98743,66.8 L110.47457,66.74375 L110.89675,66.575 L111.25399,66.29375 L111.892685,65.3 L112.08755,64.85 L112.15249,64.4 L112.08755,63.95 L111.54628,62.9 L111.383896,62.50625 L111.41638,62.225 L111.6437,62.05625 L112.75871,62 L113.24585,61.94375 L113.66803,61.775 L114.02527,61.49375 L114.66396,60.5 L114.92378,60.05 L115.18358,59.6 L115.44338,59.15 L116.0496,58.1 L116.30941,57.65 L116.569214,57.2 L116.82902,56.75 L117.43524,55.7 L117.59762,55.30625 L117.56514,55.025 L117.337814,54.85625 L116.2228,54.8 L115.80062,54.74375 L115.57329,54.575 L115.54082,54.29375 L116.0496,53.3 L116.34188,52.90625 L116.69912,52.625 L117.1213,52.45625 L118.30127,52.4 L118.788414,52.45625 L119.210594,52.625 L119.56783,52.90625 L120.20653,53.9 L120.40139,54.35 L120.46633,54.8 L120.40139,55.25 L119.86012,56.3 L119.69774,56.69375 L119.730225,56.975 L119.95754,57.14375 L121.072556,57.2 L121.55969,57.25625 L121.98187,57.425 L122.33911,57.70625 L122.977806,58.7 L123.270096,59.09375 L123.627335,59.375 L124.049515,59.54375 L125.22947,59.6 L125.65166,59.65625 L125.87898,59.825 L125.91146,60.10625 L125.40267,61.1 L125.11039,61.49375 L124.75315,61.775 L124.33097,61.94375 L123.151,62 L122.63139,62 L122.11178,62 L121.59216,62 L120.37974,62 L119.89259,61.94375 L119.47041,61.775 L119.113174,61.49375 L118.47447,60.5 L118.21466,60.1625 L117.95486,60.05 L117.69505,60.1625 L117.08883,61.1 L116.89397,61.55 L116.829025,62 L116.89397,62.45 L117.43524,63.5 L117.72752,63.89375 L118.08476,64.175 L118.50694,64.34375 L119.68691,64.4 L120.20654,64.4 L120.72615,64.4 L121.24575,64.4 L123.49742,64.4 M119.3405,42.8 L118.47447,41.3 L118.312096,40.90625 L118.34458,40.625 L118.5719,40.45625 L119.68691,40.4 L120.10911,40.34375 L120.336426,40.175 L120.36891,39.89375 L119.86012,38.9 L119.6003,38.45 L119.3405,38 L119.0807,37.55 L118.47447,36.5 L118.312096,36.10625 L118.34458,35.825 L118.5719,35.65625 L119.68691,35.6 L120.20654,35.6 L120.72615,35.6 L121.24575,35.6 L122.458206,35.6 L122.977806,35.6 L123.49742,35.6 L124.017044,35.6 L125.22947,35.6 L125.65166,35.65625 L125.87898,35.825 L125.91146,36.10625 L125.40267,37.1 L125.20781,37.55 L125.14287,38 L125.20781,38.45 L125.749084,39.5 L125.94395,39.95 L126.00889,40.4 L125.94395,40.85 L125.40267,41.9 L125.14286,42.2375 L124.88306,42.35 L124.62325,42.2375 L124.01703,41.3 L123.757225,40.9625 L123.49742,40.85 L123.237625,40.9625 L122.63139,41.9 L122.37158,42.35 L122.11178,42.8 L121.851974,43.25 L121.245766,44.3 L120.953476,44.69375 L120.59624,44.975 L120.17406,45.14375 L118.994095,45.2 L118.50694,45.25625 L118.08476,45.425 L117.72752,45.70625 L117.08883,46.7 L116.89397,47.15 L116.829025,47.6 L116.89397,48.05 L117.43524,49.1 L117.69505,49.4375 L117.95486,49.55 L118.21466,49.4375 L118.820885,48.5 L119.0807,48.1625 L119.3405,48.05 L119.6003,48.1625 L120.20653,49.1 L120.49882,49.49375 L120.85606,49.775 L121.27824,49.94375 L122.458206,50 L122.88039,49.94375 L123.10771,49.775 L123.14018,49.49375 L122.63139,48.5 L122.46902,48.10625 L122.50149,47.825 L122.72882,47.65625 L123.84383,47.6 L124.33097,47.54375 L124.75315,47.375 L125.11039,47.09375 L125.749084,46.1 L126.04137,45.70625 L126.398605,45.425 L126.820786,45.25625 L128.00076,45.2 L128.4879,45.14375 L128.91008,44.975 L129.26732,44.69375 L129.90602,43.7 L130.10086,43.25 L130.16582,42.8 L130.10086,42.35 L129.5596,41.3 L129.39723,40.90625 L129.42972,40.625 L129.65703,40.45625 L130.77205,40.4 L131.25919,40.45625 L131.68137,40.625 L132.0386,40.90625 L132.67729,41.9 L132.9371,42.35 L133.19691,42.8 L133.45671,43.25 L134.06294,44.3 L134.32275,44.75 L134.58255,45.2 L134.84236,45.65 L135.44858,46.7 L135.64343,47.15 L135.70837,47.6 L135.64343,48.05 L135.10216,49.1 L134.84236,49.4375 L134.58255,49.55 L134.32275,49.4375 L133.71652,48.5 L133.45671,48.05 L133.19691,47.6 L132.9371,47.15 L132.33089,46.1 L132.07108,45.7625 L131.81126,45.65 L131.55147,45.7625 L130.42563,47.6 M55.601032,71.6 L54.735004,73.1 L54.572624,73.49375 L54.605095,73.775 L54.832428,73.94375 L55.947437,74 L56.467052,74 L56.98667,74 L57.506287,74 L58.718727,74 L59.238342,74 L59.757954,74 L60.277565,74 L61.49,74 L61.91219,74.05625 L62.13952,74.225 L62.171997,74.50625 L61.663208,75.5 L61.403393,75.95 L61.143593,76.4 L60.88379,76.85 L60.277565,77.9 L60.115185,78.29375 L60.147663,78.575 L60.374992,78.74375 L61.49,78.8 L62.00962,78.8 L62.52923,78.8 L63.04884,78.8 L64.26128,78.8 L64.7809,78.8 L65.300514,78.8 L65.82013,78.8 L67.03257,78.8 L67.51971,78.85625 L67.941895,79.025 L68.29913,79.30625 L68.93782,80.3 L69.19763,80.6375 L69.45744,80.75 L69.71725,80.6375 L70.32346,79.7 L70.615746,79.30625 L70.972984,79.025 L71.395164,78.85625 L72.57513,78.8 L73.06227,78.85625 L73.48445,79.025 L73.84169,79.30625 L74.480385,80.3 L74.64277,80.69375 L74.61029,80.975 L74.38295,81.14375 L73.267944,81.2 L72.84576,81.25625 L72.61842,81.425 L72.58595,81.70625 L73.09474,82.7 L73.257126,83.09375 L73.22465,83.375 L72.997314,83.54375 L71.88231,83.6 L71.362686,83.6 L70.84308,83.6 L70.32346,83.6 L69.11102,83.6 L68.623886,83.54375 L68.2017,83.375 L67.84447,83.09375 L67.20577,82.1 L66.91349,81.70625 L66.55625,81.425 L66.13406,81.25625 L64.9541,81.2 L64.466965,81.25625 L64.04478,81.425 L63.68754,81.70625 L63.048847,82.7 L62.78904,83.0375 L62.52923,83.15 L62.26942,83.0375 L61.663208,82.1 L61.403393,81.7625 L61.143593,81.65 L60.88379,81.7625 L60.277565,82.7 L59.985283,83.09375 L59.62805,83.375 L59.205864,83.54375 L58.0259,83.6 L57.538765,83.54375 L57.116577,83.375 L56.75934,83.09375 L56.120644,82.1 L55.958263,81.70625 L55.99074,81.425 L56.21807,81.25625 L57.33308,81.2 L57.75527,81.14375 L57.982605,80.975 L58.015083,80.69375 L57.506287,79.7 L57.214,79.30625 L56.856762,79.025 L56.434578,78.85625 L55.254616,78.8 L54.767475,78.85625 L54.345287,79.025 L53.988056,79.30625 L53.349365,80.3 L53.08955,80.6375 L52.82975,80.75 L52.569946,80.6375 L51.963722,79.7 L51.70392,79.25 L51.44411,78.8 L51.184303,78.35 L50.578083,77.3 L50.415703,76.90625 L50.448177,76.625 L50.675514,76.45625 L51.79052,76.4 L52.31014,76.4 L52.82975,76.4 L53.349365,76.4 L54.561806,76.4 L55.08142,76.4 L55.601032,76.4 L56.120644,76.4 L58.372314,76.4 M104.098465,45.2 L105.83052,45.2 L106.31765,45.14375 L106.73983,44.975 L107.09707,44.69375 L107.735756,43.7 L107.93062,43.25 L107.99556,42.8 L107.93062,42.35 L107.38934,41.3 L107.12954,40.9625 L106.869736,40.85 L106.60994,40.9625 L106.00371,41.9 L105.711426,42.29375 L105.35419,42.575 L104.93201,42.74375 L103.75205,42.8 L103.23242,42.8 L102.712814,42.8 L102.1932,42.8 L100.98076,42.8 L100.46114,42.8 L99.94153,42.8 L99.42192,42.8 L98.20948,42.8 L97.78729,42.74375 L97.55996,42.575 L97.52748,42.29375 L98.03628,41.3 L98.32856,40.90625 L98.68579,40.625 L99.10798,40.45625 L100.28794,40.4 L100.77508,40.34375 L101.197266,40.175 L101.554504,39.89375 L102.1932,38.9 L102.38806,38.45 L102.453,38 L102.38806,37.55 L101.84679,36.5 L101.586975,36.05 L101.32716,35.6 L101.06736,35.15 L100.46114,34.1 L100.16886,33.70625 L99.81162,33.425 L99.38944,33.25625 L98.20948,33.2 L97.78729,33.14375 L97.55996,32.975 L97.52748,32.69375 L98.03628,31.7 L98.29608,31.25 L98.55589,30.8 L98.8157,30.35 L99.42191,29.3 L99.681725,28.85 L99.94153,28.4 L100.20133,27.95 L100.807556,26.9 L100.96993,26.50625 L100.937454,26.225 L100.71013,26.05625 L99.595116,26 L99.17293,25.94375 L98.9456,25.775 L98.913124,25.49375 L99.42191,24.5 L99.616776,24.05 L99.68172,23.6 L99.616776,23.15 L99.0755,22.1 L98.78322,21.70625 L98.42599,21.425 L98.0038,21.25625 L96.82384,21.2 L96.3367,21.25625 L95.91451,21.425 L95.557274,21.70625 L94.91858,22.7 L94.658775,23.15 L94.39897,23.6 L94.13916,24.05 L93.53294,25.1 L93.24066,25.49375 L92.88342,25.775 L92.461235,25.94375 L91.28127,26 L90.859085,26.05625 L90.63176,26.225 L90.59928,26.50625 L91.10807,27.5 L91.270454,27.89375 L91.237976,28.175 L91.01064,28.34375 L89.89564,28.4 L89.37602,28.4 L88.85641,28.4 L88.33679,28.4 L87.12435,28.4 L86.70216,28.45625 L86.47484,28.625 L86.44236,28.90625 L86.95115,29.9 L87.21096,30.35 L87.470764,30.8 L87.73057,31.25 L88.33679,32.3 L88.629074,32.69375 L88.98631,32.975 L89.40849,33.14375 L90.588455,33.2 L91.10808,33.2 L91.627686,33.2 L92.1473,33.2 L93.35974,33.2 L93.84688,33.14375 L94.269066,32.975 L94.6263,32.69375 L95.26499,31.7 L95.459854,31.25 L95.524796,30.8 L95.459854,30.35 L94.91858,29.3 L94.723724,28.85 L94.658775,28.4 L94.723724,27.95 L95.26499,26.9 L95.5248,26.5625 L95.78461,26.45 L96.04441,26.5625 L97.17025,28.4 M8.48925,71.6 L6.7571993,71.6 L6.3350115,71.65625 L6.1076803,71.825 L6.0752044,72.10625 L6.5839944,73.1 L6.7788496,73.55 L6.843802,74 L6.7788496,74.45 L6.237584,75.5 L6.0752044,75.89375 L6.1076803,76.175 L6.3350115,76.34375 L7.45002,76.4 L7.937159,76.34375 L8.359346,76.175 L8.716581,75.89375 L9.355276,74.9 L9.615084,74.5625 L9.874891,74.45 L10.134699,74.5625 L10.740916,75.5 L11.000725,75.8375 L11.260531,75.95 L11.520338,75.8375 L12.126557,74.9 L12.386365,74.5625 L12.646173,74.45 L12.905978,74.5625 L13.5121975,75.5 L13.772006,75.95 L14.031812,76.4 L14.291616,76.85 L14.897837,77.9 L15.060217,78.29375 L15.0277405,78.575 L14.800407,78.74375 L13.685402,78.8 L13.165787,78.8 L12.646172,78.8 L12.126557,78.8 L10.914122,78.8 L10.394506,78.8 L9.874891,78.8 L9.355276,78.8 L8.142839,78.8 L7.6557007,78.85625 L7.233513,79.025 L6.876277,79.30625 L6.237584,80.3 L6.0752044,80.69375 L6.1076803,80.975 L6.3350115,81.14375 L7.45002,81.2 L7.969635,81.2 L8.48925,81.2 L9.008865,81.2 L10.221301,81.2 L10.708441,81.25625 L11.130628,81.425 L11.487864,81.70625 L12.126557,82.7 L12.41884,83.09375 L12.776075,83.375 L13.198263,83.54375 L14.3782215,83.6 L14.865359,83.54375 L15.287547,83.375 L15.644783,83.09375 L16.283478,82.1 L16.543285,81.65 L16.803095,81.2 L17.0629,80.75 L17.669119,79.7 L17.928928,79.25 L18.188734,78.8 L18.448542,78.35 L19.05476,77.3 L19.31457,76.85 L19.574375,76.4 L19.834179,75.95 L20.4404,74.9 L20.60278,74.50625 L20.570303,74.225 L20.34297,74.05625 L19.227964,74 L18.740826,74.05625 L18.318638,74.225 L17.961403,74.50625 L17.322708,75.5 L17.0629,75.8375 L16.803095,75.95 L16.543285,75.8375 L15.937067,74.9 L15.74221,74.45 L15.6772585,74 L15.74221,73.55 L16.283478,72.5 L16.575764,72.10625 L16.932999,71.825 L17.355185,71.65625 L18.535145,71.6 L19.022284,71.54375 L19.44447,71.375 L19.801704,71.09375 L20.4404,70.1 L20.700207,69.7625 L20.960014,69.65 L21.219822,69.7625 L21.82604,70.7 L22.08585,71.0375 L22.345655,71.15 L22.605463,71.0375 L23.211681,70.1 L23.503965,69.70625 L23.8612,69.425 L24.283386,69.25625 L25.463348,69.2 L25.885534,69.14375 L26.11287,68.975 L26.145344,68.69375 L25.636555,67.7 L25.344269,67.30625 L24.987034,67.025 L24.564846,66.85625 L23.384886,66.8 L22.897747,66.74375 L22.47556,66.575 L22.118324,66.29375 L21.47963,65.3 L21.187346,64.90625 L20.83011,64.625 L20.407923,64.45625 L19.227964,64.4 L18.805779,64.45625 L18.578445,64.625 L18.545969,64.90625 L19.05476,65.9 L19.249615,66.35 L19.314568,66.8 L19.249615,67.25 L18.70835,68.3 L18.448542,68.6375 L18.188734,68.75 L17.928928,68.6375 L16.803095,66.8 M23.731297,30.8 L21.999245,30.8 L21.577059,30.85625 L21.349726,31.025 L21.31725,31.30625 L21.82604,32.3 L22.020897,32.75 L22.08585,33.2 L22.020897,33.65 L21.47963,34.7 L21.219822,35.0375 L20.960014,35.15 L20.700207,35.0375 L20.093988,34.1 L19.801704,33.70625 L19.44447,33.425 L19.022284,33.25625 L17.842325,33.2 L17.355185,33.14375 L16.932999,32.975 L16.575764,32.69375 L15.937067,31.7 L15.774687,31.30625 L15.807162,31.025 L16.034496,30.85625 L17.149502,30.8 L17.57169,30.74375 L17.799023,30.575 L17.8315,30.29375 L17.322708,29.3 L17.0629,28.85 L16.803095,28.4 L16.543285,27.95 L15.937067,26.9 L15.644783,26.50625 L15.287547,26.225 L14.865359,26.05625 L13.685402,26 L13.165787,26 L12.646172,26 L12.126557,26 L10.914122,26 L10.491934,25.94375 L10.264603,25.775 L10.232126,25.49375 L10.740916,24.5 L10.935773,24.05 L11.000724,23.6 L10.935773,23.15 L10.394506,22.1 L10.199651,21.65 L10.134699,21.2 L10.199651,20.75 L10.740916,19.7 L10.935773,19.25 L11.000724,18.8 L10.935773,18.35 L10.394506,17.3 L10.134699,16.85 L9.874891,16.4 L9.615084,15.95 L9.008865,14.9 L8.716581,14.50625 L8.359346,14.225 L7.937159,14.05625 L6.7571993,14 L6.3350115,14.05625 L6.1076803,14.225 L6.0752044,14.50625 L6.5839944,15.5 L6.7788496,15.95 L6.843802,16.4 L6.7788496,16.85 L6.237584,17.9 L6.0752044,18.29375 L6.1076803,18.575 L6.3350115,18.74375 L7.45002,18.8 L7.8722067,18.85625 L8.099539,19.025 L8.132015,19.30625 L7.6232247,20.3 L7.428369,20.75 L7.363417,21.2 L7.428369,21.65 L7.969635,22.7 L8.164492,23.15 L8.229443,23.6 L8.164492,24.05 L7.6232247,25.1 L7.428369,25.55 L7.363417,26 L7.428369,26.45 L7.969635,27.5 L8.229444,27.95 L8.48925,28.4 L8.749057,28.85 L9.355276,29.9 L9.550131,30.35 L9.615084,30.8 L9.550131,31.25 L9.008865,32.3 L8.749057,32.75 L8.48925,33.2 L8.229444,33.65 L7.6232247,34.7 L7.363417,35.15 L7.1036096,35.6 L6.843802,36.05 L6.237584,37.1 L6.0427284,37.55 L5.9777765,38 L6.0427284,38.45 L6.5839944,39.5 L6.843802,39.95 L7.1036096,40.4 L7.363417,40.85 L7.969635,41.9 L8.132015,42.29375 L8.099539,42.575 L7.8722067,42.74375 L6.7571993,42.8 L6.3350115,42.85625 L6.1076803,43.025 L6.0752044,43.30625 L6.5839944,44.3 L6.843802,44.75 L7.1036096,45.2 L7.363417,45.65 L7.969635,46.7 L8.229444,47.15 L8.48925,47.6 L8.749057,48.05 L9.355276,49.1 L9.615084,49.55 L9.874891,50 L10.134699,50.45 L10.740916,51.5 L10.903296,51.89375 L10.870821,52.175 L10.643488,52.34375 L9.528481,52.4 L9.041342,52.34375 L8.619154,52.175 L8.261919,51.89375 L7.6232247,50.9 L7.363417,50.45 L7.1036096,50 L6.843802,49.55 L5.717969,47.6 M43.13027,83.6 L41.398216,83.6 L40.878597,83.6 L40.358986,83.6 L39.839375,83.6 L38.626934,83.6 L38.20475,83.54375 L37.977413,83.375 L37.94494,83.09375 L38.453728,82.1 L38.648582,81.65 L38.71354,81.2 L38.648582,80.75 L38.10732,79.7 L37.912464,79.25 L37.84751,78.8 L37.912464,78.35 L38.453728,77.3 L38.616108,76.90625 L38.583633,76.625 L38.3563,76.45625 L37.24129,76.4 L36.75415,76.34375 L36.331963,76.175 L35.97473,75.89375 L35.336037,74.9 L35.076225,74.5625 L34.81642,74.45 L34.556618,74.5625 L33.950397,75.5 L33.69059,75.95 L33.43078,76.4 L33.170975,76.85 L32.564754,77.9 L32.304947,78.2375 L32.045143,78.35 L31.785334,78.2375 L31.179113,77.3 L30.984259,76.85 L30.919306,76.4 L30.984259,75.95 L31.525524,74.9 L31.785334,74.45 L32.045143,74 L32.304947,73.55 L32.911167,72.5 L33.10602,72.05 L33.17097,71.6 L33.10602,71.15 L32.564754,70.1 L32.3699,69.65 L32.30495,69.2 L32.3699,68.75 L32.911167,67.7 L33.170975,67.25 L33.43078,66.8 L33.69059,66.35 L34.296806,65.3 L34.49166,64.85 L34.556618,64.4 L34.49166,63.95 L33.950397,62.9 L33.69059,62.45 L33.43078,62 L33.170975,61.55 L32.564754,60.5 L32.3699,60.05 L32.30495,59.6 L32.3699,59.15 L32.911167,58.1 L33.170975,57.65 L33.43078,57.2 L33.69059,56.75 L34.296806,55.7 L34.459187,55.30625 L34.426712,55.025 L34.19938,54.85625 L33.08437,54.8 L32.66218,54.74375 L32.434853,54.575 L32.402374,54.29375 L32.911167,53.3 L33.10602,52.85 L33.17097,52.4 L33.10602,51.95 L32.564754,50.9 L32.402374,50.50625 L32.434853,50.225 L32.66218,50.05625 L33.77719,50 L34.296806,50 L34.81642,50 L35.336037,50 L36.548473,50 L37.035614,49.94375 L37.4578,49.775 L37.815033,49.49375 L38.453728,48.5 L38.616108,48.10625 L38.583633,47.825 L38.3563,47.65625 L37.24129,47.6 L36.819103,47.54375 L36.591774,47.375 L36.5593,47.09375 L37.068092,46.1 L37.360374,45.70625 L37.71761,45.425 L38.139793,45.25625 L39.319756,45.2 L39.806896,45.14375 L40.229084,44.975 L40.586315,44.69375 L41.225014,43.7 L41.38739,43.30625 L41.354916,43.025 L41.127583,42.85625 L40.012573,42.8 L39.492958,42.8 L38.973343,42.8 L38.453728,42.8 L37.24129,42.8 L36.819103,42.74375 L36.591774,42.575 L36.5593,42.29375 L37.068092,41.3 L37.262947,40.85 L37.3279,40.4 L37.262947,39.95 L36.72168,38.9 L36.461872,38.5625 L36.202065,38.45 L35.942253,38.5625 L35.336037,39.5 L35.076225,39.8375 L34.81642,39.95 L34.556618,39.8375 L33.950397,38.9 L33.755543,38.45 L33.69059,38 L33.755543,37.55 L34.296806,36.5 L34.459187,36.10625 L34.426712,35.825 L34.19938,35.65625 L33.08437,35.6 L32.59723,35.65625 L32.17504,35.825 L31.81781,36.10625 L30.6595,38 M18.188734,26 L19.05476,24.5 L19.31457,24.1625 L19.574375,24.05 L19.834179,24.1625 L20.4404,25.1 L20.635256,25.55 L20.700207,26 L20.635256,26.45 L20.093988,27.5 L19.931608,27.89375 L19.964085,28.175 L20.191418,28.34375 L21.306425,28.4 L21.793564,28.34375 L22.215752,28.175 L22.572987,27.89375 L23.211681,26.9 L23.47149,26.5625 L23.731297,26.45 L23.991102,26.5625 L24.597322,27.5 L24.85713,27.8375 L25.116938,27.95 L25.376745,27.8375 L25.982965,26.9 L26.242773,26.5625 L26.502579,26.45 L26.762384,26.5625 L27.368603,27.5 L27.660889,27.89375 L28.018122,28.175 L28.440308,28.34375 L29.62027,28.4 L30.042456,28.34375 L30.26979,28.175 L30.302265,27.89375 L29.793476,26.9 L29.631098,26.50625 L29.66357,26.225 L29.890905,26.05625 L31.005915,26 L31.525532,26 L32.045143,26 L32.56475,26 L33.77719,26 L34.296806,26 L34.81642,26 L35.336037,26 L36.548473,26 L36.97066,25.94375 L37.197994,25.775 L37.23047,25.49375 L36.72168,24.5 L36.429394,24.10625 L36.07216,23.825 L35.64997,23.65625 L34.47001,23.6 L33.950394,23.6 L33.43078,23.6 L32.91117,23.6 L31.69873,23.6 L31.276545,23.54375 L31.04921,23.375 L31.016735,23.09375 L31.525524,22.1 L31.687906,21.70625 L31.655432,21.425 L31.4281,21.25625 L30.313091,21.2 L29.825953,21.14375 L29.403767,20.975 L29.046534,20.69375 L28.407837,19.7 L28.245457,19.30625 L28.27793,19.025 L28.50526,18.85625 L29.62027,18.8 L30.139887,18.8 L30.6595,18.8 L31.179113,18.8 L32.391552,18.8 L32.878693,18.74375 L33.30088,18.575 L33.65811,18.29375 L34.296806,17.3 L34.556618,16.85 L34.81642,16.4 L35.076225,15.95 L35.682446,14.9 L35.844826,14.50625 L35.81235,14.225 L35.585022,14.05625 L34.47001,14 L33.982872,14.05625 L33.560684,14.225 L33.20345,14.50625 L32.564754,15.5 L32.272472,15.89375 L31.915241,16.175 L31.493053,16.34375 L30.313091,16.4 L29.890905,16.34375 L29.66357,16.175 L29.631098,15.89375 L30.139887,14.9 L30.302265,14.50625 L30.26979,14.225 L30.042456,14.05625 L28.927448,14 L28.407831,14 L27.88822,14 L27.368607,14 L26.156168,14 L25.669027,14.05625 L25.246841,14.225 L24.889606,14.50625 L24.250912,15.5 L23.958628,15.89375 L23.60139,16.175 L23.179205,16.34375 L21.999245,16.4 L21.512106,16.34375 L21.089918,16.175 L20.732683,15.89375 L20.093988,14.9 L19.801704,14.50625 L19.44447,14.225 L19.022284,14.05625 L17.842325,14 L17.420137,14.05625 L17.192806,14.225 L17.160328,14.50625 L17.669119,15.5 L17.863976,15.95 L17.928928,16.4 L17.863976,16.85 L17.322708,17.9 L17.030424,18.29375 L16.673191,18.575 L16.251003,18.74375 L15.071042,18.8 L14.648854,18.85625 L14.421522,19.025 L14.389046,19.30625 L14.897837,20.3 L15.060217,20.69375 L15.0277405,20.975 L14.800407,21.14375 L13.685402,21.2 L13.263216,21.25625 L13.035883,21.425 L13.0034075,21.70625 L13.5121975,22.7 L13.8044815,23.09375 L14.1617155,23.375 L14.583902,23.54375 L15.7638645,23.6 L16.251003,23.54375 L16.673191,23.375 L17.030424,23.09375 L17.669119,22.1 L17.961403,21.70625 L18.318638,21.425 L18.740826,21.25625 L19.920784,21.2 L20.407923,21.25625 L20.83011,21.425 L21.187346,21.70625 L21.82604,22.7 L22.118324,23.09375 L22.47556,23.375 L22.897747,23.54375 L24.077707,23.6 L24.597324,23.6 L25.116938,23.6 L25.63655,23.6 L26.84899,23.6 L27.27118,23.54375 L27.498508,23.375 L27.530985,23.09375 L27.022192,22.1 L26.729908,21.70625 L26.372675,21.425 L25.950489,21.25625 L24.770527,21.2 L24.34834,21.14375 L24.121008,20.975 L24.088531,20.69375 L24.597322,19.7 L24.85713,19.25 L25.116938,18.8 L25.376745,18.35 L26.502579,16.4 M140.1251,74 L139.25908,75.5 L138.99927,75.8375 L138.73947,75.95 L138.47966,75.8375 L137.87344,74.9 L137.61363,74.5625 L137.35384,74.45 L137.09402,74.5625 L136.48781,75.5 L136.29294,75.95 L136.228,76.4 L136.29294,76.85 L136.83421,77.9 L137.09402,78.35 L137.35384,78.8 L137.61363,79.25 L138.21986,80.3 L138.51213,80.69375 L138.86937,80.975 L139.29156,81.14375 L140.47153,81.2 L140.95865,81.25625 L141.38084,81.425 L141.73808,81.70625 L142.37679,82.7 L142.53915,83.09375 L142.50668,83.375 L142.27934,83.54375 L141.16434,83.6 L140.64473,83.6 L140.1251,83.6 L139.6055,83.6 L138.39307,83.6 L137.87344,83.6 L137.35384,83.6 L136.83423,83.6 L135.62178,83.6 L135.1996,83.54375 L134.97226,83.375 L134.93979,83.09375 L135.44858,82.1 L135.64343,81.65 L135.70837,81.2 L135.64343,80.75 L135.10216,79.7 L134.80989,79.30625 L134.45265,79.025 L134.03046,78.85625 L132.8505,78.8 L132.33089,78.8 L131.81126,78.8 L131.29166,78.8 L130.07922,78.8 L129.59207,78.74375 L129.16989,78.575 L128.81265,78.29375 L128.17397,77.3 L127.881676,76.90625 L127.52444,76.625 L127.10226,76.45625 L125.92229,76.4 L125.5001,76.34375 L125.27278,76.175 L125.240295,75.89375 L125.749084,74.9 L126.008896,74.45 L126.2687,74 L126.5285,73.55 L127.13473,72.5 L127.39455,72.05 L127.65434,71.6 L127.91415,71.15 L128.52037,70.1 L128.81265,69.70625 L129.16989,69.425 L129.59207,69.25625 L130.77205,69.2 L131.25919,69.25625 L131.68137,69.425 L132.0386,69.70625 L132.67729,70.7 L132.9371,71.0375 L133.19691,71.15 L133.45671,71.0375 L134.06294,70.1 L134.32275,69.7625 L134.58255,69.65 L134.84236,69.7625 L135.44858,70.7 L135.74086,71.09375 L136.0981,71.375 L136.52028,71.54375 L137.70024,71.6 L138.21985,71.6 L138.73947,71.6 L139.25908,71.6 L140.47153,71.6 L140.8937,71.54375 L141.12105,71.375 L141.15352,71.09375 L140.64473,70.1 L140.48235,69.70625 L140.51482,69.425 L140.74216,69.25625 L141.85716,69.2 L142.27934,69.14375 L142.50668,68.975 L142.53915,68.69375 L142.03036,67.7 L141.73808,67.30625 L141.38084,67.025 L140.95865,66.85625 L139.7787,66.8 L139.29156,66.85625 L138.86937,67.025 L138.51213,67.30625 L137.87344,68.3 L137.61363,68.6375 L137.35384,68.75 L137.09402,68.6375 L136.48781,67.7 L136.228,67.25 L135.96819,66.8 L135.70839,66.35 L135.10216,65.3 L134.80989,64.90625 L134.45265,64.625 L134.03046,64.45625 L132.8505,64.4 L132.42831,64.45625 L132.20097,64.625 L132.1685,64.90625 L132.67729,65.9 L132.83968,66.29375 L132.8072,66.575 L132.57986,66.74375 L131.46486,66.8 L130.97772,66.74375 L130.55553,66.575 L130.19829,66.29375 L129.5596,65.3 L129.36475,64.85 L129.2998,64.4 L129.36475,63.95 L129.90602,62.9 L130.10086,62.45 L130.16582,62 L130.10086,61.55 L129.5596,60.5 L129.39723,60.10625 L129.42972,59.825 L129.65703,59.65625 L130.77205,59.6 L131.25919,59.54375 L131.68137,59.375 L132.0386,59.09375 L132.67729,58.1 L132.83968,57.70625 L132.8072,57.425 L132.57986,57.25625 L131.46486,57.2 L130.97772,57.14375 L130.55553,56.975 L130.19829,56.69375 L129.5596,55.7 L129.36475,55.25 L129.2998,54.8 L129.36475,54.35 L129.90602,53.3 L130.19829,52.90625 L130.55553,52.625 L130.97772,52.45625 L132.15768,52.4 L132.57986,52.34375 L132.8072,52.175 L132.83968,51.89375 L132.33089,50.9 L132.0386,50.50625 L131.68137,50.225 L131.25919,50.05625 L130.07922,50 L129.59207,49.94375 L129.16989,49.775 L128.81265,49.49375 L128.17397,48.5 L127.91415,48.1625 L127.65434,48.05 L127.39455,48.1625 L126.788315,49.1 L126.5285,49.55 L126.2687,50 L126.008896,50.45 L125.40267,51.5 L125.14286,51.95 L124.88306,52.4 L124.62325,52.85 L124.01703,53.9 L123.82218,54.35 L123.757225,54.8 L123.82218,55.25 L124.36344,56.3 L124.65572,56.69375 L125.01296,56.975 L125.43514,57.14375 L126.61511,57.2 L127.03731,57.14375 L127.264626,56.975 L127.297104,56.69375 L126.788315,55.7 L126.59346,55.25 L126.52852,54.8 L126.59346,54.35 L127.65434,52.4 M43.13027,45.2 L42.26424,46.7 L42.069386,47.15 L42.004433,47.6 L42.069386,48.05 L42.61065,49.1 L42.87046,49.4375 L43.13027,49.55 L43.39007,49.4375 L43.996292,48.5 L44.2561,48.1625 L44.515907,48.05 L44.775715,48.1625 L45.381935,49.1 L45.641743,49.55 L45.901546,50 L46.161354,50.45 L46.76757,51.5 L47.02738,51.95 L47.28719,52.4 L47.546997,52.85 L48.153217,53.9 L48.413025,54.2375 L48.67283,54.35 L48.932636,54.2375 L49.538857,53.3 L49.798664,52.85 L50.058468,52.4 L50.318275,51.95 L50.92449,50.9 L51.11935,50.45 L51.184303,50 L51.11935,49.55 L50.578083,48.5 L50.318275,48.05 L50.058468,47.6 L49.798664,47.15 L49.192444,46.1 L48.99759,45.65 L48.932636,45.2 L48.99759,44.75 L49.538857,43.7 L49.798664,43.3625 L50.058468,43.25 L50.318275,43.3625 L50.92449,44.3 L51.184303,44.6375 L51.44411,44.75 L51.70392,44.6375 L52.31013,43.7 L52.569946,43.25 L52.82975,42.8 L53.08955,42.35 L53.695778,41.3 L53.988056,40.90625 L54.345287,40.625 L54.767475,40.45625 L55.947437,40.4 L56.467052,40.4 L56.98667,40.4 L57.506287,40.4 L58.718727,40.4 L59.205864,40.34375 L59.62805,40.175 L59.985283,39.89375 L60.623974,38.9 L60.91626,38.50625 L61.2735,38.225 L61.695686,38.05625 L62.87565,38 L63.362785,38.05625 L63.784973,38.225 L64.142204,38.50625 L64.7809,39.5 L64.97575,39.95 L65.0407,40.4 L64.97575,40.85 L64.43449,41.9 L64.27211,42.29375 L64.30458,42.575 L64.53191,42.74375 L65.64693,42.8 L66.16654,42.8 L66.68616,42.8 L67.20577,42.8 L68.41821,42.8 L68.8404,42.74375 L69.06773,42.575 L69.100204,42.29375 L68.591415,41.3 L68.39656,40.85 L68.331604,40.4 L68.39656,39.95 L68.93782,38.9 L69.19763,38.5625 L69.45744,38.45 L69.71725,38.5625 L70.32346,39.5 L70.583275,39.95 L70.84308,40.4 L71.10288,40.85 L71.70911,41.9 L71.96891,42.35 L72.228714,42.8 L72.488525,43.25 L73.09474,44.3 L73.257126,44.69375 L73.22465,44.975 L72.997314,45.14375 L71.88231,45.2 L71.395164,45.25625 L70.972984,45.425 L70.615746,45.70625 L69.97705,46.7 L69.782196,47.15 L69.71725,47.6 L69.782196,48.05 L70.32346,49.1 L70.583275,49.55 L70.84308,50 L71.10288,50.45 L71.70911,51.5 L71.87148,51.89375 L71.839005,52.175 L71.61168,52.34375 L70.496666,52.4 L69.97705,52.4 L69.45744,52.4 L68.93783,52.4 L67.72539,52.4 L67.23825,52.45625 L66.81606,52.625 L66.458824,52.90625 L65.82013,53.9 L65.56032,54.35 L65.300514,54.8 L65.04071,55.25 L64.43449,56.3 L64.17468,56.6375 L63.914875,56.75 L63.655067,56.6375 L63.048847,55.7 L62.75657,55.30625 L62.39933,55.025 L61.977142,54.85625 L60.79718,54.8 L60.277565,54.8 L59.757954,54.8 L59.238342,54.8 L58.0259,54.8 L57.538765,54.74375 L57.116577,54.575 L56.75934,54.29375 L56.120644,53.3 L55.958263,52.90625 L55.99074,52.625 L56.21807,52.45625 L57.33308,52.4 L57.75527,52.34375 L57.982605,52.175 L58.015083,51.89375 L57.506287,50.9 L57.311424,50.45 L57.24648,50 L57.311424,49.55 L57.8527,48.5 L58.047558,48.05 L58.112507,47.6 L58.047558,47.15 L57.506287,46.1 L57.24647,45.65 L56.98667,45.2 L56.726868,44.75 L56.120644,43.7 L55.958263,43.30625 L55.99074,43.025 L56.21807,42.85625 L57.33308,42.8 L57.8527,42.8 L58.372314,42.8 L58.891926,42.8 L60.104362,42.8 L60.52655,42.85625 L60.753883,43.025 L60.786358,43.30625 L60.277565,44.3 L60.115185,44.69375 L60.147663,44.975 L60.374992,45.14375 L61.49,45.2 L62.00962,45.2 L62.52923,45.2 L63.04884,45.2 L64.26128,45.2 L64.683464,45.25625 L64.910805,45.425 L64.94328,45.70625 L64.43449,46.7 L64.23963,47.15 L64.17468,47.6 L64.23963,48.05 L64.7809,49.1 L65.07318,49.49375 L65.43042,49.775 L65.85261,49.94375 L67.03257,50 L67.45476,49.94375 L67.68208,49.775 L67.71456,49.49375 L67.20577,48.5 L67.01091,48.05 L66.94597,47.6 L67.01091,47.15 L68.07179,45.2 M76.385635,59.6 L77.25166,61.1 L77.511475,61.4375 L77.771286,61.55 L78.03109,61.4375 L78.63731,60.5 L78.92959,60.10625 L79.28683,59.825 L79.70901,59.65625 L80.88897,59.6 L81.408585,59.6 L81.9282,59.6 L82.447815,59.6 L83.660255,59.6 L84.08244,59.54375 L84.30977,59.375 L84.34225,59.09375 L83.83346,58.1 L83.541176,57.70625 L83.18394,57.425 L82.76175,57.25625 L81.58179,57.2 L81.06217,57.2 L80.54256,57.2 L80.02295,57.2 L78.81051,57.2 L78.38832,57.14375 L78.160995,56.975 L78.12852,56.69375 L78.63731,55.7 L78.83217,55.25 L78.89711,54.8 L78.83217,54.35 L78.29089,53.3 L78.03109,52.9625 L77.771286,52.85 L77.511475,52.9625 L76.90526,53.9 L76.612976,54.29375 L76.25574,54.575 L75.83355,54.74375 L74.65359,54.8 L74.16645,54.85625 L73.74426,55.025 L73.387024,55.30625 L72.74833,56.3 L72.488525,56.75 L72.228714,57.2 L71.96891,57.65 L71.36269,58.7 L71.20031,59.09375 L71.23279,59.375 L71.46012,59.54375 L72.57513,59.6 L73.06227,59.65625 L73.48445,59.825 L73.84169,60.10625 L74.480385,61.1 L74.67525,61.55 L74.74019,62 L74.67525,62.45 L74.13397,63.5 L73.87416,63.8375 L73.61436,63.95 L73.35455,63.8375 L72.74833,62.9 L72.488525,62.5625 L72.228714,62.45 L71.96891,62.5625 L71.36269,63.5 L71.16783,63.95 L71.10289,64.4 L71.16783,64.85 L71.70911,65.9 L71.87148,66.29375 L71.839005,66.575 L71.61168,66.74375 L70.496666,66.8 L70.00953,66.85625 L69.58734,67.025 L69.2301,67.30625 L68.591415,68.3 L68.39656,68.75 L68.331604,69.2 L68.39656,69.65 L68.93782,70.7 L69.19763,71.15 L69.45744,71.6 L69.71725,72.05 L70.32346,73.1 L70.583275,73.4375 L70.84308,73.55 L71.10288,73.4375 L71.70911,72.5 L71.96891,72.1625 L72.228714,72.05 L72.488525,72.1625 L73.09474,73.1 L73.387024,73.49375 L73.74426,73.775 L74.16645,73.94375 L75.34641,74 L75.86603,74 L76.385635,74 L76.90525,74 L78.11769,74 L78.53987,74.05625 L78.76721,74.225 L78.79969,74.50625 L78.29089,75.5 L78.03109,75.95 L77.771286,76.4 L77.511475,76.85 L76.90526,77.9 L76.64545,78.2375 L76.385635,78.35 L76.12583,78.2375 L75.519615,77.3 L75.22733,76.90625 L74.870094,76.625 L74.44791,76.45625 L73.267944,76.4 L72.74833,76.4 L72.228714,76.4 L71.70911,76.4 L70.496666,76.4 L69.97705,76.4 L69.45744,76.4 L68.93783,76.4 L67.72539,76.4 L67.20577,76.4 L66.68616,76.4 L66.16654,76.4 L64.9541,76.4 L64.53191,76.34375 L64.30458,76.175 L64.27211,75.89375 L64.7809,74.9 L65.04071,74.45 L65.300514,74 L65.56032,73.55 L66.16654,72.5 L66.361404,72.05 L66.426346,71.6 L66.361404,71.15 L65.82013,70.1 L65.52785,69.70625 L65.17061,69.425 L64.74842,69.25625 L63.56846,69.2 L63.04884,69.2 L62.52923,69.2 L62.00962,69.2 L60.79718,69.2 L60.31004,69.14375 L59.887856,68.975 L59.53062,68.69375 L58.89193,67.7 L58.729546,67.30625 L58.762024,67.025 L58.989357,66.85625 L60.104362,66.8 L60.591503,66.74375 L61.013683,66.575 L61.370922,66.29375 L62.00962,65.3 L62.26942,64.85 L62.52923,64.4 L62.78904,63.95 L63.395256,62.9 L63.68754,62.50625 L64.04478,62.225 L64.466965,62.05625 L65.64693,62 L66.06911,61.94375 L66.29645,61.775 L66.328926,61.49375 L65.82013,60.5 L65.62527,60.05 L65.56032,59.6 L65.62527,59.15 L66.16654,58.1 L66.42635,57.65 L66.68616,57.2 L66.94596,56.75 L67.552185,55.7 L67.84447,55.30625 L68.2017,55.025 L68.623886,54.85625 L69.80385,54.8 L70.22603,54.85625 L70.45337,55.025 L70.48585,55.30625 L69.97705,56.3 L69.71725,56.75 L69.45744,57.2 L69.19763,57.65 L68.591415,58.7 L68.39656,59.15 L68.331604,59.6 L68.39656,60.05 L68.93782,61.1 L69.132675,61.55 L69.19763,62 L69.132675,62.45 L68.591415,63.5 L68.331604,63.95 L68.07179,64.4 L67.81199,64.85 L67.20577,65.9 L66.91349,66.29375 L66.55625,66.575 L66.13406,66.74375 L64.9541,66.8 L64.53191,66.74375 L64.30458,66.575 L64.27211,66.29375 L65.300514,64.4 M51.44411,40.4 L49.71206,40.4 L49.224922,40.45625 L48.802734,40.625 L48.445503,40.90625 L47.806805,41.9 L47.546997,42.35 L47.28719,42.8 L47.02738,43.25 L46.42116,44.3 L46.161354,44.6375 L45.901546,44.75 L45.641743,44.6375 L45.035522,43.7 L44.840668,43.25 L44.775715,42.8 L44.840668,42.35 L45.381935,41.3 L45.57679,40.85 L45.641743,40.4 L45.57679,39.95 L45.035522,38.9 L44.775715,38.5625 L44.515907,38.45 L44.2561,38.5625 L43.64988,39.5 L43.357597,39.89375 L43.000362,40.175 L42.57818,40.34375 L41.398216,40.4 L40.976025,40.34375 L40.748695,40.175 L40.71622,39.89375 L41.225014,38.9 L41.38739,38.50625 L41.354916,38.225 L41.127583,38.05625 L40.012573,38 L39.590385,37.94375 L39.363052,37.775 L39.330578,37.49375 L39.839367,36.5 L40.099174,36.05 L40.358986,35.6 L40.618793,35.15 L41.225014,34.1 L41.38739,33.70625 L41.354916,33.425 L41.127583,33.25625 L40.012573,33.2 L39.590385,33.14375 L39.363052,32.975 L39.330578,32.69375 L39.839367,31.7 L40.03422,31.25 L40.099174,30.8 L40.03422,30.35 L39.492958,29.3 L39.330578,28.90625 L39.363052,28.625 L39.590385,28.45625 L40.705395,28.4 L41.192535,28.45625 L41.614723,28.625 L41.971954,28.90625 L42.61065,29.9 L42.902935,30.29375 L43.26017,30.575 L43.682354,30.74375 L44.862316,30.8 L45.349457,30.74375 L45.771645,30.575 L46.128876,30.29375 L46.76757,29.3 L47.02738,28.9625 L47.28719,28.85 L47.546997,28.9625 L48.153217,29.9 L48.445503,30.29375 L48.802734,30.575 L49.224922,30.74375 L50.404884,30.8 L50.9245,30.8 L51.44411,30.8 L51.963722,30.8 L53.17616,30.8 L53.598347,30.85625 L53.825676,31.025 L53.858154,31.30625 L53.349365,32.3 L53.05708,32.69375 L52.69984,32.975 L52.27766,33.14375 L51.0977,33.2 L50.610558,33.25625 L50.188374,33.425 L49.83114,33.70625 L49.192444,34.7 L48.932636,35.15 L48.67283,35.6 L48.413025,36.05 L47.806805,37.1 L47.644424,37.49375 L47.6769,37.775 L47.90423,37.94375 L49.019238,38 L49.538857,38 L50.058468,38 L50.578083,38 L51.79052,38 L52.212708,37.94375 L52.44004,37.775 L52.472515,37.49375 L51.963722,36.5 L51.801342,36.10625 L51.83382,35.825 L52.06115,35.65625 L53.17616,35.6 L53.695778,35.6 L54.215385,35.6 L54.734997,35.6 L55.947437,35.6 L56.36962,35.65625 L56.596962,35.825 L56.629436,36.10625 L56.120644,37.1 L55.958263,37.49375 L55.99074,37.775 L56.21807,37.94375 L57.33308,38 L57.82022,37.94375 L58.24241,37.775 L58.599648,37.49375 L59.238342,36.5 L59.498146,36.05 L59.757954,35.6 L60.01776,35.15 L60.623974,34.1 L60.818836,33.65 L60.88378,33.2 L60.818836,32.75 L60.277565,31.7 L60.115185,31.30625 L60.147663,31.025 L60.374992,30.85625 L61.49,30.8 L61.977142,30.74375 L62.39933,30.575 L62.75657,30.29375 L63.395256,29.3 L63.68754,28.90625 L64.04478,28.625 L64.466965,28.45625 L65.64693,28.4 L66.06911,28.45625 L66.29645,28.625 L66.328926,28.90625 L65.82013,29.9 L65.657745,30.29375 L65.69022,30.575 L65.91756,30.74375 L67.03257,30.8 L67.45476,30.85625 L67.68208,31.025 L67.71456,31.30625 L67.20577,32.3 L66.94596,32.75 L66.68616,33.2 L66.42635,33.65 L65.82013,34.7 L65.62527,35.15 L65.56032,35.6 L65.62527,36.05 L66.16654,37.1 L66.42635,37.4375 L66.68616,37.55 L66.94596,37.4375 L67.552185,36.5 L67.81199,36.05 L68.07179,35.6 L68.331604,35.15 L68.93782,34.1 L69.19763,33.65 L69.45744,33.2 L69.71725,32.75 L70.32346,31.7 L70.518326,31.25 L70.58327,30.8 L70.518326,30.35 L69.97705,29.3 L69.782196,28.85 L69.71725,28.4 L69.782196,27.95 L70.32346,26.9 L70.583275,26.45 L70.84308,26 L71.10288,25.55 L71.70911,24.5 L71.90396,24.05 L71.96891,23.6 L71.90396,23.15 L71.36269,22.1 L71.10288,21.7625 L70.84308,21.65 L70.583275,21.7625 L69.97705,22.7 L69.71725,23.15 L69.45744,23.6 L69.19763,24.05 L68.591415,25.1 L68.331604,25.4375 L68.07179,25.55 L67.81199,25.4375 L67.20577,24.5 L66.91349,24.10625 L66.55625,23.825 L66.13406,23.65625 L64.9541,23.6 L64.466965,23.54375 L64.04478,23.375 L63.68754,23.09375 L63.048847,22.1 L62.886467,21.70625 L62.918938,21.425 L63.14627,21.25625 L64.26128,21.2 L64.7809,21.2 L65.300514,21.2 L65.82013,21.2 L68.07179,21.2 M23.731297,40.4 L22.86527,38.9 L22.670414,38.45 L22.605463,38 L22.670414,37.55 L23.211681,36.5 L23.503965,36.10625 L23.8612,35.825 L24.283386,35.65625 L25.463348,35.6 L25.982965,35.6 L26.502579,35.6 L27.022192,35.6 L28.23463,35.6 L28.656818,35.65625 L28.884151,35.825 L28.916626,36.10625 L28.407837,37.1 L28.212982,37.55 L28.14803,38 L28.212982,38.45 L28.754248,39.5 L29.046534,39.89375 L29.403767,40.175 L29.825953,40.34375 L31.005915,40.4 L31.493053,40.45625 L31.915241,40.625 L32.272472,40.90625 L32.911167,41.9 L33.170975,42.35 L33.43078,42.8 L33.69059,43.25 L34.296806,44.3 L34.49166,44.75 L34.556618,45.2 L34.49166,45.65 L33.950397,46.7 L33.65811,47.09375 L33.30088,47.375 L32.878693,47.54375 L31.69873,47.6 L31.276545,47.54375 L31.04921,47.375 L31.016735,47.09375 L31.525524,46.1 L31.687906,45.70625 L31.655432,45.425 L31.4281,45.25625 L30.313091,45.2 L29.890905,45.14375 L29.66357,44.975 L29.631098,44.69375 L30.139887,43.7 L30.302265,43.30625 L30.26979,43.025 L30.042456,42.85625 L28.927448,42.8 L28.440308,42.74375 L28.018122,42.575 L27.660889,42.29375 L27.022192,41.3 L26.762384,40.9625 L26.502579,40.85 L26.242773,40.9625 L25.636555,41.9 L25.376745,42.35 L25.116938,42.8 L24.85713,43.25 L24.250912,44.3 L23.991102,44.6375 L23.731297,44.75 L23.47149,44.6375 L22.86527,43.7 L22.572987,43.30625 L22.215752,43.025 L21.793564,42.85625 L20.613605,42.8 L20.126465,42.85625 L19.704279,43.025 L19.347044,43.30625 L18.70835,44.3 L18.416065,44.69375 L18.05883,44.975 L17.636642,45.14375 L16.456684,45.2 L15.969543,45.25625 L15.547356,45.425 L15.19012,45.70625 L14.551425,46.7 L14.35657,47.15 L14.291618,47.6 L14.35657,48.05 L14.897837,49.1 L15.19012,49.49375 L15.547356,49.775 L15.969543,49.94375 L17.149502,50 L17.636642,50.05625 L18.05883,50.225 L18.416065,50.50625 L19.05476,51.5 L19.21714,51.89375 L19.184664,52.175 L18.957333,52.34375 L17.842325,52.4 L17.420137,52.45625 L17.192806,52.625 L17.160328,52.90625 L17.669119,53.9 L17.8315,54.29375 L17.799023,54.575 L17.57169,54.74375 L16.456684,54.8 L15.969543,54.85625 L15.547356,55.025 L15.19012,55.30625 L14.551425,56.3 L14.389046,56.69375 L14.421522,56.975 L14.648854,57.14375 L15.7638645,57.2 L16.186052,57.25625 L16.413382,57.425 L16.445858,57.70625 L15.937067,58.7 L15.74221,59.15 L15.6772585,59.6 L15.74221,60.05 L16.283478,61.1 L16.478334,61.55 L16.543285,62 L16.478334,62.45 L15.937067,63.5 L15.6772585,63.8375 L15.417452,63.95 L15.157644,63.8375 L14.551425,62.9 L14.291616,62.45 L14.031812,62 L13.772006,61.55 L13.165787,60.5 L12.905978,60.05 L12.646173,59.6 L12.386365,59.15 L11.780147,58.1 L11.487864,57.70625 L11.130628,57.425 L10.708441,57.25625 L9.528481,57.2 L9.008865,57.2 L8.48925,57.2 L7.969635,57.2 L6.7571993,57.2 L6.3350115,57.14375 L6.1076803,56.975 L6.0752044,56.69375 L6.5839944,55.7 L6.876277,55.30625 L7.233513,55.025 L7.6557007,54.85625 L8.835661,54.8 L9.355276,54.8 L9.874891,54.8 L10.394506,54.8 L11.606942,54.8 L12.094081,54.74375 L12.516269,54.575 L12.873503,54.29375 L13.5121975,53.3 L13.707052,52.85 L13.772005,52.4 L13.707052,51.95 L13.165787,50.9 L12.905978,50.45 L12.646173,50 L12.386365,49.55 L11.780147,48.5 L11.520338,48.05 L11.260531,47.6 L11.000725,47.15 L10.394506,46.1 L10.232126,45.70625 L10.264603,45.425 L10.491934,45.25625 L11.606942,45.2 L12.029129,45.14375 L12.25646,44.975 L12.288937,44.69375 L11.780147,43.7 L11.617766,43.30625 L11.650243,43.025 L11.877575,42.85625 L12.992581,42.8 L13.479721,42.74375 L13.901907,42.575 L14.259142,42.29375 L14.897837,41.3 L15.092692,40.85 L15.157644,40.4 L15.092692,39.95 L14.551425,38.9 L14.389046,38.50625 L14.421522,38.225 L14.648854,38.05625 L15.7638645,38 L16.283482,38 L16.803095,38 L17.322708,38 L18.535145,38 L18.957333,37.94375 L19.184664,37.775 L19.21714,37.49375 L18.70835,36.5 L18.416065,36.10625 L18.05883,35.825 L17.636642,35.65625 L16.456684,35.6 L15.937067,35.6 L15.417452,35.6 L14.897837,35.6 L13.685402,35.6 L13.263216,35.54375 L13.035883,35.375 L13.0034075,35.09375 L13.5121975,34.1 L13.707052,33.65 L13.772005,33.2 L13.707052,32.75 L13.165787,31.7 L12.97093,31.25 L12.90598,30.8 L12.97093,30.35 L13.5121975,29.3 L13.674578,28.90625 L13.6421,28.625 L13.414769,28.45625 L11.260531,28.4 M108.25537,28.4 L109.98743,28.4 L110.50706,28.4 L111.02666,28.4 L111.546265,28.4 L112.75871,28.4 L113.18089,28.34375 L113.408226,28.175 L113.4407,27.89375 L112.93192,26.9 L112.73706,26.45 L112.67212,26 L112.73706,25.55 L113.278336,24.5 L113.4407,24.10625 L113.408226,23.825 L113.18089,23.65625 L112.065895,23.6 L111.6437,23.54375 L111.41638,23.375 L111.383896,23.09375 L111.892685,22.1 L112.08755,21.65 L112.15249,21.2 L112.08755,20.75 L111.54628,19.7 L111.383896,19.30625 L111.41638,19.025 L111.6437,18.85625 L112.75871,18.8 L113.24585,18.74375 L113.66803,18.575 L114.02527,18.29375 L114.66396,17.3 L114.92378,16.85 L115.18358,16.4 L115.44338,15.95 L116.0496,14.9 L116.211975,14.50625 L116.17949,14.225 L115.95217,14.05625 L114.83716,14 L114.31755,14 L113.797935,14 L113.27832,14 L112.065895,14 L111.6437,14.05625 L111.41638,14.225 L111.383896,14.50625 L111.892685,15.5 L112.05507,15.89375 L112.02258,16.175 L111.795265,16.34375 L110.68025,16.4 L110.1931,16.34375 L109.77092,16.175 L109.41368,15.89375 L108.77499,14.9 L108.515175,14.5625 L108.25537,14.45 L107.99557,14.5625 L107.38934,15.5 L107.12954,15.8375 L106.869736,15.95 L106.60994,15.8375 L106.00371,14.9 L105.7439,14.5625 L105.48409,14.45 L105.22429,14.5625 L104.61808,15.5 L104.42322,15.95 L104.35828,16.4 L104.42322,16.85 L104.96449,17.9 L105.25676,18.29375 L105.614,18.575 L106.03618,18.74375 L107.21614,18.8 L107.703285,18.85625 L108.125465,19.025 L108.482704,19.30625 L109.1214,20.3 L109.283775,20.69375 L109.2513,20.975 L109.02397,21.14375 L107.90896,21.2 L107.38936,21.2 L106.869736,21.2 L106.35012,21.2 L105.137695,21.2 L104.618065,21.2 L104.098465,21.2 L103.57886,21.2 L102.36641,21.2 L101.879265,21.14375 L101.45708,20.975 L101.09984,20.69375 L100.46114,19.7 L100.20133,19.25 L99.94153,18.8 L99.681725,18.35 L99.0755,17.3 L98.8157,16.85 L98.55589,16.4 L98.29608,15.95 L97.689865,14.9 L97.43005,14.5625 L97.17025,14.45 L96.910446,14.5625 L96.30422,15.5 L96.04441,15.8375 L95.78461,15.95 L95.5248,15.8375 L94.91858,14.9 L94.658775,14.5625 L94.39897,14.45 L94.13916,14.5625 L93.53294,15.5 L93.27313,15.8375 L93.01332,15.95 L92.75352,15.8375 L92.1473,14.9 L91.85502,14.50625 L91.49778,14.225 L91.0756,14.05625 L89.89564,14 L89.37602,14 L88.85641,14 L88.33679,14 L87.12435,14 L86.70216,14.05625 L86.47484,14.225 L86.44236,14.50625 L86.95115,15.5 L87.24343,15.89375 L87.60067,16.175 L88.02286,16.34375 L89.20282,16.4 L89.68996,16.45625 L90.112144,16.625 L90.469376,16.90625 L91.10807,17.9 L91.40035,18.29375 L91.75759,18.575 L92.17978,18.74375 L93.35974,18.8 L93.78193,18.85625 L94.00926,19.025 L94.04173,19.30625 L93.53294,20.3 L93.27313,20.75 L93.01332,21.2 L92.75352,21.65 L92.1473,22.7 L91.85502,23.09375 L91.49778,23.375 L91.0756,23.54375 L89.89564,23.6 L89.47345,23.54375 L89.24612,23.375 L89.21364,23.09375 L89.722435,22.1 L89.91729,21.65 L89.98224,21.2 L89.91729,20.75 L89.37602,19.7 L89.08374,19.30625 L88.7265,19.025 L88.30431,18.85625 L87.12435,18.8 L86.637215,18.74375 L86.21503,18.575 L85.85779,18.29375 L85.2191,17.3 L84.92682,16.90625 L84.56958,16.625 L84.14739,16.45625 L82.96743,16.4 L82.54524,16.34375 L82.31791,16.175 L82.28543,15.89375 L82.79423,14.9 L82.95661,14.50625 L82.92413,14.225 L82.69679,14.05625 L81.58179,14 L81.09465,14.05625 L80.67246,14.225 L80.31523,14.50625 L79.67654,15.5 L79.416725,15.95 L79.15692,16.4 L78.89712,16.85 L78.29089,17.9 L78.03109,18.2375 L77.771286,18.35 L77.511475,18.2375 L76.90526,17.3 L76.64545,16.85 L76.385635,16.4 L76.12583,15.95 L75.519615,14.9 L75.2598,14.5625 L75,14.45 L74.7402,14.5625 L74.13397,15.5 L73.84169,15.89375 L73.48445,16.175 L73.06227,16.34375 L71.88231,16.4 L71.46012,16.34375 L71.23279,16.175 L71.20031,15.89375 L71.70911,14.9 L71.87148,14.50625 L71.839005,14.225 L71.61168,14.05625 L70.496666,14 L69.97705,14 L69.45744,14 L68.93783,14 L67.72539,14 L67.20577,14 L66.68616,14 L66.16654,14 L64.9541,14 L64.43449,14 L63.914875,14 L63.395264,14 L62.182823,14 L61.695686,14.05625 L61.2735,14.225 L60.91626,14.50625 L60.277565,15.5 L60.08271,15.95 L60.01776,16.4 L60.08271,16.85 L60.623974,17.9 L60.88379,18.2375 L61.143593,18.35 L61.403393,18.2375 L62.00962,17.3 L62.26942,16.9625 L62.52923,16.85 L62.78904,16.9625 L63.395256,17.9 L63.68754,18.29375 L64.04478,18.575 L64.466965,18.74375 L65.64693,18.8 L66.06911,18.74375 L66.29645,18.575 L66.328926,18.29375 L65.82013,17.3 L65.657745,16.90625 L65.69022,16.625 L65.91756,16.45625 L67.03257,16.4 L67.51971,16.45625 L67.941895,16.625 L68.29913,16.90625 L68.93782,17.9 L69.2301,18.29375 L69.58734,18.575 L70.00953,18.74375 L71.18949,18.8 L71.67663,18.85625 L72.098816,19.025 L72.45605,19.30625 L73.09474,20.3 L73.35455,20.6375 L73.61436,20.75 L73.87416,20.6375 L74.480385,19.7 L74.7402,19.3625 L75,19.25 L75.2598,19.3625 L75.86603,20.3 L76.06088,20.75 L76.12583,21.2 L76.06088,21.65 L75.519615,22.7 L75.32475,23.15 L75.25981,23.6 L75.32475,24.05 L75.86603,25.1 L76.12583,25.4375 L76.385635,25.55 L76.64545,25.4375 L77.25166,24.5 L77.511475,24.1625 L77.771286,24.05 L78.03109,24.1625 L78.63731,25.1 L78.89712,25.55 L79.15692,26 L79.416725,26.45 L80.02295,27.5 L80.31523,27.89375 L80.67246,28.175 L81.09465,28.34375 L82.27461,28.4 L82.69679,28.34375 L82.92413,28.175 L82.95661,27.89375 L82.447815,26.9 L82.188,26.45 L81.9282,26 L81.668396,25.55 L81.06217,24.5 L80.80237,24.05 L80.54256,23.6 L80.28275,23.15 L79.67654,22.1 L79.51415,21.70625 L79.54663,21.425 L79.773964,21.25625 L80.88897,21.2 L81.408585,21.2 L81.9282,21.2 L82.447815,21.2 L83.660255,21.2 L84.08244,21.14375 L84.30977,20.975 L84.34225,20.69375 L83.83346,19.7 L83.541176,19.30625 L83.18394,19.025 L82.76175,18.85625 L80.54256,18.8 M70.84308,35.6 L71.70911,37.1 L71.96891,37.4375 L72.228714,37.55 L72.488525,37.4375 L73.09474,36.5 L73.35455,36.05 L73.61436,35.6 L73.87416,35.15 L74.480385,34.1 L74.7402,33.7625 L75,33.65 L75.2598,33.7625 L75.86603,34.7 L76.12583,35.15 L76.385635,35.6 L76.64545,36.05 L77.25166,37.1 L77.44652,37.55 L77.511475,38 L77.44652,38.45 L76.90526,39.5 L76.64545,39.95 L76.385635,40.4 L76.12583,40.85 L75.519615,41.9 L75.32475,42.35 L75.25981,42.8 L75.32475,43.25 L75.86603,44.3 L76.12583,44.6375 L76.385635,44.75 L76.64545,44.6375 L77.25166,43.7 L77.543945,43.30625 L77.901184,43.025 L78.32337,42.85625 L79.503334,42.8 L79.92552,42.74375 L80.15285,42.575 L80.185326,42.29375 L79.67654,41.3 L79.481674,40.85 L79.41673,40.4 L79.481674,39.95 L80.02295,38.9 L80.28275,38.5625 L80.54256,38.45 L80.80237,38.5625 L81.408585,39.5 L81.668396,39.8375 L81.9282,39.95 L82.188,39.8375 L82.79423,38.9 L82.98909,38.45 L83.05403,38 L82.98909,37.55 L82.447815,36.5 L82.15553,36.10625 L81.798294,35.825 L81.376114,35.65625 L80.19615,35.6 L79.773964,35.54375 L79.54663,35.375 L79.51415,35.09375 L80.02295,34.1 L80.31523,33.70625 L80.67246,33.425 L81.09465,33.25625 L82.27461,33.2 L82.76175,33.25625 L83.18394,33.425 L83.541176,33.70625 L84.17987,34.7 L84.47215,35.09375 L84.829384,35.375 L85.25157,35.54375 L86.43153,35.6 L86.91867,35.65625 L87.34086,35.825 L87.6981,36.10625 L88.33679,37.1 L88.499176,37.49375 L88.4667,37.775 L88.239365,37.94375 L87.12435,38 L86.637215,38.05625 L86.21503,38.225 L85.85779,38.50625 L85.2191,39.5 L85.05672,39.89375 L85.08919,40.175 L85.31652,40.34375 L86.43153,40.4 L86.95115,40.4 L87.470764,40.4 L87.99038,40.4 L89.20282,40.4 L89.68996,40.45625 L90.112144,40.625 L90.469376,40.90625 L91.10807,41.9 L91.30293,42.35 L91.367874,42.8 L91.30293,43.25 L90.76166,44.3 L90.501854,44.6375 L90.24205,44.75 L89.98224,44.6375 L89.37602,43.7 L89.08374,43.30625 L88.7265,43.025 L88.30431,42.85625 L87.12435,42.8 L86.60474,42.8 L86.08513,42.8 L85.56551,42.8 L84.35307,42.8 L83.86594,42.85625 L83.44375,43.025 L83.08651,43.30625 L82.447815,44.3 L82.28543,44.69375 L82.31791,44.975 L82.54524,45.14375 L83.660255,45.2 L84.08244,45.25625 L84.30977,45.425 L84.34225,45.70625 L83.83346,46.7 L83.57365,47.15 L83.31384,47.6 L83.05404,48.05 L82.447815,49.1 L82.15553,49.49375 L81.798294,49.775 L81.376114,49.94375 L80.19615,50 L79.773964,50.05625 L79.54663,50.225 L79.51415,50.50625 L80.02295,51.5 L80.28275,51.95 L80.54256,52.4 L80.80237,52.85 L81.408585,53.9 L81.70087,54.29375 L82.058105,54.575 L82.48029,54.74375 L83.660255,54.8 L84.17987,54.8 L84.69948,54.8 L85.21909,54.8 L86.43153,54.8 L86.853714,54.85625 L87.081055,55.025 L87.11353,55.30625 L86.60474,56.3 L86.40988,56.75 L86.34493,57.2 L86.40988,57.65 L86.95115,58.7 L87.21096,59.0375 L87.470764,59.15 L87.73057,59.0375 L88.33679,58.1 L88.629074,57.70625 L88.98631,57.425 L89.40849,57.25625 L90.588455,57.2 L91.0756,57.14375 L91.49778,56.975 L91.85502,56.69375 L92.49371,55.7 L92.65609,55.30625 L92.62361,55.025 L92.396286,54.85625 L91.28127,54.8 L90.794136,54.74375 L90.37195,54.575 L90.01472,54.29375 L89.37602,53.3 L89.11621,52.85 L88.85641,52.4 L88.5966,51.95 L87.99038,50.9 L87.827995,50.50625 L87.86047,50.225 L88.087814,50.05625 L89.20282,50 L89.722435,50 L90.24205,50 L90.76166,50 L91.9741,50 L92.396286,50.05625 L92.62361,50.225 L92.65609,50.50625 L92.1473,51.5 L91.98492,51.89375 L92.017395,52.175 L92.244736,52.34375 L93.35974,52.4 L93.84688,52.34375 L94.269066,52.175 L94.6263,51.89375 L95.26499,50.9 L95.5248,50.5625 L95.78461,50.45 L96.04441,50.5625 L96.650635,51.5 L96.94292,51.89375 L97.300156,52.175 L97.722336,52.34375 L98.9023,52.4 L99.324486,52.34375 L99.55182,52.175 L99.5843,51.89375 L99.0755,50.9 L98.913124,50.50625 L98.9456,50.225 L99.17293,50.05625 L100.28794,50 L100.807556,50 L101.32717,50 L101.84679,50 L103.05923,50 L103.48142,50.05625 L103.70874,50.225 L103.74123,50.50625 L103.23244,51.5 L103.037575,51.95 L102.97263,52.4 L103.037575,52.85 L103.57884,53.9 L103.87113,54.29375 L104.22837,54.575 L104.65055,54.74375 L105.83052,54.8 L106.2527,54.85625 L106.48003,55.025 L106.5125,55.30625 L106.00371,56.3 L105.84133,56.69375 L105.8738,56.975 L106.101135,57.14375 L107.21614,57.2 L107.73576,57.2 L108.25537,57.2 L108.77498,57.2 L109.98743,57.2 L110.47457,57.25625 L110.89675,57.425 L111.25399,57.70625 L111.892685,58.7 L112.05507,59.09375 L112.02258,59.375 L111.795265,59.54375 L110.68025,59.6 L110.1931,59.65625 L109.77092,59.825 L109.41368,60.10625 L108.77499,61.1 L108.515175,61.55 L108.25537,62 L107.99557,62.45 L107.38934,63.5 L107.12954,63.8375 L106.869736,63.95 L106.60994,63.8375 L106.00371,62.9 L105.7439,62.5625 L105.48409,62.45 L105.22429,62.5625 L104.61808,63.5 L104.35826,63.95 L104.098465,64.4 L103.83866,64.85 L103.23244,65.9 L102.97262,66.35 L102.712814,66.8 L102.45302,67.25 L101.84679,68.3 L101.65193,68.75 L101.586975,69.2 L101.65193,69.65 L102.1932,70.7 L102.45302,71.0375 L102.712814,71.15 L102.97262,71.0375 L103.57884,70.1 L103.83866,69.7625 L104.098465,69.65 L104.35826,69.7625 L104.96449,70.7 L105.22429,71.0375 L105.48409,71.15 L105.7439,71.0375 L106.35012,70.1 L106.60994,69.7625 L106.869736,69.65 L107.12954,69.7625 L107.735756,70.7 L107.99557,71.15 L108.25537,71.6 L108.515175,72.05 L109.1214,73.1 L109.31626,73.55 L109.3812,74 L109.31626,74.45 L108.77499,75.5 L108.61261,75.89375 L108.645096,76.175 L108.87241,76.34375 L109.98743,76.4 L110.47457,76.34375 L110.89675,76.175 L111.25399,75.89375 L111.892685,74.9 L112.152504,74.5625 L112.41231,74.45 L112.672104,74.5625 L113.278336,75.5 L113.47318,75.95 L113.53813,76.4 L113.47318,76.85 L112.93192,77.9 L112.63963,78.29375 L112.282394,78.575 L111.860214,78.74375 L110.68025,78.8 L110.1931,78.85625 L109.77092,79.025 L109.41368,79.30625 L108.77499,80.3 L108.61261,80.69375 L108.645096,80.975 L108.87241,81.14375 L109.98743,81.2 L110.50706,81.2 L111.02666,81.2 L111.546265,81.2 L112.75871,81.2 L113.24585,81.25625 L113.66803,81.425 L114.02527,81.70625 L114.66396,82.7 L114.82634,83.09375 L114.79387,83.375 L114.56654,83.54375 L113.45154,83.6 L112.93191,83.6 L112.41231,83.6 L111.8927,83.6 L110.68025,83.6 L110.16062,83.6 L109.641014,83.6 L109.121414,83.6 L107.90896,83.6 L107.42183,83.54375 L106.99965,83.375 L106.64241,83.09375 L106.00371,82.1 L105.7439,81.7625 L105.48409,81.65 L105.22429,81.7625 L104.61808,82.7 L104.32579,83.09375 L103.96855,83.375 L103.54637,83.54375 L102.36641,83.6 L101.84679,83.6 L101.32717,83.6 L100.807556,83.6 L99.595116,83.6 L99.0755,83.6 L98.55589,83.6 L98.03628,83.6 L96.82384,83.6 L96.30422,83.6 L95.78461,83.6 L95.26499,83.6 L94.05255,83.6 L93.565414,83.54375 L93.14323,83.375 L92.785995,83.09375 L92.1473,82.1 L91.95244,81.65 L91.8875,81.2 L91.95244,80.75 L92.49371,79.7 L92.75352,79.3625 L93.01332,79.25 L93.27313,79.3625 L93.87935,80.3 L94.13916,80.6375 L94.39897,80.75 L94.658775,80.6375 L95.26499,79.7 L95.5248,79.25 L95.78461,78.8 L96.04441,78.35 L96.650635,77.3 L96.81302,76.90625 L96.78054,76.625 L96.55321,76.45625 L95.438194,76.4 L95.01601,76.34375 L94.78868,76.175 L94.7562,75.89375 L95.26499,74.9 L95.557274,74.50625 L95.91451,74.225 L96.3367,74.05625 L97.51666,74 L98.0038,73.94375 L98.42599,73.775 L98.78322,73.49375 L99.42191,72.5 L99.5843,72.10625 L99.55182,71.825 L99.324486,71.65625 L98.20948,71.6 L97.689865,71.6 L97.17025,71.6 L96.650635,71.6 L95.438194,71.6 L94.95106,71.54375 L94.52887,71.375 L94.17163,71.09375 L93.53294,70.1 L93.37056,69.70625 L93.40303,69.425 L93.63036,69.25625 L94.74538,69.2 L95.23251,69.14375 L95.6547,68.975 L96.01194,68.69375 L96.650635,67.7 L96.910446,67.3625 L97.17025,67.25 L97.43005,67.3625 L98.03628,68.3 L98.29608,68.6375 L98.55589,68.75 L98.8157,68.6375 L99.42191,67.7 L99.616776,67.25 L99.68172,66.8 L99.616776,66.35 L99.0755,65.3 L98.78322,64.90625 L98.42599,64.625 L98.0038,64.45625 L96.82384,64.4 L96.3367,64.45625 L95.91451,64.625 L95.557274,64.90625 L94.91858,65.9 L94.658775,66.2375 L94.39897,66.35 L94.13916,66.2375 L93.53294,65.3 L93.33809,64.85 L93.27313,64.4 L93.33809,63.95 L93.87935,62.9 L94.13916,62.45 L94.39897,62 L94.658775,61.55 L95.26499,60.5 L95.427376,60.10625 L95.3949,59.825 L95.16756,59.65625 L94.05255,59.6 L93.63036,59.54375 L93.40303,59.375 L93.37056,59.09375 L93.87935,58.1 L94.17163,57.70625 L94.52887,57.425 L94.95106,57.25625 L96.13102,57.2 L96.61816,57.14375 L97.040344,56.975 L97.39758,56.69375 L98.03628,55.7 L98.198654,55.30625 L98.16618,55.025 L97.93885,54.85625 L95.78461,54.8 M127.46639,98.2084 L127.012794,99.4 M127.46639,98.2084 L127.92,99.4 M127.18199,99.004 L127.75079,99.004 M128.2026,98.6062 L128.2026,99.4 M128.2026,98.833 L128.37361,98.662 L128.487,98.6062 L128.6562,98.6062 L128.7714,98.662 L128.82721,98.833 L128.82721,99.4 M129.33661,98.2084 L129.33661,99.1732 L129.39421,99.3433 L129.50581,99.4 L129.621,99.4 M129.1674,98.6062 L129.5634,98.6062 M130.1862,98.6062 L130.07462,98.662 L129.9594,98.7772 L129.9036,98.946396 L129.9036,99.0598 L129.9594,99.229904 L130.07462,99.3433 L130.1862,99.4 L130.35721,99.4 L130.47061,99.3433 L130.58401,99.229904 L130.6398,99.0598 L130.6398,98.946396 L130.58401,98.7772 L130.47061,98.662 L130.35721,98.6062 L130.1862,98.6062 M131.0358,98.6062 L131.0358,99.4 M131.0358,98.833 L131.20682,98.662 L131.3202,98.6062 L131.48941,98.6062 L131.6046,98.662 L131.66042,98.833 L131.66042,99.4 M132.11221,98.2084 L132.11221,99.4 M132.11221,98.2084 L132.56581,99.4 M133.01941,98.2084 L132.56581,99.4 M133.01941,98.2084 L133.01941,99.4 M134.09763,98.6062 L134.09763,99.4 M134.09763,98.7772 L133.98422,98.662 L133.87082,98.6062 L133.69981,98.6062 L133.58823,98.662 L133.473,98.7772 L133.4172,98.946396 L133.4172,99.0598 L133.473,99.229904 L133.58823,99.3433 L133.69981,99.4 L133.87082,99.4 L133.98422,99.3433 L134.09763,99.229904 M134.54941,98.2084 L134.54941,99.4 M135.11821,98.6062 L134.54941,99.1732 M134.77621,98.946396 L135.17403,99.4 M135.4584,98.946396 L136.13882,98.946396 L136.13882,98.833 L136.08301,98.7196 L136.02542,98.662 L135.91202,98.6062 L135.74101,98.6062 L135.62943,98.662 L135.5142,98.7772 L135.4584,98.946396 L135.4584,99.0598 L135.5142,99.229904 L135.62943,99.3433 L135.74101,99.4 L135.91202,99.4 L136.02542,99.3433 L136.13882,99.229904 M137.1036,98.7772 L137.04602,98.662 L136.87682,98.6062 L136.70583,98.6062 L136.53482,98.662 L136.47902,98.7772 L136.53482,98.8888 L136.65002,98.946396 L136.93262,99.004 L137.04602,99.0598 L137.1036,99.1732 L137.1036,99.229904 L137.04602,99.3433 L136.87682,99.4 L136.70583,99.4 L136.53482,99.3433 L136.47902,99.229904 M138.29521,98.4928 L138.23761,98.3794 L138.12422,98.266 L138.01082,98.2084 L137.78401,98.2084 L137.67062,98.266 L137.55722,98.3794 L137.4996,98.4928 L137.44382,98.662 L137.44382,98.946396 L137.4996,99.1156 L137.55722,99.229904 L137.67062,99.3433 L137.78401,99.4 L138.01082,99.4 L138.12422,99.3433 L138.23761,99.229904 L138.29521,99.1156 L138.29521,98.946396 M138.01082,98.946396 L138.29521,98.946396 M139.31583,98.6062 L139.31583,99.4 M139.31583,98.7772 L139.20242,98.662 L139.08902,98.6062 L138.91801,98.6062 L138.80643,98.662 L138.69121,98.7772 L138.6354,98.946396 L138.6354,99.0598 L138.69121,99.229904 L138.80643,99.3433 L138.91801,99.4 L139.08902,99.4 L139.20242,99.3433 L139.31583,99.229904 M139.76761,98.6062 L139.76761,99.4 M139.76761,98.833 L139.93863,98.662 L140.05202,98.6062 L140.22122,98.6062 L140.33641,98.662 L140.39223,98.833 L140.39223,99.4 M140.39223,98.833 L140.56322,98.662 L140.67482,98.6062 L140.84581,98.6062 L140.95921,98.662 L141.01682,98.833 L141.01682,99.4 M141.41281,98.946396 L142.09323,98.946396 L142.09323,98.833 L142.03741,98.7196 L141.97983,98.662 L141.86642,98.6062 L141.69542,98.6062 L141.58383,98.662 L141.46861,98.7772 L141.41281,98.946396 L141.41281,99.0598 L141.46861,99.229904 L141.58383,99.3433 L141.69542,99.4 L141.86642,99.4 L141.97983,99.3433 L142.09323,99.229904 M143.05801,98.7772 L143.00043,98.662 L142.83122,98.6062 L142.66023,98.6062 L142.48923,98.662 L142.43343,98.7772 L142.48923,98.8888 L142.60443,98.946396 L142.88702,99.004 L143.00043,99.0598 L143.05801,99.1732 L143.05801,99.229904 L143.00043,99.3433 L142.83122,99.4 L142.66023,99.4 L142.48923,99.3433 L142.43343,99.229904 M144.27841,98.2084 L144.10922,98.266 L143.99402,98.435196 L143.93822,98.7196 L143.93822,98.8888 L143.99402,99.1732 L144.10922,99.3433 L144.27841,99.4 L144.39182,99.4 L144.56282,99.3433 L144.67442,99.1732 L144.73203,98.8888 L144.73203,98.7196 L144.67442,98.435196 L144.56282,98.266 L144.39182,98.2084 L144.27841,98.2084 M145.75262,98.2084 L145.18562,98.2084 L145.12802,98.7196 L145.18562,98.662 L145.35483,98.6062 L145.52582,98.6062 L145.69681,98.662 L145.80843,98.7772 L145.86601,98.946396 L145.86601,99.0598 L145.80843,99.229904 L145.69681,99.3433 L145.52582,99.4 L145.35483,99.4 L145.18562,99.3433 L145.12802,99.286606 L145.07222,99.1732 M146.94241,98.6062 L146.88663,98.7772 L146.77322,98.8888 L146.60402,98.946396 L146.54642,98.946396 L146.37723,98.8888 L146.26201,98.7772 L146.2062,98.6062 L146.2062,98.5504 L146.26201,98.3794 L146.37723,98.266 L146.54642,98.2084 L146.60402,98.2084 L146.77322,98.266 L146.88663,98.3794 L146.94241,98.6062 L146.94241,98.8888 L146.88663,99.1732 L146.77322,99.3433 L146.60402,99.4 L146.48882,99.4 L146.31961,99.3433 L146.26201,99.229904" fill="none" stroke="black" stroke-width="0.4"/>
</svg>