<svg height="100mm" units="mm" viewBox="0 0 150 100" width="150mm" xmlns="http://www.w3.org/2000/svg">
<path d="M65.30052,57.2 M88.85641,50.8 L88.290726,50.565685 L88.05641,50 L88.290726,49.434315 L88.85641,49.2 L89.4221,49.434315 L89.65641,50 L89.4221,50.565685 L88.85641,50.8 M117.95486,48.4 L117.389175,48.165688 L117.15486,47.6 L117.389175,47.034313 L117.95486,46.8 L118.520546,47.034313 L118.75486,47.6 L118.520546,48.165688 L117.95486,48.4 M129.04,38.8 L128.4743,38.565685 L128.23999,38 L128.4743,37.434315 L129.04,37.2 L129.60568,37.434315 L129.84,38 L129.60568,38.565685 L129.04,38.8 M29.27386,34 L28.708176,33.765686 L28.473862,33.2 L28.708176,32.634315 L29.27386,32.4 L29.839548,32.634315 L30.073862,33.2 L29.839548,33.765686 L29.27386,34 M25.11694,26.8 L24.551254,26.565685 L24.31694,26 L24.551254,25.434315 L25.11694,25.2 L25.682627,25.434315 L25.91694,26 L25.682627,26.565685 L25.11694,26.8 M43.130272,48.4 L42.564583,48.165688 L42.33027,47.6 L42.564583,47.034313 L43.130272,46.8 L43.695957,47.034313 L43.93027,47.6 L43.695957,48.165688 L43.130272,48.4 M43.130272,58 L42.564583,57.765686 L42.33027,57.2 L42.564583,56.634315 L43.130272,56.4 L43.695957,56.634315 L43.93027,57.2 L43.695957,57.765686 L43.130272,58 M51.44411,38.8 L50.878426,38.565685 L50.64411,38 L50.878426,37.434315 L51.44411,37.2 L52.009796,37.434315 L52.24411,38 L52.009796,38.565685 L51.44411,38.8 M77.771286,50.8 L77.2056,50.565685 L76.97128,50 L77.2056,49.434315 L77.771286,49.2 L78.33697,49.434315 L78.57128,50 L78.33697,50.565685 L77.771286,50.8 M55.601036,50.8 L55.03535,50.565685 L54.801037,50 L55.03535,49.434315 L55.601036,49.2 L56.166725,49.434315 L56.40104,50 L56.166725,50.565685 L55.601036,50.8 M43.130272,67.6 L42.564583,67.365685 L42.33027,66.8 L42.564583,66.234314 L43.130272,66 L43.695957,66.234314 L43.93027,66.8 L43.695957,67.365685 L43.130272,67.6 M19.574377,70 L19.008692,69.765686 L18.774378,69.2 L19.008692,68.634315 L19.574377,68.4 L20.140064,68.634315 L20.374378,69.2 L20.140064,69.765686 L19.574377,70 M93.01333,43.6 L92.44765,43.365685 L92.21333,42.8 L92.44765,42.234314 L93.01333,42 L93.57902,42.234314 L93.81333,42.8 L93.57902,43.365685 L93.01333,43.6 M59.757954,43.6 L59.19227,43.365685 L58.957954,42.8 L59.19227,42.234314 L59.757954,42 L60.32364,42.234314 L60.557953,42.8 L60.32364,43.365685 L59.757954,43.6 M69.45744,70 L68.891754,69.765686 L68.65744,69.2 L68.891754,68.634315 L69.45744,68.4 L70.023125,68.634315 L70.25744,69.2 L70.023125,69.765686 L69.45744,70 M29.27386,62.8 L28.708176,62.565685 L28.473862,62 L28.708176,61.434315 L29.27386,61.2 L29.839548,61.434315 L30.073862,62 L29.839548,62.565685 L29.27386,62.8 M126.268715,62.8 L125.703026,62.565685 L125.46871,62 L125.703026,61.434315 L126.268715,61.2 L126.8344,61.434315 L127.06871,62 L126.8344,62.565685 L126.268715,62.8 M23.731298,53.2 L23.165613,52.965687 L22.9313,52.4 L23.165613,51.834312 L23.731298,51.6 L24.296986,51.834312 L24.5313,52.4 L24.296986,52.965687 L23.731298,53.2 M102.712814,46 L102.14713,45.765686 L101.91282,45.2 L102.14713,44.634315 L102.712814,44.4 L103.2785,44.634315 L103.51282,45.2 L103.2785,45.765686 L102.712814,46 M129.04,34 L128.4743,33.765686 L128.23999,33.2 L128.4743,32.634315 L129.04,32.4 L129.60568,32.634315 L129.84,33.2 L129.60568,33.765686 L129.04,34 M63.91488,70 L63.349194,69.765686 L63.11488,69.2 L63.349194,68.634315 L63.91488,68.4 L64.48057,68.634315 L64.71488,69.2 L64.48057,69.765686 L63.91488,70 M93.01333,48.4 L92.44765,48.165688 L92.21333,47.6 L92.44765,47.034313 L93.01333,46.8 L93.57902,47.034313 L93.81333,47.6 L93.57902,48.165688 L93.01333,48.4 M59.757954,67.6 L59.19227,67.365685 L58.957954,66.8 L59.19227,66.234314 L59.757954,66 L60.32364,66.234314 L60.557953,66.8 L60.32364,67.365685 L59.757954,67.6 M32.045143,29.2 L31.479458,28.965687 L31.245144,28.4 L31.479458,27.834314 L32.045143,27.6 L32.610832,27.834314 L32.845146,28.4 L32.610832,28.965687 L32.045143,29.2 M112.41231,62.8 L111.84662,62.565685 L111.612305,62 L111.84662,61.434315 L112.41231,61.2 L112.97799,61.434315 L113.2123,62 L112.97799,62.565685 L112.41231,62.8 M80.542564,26.8 L79.97688,26.565685 L79.74257,26 L79.97688,25.434315 L80.542564,25.2 L81.10825,25.434315 L81.34257,26 L81.10825,26.565685 L80.542564,26.8 M69.45744,50.8 L68.891754,50.565685 L68.65744,50 L68.891754,49.434315 L69.45744,49.2 L70.023125,49.434315 L70.25744,50 L70.023125,50.565685 L69.45744,50.8 M56.986675,62.8 L56.42099,62.565685 L56.186676,62 L56.42099,61.434315 L56.986675,61.2 L57.55236,61.434315 L57.786674,62 L57.55236,62.565685 L56.986675,62.8 M97.17025,60.4 L96.60457,60.165688 L96.370255,59.6 L96.60457,59.034313 L97.17025,58.8 L97.73594,59.034313 L97.97025,59.6 L97.73594,60.165688 L97.17025,60.4 M112.41231,67.6 L111.84662,67.365685 L111.612305,66.8 L111.84662,66.234314 L112.41231,66 L112.97799,66.234314 L113.2123,66.8 L112.97799,67.365685 L112.41231,67.6 M38.973347,50.8 L38.40766,50.565685 L38.173347,50 L38.40766,49.434315 L38.973347,49.2 L39.539032,49.434315 L39.773346,50 L39.539032,50.565685 L38.973347,50.8 M95.78461,52.4 L97.17025,54.8 M101.32717,47.6 L102.712814,50 M75,40.4 L73.614365,38 M84.699486,62 L87.470764,62 M19.574377,64.4 L20.960018,62 M123.49742,38 L124.88307,40.4 M38.973347,64.4 L37.587704,66.8 M120.72615,33.2 L123.49742,33.2 M58.372314,59.6 L59.757954,57.2 M54.215385,38 L56.986675,38 M68.07179,33.2 L69.45744,35.6 M109.641014,62 L110.33384,60.8 L110.68025,60.2 L111.02666,59.6 L111.37307,59 L112.41231,57.2 M87.470764,42.8 L86.77794,44 L86.43153,44.6 L86.08513,45.2 L85.73872,45.8 L84.699486,47.6 M91.62769,30.8 L93.01333,30.8 L93.57625,30.725 L93.87936,30.5 L93.92265,30.125 L93.01333,28.4 M94.39897,69.2 L95.09178,70.4 L95.48149,70.925 L95.95781,71.3 L96.52073,71.525 L98.55589,71.6 M93.01333,71.6 L91.627686,71.6 L90.93486,71.6 L90.24205,71.6 L89.54923,71.6 L87.470764,71.6 M115.18358,66.8 L115.87639,65.6 L116.2661,65.075 L116.74242,64.7 L117.305336,64.475 L119.3405,64.4 M29.27386,71.6 L30.659504,71.6 L31.352325,71.6 L32.045143,71.6 L32.737965,71.6 L34.816425,71.6 M122.11178,59.6 L123.49742,59.6 L124.14695,59.525 L124.70986,59.3 L125.18618,58.925 L126.268715,57.2 M91.62769,69.2 L90.93487,68 L90.54515,67.475 L90.06885,67.1 L89.50593,66.875 L87.470764,66.8 M129.04,62 L128.34717,63.2 L128.08736,63.8 L128.00076,64.4 L128.08736,65 L129.04,66.8 M102.712814,30.8 L103.40564,29.6 L103.75205,29 L104.098465,28.4 L104.44487,27.8 L104.79128,27.2 L105.00779,26.675 L104.96449,26.3 L104.66138,26.075 L102.712814,26 M88.85641,69.2 L87.470764,69.2 L86.82124,69.275 L86.25833,69.5 L85.78202,69.875 L85.39231,70.4 L85.0459,70.85 L84.699486,71 L84.35307,70.85 L83.31385,69.2 M26.502583,52.4 L25.80976,51.2 L25.549952,50.6 L25.46335,50 L25.549952,49.4 L25.80976,48.8 L26.15617,48.35 L26.502583,48.2 L26.84899,48.35 L27.88822,50 M95.78461,38 L96.47743,36.8 L96.82384,36.35 L97.17025,36.2 L97.51666,36.35 L97.863075,36.8 L98.20949,37.25 L98.55589,37.4 L98.9023,37.25 L99.941536,35.6 M61.143597,30.8 L62.529236,30.8 L63.09215,30.725 L63.395264,30.5 L63.43856,30.125 L63.222057,29.6 L62.96225,29 L62.87565,28.4 L62.96225,27.8 L63.91488,26 M65.30052,66.8 L66.68616,66.8 L67.24907,66.725 L67.552185,66.5 L67.59548,66.125 L67.37898,65.6 L66.98927,65.075 L66.512955,64.7 L65.950035,64.475 L63.91488,64.4 M129.04,47.6 L128.34717,46.4 L128.00076,45.8 L127.65434,45.2 L127.30794,44.6 L126.961525,44 L126.70172,43.4 L126.61511,42.8 L126.70172,42.2 L126.961525,41.6 L127.30794,41.15 L127.65434,41 L128.00076,41.15 L129.04,42.8 M47.28719,45.2 L45.90155,45.2 L45.33863,45.275 L45.035522,45.5 L44.99222,45.875 L45.20873,46.4 L45.598442,46.925 L46.074757,47.3 L46.637672,47.525 L47.28719,47.6 L47.850105,47.675 L48.153217,47.9 L48.196518,48.275 L47.28719,50 M36.202065,45.2 L37.587704,45.2 L38.150623,45.125 L38.453728,44.9 L38.497032,44.525 L38.280525,44 L37.890812,43.475 L37.414497,43.1 L36.851585,42.875 L36.202065,42.8 L35.50924,42.8 L34.816425,42.8 L34.123608,42.8 L32.045143,42.8 M25.11694,40.4 L24.42412,39.2 L24.07771,38.6 L23.731298,38 L23.384892,37.4 L23.038479,36.8 L22.778671,36.2 L22.692068,35.6 L22.778671,35 L23.038479,34.4 L23.384892,33.8 L23.731298,33.2 L24.07771,32.6 L24.42412,32 L24.640627,31.475 L24.597324,31.1 L24.294216,30.875 L22.34566,30.8 M106.869736,28.4 L107.562546,27.2 L107.952255,26.675 L108.42857,26.3 L108.99149,26.075 L109.641014,26 L110.33384,26 L111.02666,26 L111.71948,26 L112.41231,26 L112.97522,26.075 L113.278336,26.3 L113.32163,26.675 L113.105125,27.2 L112.715416,27.725 L112.2391,28.1 L111.676186,28.325 L109.641014,28.4 M19.574377,45.2 L20.267197,44 L20.527004,43.4 L20.613607,42.8 L20.527004,42.2 L20.267197,41.6 L20.05069,41.075 L20.093992,40.7 L20.3971,40.475 L20.960018,40.4 L21.609537,40.475 L22.172453,40.7 L22.648767,41.075 L23.038479,41.6 L23.428192,42.125 L23.904505,42.5 L24.467419,42.725 L26.502583,42.8 M43.130272,33.2 L41.74463,33.2 L41.18171,33.125 L40.8786,32.9 L40.8353,32.525 L41.051807,32 L41.44152,31.475 L41.917835,31.1 L42.48075,30.875 L43.13027,30.8 L43.77979,30.875 L44.342705,31.1 L44.819016,31.475 L45.20873,32 L45.555138,32.45 L45.90155,32.6 L46.24796,32.45 L47.28719,30.8 M102.712814,69.2 L103.40564,68 L103.66545,67.4 L103.75205,66.8 L103.66545,66.2 L103.40564,65.6 L103.18913,65.075 L103.23244,64.7 L103.535545,64.475 L104.098465,64.4 L104.79128,64.4 L105.48409,64.4 L106.1769,64.4 L106.86973,64.4 L107.43264,64.475 L107.735756,64.7 L107.77905,65.075 L107.562546,65.6 L107.21614,66.2 L106.86973,66.8 L106.52333,67.4 L105.48409,69.2 M40.358986,38 L39.66617,39.2 L39.44966,39.725 L39.49296,40.1 L39.79607,40.325 L40.358986,40.4 L41.05181,40.4 L41.74463,40.4 L42.437447,40.4 L43.13027,40.4 L43.693184,40.325 L43.996296,40.1 L44.039597,39.725 L43.82309,39.2 L43.606583,38.675 L43.649883,38.3 L43.952995,38.075 L44.51591,38 L45.16543,38.075 L45.728344,38.3 L46.20466,38.675 L47.28719,40.4 M106.869736,38 L107.562546,39.2 L107.90896,39.8 L108.25537,40.4 L108.60178,41 L108.9482,41.6 L109.2946,42.2 L109.641014,42.8 L109.98743,43.4 L110.33384,44 L110.68025,44.6 L111.02666,45.2 L111.37307,45.8 L111.71948,46.4 L112.10919,46.925 L112.58551,47.3 L113.14842,47.525 L113.79795,47.6 L114.36086,47.525 L114.66396,47.3 L114.70726,46.925 L113.797935,45.2 M90.24205,42.8 L90.93487,41.6 L91.15138,41.075 L91.10808,40.7 L90.80497,40.475 L90.24205,40.4 L89.59253,40.325 L89.02962,40.1 L88.5533,39.725 L88.16359,39.2 L87.77388,38.675 L87.29756,38.3 L86.73464,38.075 L86.08513,38 L85.52221,38.075 L85.2191,38.3 L85.175804,38.675 L85.39231,39.2 L85.60881,39.725 L85.56551,40.1 L85.262405,40.325 L83.31385,40.4 M90.24205,38 L90.93487,36.8 L91.19468,36.2 L91.28128,35.6 L91.19468,35 L90.93487,34.4 L90.588455,33.95 L90.24205,33.8 L89.895645,33.95 L89.54923,34.4 L89.20282,34.85 L88.85641,35 L88.509995,34.85 L88.16359,34.4 L87.77388,33.875 L87.29756,33.5 L86.73464,33.275 L86.08513,33.2 L85.52221,33.275 L85.2191,33.5 L85.175804,33.875 L86.08513,35.6 M32.045143,47.6 L31.352325,48.8 L31.005915,49.4 L30.659504,50 L30.313091,50.6 L29.96668,51.2 L29.750174,51.725 L29.793476,52.1 L30.096584,52.325 L30.659504,52.4 L31.309025,52.325 L31.871939,52.1 L32.34825,51.725 L32.737965,51.2 L33.084373,50.75 L33.430782,50.6 L33.77719,50.75 L34.123604,51.2 L34.38341,51.8 L34.470013,52.4 L34.38341,53 L34.123604,53.6 L33.73389,54.125 L33.257576,54.5 L32.694664,54.725 L30.659504,54.8 M68.07179,38 L67.37898,36.8 L67.03257,36.2 L66.68616,35.6 L66.339745,35 L65.99333,34.4 L65.73353,33.8 L65.64693,33.2 L65.73353,32.6 L65.99333,32 L66.25314,31.4 L66.339745,30.8 L66.25314,30.2 L65.99333,29.6 L65.73353,29 L65.64693,28.4 L65.73353,27.8 L65.99333,27.2 L66.339745,26.75 L66.68616,26.6 L67.03257,26.75 L67.37898,27.2 L67.72539,27.65 L68.0718,27.8 L68.418205,27.65 L69.45744,26 M56.986675,66.8 L57.679493,65.6 L57.895996,65.075 L57.8527,64.7 L57.54959,64.475 L56.986675,64.4 L56.33716,64.325 L55.774242,64.1 L55.297924,63.725 L54.908215,63.2 L54.561806,62.75 L54.215393,62.6 L53.86898,62.75 L53.52257,63.2 L53.17616,63.65 L52.82975,63.8 L52.483337,63.65 L52.136925,63.2 L51.790516,62.75 L51.444103,62.6 L51.097702,62.75 L50.75129,63.2 L50.49148,63.8 L50.404884,64.4 L50.49148,65 L50.75129,65.6 L51.141003,66.125 L51.61731,66.5 L52.18023,66.725 L54.215385,66.8 M127.65434,59.6 L128.34717,58.4 L128.60698,57.8 L128.69357,57.2 L128.60698,56.6 L128.34717,56 L128.08736,55.4 L128.00076,54.8 L128.08736,54.2 L128.34717,53.6 L128.60698,53 L128.69357,52.4 L128.60698,51.8 L128.34717,51.2 L127.95746,50.675 L127.48114,50.3 L126.91823,50.075 L126.2687,50 L125.70579,50.075 L125.40269,50.3 L125.35939,50.675 L125.57589,51.2 L125.83569,51.8 L125.9223,52.4 L125.83569,53 L125.57589,53.6 L125.22948,54.2 L124.88307,54.8 L124.53666,55.4 L124.19025,56 L123.843834,56.45 L123.49742,56.6 L123.15102,56.45 L122.11178,54.8 M76.385635,38 L75.692825,36.8 L75.47632,36.275 L75.519615,35.9 L75.82273,35.675 L76.38564,35.6 L77.07847,35.6 L77.771286,35.6 L78.464096,35.6 L79.15692,35.6 L79.80644,35.675 L80.36936,35.9 L80.84568,36.275 L81.23539,36.8 L81.5818,37.25 L81.92821,37.4 L82.27461,37.25 L82.621025,36.8 L82.88084,36.2 L82.96744,35.6 L82.88084,35 L82.621025,34.4 L82.23131,33.875 L81.755005,33.5 L81.192085,33.275 L80.542564,33.2 L79.89304,33.125 L79.330124,32.9 L78.853806,32.525 L78.464096,32 L78.07439,31.475 L77.598076,31.1 L77.035164,30.875 L76.38564,30.8 L75.73612,30.875 L75.1732,31.1 L74.696884,31.475 L74.307175,32 L74.090675,32.525 L74.13397,32.9 L74.43709,33.125 L76.385635,33.2 M40.358986,42.8 L41.051807,44 L41.398216,44.45 L41.74463,44.6 L42.09104,44.45 L42.43745,44 L42.827164,43.475 L43.303474,43.1 L43.86639,42.875 L44.51591,42.8 L45.208733,42.8 L45.90155,42.8 L46.594368,42.8 L47.28719,42.8 L47.93671,42.875 L48.499626,43.1 L48.975937,43.475 L49.36565,44 L49.71206,44.6 L50.05847,45.2 L50.40488,45.8 L50.75129,46.4 L51.097702,46.85 L51.444103,47 L51.790516,46.85 L52.136925,46.4 L52.396736,45.8 L52.483337,45.2 L52.396736,44.6 L52.136925,44 L51.790516,43.4 L51.444103,42.8 L51.097702,42.2 L50.75129,41.6 L50.534782,41.075 L50.578087,40.7 L50.881195,40.475 L51.44411,40.4 L52.093628,40.475 L52.656544,40.7 L53.132862,41.075 L54.215385,42.8 M44.515907,69.2 L45.20873,70.4 L45.598442,70.925 L46.074757,71.3 L46.637672,71.525 L47.28719,71.6 L47.850105,71.525 L48.153217,71.3 L48.196518,70.925 L47.98001,70.4 L47.6336,69.8 L47.28719,69.2 L46.94078,68.6 L46.594368,68 L46.33456,67.4 L46.247963,66.8 L46.33456,66.2 L46.594368,65.6 L46.94078,65.15 L47.28719,65 L47.6336,65.15 L47.98001,65.6 L48.326424,66.2 L48.67283,66.8 L49.019238,67.4 L49.36565,68 L49.71206,68.6 L50.05847,69.2 L50.40488,69.8 L50.75129,70.4 L51.097702,70.85 L51.444103,71 L51.790516,70.85 L52.136925,70.4 L52.526634,69.875 L53.002953,69.5 L53.56587,69.275 L54.215393,69.2 L54.77831,69.275 L55.08142,69.5 L55.124718,69.875 L54.908215,70.4 L54.691704,70.925 L54.73501,71.3 L55.03811,71.525 L56.986675,71.6 M120.72615,42.8 L121.41897,44 L121.67877,44.6 L121.76538,45.2 L121.67877,45.8 L121.41897,46.4 L121.072556,46.85 L120.72615,47 L120.37974,46.85 L120.033325,46.4 L119.643616,45.875 L119.1673,45.5 L118.604385,45.275 L117.95486,45.2 L117.305336,45.125 L116.74242,44.9 L116.2661,44.525 L115.87639,44 L115.52998,43.4 L115.18357,42.8 L114.83717,42.2 L114.49076,41.6 L114.14435,41.15 L113.79795,41 L113.45154,41.15 L113.105125,41.6 L112.75871,42.05 L112.41231,42.2 L112.065895,42.05 L111.71948,41.6 L111.45967,41 L111.37307,40.4 L111.45967,39.8 L111.71948,39.2 L111.93599,38.675 L111.892685,38.3 L111.58958,38.075 L111.02666,38 L110.463745,37.925 L110.16063,37.7 L110.11733,37.325 L110.33384,36.8 L110.72355,36.275 L111.19987,35.9 L111.76278,35.675 L113.797935,35.6 M23.731298,47.6 L24.42412,46.4 L24.640627,45.875 L24.597324,45.5 L24.294216,45.275 L23.731298,45.2 L23.081781,45.275 L22.518864,45.5 L22.042551,45.875 L21.652838,46.4 L21.39303,47 L21.306427,47.6 L21.39303,48.2 L21.652838,48.8 L21.869345,49.325 L21.826044,49.7 L21.522934,49.925 L20.960018,50 L20.3971,50.075 L20.093992,50.3 L20.05069,50.675 L20.267197,51.2 L20.613607,51.8 L20.960018,52.4 L21.306427,53 L21.652838,53.6 L21.869345,54.125 L21.826044,54.5 L21.522934,54.725 L20.960018,54.8 L20.3971,54.875 L20.093992,55.1 L20.05069,55.475 L20.267197,56 L20.527004,56.6 L20.613607,57.2 L20.527004,57.8 L20.267197,58.4 L20.05069,58.925 L20.093992,59.3 L20.3971,59.525 L20.960018,59.6 L21.609537,59.525 L22.172453,59.3 L22.648767,58.925 L23.731298,57.2 M88.85641,64.4 L89.54923,63.2 L89.895645,62.6 L90.24205,62 L90.588455,61.4 L90.93487,60.8 L91.15138,60.275 L91.10808,59.9 L90.80497,59.675 L90.24205,59.6 L89.67914,59.525 L89.37602,59.3 L89.332726,58.925 L89.54923,58.4 L89.76573,57.875 L89.722435,57.5 L89.41933,57.275 L88.85641,57.2 L88.20689,57.275 L87.64397,57.5 L87.16765,57.875 L86.77794,58.4 L86.38823,58.925 L85.91192,59.3 L85.34901,59.525 L84.699486,59.6 L84.00667,59.6 L83.31385,59.6 L82.62103,59.6 L81.92821,59.6 L81.27869,59.675 L80.715775,59.9 L80.239456,60.275 L79.84975,60.8 L79.46004,61.325 L78.98372,61.7 L78.4208,61.925 L77.77128,62 L77.20836,61.925 L76.90525,61.7 L76.86195,61.325 L77.07846,60.8 L77.29497,60.275 L77.25167,59.9 L76.94856,59.675 L76.38564,59.6 L75.73612,59.675 L75.1732,59.9 L74.696884,60.275 L73.614365,62 M98.55589,57.2 L97.17025,57.2 L96.52073,57.125 L95.95781,56.9 L95.48149,56.525 L95.09178,56 L94.70207,55.475 L94.22576,55.1 L93.66285,54.875 L93.01333,54.8 L92.45042,54.875 L92.1473,55.1 L92.104004,55.475 L92.32051,56 L92.666916,56.6 L93.01333,57.2 L93.35974,57.8 L93.706154,58.4 L93.96596,59 L94.05257,59.6 L93.96596,60.2 L93.706154,60.8 L93.35974,61.4 L93.01333,62 L92.666916,62.6 L92.32051,63.2 L92.0607,63.8 L91.9741,64.4 L92.0607,65 L92.32051,65.6 L92.666916,66.05 L93.01333,66.2 L93.35974,66.05 L93.706154,65.6 L94.05257,65 L94.39897,64.4 L94.74538,63.8 L95.09178,63.2 L95.438194,62.75 L95.78461,62.6 L96.13102,62.75 L96.47743,63.2 L96.737236,63.8 L96.82384,64.4 L96.737236,65 L96.47743,65.6 L96.21762,66.2 L96.13102,66.8 L96.21762,67.4 L96.47743,68 L96.82384,68.45 L97.17025,68.6 L97.51666,68.45 L98.55589,66.8 M79.15692,42.8 L78.464096,44 L78.20429,44.6 L78.11769,45.2 L78.20429,45.8 L78.464096,46.4 L78.6806,46.925 L78.63731,47.3 L78.33419,47.525 L77.77128,47.6 L77.12176,47.675 L76.558846,47.9 L76.082535,48.275 L75.692825,48.8 L75.34641,49.25 L75,49.4 L74.65359,49.25 L74.307175,48.8 L74.04737,48.2 L73.96077,47.6 L74.04737,47 L74.307175,46.4 L74.566986,45.8 L74.65359,45.2 L74.566986,44.6 L74.307175,44 L74.090675,43.475 L74.13397,43.1 L74.43709,42.875 L75,42.8 L75.64952,42.725 L76.21244,42.5 L76.68874,42.125 L77.07846,41.6 L77.42487,41 L77.77128,40.4 L78.11769,39.8 L78.464096,39.2 L78.81051,38.75 L79.15692,38.6 L79.503334,38.75 L79.84975,39.2 L80.19615,39.8 L80.542564,40.4 L80.88898,41 L81.23539,41.6 L81.6251,42.125 L82.10141,42.5 L82.66432,42.725 L83.31384,42.8 L83.876755,42.875 L84.17987,43.1 L84.22317,43.475 L84.00667,44 L83.660255,44.6 L83.31384,45.2 L82.96744,45.8 L82.621025,46.4 L82.27461,46.85 L81.92821,47 L81.5818,46.85 L80.542564,45.2 M37.587704,57.2 L38.280525,58.4 L38.626934,59 L38.973347,59.6 L39.319756,60.2 L39.66617,60.8 L40.01258,61.4 L40.358986,62 L40.705395,62.6 L41.051807,63.2 L41.311615,63.8 L41.398216,64.4 L41.311615,65 L41.051807,65.6 L40.705395,66.2 L40.358986,66.8 L40.01258,67.4 L39.66617,68 L39.44966,68.525 L39.49296,68.9 L39.79607,69.125 L40.358986,69.2 L41.008507,69.275 L41.571423,69.5 L42.047737,69.875 L42.43745,70.4 L42.653957,70.925 L42.610657,71.3 L42.30755,71.525 L41.74463,71.6 L41.051807,71.6 L40.358986,71.6 L39.66617,71.6 L38.973347,71.6 L38.323826,71.525 L37.76091,71.3 L37.2846,70.925 L36.894886,70.4 L36.505173,69.875 L36.02886,69.5 L35.465942,69.275 L34.816425,69.2 L34.166904,69.125 L33.60399,68.9 L33.127678,68.525 L32.737965,68 L32.521458,67.475 L32.56476,67.1 L32.867867,66.875 L33.430786,66.8 L34.080303,66.725 L34.64322,66.5 L35.11953,66.125 L35.509243,65.6 L35.855656,65 L36.202065,64.4 L36.548473,63.8 L36.894886,63.2 L37.154694,62.6 L37.241295,62 L37.154694,61.4 L36.894886,60.8 L36.505173,60.275 L36.02886,59.9 L35.465942,59.675 L33.430782,59.6 M122.11178,40.4 L121.41897,39.2 L121.072556,38.75 L120.72615,38.6 L120.37974,38.75 L120.033325,39.2 L119.68691,39.8 L119.3405,40.4 L118.994095,41 L118.64768,41.6 L118.30127,42.05 L117.95486,42.2 L117.608444,42.05 L117.26204,41.6 L116.91563,41 L116.569214,40.4 L116.2228,39.8 L115.87639,39.2 L115.65989,38.675 L115.703186,38.3 L116.0063,38.075 L116.569214,38 L117.132126,37.925 L117.43524,37.7 L117.47854,37.325 L117.26204,36.8 L117.00222,36.2 L116.91563,35.6 L117.00222,35 L117.26204,34.4 L117.608444,33.95 L117.95486,33.8 L118.30127,33.95 L118.64768,34.4 L119.03739,34.925 L119.51371,35.3 L120.07662,35.525 L120.72615,35.6 L121.41897,35.6 L122.11179,35.6 L122.8046,35.6 L123.49742,35.6 L124.14695,35.675 L124.70986,35.9 L125.18618,36.275 L125.57589,36.8 L125.9223,37.25 L126.2687,37.4 L126.61511,37.25 L126.961525,36.8 L127.22134,36.2 L127.30794,35.6 L127.22134,35 L126.961525,34.4 L126.70172,33.8 L126.61511,33.2 L126.70172,32.6 L126.961525,32 L127.30794,31.4 L127.65434,30.8 L128.00076,30.2 L128.34717,29.6 L128.60698,29 L128.69357,28.4 L128.60698,27.8 L127.65434,26 M51.44411,28.4 L50.05847,28.4 L49.495552,28.475 L49.192444,28.7 L49.149143,29.075 L49.36565,29.6 L49.625458,30.2 L49.71206,30.8 L49.625458,31.4 L49.36565,32 L49.105843,32.6 L49.019238,33.2 L49.105843,33.8 L49.36565,34.4 L49.625458,35 L49.71206,35.6 L49.625458,36.2 L49.36565,36.8 L49.019238,37.25 L48.67283,37.4 L48.326424,37.25 L47.98001,36.8 L47.590298,36.275 L47.113983,35.9 L46.551067,35.675 L45.90155,35.6 L45.20873,35.6 L44.515907,35.6 L43.82309,35.6 L43.13027,35.6 L42.437447,35.6 L41.74463,35.6 L41.05181,35.6 L40.358986,35.6 L39.709465,35.675 L39.146553,35.9 L38.670235,36.275 L38.280525,36.8 L37.934113,37.4 L37.587704,38 L37.241295,38.6 L36.894886,39.2 L36.505173,39.725 L36.02886,40.1 L35.465942,40.325 L34.816425,40.4 L34.253506,40.325 L33.950397,40.1 L33.907097,39.725 L34.123604,39.2 L34.470013,38.6 L34.816425,38 L35.162834,37.4 L35.509243,36.8 L35.855656,36.2 L36.202065,35.6 L36.548473,35 L36.894886,34.4 L37.241295,33.8 L37.587704,33.2 L37.934113,32.6 L38.280525,32 L38.497032,31.475 L38.453728,31.1 L38.150623,30.875 L37.587704,30.8 L37.024788,30.725 L36.72168,30.5 L36.67838,30.125 L36.894886,29.6 L37.241295,29 L37.587704,28.4 L37.934113,27.8 L38.280525,27.2 L38.497032,26.675 L38.453728,26.3 L38.150623,26.075 L36.202065,26 M55.601036,30.8 L54.215393,30.8 L53.652477,30.875 L53.349365,31.1 L53.30607,31.475 L53.52257,32 L53.739075,32.525 L53.695778,32.9 L53.392662,33.125 L52.82975,33.2 L52.266834,33.275 L51.963722,33.5 L51.92042,33.875 L52.136925,34.4 L52.526634,34.925 L53.002953,35.3 L53.56587,35.525 L54.215393,35.6 L54.908215,35.6 L55.601036,35.6 L56.293854,35.6 L56.986675,35.6 L57.54959,35.525 L57.8527,35.3 L57.895996,34.925 L57.679493,34.4 L57.419685,33.8 L57.33308,33.2 L57.419685,32.6 L57.679493,32 L58.0259,31.4 L58.372314,30.8 L58.718727,30.2 L59.065136,29.6 L59.41155,29 L59.757957,28.4 L60.104362,27.8 L60.450775,27.2 L60.667286,26.675 L60.623985,26.3 L60.320873,26.075 L59.757957,26 L59.108437,26.075 L58.54552,26.3 L58.069202,26.675 L57.679493,27.2 L57.33308,27.65 L56.986675,27.8 L56.64027,27.65 L56.29386,27.2 L55.94745,26.75 L55.601036,26.6 L55.254627,26.75 L54.908215,27.2 L54.561806,27.65 L54.215393,27.8 L53.86898,27.65 L53.52257,27.2 L53.132862,26.675 L52.656544,26.3 L52.093628,26.075 L51.44411,26 L50.75129,26 L50.05847,26 L49.365654,26 L48.67283,26 L48.023308,26.075 L47.460396,26.3 L46.98408,26.675 L46.594368,27.2 L46.20466,27.725 L45.728344,28.1 L45.16543,28.325 L44.51591,28.4 L43.82309,28.4 L43.130272,28.4 L42.43745,28.4 L41.74463,28.4 L41.18171,28.325 L40.8786,28.1 L40.8353,27.725 L41.051807,27.2 L41.44152,26.675 L41.917835,26.3 L42.48075,26.075 L44.515907,26 M123.49742,28.4 L122.11179,28.4 L121.548874,28.325 L121.245766,28.1 L121.20247,27.725 L121.41897,27.2 L121.80868,26.675 L122.28499,26.3 L122.8479,26.075 L123.49742,26 L124.14695,26.075 L124.70986,26.3 L125.18618,26.675 L125.57589,27.2 L125.83569,27.8 L125.9223,28.4 L125.83569,29 L125.57589,29.6 L125.18618,30.125 L124.70986,30.5 L124.14695,30.725 L123.49742,30.8 L122.8046,30.8 L122.11179,30.8 L121.41897,30.8 L120.72615,30.8 L120.033325,30.8 L119.3405,30.8 L118.64768,30.8 L117.95486,30.8 L117.305336,30.875 L116.74242,31.1 L116.2661,31.475 L115.87639,32 L115.48668,32.525 L115.010376,32.9 L114.447464,33.125 L113.79795,33.2 L113.105125,33.2 L112.41231,33.2 L111.71948,33.2 L111.02666,33.2 L110.37714,33.275 L109.814224,33.5 L109.337906,33.875 L108.9482,34.4 L108.55849,34.925 L108.08217,35.3 L107.51925,35.525 L106.86973,35.6 L106.30681,35.525 L106.00371,35.3 L105.96041,34.925 L106.17692,34.4 L106.39342,33.875 L106.35012,33.5 L106.04702,33.275 L105.48411,33.2 L104.92119,33.125 L104.61808,32.9 L104.57478,32.525 L104.79128,32 L105.18099,31.475 L105.6573,31.1 L106.220215,30.875 L106.86973,30.8 L107.562546,30.8 L108.25537,30.8 L108.9482,30.8 L109.641014,30.8 L110.33384,30.8 L111.02666,30.8 L111.71948,30.8 L112.41231,30.8 L113.06181,30.725 L113.62473,30.5 L114.10105,30.125 L114.49076,29.6 L114.88047,29.075 L115.35679,28.7 L115.9197,28.475 L116.569214,28.4 L117.132126,28.325 L117.43524,28.1 L117.47854,27.725 L117.26204,27.2 L117.04553,26.675 L117.08883,26.3 L117.391945,26.075 L119.3405,26 M63.91488,54.8 L65.30052,54.8 L65.950035,54.875 L66.512955,55.1 L66.98927,55.475 L67.37898,56 L67.76869,56.525 L68.245,56.9 L68.807915,57.125 L69.457436,57.2 L70.02035,57.125 L70.32346,56.9 L70.36676,56.525 L70.15025,56 L69.933754,55.475 L69.97705,55.1 L70.28017,54.875 L70.84308,54.8 L71.535904,54.8 L72.22872,54.8 L72.92154,54.8 L73.614365,54.8 L74.26388,54.725 L74.8268,54.5 L75.303116,54.125 L75.692825,53.6 L76.082535,53.075 L76.558846,52.7 L77.12176,52.475 L77.77128,52.4 L78.464096,52.4 L79.15692,52.4 L79.84975,52.4 L80.542564,52.4 L81.105484,52.325 L81.40859,52.1 L81.45189,51.725 L81.23539,51.2 L81.01888,50.675 L81.06218,50.3 L81.365295,50.075 L81.92821,50 L82.57773,50.075 L83.14064,50.3 L83.61696,50.675 L84.00667,51.2 L84.35307,51.65 L84.699486,51.8 L85.0459,51.65 L85.39231,51.2 L85.73872,50.6 L86.08513,50 L86.43153,49.4 L86.77794,48.8 L87.16765,48.275 L87.64397,47.9 L88.20689,47.675 L88.85641,47.6 L89.41933,47.525 L89.722435,47.3 L89.76573,46.925 L89.54923,46.4 L89.332726,45.875 L89.37602,45.5 L89.67914,45.275 L90.24205,45.2 L90.934875,45.2 L91.62769,45.2 L92.32051,45.2 L93.01333,45.2 L93.66285,45.275 L94.22576,45.5 L94.70207,45.875 L95.09178,46.4 L95.35159,47 L95.438194,47.6 L95.35159,48.2 L95.09178,48.8 L94.74538,49.4 L94.39897,50 L94.05257,50.6 L93.706154,51.2 L93.35974,51.65 L93.01333,51.8 L92.666916,51.65 L92.32051,51.2 L91.9741,50.75 L91.627686,50.6 L91.28128,50.75 L90.93487,51.2 L90.588455,51.8 L90.24205,52.4 L89.895645,53 L89.54923,53.6 L89.20282,54.05 L88.85641,54.2 L88.509995,54.05 L88.16359,53.6 L87.81718,53.15 L87.470764,53 L87.12435,53.15 L86.77794,53.6 L86.43153,54.2 L86.08513,54.8 L85.73872,55.4 L85.39231,56 L85.0026,56.525 L84.52628,56.9 L83.96336,57.125 L83.31384,57.2 L82.75093,57.125 L82.447815,56.9 L82.40452,56.525 L82.621025,56 L82.83754,55.475 L82.794235,55.1 L82.49113,54.875 L81.92821,54.8 L81.27869,54.875 L80.715775,55.1 L80.239456,55.475 L79.84975,56 L79.503334,56.45 L79.15692,56.6 L78.81051,56.45 L78.464096,56 L78.11769,55.55 L77.77128,55.4 L77.42487,55.55 L77.07846,56 L76.68874,56.525 L76.21244,56.9 L75.64952,57.125 L73.614365,57.2 M123.49742,42.8 L124.19025,44 L124.53666,44.6 L124.88307,45.2 L125.22948,45.8 L125.57589,46.4 L125.7924,46.925 L125.7491,47.3 L125.445984,47.525 L124.88307,47.6 L124.23354,47.675 L123.67063,47.9 L123.19431,48.275 L122.8046,48.8 L122.5448,49.4 L122.45819,50 L122.5448,50.6 L122.8046,51.2 L123.0211,51.725 L122.977806,52.1 L122.674706,52.325 L122.11179,52.4 L121.462265,52.325 L120.89935,52.1 L120.423035,51.725 L120.033325,51.2 L119.643616,50.675 L119.1673,50.3 L118.604385,50.075 L117.95486,50 L117.305336,50.075 L116.74242,50.3 L116.2661,50.675 L115.87639,51.2 L115.65989,51.725 L115.703186,52.1 L116.0063,52.325 L116.569214,52.4 L117.132126,52.475 L117.43524,52.7 L117.47854,53.075 L117.26204,53.6 L116.87233,54.125 L116.39601,54.5 L115.83309,54.725 L115.18357,54.8 L114.490746,54.8 L113.797935,54.8 L113.105125,54.8 L112.41231,54.8 L111.76278,54.875 L111.19987,55.1 L110.72355,55.475 L110.33384,56 L109.98743,56.45 L109.641014,56.6 L109.2946,56.45 L108.9482,56 L108.68838,55.4 L108.60178,54.8 L108.68838,54.2 L108.9482,53.6 L109.337906,53.075 L109.814224,52.7 L110.37714,52.475 L111.02666,52.4 L111.676186,52.325 L112.2391,52.1 L112.715416,51.725 L113.105125,51.2 L113.32163,50.675 L113.278336,50.3 L112.97522,50.075 L112.41231,50 L111.76278,49.925 L111.19987,49.7 L110.72355,49.325 L110.33384,48.8 L109.98743,48.2 L109.641014,47.6 L109.2946,47 L108.9482,46.4 L108.60178,45.8 L108.25537,45.2 L107.90896,44.6 L107.562546,44 L107.21614,43.55 L106.86973,43.4 L106.52333,43.55 L106.17692,44 L105.830505,44.6 L105.48411,45.2 L105.137695,45.8 L104.79128,46.4 L104.53147,47 L104.44487,47.6 L104.53147,48.2 L104.79128,48.8 L105.137695,49.25 L105.48411,49.4 L105.830505,49.25 L106.17692,48.8 L106.52333,48.35 L106.86973,48.2 L107.21614,48.35 L107.562546,48.8 L107.822365,49.4 L107.90896,50 L107.822365,50.6 L107.562546,51.2 L107.17284,51.725 L106.69653,52.1 L106.13362,52.325 L105.48411,52.4 L104.83458,52.475 L104.27167,52.7 L103.79535,53.075 L103.40564,53.6 L103.18913,54.125 L103.23244,54.5 L103.535545,54.725 L104.098465,54.8 L104.74797,54.875 L105.31089,55.1 L105.78721,55.475 L106.17692,56 L106.52333,56.6 L106.86973,57.2 L107.21614,57.8 L107.562546,58.4 L107.822365,59 L107.90896,59.6 L107.822365,60.2 L107.562546,60.8 L107.17284,61.325 L106.69653,61.7 L106.13362,61.925 L105.48411,62 L104.92119,61.925 L104.61808,61.7 L104.57478,61.325 L104.79128,60.8 L105.00779,60.275 L104.96449,59.9 L104.66138,59.675 L104.098465,59.6 L103.535545,59.525 L103.23244,59.3 L103.18913,58.925 L104.098465,57.2 M59.757954,33.2 L61.143593,33.2 L61.793114,33.275 L62.35603,33.5 L62.832348,33.875 L63.222057,34.4 L63.56847,35 L63.91488,35.6 L64.26129,36.2 L64.607704,36.8 L64.95412,37.4 L65.30052,38 L65.64693,38.6 L65.99333,39.2 L66.38304,39.725 L66.85936,40.1 L67.42228,40.325 L68.0718,40.4 L68.63472,40.475 L68.93783,40.7 L68.981125,41.075 L68.76462,41.6 L68.3749,42.125 L67.8986,42.5 L67.33568,42.725 L66.68616,42.8 L66.03664,42.725 L65.473724,42.5 L64.99741,42.125 L64.607704,41.6 L64.217995,41.075 L63.741676,40.7 L63.17876,40.475 L62.529236,40.4 L61.96632,40.325 L61.663208,40.1 L61.61991,39.725 L61.836414,39.2 L62.096222,38.6 L62.182823,38 L62.096222,37.4 L61.836414,36.8 L61.49,36.35 L61.143593,36.2 L60.797188,36.35 L60.450775,36.8 L60.104362,37.4 L59.757957,38 L59.41155,38.6 L59.065136,39.2 L58.675426,39.725 L58.19911,40.1 L57.636192,40.325 L56.986675,40.4 L56.42376,40.475 L56.120655,40.7 L56.077354,41.075 L56.29386,41.6 L56.55367,42.2 L56.64027,42.8 L56.55367,43.4 L56.29386,44 L55.94745,44.6 L55.601036,45.2 L55.254627,45.8 L54.908215,46.4 L54.561806,47 L54.215393,47.6 L53.86898,48.2 L53.52257,48.8 L53.132862,49.325 L52.656544,49.7 L52.093628,49.925 L51.44411,50 L50.794594,50.075 L50.231678,50.3 L49.755363,50.675 L49.36565,51.2 L48.975937,51.725 L48.499626,52.1 L47.93671,52.325 L47.28719,52.4 L46.637672,52.325 L46.074757,52.1 L45.598442,51.725 L45.20873,51.2 L44.862316,50.75 L44.515907,50.6 L44.169502,50.75 L43.82309,51.2 L43.476677,51.8 L43.130272,52.4 L42.783863,53 L42.43745,53.6 L42.047737,54.125 L41.571423,54.5 L41.008507,54.725 L40.358986,54.8 L39.79607,54.875 L39.49296,55.1 L39.44966,55.475 L39.66617,56 L40.01258,56.6 L40.358986,57.2 L40.705395,57.8 L41.051807,58.4 L41.44152,58.925 L41.917835,59.3 L42.48075,59.525 L43.13027,59.6 L43.693184,59.675 L43.996296,59.9 L44.039597,60.275 L43.82309,60.8 L43.563282,61.4 L43.476677,62 L43.563282,62.6 L43.82309,63.2 L44.169502,63.65 L44.515907,63.8 L44.862316,63.65 L45.20873,63.2 L45.598442,62.675 L46.074757,62.3 L46.637672,62.075 L47.28719,62 L47.850105,61.925 L48.153217,61.7 L48.196518,61.325 L47.98001,60.8 L47.6336,60.2 L47.28719,59.6 L46.94078,59 L46.594368,58.4 L46.24796,57.8 L45.90155,57.2 L45.555138,56.6 L45.20873,56 L44.99222,55.475 L45.035522,55.1 L45.33863,54.875 L45.90155,54.8 L46.551067,54.875 L47.113983,55.1 L47.590298,55.475 L47.98001,56 L48.326424,56.45 L48.67283,56.6 L49.019238,56.45 L49.36565,56 L49.71206,55.4 L50.05847,54.8 L50.40488,54.2 L50.75129,53.6 L51.141003,53.075 L51.61731,52.7 L52.18023,52.475 L52.82975,52.4 L53.479267,52.475 L54.042187,52.7 L54.5185,53.075 L54.908215,53.6 L55.168022,54.2 L55.254627,54.8 L55.168022,55.4 L54.908215,56 L54.561806,56.45 L54.215393,56.6 L53.86898,56.45 L53.52257,56 L53.17616,55.55 L52.82975,55.4 L52.483337,55.55 L52.136925,56 L51.790516,56.6 L51.444103,57.2 L51.097702,57.8 L50.75129,58.4 L50.534782,58.925 L50.578087,59.3 L50.881195,59.525 L51.44411,59.6 L52.136932,59.6 L52.82975,59.6 L53.52257,59.6 L54.215393,59.6 L54.864918,59.525 L55.427834,59.3 L55.904152,58.925 L56.29386,58.4 L56.64027,57.8 L56.986675,57.2 L57.33308,56.6 L57.679493,56 L57.9393,55.4 L58.0259,54.8 L57.9393,54.2 L57.679493,53.6 L57.46299,53.075 L57.506287,52.7 L57.8094,52.475 L58.372314,52.4 L59.02183,52.325 L59.584755,52.1 L60.061058,51.725 L60.450775,51.2 L60.710583,50.6 L60.797188,50 L60.710583,49.4 L60.450775,48.8 L60.104362,48.35 L59.757957,48.2 L59.41155,48.35 L59.065136,48.8 L58.718727,49.25 L58.372314,49.4 L58.0259,49.25 L57.679493,48.8 L57.419685,48.2 L57.33308,47.6 L57.419685,47 L57.679493,46.4 L58.069202,45.875 L58.54552,45.5 L59.108437,45.275 L59.757957,45.2 L60.40748,45.125 L60.97039,44.9 L61.446705,44.525 L61.836414,44 L62.182823,43.55 L62.529236,43.4 L62.87565,43.55 L63.222057,44 L63.481865,44.6 L63.56847,45.2 L63.481865,45.8 L62.529236,47.6 M20.960018,38 L20.267197,36.8 L20.00739,36.2 L19.920788,35.6 L20.00739,35 L20.267197,34.4 L20.527004,33.8 L20.613607,33.2 L20.527004,32.6 L20.267197,32 L20.00739,31.4 L19.920788,30.8 L20.00739,30.2 L20.267197,29.6 L20.527004,29 L20.613607,28.4 L20.527004,27.8 L20.267197,27.2 L20.05069,26.675 L20.093992,26.3 L20.3971,26.075 L20.960018,26 L21.609537,26.075 L22.172453,26.3 L22.648767,26.675 L23.038479,27.2 L23.428192,27.725 L23.904505,28.1 L24.467419,28.325 L25.11694,28.4 L25.76646,28.475 L26.329376,28.7 L26.805689,29.075 L27.1954,29.6 L27.585114,30.125 L28.061426,30.5 L28.62434,30.725 L29.27386,30.8 L29.83678,30.725 L30.139887,30.5 L30.183187,30.125 L29.96668,29.6 L29.62027,29 L29.27386,28.4 L28.927454,27.8 L28.581043,27.2 L28.364536,26.675 L28.407837,26.3 L28.710943,26.075 L29.27386,26 L29.966684,26 L30.659504,26 L31.35232,26 L32.045143,26 L32.694664,26.075 L33.257576,26.3 L33.73389,26.675 L34.123604,27.2 L34.38341,27.8 L34.470013,28.4 L34.38341,29 L34.123604,29.6 L33.863792,30.2 L33.77719,30.8 L33.863792,31.4 L34.123604,32 L34.38341,32.6 L34.470013,33.2 L34.38341,33.8 L34.123604,34.4 L33.77719,34.85 L33.430782,35 L33.084373,34.85 L32.737965,34.4 L32.391552,33.95 L32.045143,33.8 L31.698736,33.95 L31.352325,34.4 L31.092518,35 L31.005915,35.6 L31.092518,36.2 L31.352325,36.8 L31.568832,37.325 L31.525532,37.7 L31.222422,37.925 L30.659504,38 L30.009983,37.925 L29.447067,37.7 L28.970755,37.325 L28.581043,36.8 L28.23463,36.2 L27.88822,35.6 L27.541813,35 L27.1954,34.4 L26.84899,33.95 L26.502583,33.8 L26.15617,33.95 L25.80976,34.4 L25.549952,35 L25.46335,35.6 L25.549952,36.2 L25.80976,36.8 L26.15617,37.4 L26.502583,38 L26.84899,38.6 L27.1954,39.2 L27.585114,39.725 L28.061426,40.1 L28.62434,40.325 L29.27386,40.4 L29.83678,40.475 L30.139887,40.7 L30.183187,41.075 L29.96668,41.6 L29.62027,42.2 L29.27386,42.8 L28.927454,43.4 L28.581043,44 L28.321234,44.6 L28.23463,45.2 L28.321234,45.8 L28.581043,46.4 L28.927454,46.85 L29.27386,47 L29.62027,46.85 L29.96668,46.4 L30.356394,45.875 L30.832708,45.5 L31.395624,45.275 L32.045143,45.2 L32.694664,45.275 L33.257576,45.5 L33.73389,45.875 L34.123604,46.4 L34.470013,47 L34.816425,47.6 L35.162834,48.2 L35.509243,48.8 L35.855656,49.25 L36.202065,49.4 L36.548473,49.25 L36.894886,48.8 L37.2846,48.275 L37.76091,47.9 L38.323826,47.675 L38.973347,47.6 L39.622868,47.675 L40.185783,47.9 L40.662094,48.275 L41.051807,48.8 L41.311615,49.4 L41.398216,50 L41.311615,50.6 L41.051807,51.2 L40.662094,51.725 L40.185783,52.1 L39.622868,52.325 L38.973347,52.4 L38.323826,52.475 L37.76091,52.7 L37.2846,53.075 L36.894886,53.6 L36.548473,54.2 L36.202065,54.8 L35.855656,55.4 L35.509243,56 L35.11953,56.525 L34.64322,56.9 L34.080303,57.125 L33.430786,57.2 L32.737965,57.2 L32.045143,57.2 L31.352325,57.2 L30.659504,57.2 L30.009983,57.125 L29.447067,56.9 L28.970755,56.525 L28.581043,56 L28.19133,55.475 L27.715015,55.1 L27.1521,54.875 L26.502583,54.8 L25.939663,54.875 L25.636555,55.1 L25.593252,55.475 L25.80976,56 L26.069569,56.6 L26.15617,57.2 L26.069569,57.8 L25.80976,58.4 L25.593252,58.925 L25.636555,59.3 L25.939663,59.525 L26.502583,59.6 L27.195404,59.6 L27.88822,59.6 L28.58104,59.6 L29.27386,59.6 L29.923382,59.675 L30.486298,59.9 L30.962612,60.275 L31.352325,60.8 L31.742039,61.325 L32.21835,61.7 L32.781265,61.925 L33.430786,62 L33.993702,62.075 L34.296806,62.3 L34.34011,62.675 L34.123604,63.2 L33.73389,63.725 L33.257576,64.1 L32.694664,64.325 L32.045143,64.4 L31.395624,64.475 L30.832708,64.7 L30.356394,65.075 L29.96668,65.6 L29.706873,66.2 L29.62027,66.8 L29.706873,67.4 L29.96668,68 L30.183187,68.525 L30.139887,68.9 L29.83678,69.125 L29.27386,69.2 L28.62434,69.275 L28.061426,69.5 L27.585114,69.875 L27.1954,70.4 L26.805689,70.925 L26.329376,71.3 L25.76646,71.525 L25.11694,71.6 L24.424118,71.6 L23.731298,71.6 L23.038479,71.6 L22.345657,71.6 L21.782742,71.525 L21.479633,71.3 L21.43633,70.925 L21.652838,70.4 L21.912647,69.8 L21.999249,69.2 L21.912647,68.6 L21.652838,68 L21.39303,67.4 L21.306427,66.8 L21.39303,66.2 L21.652838,65.6 L21.999249,65 L22.34566,64.4 L22.692068,63.8 L23.038479,63.2 L23.428192,62.675 L23.904505,62.3 L24.467419,62.075 L25.11694,62 L25.76646,62.075 L26.329376,62.3 L26.805689,62.675 L27.1954,63.2 L27.411907,63.725 L27.368603,64.1 L27.065496,64.325 L26.502583,64.4 L25.939663,64.475 L25.636555,64.7 L25.593252,65.075 L25.80976,65.6 L26.026266,66.125 L25.982965,66.5 L25.67986,66.725 L25.11694,66.8 L24.554022,66.875 L24.250916,67.1 L24.207613,67.475 L25.11694,69.2 M124.88307,69.2 L125.57589,68 L125.9223,67.55 L126.2687,67.4 L126.61511,67.55 L126.961525,68 L127.30794,68.6 L127.65434,69.2 L128.00076,69.8 L128.34717,70.4 L128.56367,70.925 L128.52037,71.3 L128.21725,71.525 L127.65434,71.6 L126.961525,71.6 L126.2687,71.6 L125.57589,71.6 L124.88307,71.6 L124.23354,71.525 L123.67063,71.3 L123.19431,70.925 L122.8046,70.4 L122.45819,69.8 L122.11179,69.2 L121.76538,68.6 L121.41897,68 L121.20247,67.475 L121.245766,67.1 L121.548874,66.875 L122.11179,66.8 L122.674706,66.725 L122.977806,66.5 L123.0211,66.125 L122.8046,65.6 L122.5881,65.075 L122.63139,64.7 L122.93451,64.475 L123.49742,64.4 L124.06034,64.325 L124.36345,64.1 L124.40675,63.725 L124.19025,63.2 L123.80054,62.675 L123.32422,62.3 L122.76131,62.075 L122.11179,62 L121.41897,62 L120.72615,62 L120.033325,62 L119.3405,62 L118.77759,61.925 L118.47447,61.7 L118.431175,61.325 L118.64768,60.8 L118.994095,60.2 L119.3405,59.6 L119.68691,59 L120.033325,58.4 L120.29314,57.8 L120.37974,57.2 L120.29314,56.6 L120.033325,56 L119.68691,55.55 L119.3405,55.4 L118.994095,55.55 L118.64768,56 L118.25797,56.525 L117.781654,56.9 L117.218735,57.125 L116.569214,57.2 L115.9197,57.275 L115.35679,57.5 L114.88047,57.875 L114.49076,58.4 L114.274254,58.925 L114.31755,59.3 L114.62065,59.525 L115.18357,59.6 L115.74648,59.675 L116.0496,59.9 L116.092896,60.275 L115.87639,60.8 L115.52998,61.4 L115.18357,62 L114.83717,62.6 L114.49076,63.2 L114.10105,63.725 L113.62473,64.1 L113.06181,64.325 L112.41231,64.4 L111.76278,64.475 L111.19987,64.7 L110.72355,65.075 L110.33384,65.6 L109.98743,66.2 L109.641014,66.8 L109.2946,67.4 L108.9482,68 L108.73169,68.525 L108.77499,68.9 L109.0781,69.125 L109.641014,69.2 L110.33384,69.2 L111.02666,69.2 L111.71948,69.2 L112.41231,69.2 L113.105125,69.2 L113.797935,69.2 L114.490746,69.2 L115.18357,69.2 L115.83309,69.125 L116.39601,68.9 L116.87233,68.525 L117.26204,68 L117.608444,67.55 L117.95486,67.4 L118.30127,67.55 L118.64768,68 L118.994095,68.6 L119.3405,69.2 L119.68691,69.8 L120.033325,70.4 L120.24983,70.925 L120.20653,71.3 L119.90342,71.525 L119.3405,71.6 L118.64768,71.6 L117.95486,71.6 L117.26204,71.6 L116.569214,71.6 L115.87639,71.6 L115.18358,71.6 L114.49077,71.6 L113.79795,71.6 L113.105125,71.6 L112.41231,71.6 L111.71948,71.6 L111.02666,71.6 L110.33384,71.6 L109.641014,71.6 L108.9482,71.6 L108.25537,71.6 L107.562546,71.6 L106.869736,71.6 L106.176926,71.6 L105.48411,71.6 L104.79128,71.6 L104.098465,71.6 L103.40564,71.6 L102.712814,71.6 L102.06329,71.525 L101.50038,71.3 L101.02406,70.925 L100.63435,70.4 L100.37454,69.8 L100.28794,69.2 L100.37454,68.6 L100.63435,68 L100.89416,67.4 L100.98076,66.8 L100.89416,66.2 L100.63435,65.6 L100.37454,65 L100.28794,64.4 L100.37454,63.8 L100.63435,63.2 L100.85085,62.675 L100.807556,62.3 L100.50444,62.075 L99.94153,62 L99.37862,61.925 L99.0755,61.7 L99.0322,61.325 L99.24871,60.8 L99.59512,60.2 L99.94153,59.6 L100.28794,59 L100.63435,58.4 L100.89416,57.8 L100.98076,57.2 L100.89416,56.6 L100.63435,56 L100.28794,55.4 L99.94153,54.8 L99.59512,54.2 L99.24871,53.6 L99.0322,53.075 L99.0755,52.7 L99.37862,52.475 L99.94153,52.4 L100.50444,52.325 L100.807556,52.1 L100.85085,51.725 L100.63435,51.2 L100.244644,50.675 L99.768326,50.3 L99.205414,50.075 L98.55589,50 L97.99298,49.925 L97.689865,49.7 L97.64657,49.325 L97.863075,48.8 L98.20949,48.2 L98.55589,47.6 L98.9023,47 L99.24871,46.4 L99.465225,45.875 L99.42192,45.5 L99.11881,45.275 L98.55589,45.2 L97.90637,45.125 L97.34346,44.9 L96.86714,44.525 L96.47743,44 L96.13102,43.4 L95.78461,42.8 L95.438194,42.2 L95.09178,41.6 L94.74538,41 L94.39897,40.4 L94.05257,39.8 L93.706154,39.2 L93.44634,38.6 L93.35974,38 L93.44634,37.4 L93.706154,36.8 L93.96596,36.2 L94.05257,35.6 L93.96596,35 L93.706154,34.4 L93.48965,33.875 L93.53294,33.5 L93.83605,33.275 L94.39897,33.2 L95.09179,33.2 L95.78461,33.2 L96.47743,33.2 L97.17025,33.2 L97.863075,33.2 L98.55589,33.2 L99.2487,33.2 L99.94153,33.2 L100.59105,33.275 L101.15397,33.5 L101.63029,33.875 L102.02,34.4 L102.36641,35 L102.712814,35.6 L103.05923,36.2 L103.40564,36.8 L103.62215,37.325 L103.57884,37.7 L103.275734,37.925 L102.712814,38 L102.06329,38.075 L101.50038,38.3 L101.02406,38.675 L100.63435,39.2 L100.244644,39.725 L99.768326,40.1 L99.205414,40.325 L98.55589,40.4 L97.99298,40.475 L97.689865,40.7 L97.64657,41.075 L97.863075,41.6 L98.252785,42.125 L98.729095,42.5 L99.29201,42.725 L99.94153,42.8 L100.63435,42.8 L101.32717,42.8 L102.02,42.8 L102.712814,42.8 L103.36234,42.725 L103.925255,42.5 L104.40157,42.125 L104.79128,41.6 L105.00779,41.075 L104.96449,40.7 L104.66138,40.475 L102.712814,40.4 M65.30052,57.2 L64.607704,58.4 L64.34789,59 L64.26129,59.6 L64.34789,60.2 L64.607704,60.8 L64.99741,61.325 L65.473724,61.7 L66.03664,61.925 L66.68616,62 L67.24907,61.925 L67.552185,61.7 L67.59548,61.325 L67.37898,60.8 L67.162476,60.275 L67.20577,59.9 L67.50889,59.675 L68.0718,59.6 L68.764626,59.6 L69.45744,59.6 L70.15025,59.6 L70.84308,59.6 L71.40599,59.675 L71.70911,59.9 L71.7524,60.275 L71.535904,60.8 L71.18949,61.4 L70.84308,62 L70.496666,62.6 L70.15025,63.2 L69.933754,63.725 L69.97705,64.1 L70.28017,64.325 L70.84308,64.4 L71.535904,64.4 L72.22872,64.4 L72.92154,64.4 L73.614365,64.4 L74.30718,64.4 L75,64.4 L75.692825,64.4 L76.38564,64.4 L77.035164,64.475 L77.598076,64.7 L78.07439,65.075 L78.464096,65.6 L78.81051,66.05 L79.15692,66.2 L79.503334,66.05 L79.84975,65.6 L80.19615,65 L80.542564,64.4 L80.88898,63.8 L81.23539,63.2 L81.5818,62.75 L81.92821,62.6 L82.27461,62.75 L82.621025,63.2 L83.01074,63.725 L83.487045,64.1 L84.04997,64.325 L84.699486,64.4 L85.262405,64.475 L85.56551,64.7 L85.60881,65.075 L85.39231,65.6 L85.0026,66.125 L84.52628,66.5 L83.96336,66.725 L83.31384,66.8 L82.66432,66.875 L82.10141,67.1 L81.6251,67.475 L81.23539,68 L80.97558,68.6 L80.88898,69.2 L80.97558,69.8 L81.23539,70.4 L81.45189,70.925 L81.40859,71.3 L81.105484,71.525 L80.542564,71.6 L79.84975,71.6 L79.15692,71.6 L78.464096,71.6 L77.77128,71.6 L77.20836,71.525 L76.90525,71.3 L76.86195,70.925 L77.07846,70.4 L77.29497,69.875 L77.25167,69.5 L76.94856,69.275 L76.38564,69.2 L75.82273,69.125 L75.519615,68.9 L75.47632,68.525 L75.692825,68 L75.909325,67.475 L75.86603,67.1 L75.56291,66.875 L75,66.8 L74.307175,66.8 L73.614365,66.8 L72.92155,66.8 L72.22872,66.8 L71.66581,66.875 L71.36269,67.1 L71.3194,67.475 L71.535904,68 L71.88231,68.6 L72.22872,69.2 L72.575134,69.8 L72.92155,70.4 L73.13805,70.925 L73.09475,71.3 L72.79164,71.525 L72.22872,71.6 L71.535904,71.6 L70.84308,71.6 L70.15025,71.6 L69.457436,71.6 L68.807915,71.525 L68.245,71.3 L67.76869,70.925 L67.37898,70.4 L67.03257,69.95 L66.68616,69.8 L66.339745,69.95 L65.99333,70.4 L65.60362,70.925 L65.12731,71.3 L64.5644,71.525 L63.91488,71.6 L63.222057,71.6 L62.529236,71.6 L61.836414,71.6 L61.143593,71.6 L60.494072,71.525 L59.93116,71.3 L59.454845,70.925 L59.065136,70.4 L58.848633,69.875 L58.89193,69.5 L59.195045,69.275 L59.757957,69.2 L60.40748,69.125 L60.97039,68.9 L61.446705,68.525 L61.836414,68 L62.096222,67.4 L62.182823,66.8 L62.096222,66.2 L61.836414,65.6 L61.49,65 L61.143593,64.4 L60.797188,63.8 L60.450775,63.2 L60.234264,62.675 L60.277565,62.3 L60.580677,62.075 L61.143593,62 L61.706505,61.925 L62.00962,61.7 L62.052917,61.325 L61.836414,60.8 L61.576607,60.2 L61.49,59.6 L61.576607,59 L61.836414,58.4 L62.096222,57.8 L62.182823,57.2 L62.096222,56.6 L61.836414,56 L61.576607,55.4 L61.49,54.8 L61.576607,54.2 L61.836414,53.6 L62.182823,53 L62.529236,52.4 L62.87565,51.8 L63.222057,51.2 L63.56847,50.75 L63.91488,50.6 L64.26129,50.75 L64.607704,51.2 L64.95412,51.65 L65.30052,51.8 L65.64693,51.65 L65.99333,51.2 L66.339745,50.75 L66.68616,50.6 L67.03257,50.75 L67.37898,51.2 L67.76869,51.725 L68.245,52.1 L68.807915,52.325 L69.457436,52.4 L70.15025,52.4 L70.84308,52.4 L71.535904,52.4 L72.22872,52.4 L72.79164,52.325 L73.09475,52.1 L73.13805,51.725 L72.92155,51.2 L72.575134,50.6 L72.22872,50 L71.88231,49.4 L71.535904,48.8 L71.146194,48.275 L70.669876,47.9 L70.10696,47.675 L69.457436,47.6 L68.76461,47.6 L68.07179,47.6 L67.37898,47.6 L66.68616,47.6 L66.123245,47.525 L65.82013,47.3 L65.77683,46.925 L65.99333,46.4 L66.38304,45.875 L66.85936,45.5 L67.42228,45.275 L68.0718,45.2 L68.764626,45.2 L69.45744,45.2 L70.15025,45.2 L70.84308,45.2 L71.40599,45.125 L71.70911,44.9 L71.7524,44.525 L71.535904,44 L71.27609,43.4 L71.18949,42.8 L71.27609,42.2 L71.535904,41.6 L71.79571,41 L71.88231,40.4 L71.79571,39.8 L71.535904,39.2 L71.27609,38.6 L71.18949,38 L71.27609,37.4 L71.535904,36.8 L71.79571,36.2 L71.88231,35.6 L71.79571,35 L71.535904,34.4 L71.27609,33.8 L71.18949,33.2 L71.27609,32.6 L71.535904,32 L71.7524,31.475 L71.70911,31.1 L71.40599,30.875 L70.84308,30.8 L70.28017,30.725 L69.97705,30.5 L69.933754,30.125 L70.15025,29.6 L70.496666,29 L70.84308,28.4 L71.18949,27.8 L71.535904,27.2 L71.88231,26.75 L72.22872,26.6 L72.575134,26.75 L72.92155,27.2 L73.31126,27.725 L73.78757,28.1 L74.35048,28.325 L75,28.4 L75.56291,28.325 L75.86603,28.1 L75.909325,27.725 L75.692825,27.2 L75.47632,26.675 L75.519615,26.3 L75.82273,26.075 L76.38564,26 L77.035164,26.075 L77.598076,26.3 L78.07439,26.675 L78.464096,27.2 L78.81051,27.8 L79.15692,28.4 L79.503334,29 L79.84975,29.6 L80.19615,30.05 L80.542564,30.2 L80.88898,30.05 L81.23539,29.6 L81.5818,29.15 L81.92821,29 L82.27461,29.15 L82.621025,29.6 L82.96744,30.05 L83.31384,30.2 L83.660255,30.05 L84.00667,29.6 L84.26647,29 L84.35307,28.4 L84.26647,27.8 L84.00667,27.2 L83.79016,26.675 L83.83346,26.3 L84.13657,26.075 L84.699486,26 L85.39231,26 L86.08513,26 L86.77794,26 L87.470764,26 L88.033676,26.075 L88.33679,26.3 L88.38009,26.675 L88.16359,27.2 L87.81718,27.8 L87.470764,28.4 L87.12435,29 L86.77794,29.6 L86.56144,30.125 L86.60474,30.5 L86.90785,30.725 L87.470764,30.8 L88.120285,30.725 L88.683205,30.5 L89.15952,30.125 L89.54923,29.6 L89.895645,29 L90.24205,28.4 L90.588455,27.8 L90.93487,27.2 L91.324585,26.675 L91.80089,26.3 L92.363815,26.075 L93.01333,26 L93.706154,26 L94.39897,26 L95.09178,26 L95.78461,26 L96.47743,26 L97.17025,26 L97.863075,26 L98.55589,26 L99.205414,26.075 L99.768326,26.3 L100.244644,26.675 L100.63435,27.2 L100.89416,27.8 L100.98076,28.4 L100.89416,29 L100.63435,29.6 L100.244644,30.125 L99.768326,30.5 L99.205414,30.725 L98.55589,30.8 L97.90637,30.725 L97.34346,30.5 L96.86714,30.125 L96.47743,29.6 L96.260925,29.075 L96.30422,28.7 L96.60734,28.475 L98.55589,28.4 M127.46639,98.2084 L127.012794,99.4 M127.46639,98.2084 L127.92,99.4 M127.18199,99.004 L127.75079,99.004 M128.2026,98.6062 L128.2026,99.4 M128.2026,98.833 L128.37361,98.662 L128.487,98.6062 L128.6562,98.6062 L128.7714,98.662 L128.82721,98.833 L128.82721,99.4 M129.33661,98.2084 L129.33661,99.1732 L129.39421,99.3433 L129.50581,99.4 L129.621,99.4 M129.1674,98.6062 L129.5634,98.6062 M130.1862,98.6062 L130.07462,98.662 L129.9594,98.7772 L129.9036,98.946396 L129.9036,99.0598 L129.9594,99.229904 L130.07462,99.3433 L130.1862,99.4 L130.35721,99.4 L130.47061,99.3433 L130.58401,99.229904 L130.6398,99.0598 L130.6398,98.946396 L130.58401,98.7772 L130.47061,98.662 L130.35721,98.6062 L130.1862,98.6062 M131.0358,98.6062 L131.0358,99.4 M131.0358,98.833 L131.20682,98.662 L131.3202,98.6062 L131.48941,98.6062 L131.6046,98.662 L131.66042,98.833 L131.66042,99.4 M132.11221,98.2084 L132.11221,99.4 M132.11221,98.2084 L132.56581,99.4 M133.01941,98.2084 L132.56581,99.4 M133.01941,98.2084 L133.01941,99.4 M134.09763,98.6062 L134.09763,99.4 M134.09763,98.7772 L133.98422,98.662 L133.87082,98.6062 L133.69981,98.6062 L133.58823,98.662 L133.473,98.7772 L133.4172,98.946396 L133.4172,99.0598 L133.473,99.229904 L133.58823,99.3433 L133.69981,99.4 L133.87082,99.4 L133.98422,99.3433 L134.09763,99.229904 M134.54941,98.2084 L134.54941,99.4 M135.11821,98.6062 L134.54941,99.1732 M134.77621,98.946396 L135.17403,99.4 M135.4584,98.946396 L136.13882,98.946396 L136.13882,98.833 L136.08301,98.7196 L136.02542,98.662 L135.91202,98.6062 L135.74101,98.6062 L135.62943,98.662 L135.5142,98.7772 L135.4584,98.946396 L135.4584,99.0598 L135.5142,99.229904 L135.62943,99.3433 L135.74101,99.4 L135.91202,99.4 L136.02542,99.3433 L136.13882,99.229904 M137.1036,98.7772 L137.04602,98.662 L136.87682,98.6062 L136.70583,98.6062 L136.53482,98.662 L136.47902,98.7772 L136.53482,98.8888 L136.65002,98.946396 L136.93262,99.004 L137.04602,99.0598 L137.1036,99.1732 L137.1036,99.229904 L137.04602,99.3433 L136.87682,99.4 L136.70583,99.4 L136.53482,99.3433 L136.47902,99.229904 M138.29521,98.4928 L138.23761,98.3794 L138.12422,98.266 L138.01082,98.2084 L137.78401,98.2084 L137.67062,98.266 L137.55722,98.3794 L137.4996,98.4928 L137.44382,98.662 L137.44382,98.946396 L137.4996,99.1156 L137.55722,99.229904 L137.67062,99.3433 L137.78401,99.4 L138.01082,99.4 L138.12422,99.3433 L138.23761,99.229904 L138.29521,99.1156 L138.29521,98.946396 M138.01082,98.946396 L138.29521,98.946396 M139.31583,98.6062 L139.31583,99.4 M139.31583,98.7772 L139.20242,98.662 L139.08902,98.6062 L138.91801,98.6062 L138.80643,98.662 L138.69121,98.7772 L138.6354,98.946396 L138.6354,99.0598 L138.69121,99.229904 L138.80643,99.3433 L138.91801,99.4 L139.08902,99.4 L139.20242,99.3433 L139.31583,99.229904 M139.76761,98.6062 L139.76761,99.4 M139.76761,98.833 L139.93863,98.662 L140.05202,98.6062 L140.22122,98.6062 L140.33641,98.662 L140.39223,98.833 L140.39223,99.4 M140.39223,98.833 L140.56322,98.662 L140.67482,98.6062 L140.84581,98.6062 L140.95921,98.662 L141.01682,98.833 L141.01682,99.4 M141.41281,98.946396 L142.09323,98.946396 L142.09323,98.833 L142.03741,98.7196 L141.97983,98.662 L141.86642,98.6062 L141.69542,98.6062 L141.58383,98.662 L141.46861,98.7772 L141.41281,98.946396 L141.41281,99.0598 L141.46861,99.229904 L141.58383,99.3433 L141.69542,99.4 L141.86642,99.4 L141.97983,99.3433 L142.09323,99.229904 M143.05801,98.7772 L143.00043,98.662 L142.83122,98.6062 L142.66023,98.6062 L142.48923,98.662 L142.43343,98.7772 L142.48923,98.8888 L142.60443,98.946396 L142.88702,99.004 L143.00043,99.0598 L143.05801,99.1732 L143.05801,99.229904 L143.00043,99.3433 L142.83122,99.4 L142.66023,99.4 L142.48923,99.3433 L142.43343,99.229904 M144.27841,98.2084 L144.10922,98.266 L143.99402,98.435196 L143.93822,98.7196 L143.93822,98.8888 L143.99402,99.1732 L144.10922,99.3433 L144.27841,99.4 L144.39182,99.4 L144.56282,99.3433 L144.67442,99.1732 L144.73203,98.8888 L144.73203,98.7196 L144.67442,98.435196 L144.56282,98.266 L144.39182,98.2084 L144.27841,98.2084 M145.75262,98.2084 L145.18562,98.2084 L145.12802,98.7196 L145.18562,98.662 L145.35483,98.6062 L145.52582,98.6062 L145.69681,98.662 L145.80843,98.7772 L145.86601,98.946396 L145.86601,99.0598 L145.80843,99.229904 L145.69681,99.3433 L145.52582,99.4 L145.35483,99.4 L145.18562,99.3433 L145.12802,99.286606 L145.07222,99.1732 M147.00002,98.2084 L146.43301,99.4 M146.2062,98.2084 L147.00002,98.2084" fill="none" stroke="black" stroke-width="0.4"/>
</svg>