<svg height="100mm" units="mm" viewBox="0 0 150 100" width="150mm" xmlns="http://www.w3.org/2000/svg">
<path d="M36.202065,38 M77.07846,68.4 L76.795616,68.282845 L76.67846,68 L76.795616,67.717155 L77.07846,67.6 L77.361305,67.717155 L77.47846,68 L77.361305,68.282845 L77.07846,68.4 M37.587704,38.4 L37.304863,38.282845 L37.187706,38 L37.304863,37.717155 L37.587704,37.6 L37.87055,37.717155 L37.987705,38 L37.87055,38.282845 L37.587704,38.4 M21.652836,61.2 L21.369993,61.082844 L21.252836,60.8 L21.369993,60.51716 L21.652836,60.4 L21.93568,60.51716 L22.052837,60.8 L21.93568,61.082844 L21.652836,61.2 M48.67283,55.2 L48.389984,55.082844 L48.272827,54.8 L48.389984,54.51716 L48.67283,54.4 L48.95567,54.51716 L49.072826,54.8 L48.95567,55.082844 L48.67283,55.2 M27.195398,58.8 L26.912556,58.682842 L26.795399,58.4 L26.912556,58.117157 L27.195398,58 L27.478241,58.117157 L27.595398,58.4 L27.478241,58.682842 L27.195398,58.8 M79.15692,57.6 L78.87408,57.48284 L78.75692,57.2 L78.87408,56.917156 L79.15692,56.8 L79.439766,56.917156 L79.55692,57.2 L79.439766,57.48284 L79.15692,57.6 M14.724632,27.6 L14.44179,27.482843 L14.324633,27.2 L14.44179,26.917156 L14.724632,26.8 L15.007475,26.917156 L15.124632,27.2 L15.007475,27.482843 L14.724632,27.6 M143.5892,54 L143.30637,53.882843 L143.18921,53.6 L143.30637,53.317158 L143.5892,53.2 L143.87204,53.317158 L143.98921,53.6 L143.87204,53.882843 L143.5892,54 M137.35384,28.8 L137.071,28.682842 L136.95383,28.4 L137.071,28.117157 L137.35384,28 L137.63667,28.117157 L137.75383,28.4 L137.63667,28.682842 L137.35384,28.8 M40.358986,36 L40.07614,35.882843 L39.958984,35.6 L40.07614,35.317158 L40.358986,35.2 L40.641827,35.317158 L40.758984,35.6 L40.641827,35.882843 L40.358986,36 M24.424118,32.4 L24.141275,32.282845 L24.024118,32 L24.141275,31.717157 L24.424118,31.6 L24.70696,31.717157 L24.824118,32 L24.70696,32.282845 L24.424118,32.4 M7.7964296,27.6 L7.5135865,27.482843 L7.3964295,27.2 L7.5135865,26.917156 L7.7964296,26.8 L8.079272,26.917156 L8.196429,27.2 L8.079272,27.482843 L7.7964296,27.6 M124.19025,32.4 L123.90741,32.282845 L123.790245,32 L123.90741,31.717157 L124.19025,31.6 L124.47308,31.717157 L124.59025,32 L124.47308,32.282845 L124.19025,32.4 M111.71948,63.6 L111.436646,63.48284 L111.31948,63.2 L111.436646,62.917156 L111.71948,62.8 L112.00232,62.917156 L112.119484,63.2 L112.00232,63.48284 L111.71948,63.6 M70.84308,45.6 L70.560234,45.48284 L70.44308,45.2 L70.560234,44.917156 L70.84308,44.8 L71.12592,44.917156 L71.24308,45.2 L71.12592,45.48284 L70.84308,45.6 M71.535904,37.2 L71.25306,37.082844 L71.1359,36.8 L71.25306,36.51716 L71.535904,36.4 L71.81874,36.51716 L71.9359,36.8 L71.81874,37.082844 L71.535904,37.2 M84.69948,33.6 L84.41664,33.48284 L84.299484,33.2 L84.41664,32.917156 L84.69948,32.8 L84.98232,32.917156 L85.09948,33.2 L84.98232,33.48284 L84.69948,33.6 M15.417453,67.2 L15.13461,67.08284 L15.017453,66.8 L15.13461,66.51716 L15.417453,66.4 L15.700296,66.51716 L15.817453,66.8 L15.700296,67.08284 L15.417453,67.2 M105.48409,36 L105.201256,35.882843 L105.08409,35.6 L105.201256,35.317158 L105.48409,35.2 L105.76693,35.317158 L105.884094,35.6 L105.76693,35.882843 L105.48409,36 M51.44411,55.2 L51.161266,55.082844 L51.04411,54.8 L51.161266,54.51716 L51.44411,54.4 L51.72695,54.51716 L51.84411,54.8 L51.72695,55.082844 L51.44411,55.2 M50.75129,73.2 L50.468445,73.08284 L50.351288,72.8 L50.468445,72.51716 L50.75129,72.4 L51.03413,72.51716 L51.151287,72.8 L51.03413,73.08284 L50.75129,73.2 M88.85641,67.2 L88.57356,67.08284 L88.456406,66.8 L88.57356,66.51716 L88.85641,66.4 L89.13925,66.51716 L89.25641,66.8 L89.13925,67.08284 L88.85641,67.2 M29.273859,60 L28.991016,59.882843 L28.87386,59.6 L28.991016,59.317158 L29.273859,59.2 L29.556702,59.317158 L29.673859,59.6 L29.556702,59.882843 L29.273859,60 M44.515907,28.8 L44.233063,28.682842 L44.115906,28.4 L44.233063,28.117157 L44.515907,28 L44.798748,28.117157 L44.915905,28.4 L44.798748,28.682842 L44.515907,28.8 M64.6077,27.6 L64.32485,27.482843 L64.207695,27.2 L64.32485,26.917156 L64.6077,26.8 L64.89054,26.917156 L65.0077,27.2 L64.89054,27.482843 L64.6077,27.6 M36.202065,36 L35.91922,35.882843 L35.802063,35.6 L35.91922,35.317158 L36.202065,35.2 L36.484905,35.317158 L36.602062,35.6 L36.484905,35.882843 L36.202065,36 M121.41896,30 L121.13612,29.882843 L121.01896,29.6 L121.13612,29.317158 L121.41896,29.2 L121.7018,29.317158 L121.818954,29.6 L121.7018,29.882843 L121.41896,30 M135.27536,63.6 L134.99252,63.48284 L134.87537,63.2 L134.99252,62.917156 L135.27536,62.8 L135.5582,62.917156 L135.67537,63.2 L135.5582,63.48284 L135.27536,63.6 M30.6595,57.6 L30.376657,57.48284 L30.2595,57.2 L30.376657,56.917156 L30.6595,56.8 L30.942343,56.917156 L31.0595,57.2 L30.942343,57.48284 L30.6595,57.6 M11.953352,58.8 L11.670508,58.682842 L11.553351,58.4 L11.670508,58.117157 L11.953352,58 L12.236195,58.117157 L12.353352,58.4 L12.236195,58.682842 L11.953352,58.8 M61.836414,51.6 L61.55357,51.48284 L61.436413,51.2 L61.55357,50.917156 L61.836414,50.8 L62.119255,50.917156 L62.236412,51.2 L62.119255,51.48284 L61.836414,51.6 M80.54256,55.2 L80.25972,55.082844 L80.14256,54.8 L80.25972,54.51716 L80.54256,54.4 L80.8254,54.51716 L80.94256,54.8 L80.8254,55.082844 L80.54256,55.2 M106.86973,62.4 L106.58689,62.282845 L106.46973,62 L106.58689,61.717155 L106.86973,61.6 L107.152565,61.717155 L107.26973,62 L107.152565,62.282845 L106.86973,62.4 M88.85641,43.2 L88.57356,43.082844 L88.456406,42.8 L88.57356,42.51716 L88.85641,42.4 L89.13925,42.51716 L89.25641,42.8 L89.13925,43.082844 L88.85641,43.2 M114.49076,61.2 L114.207924,61.082844 L114.09076,60.8 L114.207924,60.51716 L114.49076,60.4 L114.7736,60.51716 L114.89076,60.8 L114.7736,61.082844 L114.49076,61.2 M140.81793,30 L140.5351,29.882843 L140.41794,29.6 L140.5351,29.317158 L140.81793,29.2 L141.10077,29.317158 L141.21793,29.6 L141.10077,29.882843 L140.81793,30 M16.110273,70.8 L15.827431,70.682846 L15.710274,70.4 L15.827431,70.11716 L16.110273,70 L16.393116,70.11716 L16.510273,70.4 L16.393116,70.682846 L16.110273,70.8 M7.1036096,69.6 L6.8207664,69.48284 L6.7036095,69.2 L6.8207664,68.91716 L7.1036096,68.8 L7.3864527,68.91716 L7.5036097,69.2 L7.3864527,69.48284 L7.1036096,69.6 M122.8046,37.2 L122.52177,37.082844 L122.4046,36.8 L122.52177,36.51716 L122.8046,36.4 L123.08744,36.51716 L123.204605,36.8 L123.08744,37.082844 L122.8046,37.2 M138.04666,44.4 L137.76382,44.282845 L137.64665,44 L137.76382,43.717155 L138.04666,43.6 L138.3295,43.717155 L138.44666,44 L138.3295,44.282845 L138.04666,44.4 M18.188734,57.6 L17.905891,57.48284 L17.788734,57.2 L17.905891,56.917156 L18.188734,56.8 L18.471577,56.917156 L18.588734,57.2 L18.471577,57.48284 L18.188734,57.6 M124.88306,67.2 L124.60022,67.08284 L124.483055,66.8 L124.60022,66.51716 L124.88306,66.4 L125.16589,66.51716 L125.28306,66.8 L125.16589,67.08284 L124.88306,67.2 M32.73796,32.4 L32.455116,32.282845 L32.33796,32 L32.455116,31.717157 L32.73796,31.6 L33.020805,31.717157 L33.137962,32 L33.020805,32.282845 L32.73796,32.4 M113.797935,64.8 L113.5151,64.682846 L113.397934,64.4 L113.5151,64.11716 L113.797935,64 L114.08077,64.11716 L114.19794,64.4 L114.08077,64.682846 L113.797935,64.8 M133.19691,26.4 L132.91408,26.282843 L132.7969,26 L132.91408,25.717157 L133.19691,25.6 L133.47975,25.717157 L133.59691,26 L133.47975,26.282843 L133.19691,26.4 M9.87489,67.2 L9.592047,67.08284 L9.47489,66.8 L9.592047,66.51716 L9.87489,66.4 L10.157733,66.51716 L10.27489,66.8 L10.157733,67.08284 L9.87489,67.2 M64.6077,66 L64.32485,65.88284 L64.207695,65.6 L64.32485,65.317154 L64.6077,65.2 L64.89054,65.317154 L65.0077,65.6 L64.89054,65.88284 L64.6077,66 M106.86973,28.8 L106.58689,28.682842 L106.46973,28.4 L106.58689,28.117157 L106.86973,28 L107.152565,28.117157 L107.26973,28.4 L107.152565,28.682842 L106.86973,28.8 M30.6595,31.2 L30.376657,31.082844 L30.2595,30.8 L30.376657,30.517157 L30.6595,30.4 L30.942343,30.517157 L31.0595,30.8 L30.942343,31.082844 L30.6595,31.2 M43.130264,36 L42.84742,35.882843 L42.730263,35.6 L42.84742,35.317158 L43.130264,35.2 L43.41311,35.317158 L43.530266,35.6 L43.41311,35.882843 L43.130264,36 M113.10512,34.8 L112.82228,34.682842 L112.70512,34.4 L112.82228,34.117157 L113.10512,34 L113.387955,34.117157 L113.50511,34.4 L113.387955,34.682842 L113.10512,34.8 M115.18358,31.2 L114.90074,31.082844 L114.783585,30.8 L114.90074,30.517157 L115.18358,30.4 L115.466415,30.517157 L115.58358,30.8 L115.466415,31.082844 L115.18358,31.2 M29.273859,36 L28.991016,35.882843 L28.87386,35.6 L28.991016,35.317158 L29.273859,35.2 L29.556702,35.317158 L29.673859,35.6 L29.556702,35.882843 L29.273859,36 M126.961525,42 L126.67869,41.882843 L126.56152,41.6 L126.67869,41.317158 L126.961525,41.2 L127.24436,41.317158 L127.36153,41.6 L127.24436,41.882843 L126.961525,42 M34.81642,40.8 L34.533577,40.682842 L34.41642,40.4 L34.533577,40.117157 L34.81642,40 L35.099266,40.117157 L35.216423,40.4 L35.099266,40.682842 L34.81642,40.8 M111.71948,56.4 L111.436646,56.282845 L111.31948,56 L111.436646,55.717155 L111.71948,55.6 L112.00232,55.717155 L112.119484,56 L112.00232,56.282845 L111.71948,56.4 M54.908215,73.2 L54.625374,73.08284 L54.508217,72.8 L54.625374,72.51716 L54.908215,72.4 L55.19106,72.51716 L55.308216,72.8 L55.19106,73.08284 L54.908215,73.2 M77.771286,26.4 L77.48844,26.282843 L77.371284,26 L77.48844,25.717157 L77.771286,25.6 L78.05412,25.717157 L78.17128,26 L78.05412,26.282843 L77.771286,26.4 M16.110273,63.6 L15.827431,63.48284 L15.710274,63.2 L15.827431,62.917156 L16.110273,62.8 L16.393116,62.917156 L16.510273,63.2 L16.393116,63.48284 L16.110273,63.6 M143.5892,63.6 L143.30637,63.48284 L143.18921,63.2 L143.30637,62.917156 L143.5892,62.8 L143.87204,62.917156 L143.98921,63.2 L143.87204,63.48284 L143.5892,63.6 M13.338992,42 L13.0561495,41.882843 L12.9389925,41.6 L13.0561495,41.317158 L13.338992,41.2 L13.621836,41.317158 L13.738993,41.6 L13.621836,41.882843 L13.338992,42 M54.215393,64.8 L53.93255,64.682846 L53.81539,64.4 L53.93255,64.11716 L54.215393,64 L54.498238,64.11716 L54.615395,64.4 L54.498238,64.682846 L54.215393,64.8 M34.1236,73.2 L33.840755,73.08284 L33.7236,72.8 L33.840755,72.51716 L34.1236,72.4 L34.40644,72.51716 L34.523598,72.8 L34.40644,73.08284 L34.1236,73.2 M77.771286,48 L77.48844,47.882843 L77.371284,47.6 L77.48844,47.317158 L77.771286,47.2 L78.05412,47.317158 L78.17128,47.6 L78.05412,47.882843 L77.771286,48 M127.65434,48 L127.371506,47.882843 L127.25435,47.6 L127.371506,47.317158 L127.65434,47.2 L127.93718,47.317158 L128.05435,47.6 L127.93718,47.882843 L127.65434,48 M66.68616,28.8 L66.40331,28.682842 L66.286156,28.4 L66.40331,28.117157 L66.68616,28 L66.969,28.117157 L67.08616,28.4 L66.969,28.682842 L66.68616,28.8 M85.3923,30 L85.10946,29.882843 L84.9923,29.6 L85.10946,29.317158 L85.3923,29.2 L85.67515,29.317158 L85.792305,29.6 L85.67515,29.882843 L85.3923,30 M85.3923,56.4 L85.10946,56.282845 L84.9923,56 L85.10946,55.717155 L85.3923,55.6 L85.67515,55.717155 L85.792305,56 L85.67515,56.282845 L85.3923,56.4 M51.44411,36 L51.161266,35.882843 L51.04411,35.6 L51.161266,35.317158 L51.44411,35.2 L51.72695,35.317158 L51.84411,35.6 L51.72695,35.882843 L51.44411,36 M79.84975,66 L79.5669,65.88284 L79.449745,65.6 L79.5669,65.317154 L79.84975,65.2 L80.13258,65.317154 L80.24974,65.6 L80.13258,65.88284 L79.84975,66 M87.470764,55.2 L87.18792,55.082844 L87.07076,54.8 L87.18792,54.51716 L87.470764,54.4 L87.75361,54.51716 L87.870766,54.8 L87.75361,55.082844 L87.470764,55.2 M93.706154,63.6 L93.42331,63.48284 L93.30615,63.2 L93.42331,62.917156 L93.706154,62.8 L93.989,62.917156 L94.106155,63.2 L93.989,63.48284 L93.706154,63.6 M138.73947,50.4 L138.45663,50.282845 L138.33946,50 L138.45663,49.717155 L138.73947,49.6 L139.02231,49.717155 L139.13947,50 L139.02231,50.282845 L138.73947,50.4 M79.84975,30 L79.5669,29.882843 L79.449745,29.6 L79.5669,29.317158 L79.84975,29.2 L80.13258,29.317158 L80.24974,29.6 L80.13258,29.882843 L79.84975,30 M54.215393,55.2 L53.93255,55.082844 L53.81539,54.8 L53.93255,54.51716 L54.215393,54.4 L54.498238,54.51716 L54.615395,54.8 L54.498238,55.082844 L54.215393,55.2 M7.7964296,58.8 L7.5135865,58.682842 L7.3964295,58.4 L7.5135865,58.117157 L7.7964296,58 L8.079272,58.117157 L8.196429,58.4 L8.079272,58.682842 L7.7964296,58.8 M104.79128,58.8 L104.508446,58.682842 L104.39128,58.4 L104.508446,58.117157 L104.79128,58 L105.07412,58.117157 L105.191284,58.4 L105.07412,58.682842 L104.79128,58.8 M63.222057,68.4 L62.939217,68.282845 L62.82206,68 L62.939217,67.717155 L63.222057,67.6 L63.5049,67.717155 L63.62206,68 L63.5049,68.282845 L63.222057,68.4 M18.188734,50.4 L17.905891,50.282845 L17.788734,50 L17.905891,49.717155 L18.188734,49.6 L18.471577,49.717155 L18.588734,50 L18.471577,50.282845 L18.188734,50.4 M140.81793,44.4 L140.5351,44.282845 L140.41794,44 L140.5351,43.717155 L140.81793,43.6 L141.10077,43.717155 L141.21793,44 L141.10077,44.282845 L140.81793,44.4 M125.57588,73.2 L125.293045,73.08284 L125.17588,72.8 L125.293045,72.51716 L125.57588,72.4 L125.85872,72.51716 L125.975876,72.8 L125.85872,73.08284 L125.57588,73.2 M75.692825,66 L75.40998,65.88284 L75.29282,65.6 L75.40998,65.317154 L75.692825,65.2 L75.97566,65.317154 L76.09282,65.6 L75.97566,65.88284 L75.692825,66 M89.54923,32.4 L89.26639,32.282845 L89.14923,32 L89.26639,31.717157 L89.54923,31.6 L89.83208,31.717157 L89.949234,32 L89.83208,32.282845 L89.54923,32.4 M115.8764,44.4 L115.59357,44.282845 L115.4764,44 L115.59357,43.717155 L115.8764,43.6 L116.15924,43.717155 L116.276405,44 L116.15924,44.282845 L115.8764,44.4 M137.35384,26.4 L137.071,26.282843 L136.95383,26 L137.071,25.717157 L137.35384,25.6 L137.63667,25.717157 L137.75383,26 L137.63667,26.282843 L137.35384,26.4 M113.797935,28.8 L113.5151,28.682842 L113.397934,28.4 L113.5151,28.117157 L113.797935,28 L114.08077,28.117157 L114.19794,28.4 L114.08077,28.682842 L113.797935,28.8 M100.63435,51.6 L100.35151,51.48284 L100.23435,51.2 L100.35151,50.917156 L100.63435,50.8 L100.91719,50.917156 L101.03435,51.2 L100.91719,51.48284 L100.63435,51.6 M106.86973,55.2 L106.58689,55.082844 L106.46973,54.8 L106.58689,54.51716 L106.86973,54.4 L107.152565,54.51716 L107.26973,54.8 L107.152565,55.082844 L106.86973,55.2 M23.731297,55.2 L23.448454,55.082844 L23.331297,54.8 L23.448454,54.51716 L23.731297,54.4 L24.014141,54.51716 L24.131298,54.8 L24.014141,55.082844 L23.731297,55.2 M119.3405,38.4 L119.05766,38.282845 L118.940506,38 L119.05766,37.717155 L119.3405,37.6 L119.62334,37.717155 L119.7405,38 L119.62334,38.282845 L119.3405,38.4 M138.04666,68.4 L137.76382,68.282845 L137.64665,68 L137.76382,67.717155 L138.04666,67.6 L138.3295,67.717155 L138.44666,68 L138.3295,68.282845 L138.04666,68.4 M44.515907,72 L44.233063,71.88284 L44.115906,71.6 L44.233063,71.317154 L44.515907,71.2 L44.798748,71.317154 L44.915905,71.6 L44.798748,71.88284 L44.515907,72 M107.562546,73.2 L107.27971,73.08284 L107.16255,72.8 L107.27971,72.51716 L107.562546,72.4 L107.84538,72.51716 L107.96255,72.8 L107.84538,73.08284 L107.562546,73.2 M21.652836,42 L21.369993,41.882843 L21.252836,41.6 L21.369993,41.317158 L21.652836,41.2 L21.93568,41.317158 L22.052837,41.6 L21.93568,41.882843 L21.652836,42 M143.5892,30 L143.30637,29.882843 L143.18921,29.6 L143.30637,29.317158 L143.5892,29.2 L143.87204,29.317158 L143.98921,29.6 L143.87204,29.882843 L143.5892,30 M111.71948,44.4 L111.436646,44.282845 L111.31948,44 L111.436646,43.717155 L111.71948,43.6 L112.00232,43.717155 L112.119484,44 L112.00232,44.282845 L111.71948,44.4 M9.18207,63.6 L8.899227,63.48284 L8.78207,63.2 L8.899227,62.917156 L9.18207,62.8 L9.464913,62.917156 L9.58207,63.2 L9.464913,63.48284 L9.18207,63.6 M120.726135,33.6 L120.4433,33.48284 L120.32613,33.2 L120.4433,32.917156 L120.726135,32.8 L121.00897,32.917156 L121.12614,33.2 L121.00897,33.48284 L120.726135,33.6 M115.18358,33.6 L114.90074,33.48284 L114.783585,33.2 L114.90074,32.917156 L115.18358,32.8 L115.466415,32.917156 L115.58358,33.2 L115.466415,33.48284 L115.18358,33.6 M19.574375,40.8 L19.29153,40.682842 L19.174374,40.4 L19.29153,40.117157 L19.574375,40 L19.857218,40.117157 L19.974375,40.4 L19.857218,40.682842 L19.574375,40.8 M123.49742,52.8 L123.214584,52.682842 L123.09743,52.4 L123.214584,52.117157 L123.49742,52 L123.78026,52.117157 L123.89742,52.4 L123.78026,52.682842 L123.49742,52.8 M123.49742,69.6 L123.214584,69.48284 L123.09743,69.2 L123.214584,68.91716 L123.49742,68.8 L123.78026,68.91716 L123.89742,69.2 L123.78026,69.48284 L123.49742,69.6 M41.051804,49.2 L40.76896,49.082844 L40.651802,48.8 L40.76896,48.51716 L41.051804,48.4 L41.33465,48.51716 L41.451805,48.8 L41.33465,49.082844 L41.051804,49.2 M135.27536,30 L134.99252,29.882843 L134.87537,29.6 L134.99252,29.317158 L135.27536,29.2 L135.5582,29.317158 L135.67537,29.6 L135.5582,29.882843 L135.27536,30 M46.594368,54 L46.311523,53.882843 L46.194366,53.6 L46.311523,53.317158 L46.594368,53.2 L46.87721,53.317158 L46.994366,53.6 L46.87721,53.882843 L46.594368,54 M99.94153,33.6 L99.65868,33.48284 L99.54153,33.2 L99.65868,32.917156 L99.94153,32.8 L100.22437,32.917156 L100.34153,33.2 L100.22437,33.48284 L99.94153,33.6 M59.757954,67.2 L59.47511,67.08284 L59.357952,66.8 L59.47511,66.51716 L59.757954,66.4 L60.040794,66.51716 L60.15795,66.8 L60.040794,67.08284 L59.757954,67.2 M140.1251,64.8 L139.84227,64.682846 L139.72511,64.4 L139.84227,64.11716 L140.1251,64 L140.40794,64.11716 L140.52512,64.4 L140.40794,64.682846 L140.1251,64.8 M54.908215,49.2 L54.625374,49.082844 L54.508217,48.8 L54.625374,48.51716 L54.908215,48.4 L55.19106,48.51716 L55.308216,48.8 L55.19106,49.082844 L54.908215,49.2 M9.18207,34.8 L8.899227,34.682842 L8.78207,34.4 L8.899227,34.117157 L9.18207,34 L9.464913,34.117157 L9.58207,34.4 L9.464913,34.682842 L9.18207,34.8 M64.6077,54 L64.32485,53.882843 L64.207695,53.6 L64.32485,53.317158 L64.6077,53.2 L64.89054,53.317158 L65.0077,53.6 L64.89054,53.882843 L64.6077,54 M49.365646,39.6 L49.0828,39.48284 L48.965645,39.2 L49.0828,38.917156 L49.365646,38.8 L49.64849,38.917156 L49.765648,39.2 L49.64849,39.48284 L49.365646,39.6 M53.52257,30 L53.239727,29.882843 L53.12257,29.6 L53.239727,29.317158 L53.52257,29.2 L53.805412,29.317158 L53.92257,29.6 L53.805412,29.882843 L53.52257,30 M111.71948,42 L111.436646,41.882843 L111.31948,41.6 L111.436646,41.317158 L111.71948,41.2 L112.00232,41.317158 L112.119484,41.6 L112.00232,41.882843 L111.71948,42 M78.4641,73.2 L78.18126,73.08284 L78.0641,72.8 L78.18126,72.51716 L78.4641,72.4 L78.74695,72.51716 L78.864105,72.8 L78.74695,73.08284 L78.4641,73.2 M45.208725,42 L44.92588,41.882843 L44.808723,41.6 L44.92588,41.317158 L45.208725,41.2 L45.49157,41.317158 L45.608727,41.6 L45.49157,41.882843 L45.208725,42 M51.44411,43.2 L51.161266,43.082844 L51.04411,42.8 L51.161266,42.51716 L51.44411,42.4 L51.72695,42.51716 L51.84411,42.8 L51.72695,43.082844 L51.44411,43.2 M97.863075,73.2 L97.58023,73.08284 L97.46307,72.8 L97.58023,72.51716 L97.863075,72.4 L98.14592,72.51716 L98.26308,72.8 L98.14592,73.08284 L97.863075,73.2 M143.5892,51.6 L143.30637,51.48284 L143.18921,51.2 L143.30637,50.917156 L143.5892,50.8 L143.87204,50.917156 L143.98921,51.2 L143.87204,51.48284 L143.5892,51.6 M27.195398,73.2 L26.912556,73.08284 L26.795399,72.8 L26.912556,72.51716 L27.195398,72.4 L27.478241,72.51716 L27.595398,72.8 L27.478241,73.08284 L27.195398,73.2 M135.27536,27.6 L134.99252,27.482843 L134.87537,27.2 L134.99252,26.917156 L135.27536,26.8 L135.5582,26.917156 L135.67537,27.2 L135.5582,27.482843 L135.27536,27.6 M32.73796,56.4 L32.455116,56.282845 L32.33796,56 L32.455116,55.717155 L32.73796,55.6 L33.020805,55.717155 L33.137962,56 L33.020805,56.282845 L32.73796,56.4 M90.93487,44.4 L90.65202,44.282845 L90.53487,44 L90.65202,43.717155 L90.93487,43.6 L91.21771,43.717155 L91.33487,44 L91.21771,44.282845 L90.93487,44.4 M52.136932,49.2 L51.854088,49.082844 L51.73693,48.8 L51.854088,48.51716 L52.136932,48.4 L52.419777,48.51716 L52.536934,48.8 L52.419777,49.082844 L52.136932,49.2 M111.71948,32.4 L111.436646,32.282845 L111.31948,32 L111.436646,31.717157 L111.71948,31.6 L112.00232,31.717157 L112.119484,32 L112.00232,32.282845 L111.71948,32.4 M51.44411,33.6 L51.161266,33.48284 L51.04411,33.2 L51.161266,32.917156 L51.44411,32.8 L51.72695,32.917156 L51.84411,33.2 L51.72695,33.48284 L51.44411,33.6 M28.58104,30 L28.298197,29.882843 L28.18104,29.6 L28.298197,29.317158 L28.58104,29.2 L28.863882,29.317158 L28.98104,29.6 L28.863882,29.882843 L28.58104,30 M36.894882,32.4 L36.612038,32.282845 L36.49488,32 L36.612038,31.717157 L36.894882,31.6 L37.177727,31.717157 L37.294884,32 L37.177727,32.282845 L36.894882,32.4 M127.65434,50.4 L127.371506,50.282845 L127.25435,50 L127.371506,49.717155 L127.65434,49.6 L127.93718,49.717155 L128.05435,50 L127.93718,50.282845 L127.65434,50.4 M131.11844,63.6 L130.8356,63.48284 L130.71844,63.2 L130.8356,62.917156 L131.11844,62.8 L131.40128,62.917156 L131.51845,63.2 L131.40128,63.48284 L131.11844,63.6 M44.515907,33.6 L44.233063,33.48284 L44.115906,33.2 L44.233063,32.917156 L44.515907,32.8 L44.798748,32.917156 L44.915905,33.2 L44.798748,33.48284 L44.515907,33.6 M9.18207,70.8 L8.899227,70.682846 L8.78207,70.4 L8.899227,70.11716 L9.18207,70 L9.464913,70.11716 L9.58207,70.4 L9.464913,70.682846 L9.18207,70.8 M35.50924,49.2 L35.2264,49.082844 L35.10924,48.8 L35.2264,48.51716 L35.50924,48.4 L35.792084,48.51716 L35.90924,48.8 L35.792084,49.082844 L35.50924,49.2 M43.823082,44.4 L43.54024,44.282845 L43.423084,44 L43.54024,43.717155 L43.823082,43.6 L44.105927,43.717155 L44.223083,44 L44.105927,44.282845 L43.823082,44.4 M58.372314,55.2 L58.08947,55.082844 L57.972313,54.8 L58.08947,54.51716 L58.372314,54.4 L58.65516,54.51716 L58.772316,54.8 L58.65516,55.082844 L58.372314,55.2 M117.26204,39.6 L116.9792,39.48284 L116.86204,39.2 L116.9792,38.917156 L117.26204,38.8 L117.544876,38.917156 L117.66203,39.2 L117.544876,39.48284 L117.26204,39.6 M11.953352,34.8 L11.670508,34.682842 L11.553351,34.4 L11.670508,34.117157 L11.953352,34 L12.236195,34.117157 L12.353352,34.4 L12.236195,34.682842 L11.953352,34.8 M16.803095,40.8 L16.520252,40.682842 L16.403095,40.4 L16.520252,40.117157 L16.803095,40 L17.085938,40.117157 L17.203094,40.4 L17.085938,40.682842 L16.803095,40.8 M104.79128,68.4 L104.508446,68.282845 L104.39128,68 L104.508446,67.717155 L104.79128,67.6 L105.07412,67.717155 L105.191284,68 L105.07412,68.282845 L104.79128,68.4 M61.836414,58.8 L61.55357,58.682842 L61.436413,58.4 L61.55357,58.117157 L61.836414,58 L62.119255,58.117157 L62.236412,58.4 L62.119255,58.682842 L61.836414,58.8 M94.39897,69.6 L94.11613,69.48284 L93.99897,69.2 L94.11613,68.91716 L94.39897,68.8 L94.68181,68.91716 L94.798965,69.2 L94.68181,69.48284 L94.39897,69.6 M43.823082,49.2 L43.54024,49.082844 L43.423084,48.8 L43.54024,48.51716 L43.823082,48.4 L44.105927,48.51716 L44.223083,48.8 L44.105927,49.082844 L43.823082,49.2 M122.8046,58.8 L122.52177,58.682842 L122.4046,58.4 L122.52177,58.117157 L122.8046,58 L123.08744,58.117157 L123.204605,58.4 L123.08744,58.682842 L122.8046,58.8 M100.63435,39.6 L100.35151,39.48284 L100.23435,39.2 L100.35151,38.917156 L100.63435,38.8 L100.91719,38.917156 L101.03435,39.2 L100.91719,39.48284 L100.63435,39.6 M5.717969,50.4 L5.4351263,50.282845 L5.317969,50 L5.4351263,49.717155 L5.717969,49.6 L6.0008116,49.717155 L6.1179686,50 L6.0008116,50.282845 L5.717969,50.4 M75,69.6 L74.717155,69.48284 L74.6,69.2 L74.717155,68.91716 L75,68.8 L75.282845,68.91716 L75.4,69.2 L75.282845,69.48284 L75,69.6 M142.8964,50 L143.5892,48.8 M56.293854,46.4 L56.98667,47.6 M70.15026,72.8 L71.535904,72.8 M23.038477,27.2 L22.345655,28.4 M18.188734,52.4 L18.881556,53.6 M71.535904,56 L72.92154,56 M135.96819,30.8 L135.27536,32 M25.809757,51.2 L27.195398,51.2 M92.32051,53.6 L93.01333,54.8 M127.65434,42.8 L128.34717,44 M16.803095,28.4 L18.188734,28.4 M54.908215,63.2 L56.293854,63.2 M56.293854,60.8 L55.601032,59.6 M23.038477,70.4 L22.345655,71.6 M76.385635,35.6 L77.07846,36.8 M117.26204,56 L118.64768,56 M77.07846,70.4 L78.4641,70.4 M108.9482,51.2 L108.25537,52.4 M132.50409,58.4 L131.81126,59.6 M110.33384,36.8 L109.641014,35.6 M27.195398,29.6 L26.502579,28.4 M104.79128,72.8 L103.40564,72.8 M33.43078,26 L32.045143,26 M126.961525,63.2 L126.2687,62 M125.57588,29.6 L126.2687,28.4 M18.881556,56 L20.267195,56 M139.43228,70.4 L138.73947,71.6 M139.43228,32 L140.81793,32 M9.87489,42.8 L9.18207,41.6 M8.48925,50 L7.7964296,51.2 M93.706154,29.6 L95.09179,29.6 M87.470764,33.2 L88.16359,34.4 M104.79128,48.8 L103.40564,48.8 M106.86973,66.8 L106.17692,65.6 M137.35384,64.4 L138.04666,65.6 M105.48409,45.2 L104.79128,46.4 M65.99333,41.6 L66.68616,40.4 M6.4107885,53.6 L5.717969,52.4 M37.587704,42.8 L38.973343,42.8 M72.92154,41.6 L73.614365,40.4 M86.77795,51.2 L86.08513,52.4 M35.50924,72.8 L36.894882,72.8 M97.17025,30.8 L97.863075,32 M53.52257,36.8 L54.908215,36.8 M60.450775,65.6 L59.757954,64.4 M70.15026,58.4 L70.84308,57.2 M93.706154,58.4 L93.01333,57.2 M82.621025,53.6 L84.00667,53.6 M43.823082,58.4 L43.130264,59.6 M63.914875,54.8 L63.222057,56 M126.2687,57.2 L126.961525,56 M103.40564,70.4 L104.79128,70.4 M16.803095,52.4 L16.110273,53.6 M57.679493,39.2 L56.98667,38 M28.58104,63.2 L27.88822,64.4 M105.48409,40.4 L106.17692,39.2 M88.16359,46.4 L88.85641,45.2 M62.529236,33.2 L61.836414,32 M25.809757,72.8 L24.424118,72.8 M20.960016,33.2 L21.652836,34.4 M127.65434,64.4 L128.34717,63.2 M63.222057,46.4 L62.529236,45.2 M20.267195,65.6 L21.652836,65.6 M68.76462,41.6 L69.45744,42.8 M79.15692,40.4 L79.84975,39.2 M52.136932,63.2 L50.75129,63.2 M103.40564,63.2 L102.02,63.2 M113.10512,72.8 L114.49076,72.8 M31.35232,48.8 L32.73796,48.8 M120.726135,59.6 L120.033325,58.4 M135.27536,56 L135.96819,54.8 M5.717969,42.8 L7.1036096,42.8 M130.42563,28.4 L131.11844,29.6 M112.41229,71.6 L111.71948,72.8 M93.01333,28.4 L92.32051,29.6 M11.260531,52.4 L11.953352,51.2 M131.81126,26 L131.11844,27.2 L130.42563,26 M59.757954,26 L58.372314,26 L57.679493,27.2 M52.82975,28.4 L52.136932,29.6 L51.44411,28.4 M117.95486,54.8 L119.3405,54.8 L118.64768,53.6 M84.69948,62 L83.31384,62 L81.92821,62 M18.881556,60.8 L17.495914,60.8 L16.803095,59.6 M135.27536,51.2 L133.88974,51.2 L134.58255,52.4 M63.222057,27.2 L63.914875,28.4 L62.529236,28.4 M41.051804,39.2 L40.358986,38 L41.744625,38 M51.44411,57.2 L52.82975,57.2 L54.215393,57.2 M100.63435,36.8 L99.24871,36.8 L99.94153,35.6 M120.033325,29.6 L120.726135,28.4 L119.3405,28.4 M70.15026,48.8 L69.45744,50 L70.15026,51.2 M109.641014,30.8 L108.9482,29.6 L108.25537,30.8 M64.6077,36.8 L65.300514,38 L63.914875,38 M27.195398,46.4 L26.502579,47.6 L25.809757,46.4 M120.726135,66.8 L121.41896,65.6 L120.033325,65.6 M99.94153,57.2 L99.24871,56 L99.94153,54.8 M19.574375,33.2 L20.267195,34.4 L18.881556,34.4 M131.11844,65.6 L132.50409,65.6 L133.88974,65.6 M42.437447,44 L41.051804,44 L41.744625,42.8 M97.17025,26 L95.78461,26 L94.39897,26 M81.92821,30.8 L82.621025,29.6 L81.92821,28.4 M112.41229,47.6 L111.71948,48.8 L111.02666,50 M79.84975,34.4 L79.15692,33.2 L78.4641,34.4 M27.195398,63.2 L26.502579,64.4 L25.809757,63.2 M42.437447,58.4 L41.051804,58.4 L40.358986,57.2 M95.09179,72.8 L96.47743,72.8 L95.78461,71.6 M141.51076,69.2 L140.81793,70.4 L140.1251,69.2 M140.81793,36.8 L139.43228,36.8 L138.73947,35.6 M80.54256,33.2 L81.92821,33.2 L81.23538,34.4 M77.07846,56 L76.385635,54.8 L75,54.8 M115.18358,69.2 L114.49076,70.4 L113.797935,69.2 M126.961525,36.8 L127.65434,38 L129.03998,38 M55.601032,28.4 L56.293854,29.6 L56.98667,30.8 M95.78461,40.4 L97.17025,40.4 L98.55589,40.4 M41.744625,28.4 L41.051804,29.6 L40.358986,28.4 M23.038477,51.2 L23.731297,50 L23.038477,48.8 L22.345655,47.6 M120.726135,71.6 L121.41896,72.8 L122.11178,71.6 L122.8046,72.8 M65.300514,62 L66.68616,62 L67.37898,60.8 L65.99333,60.8 M37.587704,50 L36.894882,48.8 L36.202065,47.6 L35.50924,46.4 M84.00667,41.6 L84.69948,42.8 L85.3923,44 L86.08513,45.2 M128.34717,53.6 L129.03998,52.4 L129.7328,53.6 L129.03998,54.8 M57.679493,51.2 L56.98667,52.4 L56.293854,51.2 L55.601032,52.4 M61.143593,50 L62.529236,50 L63.222057,48.8 L63.914875,50 M38.280525,58.4 L37.587704,57.2 L36.894882,56 L36.202065,57.2 M41.744625,52.4 L41.051804,51.2 L39.66616,51.2 L40.358986,52.4 M95.78461,38 L95.09179,36.8 L96.47743,36.8 L97.17025,38 M79.84975,72.8 L80.54256,71.6 L81.23538,72.8 L82.621025,72.8 M114.49076,53.6 L113.797935,54.8 L115.18358,54.8 L115.8764,56 M135.96819,42.8 L136.66101,44 L135.27536,44 L134.58255,42.8 M134.58255,59.6 L135.27536,60.8 L136.66101,60.8 L135.96819,59.6 M108.25537,59.6 L107.562546,60.8 L108.9482,60.8 L110.33384,60.8 M128.34717,58.4 L129.03998,57.2 L129.7328,58.4 L130.42563,57.2 M94.39897,66.8 L93.01333,66.8 L91.627686,66.8 L90.93487,68 M25.809757,41.6 L27.195398,41.6 L26.502579,42.8 L27.195398,44 M92.32051,48.8 L90.93487,48.8 L90.24205,47.6 L91.627686,47.6 M78.4641,46.4 L79.15692,45.2 L78.4641,44 L77.771286,42.8 M47.980007,39.2 L48.67283,40.4 L47.980007,41.6 L49.365646,41.6 M6.4107885,60.8 L7.1036096,62 L5.717969,62 L6.4107885,63.2 M45.208725,51.2 L45.901546,50 L46.594368,48.8 L45.901546,47.6 M125.57588,53.6 L124.88306,52.4 L126.2687,52.4 L126.961525,53.6 M76.385635,50 L77.771286,50 L78.4641,48.8 L77.07846,48.8 L75.692825,48.8 M122.11178,50 L121.41896,48.8 L122.8046,48.8 L124.19025,48.8 L124.88306,47.6 M68.76462,48.8 L69.45744,47.6 L68.07179,47.6 L67.37898,46.4 L68.76462,46.4 M14.724632,60.8 L13.338992,60.8 L14.031812,62 L13.338992,63.2 L14.031812,64.4 M84.00667,51.2 L83.31384,52.4 L84.69948,52.4 L85.3923,51.2 L84.69948,50 M129.03998,66.8 L127.65434,66.8 L126.2687,66.8 L126.961525,68 L128.34717,68 M47.28719,33.2 L46.594368,34.4 L47.28719,35.6 L47.980007,36.8 L46.594368,36.8 M66.68616,64.4 L65.300514,64.4 L65.99333,63.2 L67.37898,63.2 L68.07179,64.4 M138.73947,59.6 L140.1251,59.6 L139.43228,60.8 L140.81793,60.8 L141.51076,62 M28.58104,65.6 L27.88822,66.8 L29.273859,66.8 L29.966679,68 L30.6595,66.8 M131.81126,71.6 L132.50409,72.8 L131.11844,72.8 L129.7328,72.8 L130.42563,71.6 M57.679493,53.6 L59.065136,53.6 L59.757954,54.8 L61.143593,54.8 L60.450775,53.6 M83.31384,45.2 L84.69948,45.2 L84.00667,46.4 L82.621025,46.4 L81.23538,46.4 M109.641014,45.2 L108.9482,46.4 L107.562546,46.4 L106.86973,47.6 L108.25537,47.6 M122.11178,57.2 L121.41896,58.4 L120.726135,57.2 L121.41896,56 L122.8046,56 M13.338992,56 L14.031812,54.8 L12.646172,54.8 L11.953352,53.6 L13.338992,53.6 M133.19691,40.4 L133.88974,41.6 L133.19691,42.8 L131.81126,42.8 L132.50409,44 M70.84308,35.6 L70.15026,36.8 L68.76462,36.8 L69.45744,35.6 L70.15026,34.4 M72.228714,42.8 L73.614365,42.8 L74.30718,41.6 L75.692825,41.6 L76.385635,40.4 M62.529236,64.4 L61.143593,64.4 L61.836414,63.2 L61.143593,62 L61.836414,60.8 M73.614365,71.6 L72.92154,70.4 L72.228714,69.2 L71.535904,68 L70.84308,69.2 M94.39897,28.4 L93.706154,27.2 L93.01333,26 L92.32051,27.2 L91.627686,26 M123.49742,28.4 L124.88306,28.4 L125.57588,27.2 L124.88306,26 L124.19025,27.2 M99.94153,52.4 L99.24871,51.2 L98.55589,52.4 L97.863075,51.2 L98.55589,50 M102.712814,50 L102.02,48.8 L101.32717,50 L102.02,51.2 L102.712814,52.4 M72.228714,28.4 L71.535904,27.2 L72.92154,27.2 L73.614365,28.4 L72.92154,29.6 M108.25537,26 L109.641014,26 L110.33384,27.2 L111.02666,26 L111.71948,27.2 M114.49076,29.6 L113.10512,29.6 L113.797935,30.8 L113.10512,32 L112.41229,30.8 L111.71948,29.6 M96.47743,34.4 L95.78461,33.2 L95.09179,34.4 L95.78461,35.6 L97.17025,35.6 L97.863075,34.4 M111.02666,71.6 L110.33384,72.8 L108.9482,72.8 L108.25537,71.6 L109.641014,71.6 L108.9482,70.4 M57.679493,70.4 L58.372314,71.6 L56.98667,71.6 L55.601032,71.6 L56.293854,72.8 L57.679493,72.8 M115.18358,47.6 L113.797935,47.6 L113.10512,46.4 L113.797935,45.2 L114.49076,46.4 L115.8764,46.4 M79.84975,70.4 L79.15692,71.6 L77.771286,71.6 L77.07846,72.8 L76.385635,71.6 L75.692825,72.8 M72.228714,30.8 L70.84308,30.8 L71.535904,29.6 L70.15026,29.6 L68.76462,29.6 L69.45744,30.8 M92.32051,46.4 L93.01333,45.2 L93.706154,46.4 L93.01333,47.6 L93.706154,48.8 L95.09179,48.8 M140.1251,33.2 L141.51076,33.2 L142.8964,33.2 L143.5892,34.4 L142.20358,34.4 L140.81793,34.4 M97.863075,44 L98.55589,45.2 L97.863075,46.4 L97.17025,45.2 L96.47743,44 L97.17025,42.8 M15.417453,42.8 L16.110273,44 L17.495914,44 L18.188734,42.8 L17.495914,41.6 L16.803095,42.8 M142.20358,44 L143.5892,44 L142.8964,45.2 L141.51076,45.2 L142.20358,46.4 L143.5892,46.4 M63.914875,45.2 L64.6077,46.4 L63.914875,47.6 L65.300514,47.6 L66.68616,47.6 L67.37898,48.8 M59.065136,32 L58.372314,30.8 L57.679493,32 L58.372314,33.2 L59.065136,34.4 L59.757954,35.6 M9.87489,59.6 L11.260531,59.6 L10.56771,58.4 L9.87489,57.2 L9.18207,56 L9.87489,54.8 M20.960016,45.2 L21.652836,44 L22.345655,42.8 L20.960016,42.8 L20.267195,44 L18.881556,44 M14.031812,59.6 L12.646172,59.6 L13.338992,58.4 L14.031812,57.2 L12.646172,57.2 L11.953352,56 M62.529236,69.2 L61.836414,70.4 L60.450775,70.4 L59.065136,70.4 L59.757954,69.2 L61.143593,69.2 M9.18207,58.4 L8.48925,59.6 L9.18207,60.8 L10.56771,60.8 L11.953352,60.8 L12.646172,62 M36.202065,59.6 L36.894882,60.8 L38.280525,60.8 L37.587704,62 L36.202065,62 L34.81642,62 L35.50924,60.8 M45.208725,32 L44.515907,30.8 L45.901546,30.8 L46.594368,29.6 L47.980007,29.6 L47.28719,28.4 L48.67283,28.4 M63.222057,53.6 L62.529236,54.8 L61.836414,56 L62.529236,57.2 L63.914875,57.2 L63.222057,58.4 L64.6077,58.4 M49.365646,36.8 L50.058468,35.6 L50.75129,34.4 L49.365646,34.4 L48.67283,33.2 L47.980007,34.4 L48.67283,35.6 M131.81126,30.8 L132.50409,29.6 L133.19691,30.8 L132.50409,32 L131.81126,33.2 L131.11844,34.4 L132.50409,34.4 M38.973343,40.4 L37.587704,40.4 L36.894882,41.6 L38.280525,41.6 L39.66616,41.6 L40.358986,40.4 L39.66616,39.2 M99.24871,63.2 L100.63435,63.2 L101.32717,62 L102.712814,62 L102.02,60.8 L103.40564,60.8 L104.79128,60.8 M119.3405,69.2 L118.64768,70.4 L117.95486,69.2 L117.26204,68 L115.8764,68 L116.569214,66.8 L115.18358,66.8 M135.27536,70.4 L134.58255,69.2 L135.27536,68 L135.96819,69.2 L136.66101,68 L137.35384,69.2 L136.66101,70.4 M79.84975,68 L80.54256,69.2 L81.23538,70.4 L81.92821,71.6 L83.31384,71.6 L82.621025,70.4 L83.31384,69.2 L84.00667,68 M48.67283,45.2 L47.28719,45.2 L46.594368,44 L47.980007,44 L47.28719,42.8 L48.67283,42.8 L49.365646,44 L50.058468,45.2 M25.809757,34.4 L24.424118,34.4 L23.038477,34.4 L23.731297,35.6 L23.038477,36.8 L22.345655,35.6 L20.960016,35.6 L21.652836,36.8 M23.731297,30.8 L22.345655,30.8 L23.038477,32 L23.731297,33.2 L22.345655,33.2 L21.652836,32 L20.267195,32 L20.960016,30.8 M12.646172,69.2 L13.338992,70.4 L11.953352,70.4 L11.260531,71.6 L12.646172,71.6 L14.031812,71.6 L14.724632,70.4 L14.031812,69.2 M81.92821,42.8 L81.23538,41.6 L81.92821,40.4 L83.31384,40.4 L82.621025,41.6 L83.31384,42.8 L84.00667,44 L82.621025,44 M5.717969,30.8 L6.4107885,32 L5.717969,33.2 L7.1036096,33.2 L8.48925,33.2 L7.7964296,34.4 L6.4107885,34.4 L5.717969,35.6 M29.273859,33.2 L30.6595,33.2 L31.35232,34.4 L29.966679,34.4 L30.6595,35.6 L32.045143,35.6 L32.73796,34.4 L34.1236,34.4 M137.35384,52.4 L138.73947,52.4 L140.1251,52.4 L140.81793,53.6 L141.51076,54.8 L140.81793,56 L140.1251,54.8 L139.43228,56 M41.744625,54.8 L41.051804,56 L41.744625,57.2 L42.437447,56 L43.130264,54.8 L44.515907,54.8 L43.823082,53.6 L42.437447,53.6 M124.19025,53.6 L122.8046,53.6 L122.11178,52.4 L121.41896,51.2 L122.8046,51.2 L124.19025,51.2 L124.88306,50 L123.49742,50 M75,45.2 L73.614365,45.2 L72.228714,45.2 L71.535904,46.4 L72.92154,46.4 L74.30718,46.4 L75.692825,46.4 L76.385635,45.2 L75.692825,44 M134.58255,33.2 L135.27536,34.4 L134.58255,35.6 L135.96819,35.6 L136.66101,36.8 L135.96819,38 L135.27536,36.8 L134.58255,38 L133.88974,36.8 M100.63435,48.8 L99.94153,50 L99.24871,48.8 L97.863075,48.8 L97.17025,50 L96.47743,51.2 L95.09179,51.2 L94.39897,52.4 L95.78461,52.4 M139.43228,53.6 L138.73947,54.8 L138.04666,56 L138.73947,57.2 L138.04666,58.4 L139.43228,58.4 L140.1251,57.2 L141.51076,57.2 L140.81793,58.4 M138.73947,38 L139.43228,39.2 L140.1251,38 L140.81793,39.2 L141.51076,38 L142.20358,39.2 L141.51076,40.4 L140.1251,40.4 L140.81793,41.6 M64.6077,72.8 L65.99333,72.8 L65.300514,71.6 L66.68616,71.6 L67.37898,72.8 L68.76462,72.8 L68.07179,71.6 L67.37898,70.4 L65.99333,70.4 M70.84308,66.8 L69.45744,66.8 L70.15026,65.6 L71.535904,65.6 L70.84308,64.4 L71.535904,63.2 L72.228714,62 L70.84308,62 L70.15026,63.2 L69.45744,62 M110.33384,58.4 L109.641014,57.2 L110.33384,56 L111.02666,54.8 L112.41229,54.8 L113.10512,53.6 L113.797935,52.4 L114.49076,51.2 L113.797935,50 L113.10512,51.2 M122.8046,32 L122.11178,33.2 L122.8046,34.4 L123.49742,33.2 L124.88306,33.2 L126.2687,33.2 L125.57588,34.4 L126.961525,34.4 L128.34717,34.4 L129.03998,35.6 M38.973343,62 L40.358986,62 L41.051804,63.2 L41.744625,64.4 L40.358986,64.4 L41.051804,65.6 L42.437447,65.6 L43.823082,65.6 L43.130264,64.4 L42.437447,63.2 M86.77795,70.4 L86.08513,69.2 L86.77795,68 L87.470764,66.8 L88.16359,68 L89.54923,68 L90.24205,66.8 L90.93487,65.6 L92.32051,65.6 L91.627686,64.4 M133.19691,57.2 L132.50409,56 L133.88974,56 L134.58255,57.2 L135.96819,57.2 L137.35384,57.2 L136.66101,56 L137.35384,54.8 L136.66101,53.6 L138.04666,53.6 M116.569214,54.8 L117.26204,53.6 L117.95486,52.4 L119.3405,52.4 L120.726135,52.4 L120.033325,51.2 L120.726135,50 L119.3405,50 L118.64768,51.2 L117.95486,50 L117.26204,48.8 M69.45744,52.4 L68.76462,51.2 L68.07179,50 L67.37898,51.2 L66.68616,50 L65.99333,48.8 L64.6077,48.8 L65.300514,50 L65.99333,51.2 L66.68616,52.4 L68.07179,52.4 M43.130264,69.2 L42.437447,68 L43.130264,66.8 L41.744625,66.8 L40.358986,66.8 L39.66616,65.6 L38.973343,64.4 L39.66616,63.2 L38.280525,63.2 L37.587704,64.4 L36.894882,63.2 M117.26204,70.4 L116.569214,69.2 L115.8764,70.4 L115.18358,71.6 L115.8764,72.8 L116.569214,71.6 L117.95486,71.6 L119.3405,71.6 L120.033325,72.8 L118.64768,72.8 L117.26204,72.8 M131.11844,48.8 L130.42563,47.6 L129.7328,46.4 L130.42563,45.2 L129.03998,45.2 L128.34717,46.4 L129.03998,47.6 L128.34717,48.8 L129.03998,50 L130.42563,50 L129.7328,48.8 M106.17692,27.2 L105.48409,28.4 L106.17692,29.6 L107.562546,29.6 L108.25537,28.4 L109.641014,28.4 L108.9482,27.2 L107.562546,27.2 L106.86973,26 L105.48409,26 L104.098465,26 M49.365646,65.6 L50.058468,64.4 L49.365646,63.2 L48.67283,64.4 L47.980007,65.6 L48.67283,66.8 L49.365646,68 L48.67283,69.2 L50.058468,69.2 L50.75129,68 L50.058468,66.8 L50.75129,65.6 M103.40564,53.6 L104.79128,53.6 L105.48409,52.4 L104.098465,52.4 L103.40564,51.2 L104.79128,51.2 L104.098465,50 L105.48409,50 L106.86973,50 L108.25537,50 L107.562546,51.2 L106.17692,51.2 M24.424118,39.2 L23.038477,39.2 L23.731297,38 L25.116938,38 L26.502579,38 L25.809757,39.2 L27.195398,39.2 L27.88822,38 L29.273859,38 L29.966679,39.2 L28.58104,39.2 L29.273859,40.4 M135.96819,47.6 L137.35384,47.6 L136.66101,48.8 L138.04666,48.8 L137.35384,50 L138.04666,51.2 L139.43228,51.2 L140.1251,50 L140.81793,48.8 L140.1251,47.6 L139.43228,48.8 L138.73947,47.6 M113.797935,62 L113.10512,60.8 L112.41229,62 L111.71948,60.8 L112.41229,59.6 L113.10512,58.4 L112.41229,57.2 L111.02666,57.2 L111.71948,58.4 L111.02666,59.6 L109.641014,59.6 L108.9482,58.4 L108.25537,57.2 M54.215393,38 L53.52257,39.2 L54.215393,40.4 L52.82975,40.4 L51.44411,40.4 L52.136932,41.6 L52.82975,42.8 L53.52257,41.6 L54.908215,41.6 L55.601032,42.8 L56.293854,41.6 L55.601032,40.4 L54.908215,39.2 M10.56771,27.2 L9.87489,26 L9.18207,27.2 L8.48925,26 L7.1036096,26 L5.717969,26 L6.4107885,27.2 L7.1036096,28.4 L8.48925,28.4 L9.87489,28.4 L9.18207,29.6 L7.7964296,29.6 L6.4107885,29.6 L5.717969,28.4 M131.11844,41.6 L132.50409,41.6 L131.81126,40.4 L132.50409,39.2 L133.88974,39.2 L135.27536,39.2 L136.66101,39.2 L137.35384,40.4 L135.96819,40.4 L134.58255,40.4 L135.27536,41.6 L136.66101,41.6 L137.35384,42.8 L138.04666,41.6 M36.894882,58.4 L37.587704,59.6 L38.973343,59.6 L39.66616,60.8 L41.051804,60.8 L41.744625,62 L43.130264,62 L43.823082,63.2 L45.208725,63.2 L44.515907,64.4 L45.208725,65.6 L45.901546,66.8 L44.515907,66.8 L43.823082,68 M57.679493,29.6 L56.98667,28.4 L58.372314,28.4 L59.065136,27.2 L60.450775,27.2 L61.143593,28.4 L61.836414,27.2 L61.143593,26 L62.529236,26 L63.914875,26 L65.300514,26 L65.99333,27.2 L67.37898,27.2 L66.68616,26 L68.07179,26 M79.15692,42.8 L79.84975,44 L80.54256,42.8 L81.23538,44 L81.92821,45.2 L80.54256,45.2 L79.84975,46.4 L79.15692,47.6 L80.54256,47.6 L79.84975,48.8 L79.15692,50 L79.84975,51.2 L78.4641,51.2 L77.07846,51.2 L75.692825,51.2 M123.49742,26 L122.8046,27.2 L121.41896,27.2 L122.11178,28.4 L122.8046,29.6 L124.19025,29.6 L123.49742,30.8 L122.11178,30.8 L121.41896,32 L120.726135,30.8 L120.033325,32 L119.3405,33.2 L118.64768,34.4 L117.95486,33.2 L117.26204,34.4 M14.724632,51.2 L13.338992,51.2 L12.646172,52.4 L14.031812,52.4 L14.724632,53.6 L15.417453,52.4 L16.110273,51.2 L17.495914,51.2 L16.803095,50 L15.417453,50 L16.110273,48.8 L14.724632,48.8 L14.031812,50 L12.646172,50 L13.338992,48.8 M123.49742,64.4 L124.19025,65.6 L124.88306,64.4 L124.19025,63.2 L125.57588,63.2 L126.2687,64.4 L125.57588,65.6 L126.961525,65.6 L128.34717,65.6 L129.03998,64.4 L129.7328,63.2 L129.03998,62 L127.65434,62 L126.961525,60.8 L128.34717,60.8 M112.41229,38 L113.797935,38 L114.49076,39.2 L115.8764,39.2 L116.569214,40.4 L117.26204,41.6 L117.95486,40.4 L118.64768,39.2 L117.95486,38 L116.569214,38 L115.18358,38 L115.8764,36.8 L115.18358,35.6 L113.797935,35.6 L114.49076,36.8 L113.10512,36.8 M117.95486,42.8 L118.64768,41.6 L119.3405,40.4 L120.033325,39.2 L120.726135,38 L121.41896,36.8 L120.726135,35.6 L122.11178,35.6 L121.41896,34.4 L120.033325,34.4 L119.3405,35.6 L120.033325,36.8 L118.64768,36.8 L117.95486,35.6 L116.569214,35.6 L117.26204,36.8 M7.1036096,45.2 L7.7964296,46.4 L8.48925,47.6 L9.87489,47.6 L9.18207,48.8 L9.87489,50 L9.18207,51.2 L10.56771,51.2 L11.260531,50 L10.56771,48.8 L11.953352,48.8 L11.260531,47.6 L10.56771,46.4 L11.260531,45.2 L12.646172,45.2 L11.953352,46.4 M75,57.2 L74.30718,56 L75.692825,56 L76.385635,57.2 L75.692825,58.4 L75,59.6 L76.385635,59.6 L77.07846,58.4 L77.771286,57.2 L78.4641,58.4 L79.84975,58.4 L80.54256,57.2 L81.23538,56 L82.621025,56 L81.92821,57.2 L81.23538,58.4 M94.39897,71.6 L93.706154,72.8 L92.32051,72.8 L93.01333,71.6 L93.706154,70.4 L95.09179,70.4 L96.47743,70.4 L95.78461,69.2 L95.09179,68 L95.78461,66.8 L95.09179,65.6 L96.47743,65.6 L97.17025,66.8 L97.863075,68 L96.47743,68 L97.17025,69.2 M50.058468,71.6 L49.365646,72.8 L47.980007,72.8 L46.594368,72.8 L45.208725,72.8 L43.823082,72.8 L43.130264,71.6 L42.437447,72.8 L41.744625,71.6 L40.358986,71.6 L41.051804,72.8 L39.66616,72.8 L38.280525,72.8 L37.587704,71.6 L36.894882,70.4 L37.587704,69.2 M35.50924,44 L36.202065,42.8 L34.81642,42.8 L34.1236,44 L32.73796,44 L33.43078,45.2 L34.81642,45.2 L36.202065,45.2 L36.894882,44 L37.587704,45.2 L36.894882,46.4 L37.587704,47.6 L38.973343,47.6 L40.358986,47.6 L41.051804,46.4 L39.66616,46.4 L38.280525,46.4 M90.24205,62 L89.54923,60.8 L88.16359,60.8 L86.77795,60.8 L86.08513,59.6 L87.470764,59.6 L86.77795,58.4 L87.470764,57.2 L86.08513,57.2 L84.69948,57.2 L84.00667,58.4 L85.3923,58.4 L84.69948,59.6 L84.00667,60.8 L85.3923,60.8 L86.08513,62 L87.470764,62 M20.267195,48.8 L20.960016,50 L19.574375,50 L18.881556,48.8 L17.495914,48.8 L16.803095,47.6 L15.417453,47.6 L14.031812,47.6 L12.646172,47.6 L13.338992,46.4 L14.724632,46.4 L14.031812,45.2 L14.724632,44 L15.417453,45.2 L16.803095,45.2 L17.495914,46.4 L16.110273,46.4 M77.771286,30.8 L79.15692,30.8 L79.84975,32 L78.4641,32 L77.771286,33.2 L77.07846,34.4 L76.385635,33.2 L77.07846,32 L75.692825,32 L76.385635,30.8 L77.07846,29.6 L78.4641,29.6 L79.15692,28.4 L77.771286,28.4 L78.4641,27.2 L79.15692,26 L79.84975,27.2 M53.52257,68 L54.215393,66.8 L54.908215,65.6 L55.601032,64.4 L56.293854,65.6 L57.679493,65.6 L56.98667,64.4 L58.372314,64.4 L59.065136,65.6 L58.372314,66.8 L59.065136,68 L58.372314,69.2 L57.679493,68 L56.98667,66.8 L56.293854,68 L54.908215,68 L55.601032,66.8 M9.87489,64.4 L9.18207,65.6 L10.56771,65.6 L11.260531,66.8 L11.953352,68 L12.646172,66.8 L13.338992,68 L14.031812,66.8 L14.724632,68 L15.417453,69.2 L16.110273,68 L16.803095,69.2 L18.188734,69.2 L17.495914,70.4 L18.881556,70.4 L19.574375,71.6 L20.267195,70.4 M11.260531,57.2 L10.56771,56 L11.260531,54.8 L10.56771,53.6 L9.87489,52.4 L9.18207,53.6 L8.48925,54.8 L7.7964296,53.6 L8.48925,52.4 L7.1036096,52.4 L6.4107885,51.2 L7.1036096,50 L7.7964296,48.8 L6.4107885,48.8 L7.1036096,47.6 L6.4107885,46.4 L5.717969,47.6 M56.98667,42.8 L56.293854,44 L56.98667,45.2 L57.679493,44 L58.372314,45.2 L59.065136,44 L59.757954,45.2 L61.143593,45.2 L60.450775,46.4 L61.836414,46.4 L62.529236,47.6 L61.836414,48.8 L60.450775,48.8 L61.143593,47.6 L59.757954,47.6 L59.065136,48.8 L58.372314,47.6 L57.679493,46.4 L59.065136,46.4 M52.136932,58.4 L52.82975,59.6 L53.52257,58.4 L54.215393,59.6 L54.908215,58.4 L56.293854,58.4 L57.679493,58.4 L56.98667,59.6 L57.679493,60.8 L58.372314,59.6 L59.065136,60.8 L59.757954,59.6 L60.450775,58.4 L59.065136,58.4 L58.372314,57.2 L57.679493,56 L59.065136,56 L60.450775,56 L61.143593,57.2 L59.757954,57.2 M100.63435,70.4 L99.94153,69.2 L100.63435,68 L101.32717,69.2 L102.02,70.4 L102.712814,69.2 L104.098465,69.2 L105.48409,69.2 L106.17692,70.4 L107.562546,70.4 L106.86973,71.6 L106.17692,72.8 L105.48409,71.6 L104.098465,71.6 L102.712814,71.6 L102.02,72.8 L101.32717,71.6 L99.94153,71.6 L99.24871,72.8 L100.63435,72.8 M32.045143,30.8 L31.35232,29.6 L32.045143,28.4 L32.73796,29.6 L33.43078,30.8 L34.1236,29.6 L35.50924,29.6 L36.202065,30.8 L36.894882,29.6 L36.202065,28.4 L36.894882,27.2 L37.587704,28.4 L38.973343,28.4 L39.66616,27.2 L41.051804,27.2 L41.744625,26 L42.437447,27.2 L43.823082,27.2 L43.130264,26 L44.515907,26 M87.470764,38 L88.16359,36.8 L88.85641,38 L89.54923,36.8 L90.24205,38 L89.54923,39.2 L90.24205,40.4 L88.85641,40.4 L89.54923,41.6 L88.16359,41.6 L87.470764,42.8 L86.77795,44 L86.08513,42.8 L85.3923,41.6 L86.77795,41.6 L87.470764,40.4 L88.16359,39.2 L86.77795,39.2 L85.3923,39.2 L84.69948,40.4 L86.08513,40.4 M104.79128,63.2 L104.098465,62 L105.48409,62 L106.17692,60.8 L106.86973,59.6 L107.562546,58.4 L106.86973,57.2 L107.562546,56 L106.17692,56 L104.79128,56 L104.098465,57.2 L105.48409,57.2 L106.17692,58.4 L105.48409,59.6 L104.098465,59.6 L103.40564,58.4 L102.712814,59.6 L101.32717,59.6 L102.02,58.4 L102.712814,57.2 L103.40564,56 M113.797935,66.8 L114.49076,68 L113.10512,68 L112.41229,66.8 L111.71948,65.6 L111.02666,64.4 L110.33384,63.2 L111.02666,62 L109.641014,62 L108.25537,62 L108.9482,63.2 L107.562546,63.2 L106.17692,63.2 L106.86973,64.4 L105.48409,64.4 L104.098465,64.4 L102.712814,64.4 L101.32717,64.4 L102.02,65.6 L102.712814,66.8 L103.40564,65.6 M37.587704,54.8 L38.280525,56 L38.973343,54.8 L38.280525,53.6 L36.894882,53.6 L36.202065,52.4 L36.894882,51.2 L36.202065,50 L35.50924,51.2 L34.1236,51.2 L33.43078,52.4 L32.045143,52.4 L32.73796,53.6 L32.045143,54.8 L33.43078,54.8 L34.81642,54.8 L35.50924,56 L36.202065,54.8 L35.50924,53.6 L34.81642,52.4 L34.1236,53.6 M108.25537,33.2 L108.9482,32 L109.641014,33.2 L108.9482,34.4 L108.25537,35.6 L106.86973,35.6 L107.562546,34.4 L106.17692,34.4 L104.79128,34.4 L105.48409,33.2 L104.79128,32 L104.098465,33.2 L102.712814,33.2 L103.40564,32 L102.712814,30.8 L104.098465,30.8 L105.48409,30.8 L106.17692,32 L106.86973,30.8 L107.562546,32 L106.86973,33.2 M38.280525,36.8 L39.66616,36.8 L38.973343,38 L38.280525,39.2 L36.894882,39.2 L36.202065,40.4 L35.50924,41.6 L34.1236,41.6 L33.43078,42.8 L32.73796,41.6 L33.43078,40.4 L34.1236,39.2 L32.73796,39.2 L33.43078,38 L34.1236,36.8 L32.73796,36.8 L33.43078,35.6 L34.81642,35.6 L35.50924,34.4 L36.202065,33.2 L37.587704,33.2 L36.894882,34.4 L38.280525,34.4 M88.85641,28.4 L88.16359,27.2 L87.470764,28.4 L86.77795,27.2 L86.08513,28.4 L86.77795,29.6 L86.08513,30.8 L85.3923,32 L86.08513,33.2 L85.3923,34.4 L84.00667,34.4 L83.31384,33.2 L84.00667,32 L84.69948,30.8 L83.31384,30.8 L82.621025,32 L81.23538,32 L80.54256,30.8 L81.23538,29.6 L80.54256,28.4 L81.23538,27.2 L80.54256,26 L81.92821,26 M94.39897,47.6 L95.09179,46.4 L96.47743,46.4 L95.78461,45.2 L95.09179,44 L94.39897,45.2 L93.706154,44 L94.39897,42.8 L93.01333,42.8 L93.706154,41.6 L94.39897,40.4 L95.09179,41.6 L95.78461,42.8 L96.47743,41.6 L97.863075,41.6 L98.55589,42.8 L99.24871,44 L99.94153,42.8 L100.63435,44 L99.94153,45.2 L99.24871,46.4 L100.63435,46.4 L101.32717,45.2 M122.11178,26 L120.726135,26 L120.033325,27.2 L118.64768,27.2 L119.3405,26 L117.95486,26 L117.26204,27.2 L116.569214,28.4 L117.95486,28.4 L118.64768,29.6 L117.95486,30.8 L119.3405,30.8 L118.64768,32 L117.26204,32 L116.569214,33.2 L115.8764,34.4 L114.49076,34.4 L113.797935,33.2 L114.49076,32 L115.8764,32 L116.569214,30.8 L115.8764,29.6 L117.26204,29.6 M99.24871,27.2 L99.94153,28.4 L100.63435,29.6 L99.94153,30.8 L100.63435,32 L102.02,32 L101.32717,33.2 L102.02,34.4 L103.40564,34.4 L104.098465,35.6 L103.40564,36.8 L104.79128,36.8 L104.098465,38 L103.40564,39.2 L102.02,39.2 L102.712814,40.4 L101.32717,40.4 L99.94153,40.4 L99.24871,41.6 L100.63435,41.6 L101.32717,42.8 L102.02,44 L102.712814,42.8 L102.02,41.6 M88.85641,59.6 L90.24205,59.6 L89.54923,58.4 L88.16359,58.4 L88.85641,57.2 L88.16359,56 L86.77795,56 L86.08513,54.8 L84.69948,54.8 L85.3923,53.6 L86.77795,53.6 L87.470764,52.4 L88.16359,53.6 L88.85641,54.8 L89.54923,56 L90.24205,57.2 L90.93487,56 L91.627686,57.2 L90.93487,58.4 L92.32051,58.4 L93.01333,59.6 L92.32051,60.8 L90.93487,60.8 L91.627686,59.6 M29.273859,30.8 L29.966679,29.6 L30.6595,28.4 L29.273859,28.4 L27.88822,28.4 L27.195398,27.2 L25.809757,27.2 L26.502579,26 L27.88822,26 L28.58104,27.2 L29.273859,26 L30.6595,26 L29.966679,27.2 L31.35232,27.2 L32.73796,27.2 L33.43078,28.4 L34.1236,27.2 L34.81642,28.4 L35.50924,27.2 L34.81642,26 L36.202065,26 L37.587704,26 L38.280525,27.2 L38.973343,26 L40.358986,26 M94.39897,59.6 L95.09179,58.4 L95.78461,59.6 L95.09179,60.8 L93.706154,60.8 L94.39897,62 L93.01333,62 L91.627686,62 L92.32051,63.2 L93.01333,64.4 L93.706154,65.6 L94.39897,64.4 L95.78461,64.4 L95.09179,63.2 L95.78461,62 L96.47743,63.2 L97.17025,62 L96.47743,60.8 L97.17025,59.6 L98.55589,59.6 L99.24871,58.4 L98.55589,57.2 L97.17025,57.2 L97.863075,58.4 L96.47743,58.4 M84.69948,35.6 L83.31384,35.6 L82.621025,34.4 L81.92821,35.6 L80.54256,35.6 L79.15692,35.6 L77.771286,35.6 L78.4641,36.8 L79.84975,36.8 L81.23538,36.8 L80.54256,38 L79.15692,38 L78.4641,39.2 L77.771286,38 L77.07846,39.2 L77.771286,40.4 L77.07846,41.6 L78.4641,41.6 L79.84975,41.6 L80.54256,40.4 L81.23538,39.2 L81.92821,38 L82.621025,39.2 L84.00667,39.2 L83.31384,38 L84.00667,36.8 L82.621025,36.8 M44.515907,59.6 L45.208725,60.8 L46.594368,60.8 L45.901546,62 L44.515907,62 L43.823082,60.8 L42.437447,60.8 L41.744625,59.6 L40.358986,59.6 L39.66616,58.4 L38.973343,57.2 L39.66616,56 L40.358986,54.8 L41.051804,53.6 L39.66616,53.6 L38.973343,52.4 L37.587704,52.4 L38.280525,51.2 L38.973343,50 L38.280525,48.8 L39.66616,48.8 L40.358986,50 L41.744625,50 L42.437447,48.8 L41.744625,47.6 L43.130264,47.6 L42.437447,46.4 M38.280525,65.6 L36.894882,65.6 L36.202065,64.4 L35.50924,63.2 L34.81642,64.4 L35.50924,65.6 L36.202065,66.8 L35.50924,68 L34.1236,68 L34.81642,66.8 L34.1236,65.6 L33.43078,64.4 L32.73796,63.2 L34.1236,63.2 L33.43078,62 L34.1236,60.8 L33.43078,59.6 L32.73796,60.8 L31.35232,60.8 L32.045143,59.6 L32.73796,58.4 L32.045143,57.2 L33.43078,57.2 L34.1236,56 L34.81642,57.2 L35.50924,58.4 L34.81642,59.6 L34.1236,58.4 M19.574375,69.2 L20.960016,69.2 L20.267195,68 L18.881556,68 L17.495914,68 L16.803095,66.8 L16.110273,65.6 L14.724632,65.6 L13.338992,65.6 L11.953352,65.6 L11.260531,64.4 L12.646172,64.4 L11.953352,63.2 L11.260531,62 L10.56771,63.2 L9.87489,62 L8.48925,62 L7.7964296,60.8 L7.1036096,59.6 L5.717969,59.6 L6.4107885,58.4 L7.1036096,57.2 L8.48925,57.2 L7.7964296,56 L7.1036096,54.8 L5.717969,54.8 L6.4107885,56 L5.717969,57.2 M126.2687,26 L127.65434,26 L126.961525,27.2 L128.34717,27.2 L129.03998,26 L129.7328,27.2 L129.03998,28.4 L127.65434,28.4 L126.961525,29.6 L126.2687,30.8 L124.88306,30.8 L125.57588,32 L126.961525,32 L127.65434,33.2 L128.34717,32 L129.03998,30.8 L127.65434,30.8 L128.34717,29.6 L129.7328,29.6 L130.42563,30.8 L131.11844,32 L129.7328,32 L129.03998,33.2 L130.42563,33.2 L129.7328,34.4 L130.42563,35.6 L131.81126,35.6 L131.11844,36.8 M50.058468,28.4 L49.365646,29.6 L50.75129,29.6 L51.44411,30.8 L50.058468,30.8 L50.75129,32 L50.058468,33.2 L49.365646,32 L48.67283,30.8 L47.28719,30.8 L47.980007,32 L46.594368,32 L45.901546,33.2 L45.208725,34.4 L43.823082,34.4 L42.437447,34.4 L43.130264,33.2 L41.744625,33.2 L41.051804,34.4 L41.744625,35.6 L41.051804,36.8 L42.437447,36.8 L43.823082,36.8 L44.515907,38 L43.130264,38 L42.437447,39.2 L43.823082,39.2 L43.130264,40.4 M110.33384,39.2 L108.9482,39.2 L108.25537,38 L107.562546,39.2 L106.86973,38 L107.562546,36.8 L108.9482,36.8 L109.641014,38 L111.02666,38 L111.71948,36.8 L112.41229,35.6 L111.02666,35.6 L110.33384,34.4 L111.71948,34.4 L112.41229,33.2 L111.02666,33.2 L110.33384,32 L111.02666,30.8 L110.33384,29.6 L111.02666,28.4 L112.41229,28.4 L113.10512,27.2 L112.41229,26 L113.797935,26 L114.49076,27.2 L115.18358,28.4 L115.8764,27.2 L116.569214,26 L115.18358,26 M137.35384,35.6 L138.04666,36.8 L137.35384,38 L138.04666,39.2 L138.73947,40.4 L139.43228,41.6 L138.73947,42.8 L139.43228,44 L140.1251,42.8 L141.51076,42.8 L142.8964,42.8 L142.20358,41.6 L143.5892,41.6 L142.8964,40.4 L143.5892,39.2 L142.8964,38 L142.20358,36.8 L143.5892,36.8 L142.8964,35.6 L141.51076,35.6 L140.1251,35.6 L139.43228,34.4 L138.04666,34.4 L136.66101,34.4 L135.96819,33.2 L136.66101,32 L138.04666,32 L138.73947,33.2 L137.35384,33.2 M97.863075,36.8 L98.55589,35.6 L99.24871,34.4 L100.63435,34.4 L101.32717,35.6 L102.712814,35.6 L102.02,36.8 L102.712814,38 L101.32717,38 L99.94153,38 L98.55589,38 L99.24871,39.2 L97.863075,39.2 L96.47743,39.2 L95.09179,39.2 L93.706154,39.2 L92.32051,39.2 L93.01333,38 L94.39897,38 L93.706154,36.8 L94.39897,35.6 L93.01333,35.6 L92.32051,36.8 L90.93487,36.8 L91.627686,38 L90.93487,39.2 L91.627686,40.4 L93.01333,40.4 L92.32051,41.6 M56.98667,57.2 L55.601032,57.2 L54.908215,56 L56.293854,56 L55.601032,54.8 L56.98667,54.8 L56.293854,53.6 L54.908215,53.6 L53.52257,53.6 L52.82975,52.4 L54.215393,52.4 L54.908215,51.2 L55.601032,50 L54.215393,50 L53.52257,51.2 L52.136932,51.2 L51.44411,52.4 L52.136932,53.6 L52.82975,54.8 L53.52257,56 L52.136932,56 L50.75129,56 L50.058468,54.8 L49.365646,53.6 L50.75129,53.6 L50.058468,52.4 L49.365646,51.2 L50.058468,50 L50.75129,51.2 M63.914875,62 L64.6077,60.8 L63.222057,60.8 L62.529236,62 L63.222057,63.2 L64.6077,63.2 L63.914875,64.4 L63.222057,65.6 L61.836414,65.6 L61.143593,66.8 L60.450775,68 L61.836414,68 L62.529236,66.8 L63.914875,66.8 L65.300514,66.8 L65.99333,65.6 L67.37898,65.6 L68.76462,65.6 L69.45744,64.4 L68.76462,63.2 L68.07179,62 L68.76462,60.8 L70.15026,60.8 L69.45744,59.6 L68.07179,59.6 L68.76462,58.4 L69.45744,57.2 L68.07179,57.2 L67.37898,56 L66.68616,57.2 M14.031812,28.4 L13.338992,27.2 L12.646172,28.4 L11.953352,29.6 L11.260531,28.4 L11.953352,27.2 L11.260531,26 L12.646172,26 L14.031812,26 L15.417453,26 L16.110273,27.2 L17.495914,27.2 L18.881556,27.2 L19.574375,28.4 L20.960016,28.4 L20.267195,29.6 L21.652836,29.6 L23.038477,29.6 L23.731297,28.4 L25.116938,28.4 L24.424118,27.2 L25.116938,26 L23.731297,26 L22.345655,26 L21.652836,27.2 L20.267195,27.2 L20.960016,26 L19.574375,26 L18.188734,26 L16.803095,26 M79.15692,69.2 L77.771286,69.2 L78.4641,68 L77.771286,66.8 L77.07846,65.6 L77.771286,64.4 L78.4641,63.2 L79.84975,63.2 L80.54256,62 L79.84975,60.8 L78.4641,60.8 L79.15692,62 L77.771286,62 L77.07846,63.2 L75.692825,63.2 L76.385635,64.4 L75,64.4 L73.614365,64.4 L72.228714,64.4 L72.92154,63.2 L74.30718,63.2 L75,62 L73.614365,62 L74.30718,60.8 L73.614365,59.6 L74.30718,58.4 L73.614365,57.2 L72.228714,57.2 L71.535904,58.4 L70.84308,59.6 L71.535904,60.8 L72.92154,60.8 L72.228714,59.6 L72.92154,58.4 M86.77795,36.8 L86.08513,38 L84.69948,38 L85.3923,36.8 L86.08513,35.6 L86.77795,34.4 L87.470764,35.6 L88.85641,35.6 L90.24205,35.6 L89.54923,34.4 L88.85641,33.2 L88.16359,32 L86.77795,32 L87.470764,30.8 L88.16359,29.6 L89.54923,29.6 L88.85641,30.8 L90.24205,30.8 L90.93487,29.6 L91.627686,28.4 L90.24205,28.4 L89.54923,27.2 L90.93487,27.2 L90.24205,26 L88.85641,26 L87.470764,26 L86.08513,26 L85.3923,27.2 L84.69948,28.4 L84.00667,29.6 L83.31384,28.4 L82.621025,27.2 L83.31384,26 L84.00667,27.2 L84.69948,26 M22.345655,40.4 L21.652836,39.2 L22.345655,38 L20.960016,38 L20.267195,39.2 L20.960016,40.4 L20.267195,41.6 L19.574375,42.8 L18.881556,41.6 L18.188734,40.4 L18.881556,39.2 L18.188734,38 L19.574375,38 L20.267195,36.8 L18.881556,36.8 L19.574375,35.6 L18.188734,35.6 L17.495914,36.8 L16.803095,35.6 L17.495914,34.4 L18.188734,33.2 L18.881556,32 L17.495914,32 L18.188734,30.8 L19.574375,30.8 L18.881556,29.6 L17.495914,29.6 L16.110273,29.6 L15.417453,28.4 L14.724632,29.6 L13.338992,29.6 L14.031812,30.8 L15.417453,30.8 L16.803095,30.8 L16.110273,32 L16.803095,33.2 M18.881556,72.8 L18.188734,71.6 L17.495914,72.8 L16.803095,71.6 L16.110273,72.8 L15.417453,71.6 L14.724632,72.8 L13.338992,72.8 L11.953352,72.8 L10.56771,72.8 L9.87489,71.6 L10.56771,70.4 L11.260531,69.2 L9.87489,69.2 L10.56771,68 L9.18207,68 L8.48925,69.2 L7.7964296,68 L8.48925,66.8 L7.7964296,65.6 L8.48925,64.4 L7.7964296,63.2 L7.1036096,64.4 L5.717969,64.4 L6.4107885,65.6 L7.1036096,66.8 L5.717969,66.8 L6.4107885,68 L5.717969,69.2 L6.4107885,70.4 L7.7964296,70.4 L8.48925,71.6 L9.18207,72.8 L7.7964296,72.8 L6.4107885,72.8 L5.717969,71.6 L7.1036096,71.6 M64.6077,44 L65.300514,42.8 L65.99333,44 L65.300514,45.2 L65.99333,46.4 L66.68616,45.2 L67.37898,44 L68.07179,45.2 L68.76462,44 L68.07179,42.8 L66.68616,42.8 L67.37898,41.6 L68.07179,40.4 L69.45744,40.4 L70.15026,41.6 L70.84308,42.8 L71.535904,41.6 L72.228714,40.4 L71.535904,39.2 L70.84308,40.4 L70.15026,39.2 L68.76462,39.2 L67.37898,39.2 L65.99333,39.2 L66.68616,38 L68.07179,38 L69.45744,38 L70.84308,38 L72.228714,38 L72.92154,39.2 L74.30718,39.2 L75,40.4 L75.692825,39.2 L76.385635,38 L75.692825,36.8 L75,38 L73.614365,38 M113.797935,71.6 L113.10512,70.4 L112.41229,69.2 L111.71948,68 L111.02666,66.8 L109.641014,66.8 L110.33384,65.6 L109.641014,64.4 L108.25537,64.4 L107.562546,65.6 L108.9482,65.6 L108.25537,66.8 L108.9482,68 L110.33384,68 L111.02666,69.2 L111.71948,70.4 L110.33384,70.4 L109.641014,69.2 L108.25537,69.2 L106.86973,69.2 L107.562546,68 L106.17692,68 L105.48409,66.8 L104.79128,65.6 L104.098465,66.8 L103.40564,68 L102.02,68 L101.32717,66.8 L100.63435,65.6 L99.94153,66.8 L98.55589,66.8 L99.24871,68 L98.55589,69.2 L97.863075,70.4 L97.17025,71.6 L98.55589,71.6 L99.24871,70.4 M29.273859,69.2 L28.58104,68 L27.88822,69.2 L26.502579,69.2 L27.195398,68 L26.502579,66.8 L27.195398,65.6 L25.809757,65.6 L25.116938,66.8 L24.424118,68 L25.809757,68 L25.116938,69.2 L24.424118,70.4 L23.731297,69.2 L23.038477,68 L21.652836,68 L22.345655,69.2 L21.652836,70.4 L20.960016,71.6 L20.267195,72.8 L21.652836,72.8 L23.038477,72.8 L23.731297,71.6 L25.116938,71.6 L25.809757,70.4 L27.195398,70.4 L26.502579,71.6 L27.88822,71.6 L28.58104,70.4 L29.273859,71.6 L28.58104,72.8 L29.966679,72.8 L30.6595,71.6 L29.966679,70.4 L31.35232,70.4 L32.73796,70.4 L33.43078,71.6 L32.045143,71.6 L32.73796,72.8 L31.35232,72.8 M7.1036096,30.8 L7.7964296,32 L8.48925,30.8 L9.18207,32 L9.87489,33.2 L10.56771,32 L9.87489,30.8 L10.56771,29.6 L11.260531,30.8 L12.646172,30.8 L11.953352,32 L11.260531,33.2 L12.646172,33.2 L14.031812,33.2 L13.338992,32 L14.724632,32 L15.417453,33.2 L16.110273,34.4 L14.724632,34.4 L15.417453,35.6 L14.724632,36.8 L14.031812,35.6 L13.338992,34.4 L12.646172,35.6 L11.260531,35.6 L10.56771,34.4 L9.87489,35.6 L8.48925,35.6 L7.1036096,35.6 L6.4107885,36.8 L5.717969,38 L6.4107885,39.2 L5.717969,40.4 L6.4107885,41.6 L7.1036096,40.4 L7.7964296,39.2 L9.18207,39.2 L8.48925,38 L9.18207,36.8 L7.7964296,36.8 L7.1036096,38 M5.717969,45.2 L6.4107885,44 L7.7964296,44 L8.48925,45.2 L9.18207,46.4 L9.87489,45.2 L10.56771,44 L9.18207,44 L8.48925,42.8 L7.7964296,41.6 L8.48925,40.4 L9.87489,40.4 L11.260531,40.4 L11.953352,41.6 L10.56771,41.6 L11.260531,42.8 L12.646172,42.8 L11.953352,44 L13.338992,44 L14.031812,42.8 L14.724632,41.6 L16.110273,41.6 L15.417453,40.4 L14.031812,40.4 L12.646172,40.4 L11.953352,39.2 L10.56771,39.2 L11.260531,38 L9.87489,38 L10.56771,36.8 L11.953352,36.8 L12.646172,38 L13.338992,36.8 L14.031812,38 L13.338992,39.2 L14.724632,39.2 L16.110273,39.2 L17.495914,39.2 L16.803095,38 L16.110273,36.8 L15.417453,38 M76.385635,66.8 L75,66.8 L73.614365,66.8 L74.30718,65.6 L72.92154,65.6 L72.228714,66.8 L72.92154,68 L73.614365,69.2 L74.30718,68 L75.692825,68 L76.385635,69.2 L75.692825,70.4 L74.30718,70.4 L75,71.6 L74.30718,72.8 L72.92154,72.8 L72.228714,71.6 L71.535904,70.4 L70.84308,71.6 L69.45744,71.6 L70.15026,70.4 L68.76462,70.4 L69.45744,69.2 L70.15026,68 L68.76462,68 L68.07179,69.2 L66.68616,69.2 L67.37898,68 L68.07179,66.8 L66.68616,66.8 L65.99333,68 L64.6077,68 L65.300514,69.2 L64.6077,70.4 L63.914875,69.2 L63.222057,70.4 L62.529236,71.6 L63.914875,71.6 L63.222057,72.8 L61.836414,72.8 L61.143593,71.6 L59.757954,71.6 L59.065136,72.8 L60.450775,72.8 M101.32717,30.8 L102.02,29.6 L101.32717,28.4 L100.63435,27.2 L102.02,27.2 L102.712814,28.4 L103.40564,29.6 L104.79128,29.6 L104.098465,28.4 L104.79128,27.2 L103.40564,27.2 L102.712814,26 L101.32717,26 L99.94153,26 L98.55589,26 L97.863075,27.2 L96.47743,27.2 L95.09179,27.2 L95.78461,28.4 L96.47743,29.6 L97.863075,29.6 L97.17025,28.4 L98.55589,28.4 L99.24871,29.6 L98.55589,30.8 L99.24871,32 L98.55589,33.2 L97.17025,33.2 L96.47743,32 L95.78461,30.8 L95.09179,32 L94.39897,30.8 L93.01333,30.8 L91.627686,30.8 L90.93487,32 L92.32051,32 L93.706154,32 L94.39897,33.2 L93.706154,34.4 L93.01333,33.2 L92.32051,34.4 L91.627686,35.6 L90.93487,34.4 L90.24205,33.2 L91.627686,33.2 M130.42563,40.4 L129.7328,39.2 L128.34717,39.2 L127.65434,40.4 L128.34717,41.6 L129.03998,40.4 L129.7328,41.6 L129.03998,42.8 L129.7328,44 L130.42563,42.8 L131.11844,44 L131.81126,45.2 L131.11844,46.4 L131.81126,47.6 L132.50409,46.4 L133.19691,47.6 L134.58255,47.6 L133.88974,46.4 L133.19691,45.2 L133.88974,44 L134.58255,45.2 L135.96819,45.2 L135.27536,46.4 L136.66101,46.4 L138.04666,46.4 L137.35384,45.2 L138.73947,45.2 L140.1251,45.2 L139.43228,46.4 L140.81793,46.4 L141.51076,47.6 L142.8964,47.6 L142.20358,48.8 L141.51076,50 L142.20358,51.2 L140.81793,51.2 L141.51076,52.4 L142.8964,52.4 L142.20358,53.6 L142.8964,54.8 L142.20358,56 L143.5892,56 L142.8964,57.2 L143.5892,58.4 L142.8964,59.6 L143.5892,60.8 M34.81642,30.8 L35.50924,32 L34.81642,33.2 L34.1236,32 L33.43078,33.2 L32.045143,33.2 L31.35232,32 L29.966679,32 L28.58104,32 L27.195398,32 L27.88822,30.8 L26.502579,30.8 L25.809757,29.6 L24.424118,29.6 L25.116938,30.8 L25.809757,32 L25.116938,33.2 L26.502579,33.2 L27.88822,33.2 L28.58104,34.4 L27.195398,34.4 L27.88822,35.6 L26.502579,35.6 L25.116938,35.6 L24.424118,36.8 L25.809757,36.8 L27.195398,36.8 L28.58104,36.8 L29.966679,36.8 L31.35232,36.8 L30.6595,38 L32.045143,38 L31.35232,39.2 L30.6595,40.4 L32.045143,40.4 L31.35232,41.6 L29.966679,41.6 L29.273859,42.8 L30.6595,42.8 L32.045143,42.8 L31.35232,44 L29.966679,44 L29.273859,45.2 L28.58104,46.4 L29.966679,46.4 L31.35232,46.4 L32.045143,45.2 L30.6595,45.2 M38.973343,71.6 L38.280525,70.4 L39.66616,70.4 L41.051804,70.4 L42.437447,70.4 L41.744625,69.2 L41.051804,68 L40.358986,69.2 L38.973343,69.2 L39.66616,68 L38.973343,66.8 L38.280525,68 L37.587704,66.8 L36.894882,68 L36.202065,69.2 L34.81642,69.2 L35.50924,70.4 L36.202065,71.6 L34.81642,71.6 L34.1236,70.4 L33.43078,69.2 L32.045143,69.2 L30.6595,69.2 L31.35232,68 L32.73796,68 L33.43078,66.8 L32.045143,66.8 L32.73796,65.6 L32.045143,64.4 L31.35232,65.6 L30.6595,64.4 L29.966679,65.6 L29.273859,64.4 L29.966679,63.2 L31.35232,63.2 L32.045143,62 L30.6595,62 L29.966679,60.8 L30.6595,59.6 L31.35232,58.4 L29.966679,58.4 L29.273859,57.2 L28.58104,58.4 L27.88822,57.2 L27.195398,56 L27.88822,54.8 L26.502579,54.8 L25.809757,53.6 M105.48409,42.8 L106.17692,44 L106.86973,42.8 L108.25537,42.8 L107.562546,41.6 L106.17692,41.6 L106.86973,40.4 L108.25537,40.4 L109.641014,40.4 L110.33384,41.6 L111.02666,42.8 L112.41229,42.8 L113.10512,41.6 L112.41229,40.4 L111.02666,40.4 L111.71948,39.2 L113.10512,39.2 L113.797935,40.4 L115.18358,40.4 L114.49076,41.6 L115.8764,41.6 L115.18358,42.8 L116.569214,42.8 L117.26204,44 L117.95486,45.2 L116.569214,45.2 L115.18358,45.2 L114.49076,44 L113.797935,42.8 L113.10512,44 L112.41229,45.2 L111.71948,46.4 L111.02666,45.2 L110.33384,46.4 L109.641014,47.6 L111.02666,47.6 L110.33384,48.8 L109.641014,50 L108.9482,48.8 L107.562546,48.8 L106.17692,48.8 L105.48409,47.6 L106.17692,46.4 L106.86973,45.2 L107.562546,44 L108.25537,45.2 L108.9482,44 L110.33384,44 L109.641014,42.8 L108.9482,41.6 M70.84308,33.2 L70.15026,32 L69.45744,33.2 L68.76462,34.4 L68.07179,35.6 L67.37898,36.8 L65.99333,36.8 L66.68616,35.6 L65.300514,35.6 L65.99333,34.4 L67.37898,34.4 L66.68616,33.2 L68.07179,33.2 L68.76462,32 L67.37898,32 L68.07179,30.8 L66.68616,30.8 L67.37898,29.6 L68.07179,28.4 L68.76462,27.2 L69.45744,28.4 L70.84308,28.4 L70.15026,27.2 L69.45744,26 L70.84308,26 L72.228714,26 L73.614365,26 L75,26 L74.30718,27.2 L75.692825,27.2 L76.385635,26 L77.07846,27.2 L76.385635,28.4 L75.692825,29.6 L75,28.4 L74.30718,29.6 L75,30.8 L73.614365,30.8 L74.30718,32 L75,33.2 L75.692825,34.4 L74.30718,34.4 L73.614365,33.2 L72.92154,32 L71.535904,32 L72.228714,33.2 L71.535904,34.4 L72.92154,34.4 L72.228714,35.6 L72.92154,36.8 L74.30718,36.8 L75,35.6 L73.614365,35.6 M29.273859,62 L27.88822,62 L28.58104,60.8 L27.88822,59.6 L27.195398,60.8 L26.502579,62 L25.116938,62 L25.809757,60.8 L26.502579,59.6 L25.809757,58.4 L26.502579,57.2 L25.116938,57.2 L25.809757,56 L24.424118,56 L25.116938,54.8 L24.424118,53.6 L23.038477,53.6 L23.731297,52.4 L24.424118,51.2 L25.116938,52.4 L26.502579,52.4 L27.195398,53.6 L28.58104,53.6 L29.273859,54.8 L28.58104,56 L29.966679,56 L31.35232,56 L30.6595,54.8 L31.35232,53.6 L29.966679,53.6 L30.6595,52.4 L29.273859,52.4 L27.88822,52.4 L28.58104,51.2 L27.88822,50 L27.195398,48.8 L27.88822,47.6 L28.58104,48.8 L29.966679,48.8 L29.273859,47.6 L30.6595,47.6 L32.045143,47.6 L33.43078,47.6 L32.73796,46.4 L34.1236,46.4 L34.81642,47.6 L34.1236,48.8 L34.81642,50 L33.43078,50 L32.73796,51.2 L31.35232,51.2 L32.045143,50 L30.6595,50 L29.273859,50 L29.966679,51.2 M18.881556,63.2 L19.574375,64.4 L18.881556,65.6 L18.188734,64.4 L17.495914,65.6 L18.188734,66.8 L19.574375,66.8 L20.960016,66.8 L22.345655,66.8 L23.731297,66.8 L23.038477,65.6 L22.345655,64.4 L23.038477,63.2 L23.731297,64.4 L24.424118,65.6 L25.116938,64.4 L24.424118,63.2 L23.731297,62 L23.038477,60.8 L22.345655,59.6 L20.960016,59.6 L21.652836,58.4 L20.960016,57.2 L19.574375,57.2 L18.881556,58.4 L20.267195,58.4 L19.574375,59.6 L18.188734,59.6 L17.495914,58.4 L16.110273,58.4 L16.803095,57.2 L17.495914,56 L18.188734,54.8 L17.495914,53.6 L16.803095,54.8 L15.417453,54.8 L14.724632,56 L16.110273,56 L15.417453,57.2 L14.724632,58.4 L15.417453,59.6 L16.110273,60.8 L16.803095,62 L15.417453,62 L14.724632,63.2 L15.417453,64.4 L16.803095,64.4 L17.495914,63.2 L18.188734,62 L19.574375,62 L20.267195,60.8 L20.960016,62 L22.345655,62 L21.652836,63.2 L20.960016,64.4 L20.267195,63.2 M75.692825,60.8 L76.385635,62 L77.07846,60.8 L77.771286,59.6 L79.15692,59.6 L80.54256,59.6 L81.23538,60.8 L81.92821,59.6 L82.621025,60.8 L83.31384,59.6 L82.621025,58.4 L83.31384,57.2 L84.00667,56 L83.31384,54.8 L81.92821,54.8 L81.23538,53.6 L81.92821,52.4 L82.621025,51.2 L81.92821,50 L83.31384,50 L82.621025,48.8 L84.00667,48.8 L85.3923,48.8 L86.08513,50 L86.77795,48.8 L86.08513,47.6 L87.470764,47.6 L88.16359,48.8 L87.470764,50 L88.16359,51.2 L88.85641,52.4 L89.54923,53.6 L90.24205,52.4 L90.93487,53.6 L90.24205,54.8 L91.627686,54.8 L92.32051,56 L93.706154,56 L95.09179,56 L94.39897,57.2 L95.78461,57.2 L96.47743,56 L97.863075,56 L97.17025,54.8 L98.55589,54.8 L99.24871,53.6 L97.863075,53.6 L97.17025,52.4 L96.47743,53.6 L95.78461,54.8 L94.39897,54.8 L95.09179,53.6 L93.706154,53.6 L93.01333,52.4 L91.627686,52.4 L92.32051,51.2 M25.809757,48.8 L26.502579,50 L25.116938,50 L24.424118,48.8 L23.731297,47.6 L25.116938,47.6 L24.424118,46.4 L23.038477,46.4 L23.731297,45.2 L25.116938,45.2 L25.809757,44 L26.502579,45.2 L27.88822,45.2 L28.58104,44 L27.88822,42.8 L28.58104,41.6 L27.88822,40.4 L26.502579,40.4 L25.116938,40.4 L23.731297,40.4 L24.424118,41.6 L23.038477,41.6 L23.731297,42.8 L25.116938,42.8 L24.424118,44 L23.038477,44 L22.345655,45.2 L21.652836,46.4 L20.267195,46.4 L19.574375,45.2 L18.188734,45.2 L18.881556,46.4 L18.188734,47.6 L19.574375,47.6 L20.960016,47.6 L21.652836,48.8 L22.345655,50 L21.652836,51.2 L22.345655,52.4 L20.960016,52.4 L20.267195,51.2 L18.881556,51.2 L19.574375,52.4 L20.267195,53.6 L19.574375,54.8 L20.960016,54.8 L21.652836,53.6 L22.345655,54.8 L21.652836,56 L23.038477,56 L23.731297,57.2 L22.345655,57.2 L23.038477,58.4 L24.424118,58.4 L23.731297,59.6 L24.424118,60.8 L25.116938,59.6 M88.16359,63.2 L88.85641,62 L89.54923,63.2 L90.93487,63.2 L90.24205,64.4 L89.54923,65.6 L88.16359,65.6 L88.85641,64.4 L87.470764,64.4 L86.77795,65.6 L86.08513,64.4 L86.77795,63.2 L85.3923,63.2 L84.00667,63.2 L82.621025,63.2 L81.92821,64.4 L81.23538,63.2 L80.54256,64.4 L79.15692,64.4 L78.4641,65.6 L79.15692,66.8 L80.54256,66.8 L81.23538,65.6 L81.92821,66.8 L81.23538,68 L81.92821,69.2 L82.621025,68 L83.31384,66.8 L84.00667,65.6 L82.621025,65.6 L83.31384,64.4 L84.69948,64.4 L85.3923,65.6 L84.69948,66.8 L86.08513,66.8 L85.3923,68 L84.69948,69.2 L84.00667,70.4 L85.3923,70.4 L84.69948,71.6 L84.00667,72.8 L85.3923,72.8 L86.08513,71.6 L86.77795,72.8 L88.16359,72.8 L89.54923,72.8 L90.24205,71.6 L90.93487,72.8 L91.627686,71.6 L92.32051,70.4 L93.01333,69.2 L93.706154,68 L92.32051,68 L91.627686,69.2 L90.24205,69.2 L88.85641,69.2 L87.470764,69.2 L88.16359,70.4 L87.470764,71.6 L88.85641,71.6 L89.54923,70.4 L90.93487,70.4 M44.515907,35.6 L45.901546,35.6 L45.208725,36.8 L45.901546,38 L47.28719,38 L48.67283,38 L50.058468,38 L50.75129,36.8 L51.44411,38 L52.136932,36.8 L52.82975,38 L52.136932,39.2 L50.75129,39.2 L50.058468,40.4 L50.75129,41.6 L50.058468,42.8 L50.75129,44 L52.136932,44 L52.82975,45.2 L51.44411,45.2 L50.75129,46.4 L49.365646,46.4 L50.058468,47.6 L51.44411,47.6 L50.75129,48.8 L51.44411,50 L52.82975,50 L53.52257,48.8 L54.215393,47.6 L52.82975,47.6 L52.136932,46.4 L53.52257,46.4 L54.215393,45.2 L53.52257,44 L54.215393,42.8 L54.908215,44 L55.601032,45.2 L54.908215,46.4 L55.601032,47.6 L56.293854,48.8 L57.679493,48.8 L56.98667,50 L58.372314,50 L59.757954,50 L60.450775,51.2 L59.065136,51.2 L58.372314,52.4 L59.757954,52.4 L61.143593,52.4 L61.836414,53.6 L62.529236,52.4 L63.914875,52.4 L63.222057,51.2 L64.6077,51.2 L65.300514,52.4 L65.99333,53.6 L65.300514,54.8 L66.68616,54.8 L67.37898,53.6 L68.76462,53.6 L68.07179,54.8 L68.76462,56 L70.15026,56 L70.84308,54.8 L70.15026,53.6 L69.45744,54.8 M36.202065,38 L35.50924,39.2 L34.81642,38 L35.50924,36.8 L36.894882,36.8 L37.587704,35.6 L38.973343,35.6 L39.66616,34.4 L40.358986,33.2 L38.973343,33.2 L39.66616,32 L38.280525,32 L37.587704,30.8 L38.280525,29.6 L39.66616,29.6 L38.973343,30.8 L40.358986,30.8 L41.744625,30.8 L41.051804,32 L42.437447,32 L43.823082,32 L43.130264,30.8 L42.437447,29.6 L43.130264,28.4 L43.823082,29.6 L45.208725,29.6 L45.901546,28.4 L45.208725,27.2 L45.901546,26 L46.594368,27.2 L47.28719,26 L48.67283,26 L47.980007,27.2 L49.365646,27.2 L50.75129,27.2 L50.058468,26 L51.44411,26 L52.136932,27.2 L53.52257,27.2 L52.82975,26 L54.215393,26 L55.601032,26 L56.98667,26 L56.293854,27.2 L54.908215,27.2 L54.215393,28.4 L54.908215,29.6 L54.215393,30.8 L55.601032,30.8 L56.293854,32 L56.98667,33.2 L55.601032,33.2 L56.293854,34.4 L57.679493,34.4 L56.98667,35.6 L55.601032,35.6 L54.908215,34.4 L54.215393,35.6 L53.52257,34.4 L52.82975,35.6 L52.136932,34.4 L52.82975,33.2 L52.136932,32 L52.82975,30.8 L53.52257,32 L54.908215,32 L54.215393,33.2 M60.450775,44 L61.836414,44 L62.529236,42.8 L63.222057,44 L63.914875,42.8 L63.222057,41.6 L61.836414,41.6 L62.529236,40.4 L63.914875,40.4 L64.6077,41.6 L65.300514,40.4 L64.6077,39.2 L63.222057,39.2 L61.836414,39.2 L61.143593,38 L59.757954,38 L58.372314,38 L59.065136,39.2 L60.450775,39.2 L61.143593,40.4 L59.757954,40.4 L60.450775,41.6 L61.143593,42.8 L59.757954,42.8 L58.372314,42.8 L59.065136,41.6 L57.679493,41.6 L58.372314,40.4 L56.98667,40.4 L56.293854,39.2 L55.601032,38 L56.293854,36.8 L57.679493,36.8 L58.372314,35.6 L59.065136,36.8 L60.450775,36.8 L61.143593,35.6 L61.836414,36.8 L62.529236,38 L63.222057,36.8 L63.914875,35.6 L62.529236,35.6 L61.836414,34.4 L60.450775,34.4 L61.143593,33.2 L59.757954,33.2 L60.450775,32 L61.143593,30.8 L59.757954,30.8 L59.065136,29.6 L59.757954,28.4 L60.450775,29.6 L61.836414,29.6 L63.222057,29.6 L62.529236,30.8 L63.222057,32 L64.6077,32 L63.914875,33.2 L63.222057,34.4 L64.6077,34.4 L65.300514,33.2 L65.99333,32 L65.300514,30.8 L65.99333,29.6 L65.300514,28.4 L64.6077,29.6 L63.914875,30.8 M142.20358,58.4 L141.51076,59.6 L142.20358,60.8 L142.8964,62 L142.20358,63.2 L140.81793,63.2 L141.51076,64.4 L142.20358,65.6 L142.8964,64.4 L143.5892,65.6 L142.8964,66.8 L143.5892,68 L142.8964,69.2 L142.20358,68 L141.51076,66.8 L140.81793,68 L139.43228,68 L138.73947,69.2 L138.04666,70.4 L137.35384,71.6 L135.96819,71.6 L134.58255,71.6 L133.88974,70.4 L133.19691,69.2 L133.88974,68 L133.19691,66.8 L134.58255,66.8 L135.96819,66.8 L137.35384,66.8 L136.66101,65.6 L135.27536,65.6 L134.58255,64.4 L135.96819,64.4 L136.66101,63.2 L135.96819,62 L134.58255,62 L133.88974,63.2 L133.19691,64.4 L132.50409,63.2 L131.81126,64.4 L130.42563,64.4 L129.7328,65.6 L130.42563,66.8 L131.11844,68 L131.81126,66.8 L132.50409,68 L131.81126,69.2 L130.42563,69.2 L129.7328,68 L129.03998,69.2 L127.65434,69.2 L128.34717,70.4 L127.65434,71.6 L126.961525,70.4 L126.2687,69.2 L125.57588,70.4 L126.2687,71.6 L126.961525,72.8 L128.34717,72.8 L129.03998,71.6 L129.7328,70.4 L131.11844,70.4 L132.50409,70.4 L133.19691,71.6 L133.88974,72.8 L135.27536,72.8 L136.66101,72.8 L138.04666,72.8 L139.43228,72.8 L140.1251,71.6 L140.81793,72.8 L141.51076,71.6 L142.20358,72.8 L143.5892,72.8 L142.8964,71.6 L142.20358,70.4 L143.5892,70.4 M124.19025,60.8 L123.49742,59.6 L122.11178,59.6 L121.41896,60.8 L120.033325,60.8 L119.3405,62 L117.95486,62 L118.64768,60.8 L117.26204,60.8 L117.95486,59.6 L119.3405,59.6 L118.64768,58.4 L119.3405,57.2 L120.033325,56 L120.726135,54.8 L120.033325,53.6 L121.41896,53.6 L122.11178,54.8 L123.49742,54.8 L124.88306,54.8 L124.19025,56 L123.49742,57.2 L124.88306,57.2 L125.57588,56 L126.2687,54.8 L127.65434,54.8 L128.34717,56 L127.65434,57.2 L126.961525,58.4 L127.65434,59.6 L126.2687,59.6 L125.57588,58.4 L124.19025,58.4 L124.88306,59.6 L125.57588,60.8 L124.88306,62 L123.49742,62 L122.8046,60.8 L122.11178,62 L120.726135,62 L121.41896,63.2 L122.8046,63.2 L122.11178,64.4 L122.8046,65.6 L122.11178,66.8 L123.49742,66.8 L122.8046,68 L124.19025,68 L125.57588,68 L124.88306,69.2 L124.19025,70.4 L124.88306,71.6 L124.19025,72.8 L123.49742,71.6 L122.8046,70.4 L122.11178,69.2 L121.41896,70.4 L120.033325,70.4 L120.726135,69.2 L121.41896,68 L120.033325,68 L119.3405,66.8 L118.64768,68 L117.95486,66.8 L118.64768,65.6 L119.3405,64.4 L120.726135,64.4 L120.033325,63.2 L118.64768,63.2 L117.26204,63.2 L116.569214,64.4 L117.95486,64.4 L117.26204,65.6 L115.8764,65.6 L115.18358,64.4 L114.49076,65.6 L113.10512,65.6 L112.41229,64.4 L113.10512,63.2 L114.49076,63.2 L115.8764,63.2 L115.18358,62 L116.569214,62 L115.8764,60.8 L115.18358,59.6 L113.797935,59.6 L114.49076,58.4 L113.797935,57.2 L113.10512,56 L114.49076,56 L115.18358,57.2 L116.569214,57.2 L117.95486,57.2 L117.26204,58.4 L116.569214,59.6 L115.8764,58.4 M138.73947,66.8 L140.1251,66.8 L140.81793,65.6 L139.43228,65.6 L138.73947,64.4 L139.43228,63.2 L140.1251,62 L138.73947,62 L138.04666,63.2 L137.35384,62 L138.04666,60.8 L137.35384,59.6 L136.66101,58.4 L135.27536,58.4 L133.88974,58.4 L133.19691,59.6 L133.88974,60.8 L133.19691,62 L132.50409,60.8 L131.81126,62 L130.42563,62 L131.11844,60.8 L129.7328,60.8 L129.03998,59.6 L130.42563,59.6 L131.11844,58.4 L131.81126,57.2 L131.11844,56 L129.7328,56 L130.42563,54.8 L131.81126,54.8 L133.19691,54.8 L133.88974,53.6 L134.58255,54.8 L135.27536,53.6 L135.96819,52.4 L136.66101,51.2 L135.96819,50 L135.27536,48.8 L134.58255,50 L133.88974,48.8 L132.50409,48.8 L133.19691,50 L131.81126,50 L131.11844,51.2 L131.81126,52.4 L132.50409,51.2 L133.19691,52.4 L132.50409,53.6 L131.11844,53.6 L130.42563,52.4 L129.7328,51.2 L128.34717,51.2 L127.65434,52.4 L126.961525,51.2 L125.57588,51.2 L126.2687,50 L125.57588,48.8 L126.961525,48.8 L126.2687,47.6 L126.961525,46.4 L125.57588,46.4 L124.19025,46.4 L122.8046,46.4 L123.49742,47.6 L122.11178,47.6 L120.726135,47.6 L120.033325,48.8 L118.64768,48.8 L117.95486,47.6 L119.3405,47.6 L120.033325,46.4 L121.41896,46.4 L122.11178,45.2 L123.49742,45.2 L124.19025,44 L124.88306,45.2 L125.57588,44 L126.2687,45.2 L127.65434,45.2 L126.961525,44 L126.2687,42.8 L125.57588,41.6 L124.88306,42.8 L124.19025,41.6 L124.88306,40.4 L123.49742,40.4 L122.8046,41.6 L121.41896,41.6 L120.726135,42.8 L122.11178,42.8 L123.49742,42.8 L122.8046,44 L121.41896,44 L120.033325,44 L120.726135,45.2 M106.17692,36.8 L105.48409,38 L104.79128,39.2 L104.098465,40.4 L103.40564,41.6 L104.79128,41.6 L104.098465,42.8 L104.79128,44 L104.098465,45.2 L103.40564,44 L102.712814,45.2 L102.02,46.4 L103.40564,46.4 L104.098465,47.6 L102.712814,47.6 L101.32717,47.6 L99.94153,47.6 L98.55589,47.6 L97.17025,47.6 L95.78461,47.6 L96.47743,48.8 L95.78461,50 L94.39897,50 L93.706154,51.2 L93.01333,50 L91.627686,50 L90.93487,51.2 L89.54923,51.2 L88.85641,50 L90.24205,50 L89.54923,48.8 L88.85641,47.6 L89.54923,46.4 L90.24205,45.2 L90.93487,46.4 L91.627686,45.2 L92.32051,44 L91.627686,42.8 L90.93487,41.6 L90.24205,42.8 L89.54923,44 L88.16359,44 L87.470764,45.2 L86.77795,46.4 L85.3923,46.4 L84.69948,47.6 L83.31384,47.6 L81.92821,47.6 L81.23538,48.8 L80.54256,50 L81.23538,51.2 L80.54256,52.4 L79.84975,53.6 L79.15692,54.8 L79.84975,56 L78.4641,56 L77.771286,54.8 L77.07846,53.6 L78.4641,53.6 L79.15692,52.4 L77.771286,52.4 L76.385635,52.4 L75.692825,53.6 L75,52.4 L73.614365,52.4 L74.30718,51.2 L75,50 L73.614365,50 L72.92154,51.2 L72.228714,50 L72.92154,48.8 L72.228714,47.6 L73.614365,47.6 L74.30718,48.8 L75,47.6 L76.385635,47.6 L77.07846,46.4 L77.771286,45.2 L77.07846,44 L76.385635,42.8 L75,42.8 L74.30718,44 L72.92154,44 L71.535904,44 L70.15026,44 L69.45744,45.2 L70.15026,46.4 L70.84308,47.6 L71.535904,48.8 L70.84308,50 L71.535904,51.2 L70.84308,52.4 L72.228714,52.4 L71.535904,53.6 L72.228714,54.8 L73.614365,54.8 L74.30718,53.6 L72.92154,53.6 M99.94153,64.4 L99.24871,65.6 L97.863075,65.6 L98.55589,64.4 L97.17025,64.4 L97.863075,63.2 L98.55589,62 L97.863075,60.8 L99.24871,60.8 L99.94153,62 L100.63435,60.8 L99.94153,59.6 L100.63435,58.4 L101.32717,57.2 L102.02,56 L100.63435,56 L101.32717,54.8 L100.63435,53.6 L101.32717,52.4 L102.02,53.6 L102.712814,54.8 L104.098465,54.8 L105.48409,54.8 L106.17692,53.6 L106.86973,52.4 L107.562546,53.6 L108.25537,54.8 L108.9482,56 L109.641014,54.8 L108.9482,53.6 L110.33384,53.6 L111.71948,53.6 L112.41229,52.4 L111.02666,52.4 L109.641014,52.4 L110.33384,51.2 L111.71948,51.2 L112.41229,50 L113.10512,48.8 L114.49076,48.8 L115.18358,50 L115.8764,51.2 L115.18358,52.4 L115.8764,53.6 L116.569214,52.4 L117.26204,51.2 L116.569214,50 L115.8764,48.8 L116.569214,47.6 L117.26204,46.4 L118.64768,46.4 L119.3405,45.2 L118.64768,44 L119.3405,42.8 L120.033325,41.6 L120.726135,40.4 L122.11178,40.4 L121.41896,39.2 L122.8046,39.2 L122.11178,38 L123.49742,38 L124.19025,39.2 L125.57588,39.2 L126.2687,40.4 L126.961525,39.2 L126.2687,38 L125.57588,36.8 L124.88306,38 L124.19025,36.8 L123.49742,35.6 L124.19025,34.4 L124.88306,35.6 L126.2687,35.6 L127.65434,35.6 L128.34717,36.8 L129.7328,36.8 L130.42563,38 L131.11844,39.2 L131.81126,38 L133.19691,38 L132.50409,36.8 L133.19691,35.6 L133.88974,34.4 L133.19691,33.2 L133.88974,32 L134.58255,30.8 L133.88974,29.6 L134.58255,28.4 L133.19691,28.4 L131.81126,28.4 L132.50409,27.2 L133.88974,27.2 L134.58255,26 L135.96819,26 L136.66101,27.2 L135.96819,28.4 L136.66101,29.6 L137.35384,30.8 L138.04666,29.6 L139.43228,29.6 L138.73947,30.8 L140.1251,30.8 L141.51076,30.8 L142.20358,32 L143.5892,32 L142.8964,30.8 L142.20358,29.6 L141.51076,28.4 L142.8964,28.4 L142.20358,27.2 L143.5892,27.2 L142.8964,26 L141.51076,26 L140.1251,26 L138.73947,26 L138.04666,27.2 L138.73947,28.4 L139.43228,27.2 L140.1251,28.4 L140.81793,27.2 M65.99333,56 L64.6077,56 L65.300514,57.2 L65.99333,58.4 L67.37898,58.4 L66.68616,59.6 L65.300514,59.6 L63.914875,59.6 L62.529236,59.6 L61.143593,59.6 L60.450775,60.8 L59.757954,62 L60.450775,63.2 L59.065136,63.2 L58.372314,62 L57.679493,63.2 L56.98667,62 L55.601032,62 L54.908215,60.8 L53.52257,60.8 L54.215393,62 L53.52257,63.2 L52.82975,64.4 L51.44411,64.4 L52.136932,65.6 L53.52257,65.6 L52.82975,66.8 L51.44411,66.8 L52.136932,68 L51.44411,69.2 L52.82975,69.2 L53.52257,70.4 L54.215393,69.2 L55.601032,69.2 L56.98667,69.2 L56.293854,70.4 L54.908215,70.4 L54.215393,71.6 L53.52257,72.8 L52.136932,72.8 L51.44411,71.6 L52.82975,71.6 L52.136932,70.4 L50.75129,70.4 L49.365646,70.4 L48.67283,71.6 L47.980007,70.4 L47.28719,71.6 L45.901546,71.6 L46.594368,70.4 L45.208725,70.4 L43.823082,70.4 L44.515907,69.2 L45.208725,68 L45.901546,69.2 L47.28719,69.2 L47.980007,68 L46.594368,68 L47.28719,66.8 L46.594368,65.6 L45.901546,64.4 L46.594368,63.2 L47.28719,64.4 L47.980007,63.2 L48.67283,62 L47.28719,62 L47.980007,60.8 L47.28719,59.6 L45.901546,59.6 L46.594368,58.4 L47.980007,58.4 L48.67283,59.6 L49.365646,60.8 L50.058468,62 L51.44411,62 L52.82975,62 L52.136932,60.8 L50.75129,60.8 L50.058468,59.6 L51.44411,59.6 L50.75129,58.4 L49.365646,58.4 L50.058468,57.2 L49.365646,56 L48.67283,57.2 L47.980007,56 L47.28719,54.8 L47.980007,53.6 L48.67283,52.4 L47.28719,52.4 L45.901546,52.4 L46.594368,51.2 L47.980007,51.2 L47.28719,50 L48.67283,50 L49.365646,48.8 L48.67283,47.6 L47.980007,48.8 L47.28719,47.6 L47.980007,46.4 L46.594368,46.4 L45.208725,46.4 L45.901546,45.2 L44.515907,45.2 L45.208725,44 L44.515907,42.8 L45.901546,42.8 L46.594368,41.6 L45.901546,40.4 L47.28719,40.4 L46.594368,39.2 L45.208725,39.2 L44.515907,40.4 L43.823082,41.6 L43.130264,42.8 L42.437447,41.6 L41.744625,40.4 L41.051804,41.6 L40.358986,42.8 L39.66616,44 L38.280525,44 L38.973343,45.2 L40.358986,45.2 L41.744625,45.2 L43.130264,45.2 L43.823082,46.4 L44.515907,47.6 L45.208725,48.8 L44.515907,50 L43.130264,50 L43.823082,51.2 L42.437447,51.2 L43.130264,52.4 L44.515907,52.4 L45.208725,53.6 L45.901546,54.8 L46.594368,56 L45.208725,56 L43.823082,56 L43.130264,57.2 L44.515907,57.2 L45.208725,58.4 L45.901546,57.2 L47.28719,57.2 M127.46639,98.2084 L127.012794,99.4 M127.46639,98.2084 L127.92,99.4 M127.18199,99.004 L127.75079,99.004 M128.2026,98.6062 L128.2026,99.4 M128.2026,98.833 L128.37361,98.662 L128.487,98.6062 L128.6562,98.6062 L128.7714,98.662 L128.82721,98.833 L128.82721,99.4 M129.33661,98.2084 L129.33661,99.1732 L129.39421,99.3433 L129.50581,99.4 L129.621,99.4 M129.1674,98.6062 L129.5634,98.6062 M130.1862,98.6062 L130.07462,98.662 L129.9594,98.7772 L129.9036,98.946396 L129.9036,99.0598 L129.9594,99.229904 L130.07462,99.3433 L130.1862,99.4 L130.35721,99.4 L130.47061,99.3433 L130.58401,99.229904 L130.6398,99.0598 L130.6398,98.946396 L130.58401,98.7772 L130.47061,98.662 L130.35721,98.6062 L130.1862,98.6062 M131.0358,98.6062 L131.0358,99.4 M131.0358,98.833 L131.20682,98.662 L131.3202,98.6062 L131.48941,98.6062 L131.6046,98.662 L131.66042,98.833 L131.66042,99.4 M132.11221,98.2084 L132.11221,99.4 M132.11221,98.2084 L132.56581,99.4 M133.01941,98.2084 L132.56581,99.4 M133.01941,98.2084 L133.01941,99.4 M134.09763,98.6062 L134.09763,99.4 M134.09763,98.7772 L133.98422,98.662 L133.87082,98.6062 L133.69981,98.6062 L133.58823,98.662 L133.473,98.7772 L133.4172,98.946396 L133.4172,99.0598 L133.473,99.229904 L133.58823,99.3433 L133.69981,99.4 L133.87082,99.4 L133.98422,99.3433 L134.09763,99.229904 M134.54941,98.2084 L134.54941,99.4 M135.11821,98.6062 L134.54941,99.1732 M134.77621,98.946396 L135.17403,99.4 M135.4584,98.946396 L136.13882,98.946396 L136.13882,98.833 L136.08301,98.7196 L136.02542,98.662 L135.91202,98.6062 L135.74101,98.6062 L135.62943,98.662 L135.5142,98.7772 L135.4584,98.946396 L135.4584,99.0598 L135.5142,99.229904 L135.62943,99.3433 L135.74101,99.4 L135.91202,99.4 L136.02542,99.3433 L136.13882,99.229904 M137.1036,98.7772 L137.04602,98.662 L136.87682,98.6062 L136.70583,98.6062 L136.53482,98.662 L136.47902,98.7772 L136.53482,98.8888 L136.65002,98.946396 L136.93262,99.004 L137.04602,99.0598 L137.1036,99.1732 L137.1036,99.229904 L137.04602,99.3433 L136.87682,99.4 L136.70583,99.4 L136.53482,99.3433 L136.47902,99.229904 M138.29521,98.4928 L138.23761,98.3794 L138.12422,98.266 L138.01082,98.2084 L137.78401,98.2084 L137.67062,98.266 L137.55722,98.3794 L137.4996,98.4928 L137.44382,98.662 L137.44382,98.946396 L137.4996,99.1156 L137.55722,99.229904 L137.67062,99.3433 L137.78401,99.4 L138.01082,99.4 L138.12422,99.3433 L138.23761,99.229904 L138.29521,99.1156 L138.29521,98.946396 M138.01082,98.946396 L138.29521,98.946396 M139.31583,98.6062 L139.31583,99.4 M139.31583,98.7772 L139.20242,98.662 L139.08902,98.6062 L138.91801,98.6062 L138.80643,98.662 L138.69121,98.7772 L138.6354,98.946396 L138.6354,99.0598 L138.69121,99.229904 L138.80643,99.3433 L138.91801,99.4 L139.08902,99.4 L139.20242,99.3433 L139.31583,99.229904 M139.76761,98.6062 L139.76761,99.4 M139.76761,98.833 L139.93863,98.662 L140.05202,98.6062 L140.22122,98.6062 L140.33641,98.662 L140.39223,98.833 L140.39223,99.4 M140.39223,98.833 L140.56322,98.662 L140.67482,98.6062 L140.84581,98.6062 L140.95921,98.662 L141.01682,98.833 L141.01682,99.4 M141.41281,98.946396 L142.09323,98.946396 L142.09323,98.833 L142.03741,98.7196 L141.97983,98.662 L141.86642,98.6062 L141.69542,98.6062 L141.58383,98.662 L141.46861,98.7772 L141.41281,98.946396 L141.41281,99.0598 L141.46861,99.229904 L141.58383,99.3433 L141.69542,99.4 L141.86642,99.4 L141.97983,99.3433 L142.09323,99.229904 M143.05801,98.7772 L143.00043,98.662 L142.83122,98.6062 L142.66023,98.6062 L142.48923,98.662 L142.43343,98.7772 L142.48923,98.8888 L142.60443,98.946396 L142.88702,99.004 L143.00043,99.0598 L143.05801,99.1732 L143.05801,99.229904 L143.00043,99.3433 L142.83122,99.4 L142.66023,99.4 L142.48923,99.3433 L142.43343,99.229904 M144.27841,98.2084 L144.10922,98.266 L143.99402,98.435196 L143.93822,98.7196 L143.93822,98.8888 L143.99402,99.1732 L144.10922,99.3433 L144.27841,99.4 L144.39182,99.4 L144.56282,99.3433 L144.67442,99.1732 L144.73203,98.8888 L144.73203,98.7196 L144.67442,98.435196 L144.56282,98.266 L144.39182,98.2084 L144.27841,98.2084 M145.75262,98.2084 L145.18562,98.2084 L145.12802,98.7196 L145.18562,98.662 L145.35483,98.6062 L145.52582,98.6062 L145.69681,98.662 L145.80843,98.7772 L145.86601,98.946396 L145.86601,99.0598 L145.80843,99.229904 L145.69681,99.3433 L145.52582,99.4 L145.35483,99.4 L145.18562,99.3433 L145.12802,99.286606 L145.07222,99.1732 M146.88663,98.2084 L146.31961,98.2084 L146.26201,98.7196 L146.31961,98.662 L146.48882,98.6062 L146.65982,98.6062 L146.83081,98.662 L146.94241,98.7772 L147.00002,98.946396 L147.00002,99.0598 L146.94241,99.229904 L146.83081,99.3433 L146.65982,99.4 L146.48882,99.4 L146.31961,99.3433 L146.26201,99.286606 L146.2062,99.1732" fill="none" stroke="black" stroke-width="0.4"/>
</svg>