<svg height="100mm" units="mm" viewBox="0 0 150 100" width="150mm" xmlns="http://www.w3.org/2000/svg">
<path d="M129.8664,98.2084 L129.4128,99.4 M129.8664,98.2084 L130.31999,99.4 M129.582,99.004 L130.15079,99.004 M130.6026,98.6062 L130.6026,99.4 M130.6026,98.833 L130.7736,98.662 L130.887,98.6062 L131.0562,98.6062 L131.1714,98.662 L131.2272,98.833 L131.2272,99.4 M131.7366,98.2084 L131.7366,99.1732 L131.79422,99.3433 L131.9058,99.4 L132.02101,99.4 M131.56741,98.6062 L131.96341,98.6062 M132.58621,98.6062 L132.47461,98.662 L132.3594,98.7772 L132.3036,98.946396 L132.3036,99.0598 L132.3594,99.229904 L132.47461,99.3433 L132.58621,99.4 L132.7572,99.4 L132.8706,99.3433 L132.98401,99.229904 L133.03981,99.0598 L133.03981,98.946396 L132.98401,98.7772 L132.8706,98.662 L132.7572,98.6062 L132.58621,98.6062 M133.4358,98.6062 L133.4358,99.4 M133.4358,98.833 L133.60681,98.662 L133.7202,98.6062 L133.8894,98.6062 L134.00461,98.662 L134.06041,98.833 L134.06041,99.4 M134.5122,98.2084 L134.5122,99.4 M134.5122,98.2084 L134.9658,99.4 M135.4194,98.2084 L134.9658,99.4 M135.4194,98.2084 L135.4194,99.4 M136.49762,98.6062 L136.49762,99.4 M136.49762,98.7772 L136.38422,98.662 L136.27081,98.6062 L136.09982,98.6062 L135.98822,98.662 L135.87302,98.7772 L135.81721,98.946396 L135.81721,99.0598 L135.87302,99.229904 L135.98822,99.3433 L136.09982,99.4 L136.27081,99.4 L136.38422,99.3433 L136.49762,99.229904 M136.94942,98.2084 L136.94942,99.4 M137.51822,98.6062 L136.94942,99.1732 M137.17622,98.946396 L137.57402,99.4 M137.85841,98.946396 L138.53882,98.946396 L138.53882,98.833 L138.483,98.7196 L138.42542,98.662 L138.31201,98.6062 L138.14102,98.6062 L138.02942,98.662 L137.91422,98.7772 L137.85841,98.946396 L137.85841,99.0598 L137.91422,99.229904 L138.02942,99.3433 L138.14102,99.4 L138.31201,99.4 L138.42542,99.3433 L138.53882,99.229904 M139.50362,98.7772 L139.44601,98.662 L139.27682,98.6062 L139.10582,98.6062 L138.93481,98.662 L138.87901,98.7772 L138.93481,98.8888 L139.05002,98.946396 L139.33261,99.004 L139.44601,99.0598 L139.50362,99.1732 L139.50362,99.229904 L139.44601,99.3433 L139.27682,99.4 L139.10582,99.4 L138.93481,99.3433 L138.87901,99.229904 M140.69522,98.4928 L140.6376,98.3794 L140.52422,98.266 L140.41081,98.2084 L140.184,98.2084 L140.07062,98.266 L139.95721,98.3794 L139.89961,98.4928 L139.84381,98.662 L139.84381,98.946396 L139.89961,99.1156 L139.95721,99.229904 L140.07062,99.3433 L140.184,99.4 L140.41081,99.4 L140.52422,99.3433 L140.6376,99.229904 L140.69522,99.1156 L140.69522,98.946396 M140.41081,98.946396 L140.69522,98.946396 M141.71582,98.6062 L141.71582,99.4 M141.71582,98.7772 L141.60242,98.662 L141.48901,98.6062 L141.31802,98.6062 L141.20642,98.662 L141.09122,98.7772 L141.03542,98.946396 L141.03542,99.0598 L141.09122,99.229904 L141.20642,99.3433 L141.31802,99.4 L141.48901,99.4 L141.60242,99.3433 L141.71582,99.229904 M142.16762,98.6062 L142.16762,99.4 M142.16762,98.833 L142.33862,98.662 L142.45201,98.6062 L142.62122,98.6062 L142.73642,98.662 L142.79222,98.833 L142.79222,99.4 M142.79222,98.833 L142.96323,98.662 L143.07481,98.6062 L143.24582,98.6062 L143.35922,98.662 L143.41682,98.833 L143.41682,99.4 M143.81282,98.946396 L144.49323,98.946396 L144.49323,98.833 L144.43741,98.7196 L144.37982,98.662 L144.26642,98.6062 L144.09543,98.6062 L143.98383,98.662 L143.86862,98.7772 L143.81282,98.946396 L143.81282,99.0598 L143.86862,99.229904 L143.98383,99.3433 L144.09543,99.4 L144.26642,99.4 L144.37982,99.3433 L144.49323,99.229904 M145.45802,98.7772 L145.40042,98.662 L145.23123,98.6062 L145.06023,98.6062 L144.88922,98.662 L144.83342,98.7772 L144.88922,98.8888 L145.00443,98.946396 L145.28702,99.004 L145.40042,99.0598 L145.45802,99.1732 L145.45802,99.229904 L145.40042,99.3433 L145.23123,99.4 L145.06023,99.4 L144.88922,99.3433 L144.83342,99.229904 M146.67842,98.2084 L146.50923,98.266 L146.39401,98.435196 L146.33823,98.7196 L146.33823,98.8888 L146.39401,99.1732 L146.50923,99.3433 L146.67842,99.4 L146.79182,99.4 L146.96281,99.3433 L147.07443,99.1732 L147.13202,98.8888 L147.13202,98.7196 L147.07443,98.435196 L146.96281,98.266 L146.79182,98.2084 L146.67842,98.2084 M148.03922,98.2084 L147.47221,99.004 L148.32362,99.004 M148.03922,98.2084 L148.03922,99.4 M148.77722,98.435196 L148.88882,98.3794 L149.05981,98.2084 L149.05981,99.4" fill="none" stroke="black" stroke-width="0.4"/>
</svg>