<svg height="100mm" units="mm" viewBox="0 0 150 100" width="150mm" xmlns="http://www.w3.org/2000/svg">
<path d="M7.2851996,48.7492 L6.4283996,51 M7.2851996,48.7492 L8.142,51 M6.748,50.252 L7.8224,50.252 M8.6758,49.500603 L8.6758,51 M8.6758,49.929 L8.9988,49.606 L9.212999,49.500603 L9.5326,49.500603 L9.7502,49.606 L9.8556,49.929 L9.8556,51 M10.8178005,48.7492 L10.8178005,50.5716 L10.9265995,50.8929 L11.1374,51 L11.3550005,51 M10.4982,49.500603 L11.2462,49.500603 M12.4226,49.500603 L12.2118,49.606 L11.9942,49.8236 L11.8888,50.1432 L11.8888,50.3574 L11.9942,50.6787 L12.2118,50.8929 L12.4226,51 L12.7456,51 L12.959799,50.8929 L13.173999,50.6787 L13.279399,50.3574 L13.279399,50.1432 L13.173999,49.8236 L12.959799,49.606 L12.7456,49.500603 L12.4226,49.500603 M14.027399,49.500603 L14.027399,51 M14.027399,49.929 L14.3504,49.606 L14.5646,49.500603 L14.884199,49.500603 L15.101799,49.606 L15.207199,49.929 L15.207199,51 M16.060598,48.7492 L16.060598,51 M16.060598,48.7492 L16.9174,51 M17.774199,48.7492 L16.9174,51 M17.774199,48.7492 L17.774199,51 M19.810799,49.500603 L19.810799,51 M19.810799,49.8236 L19.5966,49.606 L19.382399,49.500603 L19.059399,49.500603 L18.848598,49.606 L18.630999,49.8236 L18.525599,50.1432 L18.525599,50.3574 L18.630999,50.6787 L18.848598,50.8929 L19.059399,51 L19.382399,51 L19.5966,50.8929 L19.810799,50.6787 M20.664198,48.7492 L20.664198,51 M21.738598,49.500603 L20.664198,50.5716 M21.0926,50.1432 L21.843998,51 M22.381199,50.1432 L23.666399,50.1432 L23.666399,49.929 L23.560999,49.7148 L23.452198,49.606 L23.237999,49.500603 L22.914999,49.500603 L22.704199,49.606 L22.486599,49.8236 L22.381199,50.1432 L22.381199,50.3574 L22.486599,50.6787 L22.704199,50.8929 L22.914999,51 L23.237999,51 L23.452198,50.8929 L23.666399,50.6787 M25.488798,49.8236 L25.38,49.606 L25.060398,49.500603 L24.7374,49.500603 L24.414398,49.606 L24.308998,49.8236 L24.414398,50.0344 L24.632,50.1432 L25.165798,50.252 L25.38,50.3574 L25.488798,50.5716 L25.488798,50.6787 L25.38,50.8929 L25.060398,51 L24.7374,51 L24.414398,50.8929 L24.308998,50.6787 M27.7396,49.2864 L27.630798,49.072197 L27.4166,48.857998 L27.202398,48.7492 L26.773998,48.7492 L26.5598,48.857998 L26.3456,49.072197 L26.236797,49.2864 L26.1314,49.606 L26.1314,50.1432 L26.236797,50.4628 L26.3456,50.6787 L26.5598,50.8929 L26.773998,51 L27.202398,51 L27.4166,50.8929 L27.630798,50.6787 L27.7396,50.4628 L27.7396,50.1432 M27.202398,50.1432 L27.7396,50.1432 M29.6674,49.500603 L29.6674,51 M29.6674,49.8236 L29.453197,49.606 L29.238998,49.500603 L28.916,49.500603 L28.7052,49.606 L28.4876,49.8236 L28.382198,50.1432 L28.382198,50.3574 L28.4876,50.6787 L28.7052,50.8929 L28.916,51 L29.238998,51 L29.453197,50.8929 L29.6674,50.6787 M30.520802,49.500603 L30.520802,51 M30.520802,49.929 L30.8438,49.606 L31.057999,49.500603 L31.3776,49.500603 L31.5952,49.606 L31.700598,49.929 L31.700598,51 M31.700598,49.929 L32.023598,49.606 L32.234398,49.500603 L32.5574,49.500603 L32.7716,49.606 L32.880398,49.929 L32.880398,51 M33.6284,50.1432 L34.913597,50.1432 L34.913597,49.929 L34.8082,49.7148 L34.699398,49.606 L34.4852,49.500603 L34.1622,49.500603 L33.9514,49.606 L33.733803,49.8236 L33.6284,50.1432 L33.6284,50.3574 L33.733803,50.6787 L33.9514,50.8929 L34.1622,51 L34.4852,51 L34.699398,50.8929 L34.913597,50.6787 M36.736,49.8236 L36.627197,49.606 L36.3076,49.500603 L35.984596,49.500603 L35.6616,49.606 L35.5562,49.8236 L35.6616,50.0344 L35.8792,50.1432 L36.413,50.252 L36.627197,50.3574 L36.736,50.5716 L36.736,50.6787 L36.627197,50.8929 L36.3076,51 L35.984596,51 L35.6616,50.8929 L35.5562,50.6787 M39.0412,48.7492 L38.7216,48.857998 L38.504,49.1776 L38.398598,49.7148 L38.398598,50.0344 L38.504,50.5716 L38.7216,50.8929 L39.0412,51 L39.255398,51 L39.5784,50.8929 L39.7892,50.5716 L39.898003,50.0344 L39.898003,49.7148 L39.7892,49.1776 L39.5784,48.857998 L39.255398,48.7492 L39.0412,48.7492 M40.7548,48.7492 L41.931202,48.7492 L41.292,49.606 L41.6116,49.606 L41.825798,49.7148 L41.931202,49.8236 L42.04,50.1432 L42.04,50.3574 L41.931202,50.6787 L41.7204,50.8929 L41.3974,51 L41.0744,51 L40.7548,50.8929 L40.646004,50.7858 L40.5406,50.5716 M43.216404,48.7492 L42.8968,48.857998 L42.788002,49.072197 L42.788002,49.2864 L42.8968,49.500603 L43.111,49.606 L43.539402,49.7148 L43.862404,49.8236 L44.073204,50.0344 L44.182003,50.252 L44.182003,50.5716 L44.073204,50.7858 L43.967804,50.8929 L43.644802,51 L43.216404,51 L42.8968,50.8929 L42.788002,50.7858 L42.682602,50.5716 L42.682602,50.252 L42.788002,50.0344 L43.005604,49.8236 L43.325203,49.7148 L43.7536,49.606 L43.967804,49.500603 L44.073204,49.2864 L44.073204,49.072197 L43.967804,48.857998 L43.644802,48.7492 L43.216404,48.7492 M45.950005,50.0344 L47.881203,50.0344 M49.972206,49.1776 L50.183006,49.072197 L50.506004,48.7492 L50.506004,51 M53.290607,48.7492 L52.219612,51 M51.79121,48.7492 L53.290607,48.7492 M7.2096,45.8816 L6.4031997,48 M7.2096,45.8816 L8.016001,48 M6.704,47.295998 L7.7152,47.295998 M8.5184,46.5888 L8.5184,48 M8.5184,46.992 L8.8224,46.688 L9.024,46.5888 L9.3248005,46.5888 L9.5296,46.688 L9.628799,46.992 L9.628799,48 M10.5344,45.8816 L10.5344,47.596798 L10.6368,47.8992 L10.835199,48 L11.04,48 M10.2336,46.5888 L10.9376,46.5888 M12.0448,46.5888 L11.846399,46.688 L11.6416,46.8928 L11.542399,47.1936 L11.542399,47.3952 L11.6416,47.6976 L11.846399,47.8992 L12.0448,48 L12.3488,48 L12.5504,47.8992 L12.752,47.6976 L12.851199,47.3952 L12.851199,47.1936 L12.752,46.8928 L12.5504,46.688 L12.3488,46.5888 L12.0448,46.5888 M13.555199,46.5888 L13.555199,48 M13.555199,46.992 L13.8592,46.688 L14.060799,46.5888 L14.3616,46.5888 L14.566401,46.688 L14.665599,46.992 L14.665599,48 M15.468799,45.8816 L15.468799,48 M15.468799,45.8816 L16.2752,48 M17.0816,45.8816 L16.2752,48 M17.0816,45.8816 L17.0816,48 M18.9984,46.5888 L18.9984,48 M18.9984,46.8928 L18.7968,46.688 L18.5952,46.5888 L18.2912,46.5888 L18.0928,46.688 L17.887999,46.8928 L17.7888,47.1936 L17.7888,47.3952 L17.887999,47.6976 L18.0928,47.8992 L18.2912,48 L18.5952,48 L18.7968,47.8992 L18.9984,47.6976 M19.8016,45.8816 L19.8016,48 M20.8128,46.5888 L19.8016,47.596798 M20.2048,47.1936 L20.911999,48 M21.417599,47.1936 L22.6272,47.1936 L22.6272,46.992 L22.528,46.790398 L22.4256,46.688 L22.223999,46.5888 L21.92,46.5888 L21.7216,46.688 L21.516798,46.8928 L21.417599,47.1936 L21.417599,47.3952 L21.516798,47.6976 L21.7216,47.8992 L21.92,48 L22.223999,48 L22.4256,47.8992 L22.6272,47.6976 M24.342398,46.8928 L24.24,46.688 L23.939198,46.5888 L23.635199,46.5888 L23.331198,46.688 L23.231998,46.8928 L23.331198,47.091198 L23.536,47.1936 L24.038399,47.295998 L24.24,47.3952 L24.342398,47.596798 L24.342398,47.6976 L24.24,47.8992 L23.939198,48 L23.635199,48 L23.331198,47.8992 L23.231998,47.6976 M26.460796,46.3872 L26.358398,46.1856 L26.1568,45.984 L25.955196,45.8816 L25.551998,45.8816 L25.350399,45.984 L25.148798,46.1856 L25.046398,46.3872 L24.947199,46.688 L24.947199,47.1936 L25.046398,47.4944 L25.148798,47.6976 L25.350399,47.8992 L25.551998,48 L25.955196,48 L26.1568,47.8992 L26.358398,47.6976 L26.460796,47.4944 L26.460796,47.1936 M25.955196,47.1936 L26.460796,47.1936 M28.275198,46.5888 L28.275198,48 M28.275198,46.8928 L28.073597,46.688 L27.871998,46.5888 L27.567997,46.5888 L27.369598,46.688 L27.164799,46.8928 L27.065598,47.1936 L27.065598,47.3952 L27.164799,47.6976 L27.369598,47.8992 L27.567997,48 L27.871998,48 L28.073597,47.8992 L28.275198,47.6976 M29.078396,46.5888 L29.078396,48 M29.078396,46.992 L29.382395,46.688 L29.583996,46.5888 L29.884796,46.5888 L30.089596,46.688 L30.188797,46.992 L30.188797,48 M30.188797,46.992 L30.492794,46.688 L30.691196,46.5888 L30.995197,46.5888 L31.196796,46.688 L31.299194,46.992 L31.299194,48 M32.003197,47.1936 L33.212795,47.1936 L33.212795,46.992 L33.113594,46.790398 L33.011192,46.688 L32.809593,46.5888 L32.505592,46.5888 L32.307198,46.688 L32.102394,46.8928 L32.003197,47.1936 L32.003197,47.3952 L32.102394,47.6976 L32.307198,47.8992 L32.505592,48 L32.809593,48 L33.011192,47.8992 L33.212795,47.6976 M34.927998,46.8928 L34.825596,46.688 L34.524796,46.5888 L34.220795,46.5888 L33.916798,46.688 L33.817596,46.8928 L33.916798,47.091198 L34.121597,47.1936 L34.623997,47.295998 L34.825596,47.3952 L34.927998,47.596798 L34.927998,47.6976 L34.825596,47.8992 L34.524796,48 L34.220795,48 L33.916798,47.8992 L33.817596,47.6976 M37.0976,45.8816 L36.7968,45.984 L36.592,46.284798 L36.492798,46.790398 L36.492798,47.091198 L36.592,47.596798 L36.7968,47.8992 L37.0976,48 L37.2992,48 L37.6032,47.8992 L37.801598,47.596798 L37.904,47.091198 L37.904,46.790398 L37.801598,46.284798 L37.6032,45.984 L37.2992,45.8816 L37.0976,45.8816 M38.710396,45.8816 L39.817596,45.8816 L39.215996,46.688 L39.516796,46.688 L39.7184,46.790398 L39.817596,46.8928 L39.92,47.1936 L39.92,47.3952 L39.817596,47.6976 L39.619198,47.8992 L39.315197,48 L39.011196,48 L38.710396,47.8992 L38.607998,47.7984 L38.508797,47.596798 M41.0272,45.8816 L40.7264,45.984 L40.624,46.1856 L40.624,46.3872 L40.7264,46.5888 L40.927998,46.688 L41.3312,46.790398 L41.6352,46.8928 L41.833595,47.091198 L41.935997,47.295998 L41.935997,47.596798 L41.833595,47.7984 L41.734398,47.8992 L41.430397,48 L41.0272,48 L40.7264,47.8992 L40.624,47.7984 L40.5248,47.596798 L40.5248,47.295998 L40.624,47.091198 L40.8288,46.8928 L41.1296,46.790398 L41.5328,46.688 L41.734398,46.5888 L41.833595,46.3872 L41.833595,46.1856 L41.734398,45.984 L41.430397,45.8816 L41.0272,45.8816 M43.6,47.091198 L45.4176,47.091198 M47.3856,46.284798 L47.584,46.1856 L47.888,45.8816 L47.888,48 M50.4064,46.1856 L50.3072,45.984 L50.0032,45.8816 L49.804802,45.8816 L49.5008,45.984 L49.299202,46.284798 L49.1968,46.790398 L49.1968,47.295998 L49.299202,47.6976 L49.5008,47.8992 L49.804802,48 L49.904,48 L50.208,47.8992 L50.4064,47.6976 L50.5088,47.3952 L50.5088,47.295998 L50.4064,46.992 L50.208,46.790398 L49.904,46.688 L49.804802,46.688 L49.5008,46.790398 L49.299202,46.992 L49.1968,47.295998 M7.134,43.014 L6.378,45 M7.134,43.014 L7.8900003,45 M6.66,44.34 L7.6080003,44.34 M8.360999,43.677 L8.360999,45 M8.360999,44.055 L8.645999,43.77 L8.834999,43.677 L9.117,43.677 L9.309,43.77 L9.4019985,44.055 L9.4019985,45 M10.250999,43.014 L10.250999,44.622 L10.347,44.9055 L10.532999,45 L10.725,45 M9.969,43.677 L10.629,43.677 M11.666999,43.677 L11.481,43.77 L11.289,43.961998 L11.195999,44.244 L11.195999,44.433 L11.289,44.7165 L11.481,44.9055 L11.666999,45 L11.952,45 L12.141,44.9055 L12.329999,44.7165 L12.422999,44.433 L12.422999,44.244 L12.329999,43.961998 L12.141,43.77 L11.952,43.677 L11.666999,43.677 M13.083,43.677 L13.083,45 M13.083,44.055 L13.367999,43.77 L13.556999,43.677 L13.839,43.677 L14.031,43.77 L14.123999,44.055 L14.123999,45 M14.877001,43.014 L14.877001,45 M14.877001,43.014 L15.633,45 M16.389,43.014 L15.633,45 M16.389,43.014 L16.389,45 M18.186,43.677 L18.186,45 M18.186,43.961998 L17.997,43.77 L17.808,43.677 L17.523,43.677 L17.337002,43.77 L17.145,43.961998 L17.052,44.244 L17.052,44.433 L17.145,44.7165 L17.337002,44.9055 L17.523,45 L17.808,45 L17.997,44.9055 L18.186,44.7165 M18.939001,43.014 L18.939001,45 M19.887001,43.677 L18.939001,44.622 M19.317001,44.244 L19.98,45 M20.454,44.244 L21.588001,44.244 L21.588001,44.055 L21.495,43.866 L21.399,43.77 L21.210001,43.677 L20.925001,43.677 L20.739002,43.77 L20.547,43.961998 L20.454,44.244 L20.454,44.433 L20.547,44.7165 L20.739002,44.9055 L20.925001,45 L21.210001,45 L21.399,44.9055 L21.588001,44.7165 M23.196001,43.961998 L23.1,43.77 L22.818,43.677 L22.533,43.677 L22.248001,43.77 L22.155,43.961998 L22.248001,44.148003 L22.44,44.244 L22.911,44.34 L23.1,44.433 L23.196001,44.622 L23.196001,44.7165 L23.1,44.9055 L22.818,45 L22.533,45 L22.248001,44.9055 L22.155,44.7165 M25.182001,43.488 L25.086,43.299 L24.897,43.11 L24.708,43.014 L24.33,43.014 L24.141,43.11 L23.952,43.299 L23.856,43.488 L23.763,43.77 L23.763,44.244 L23.856,44.526 L23.952,44.7165 L24.141,44.9055 L24.33,45 L24.708,45 L24.897,44.9055 L25.086,44.7165 L25.182001,44.526 L25.182001,44.244 M24.708,44.244 L25.182001,44.244 M26.883001,43.677 L26.883001,45 M26.883001,43.961998 L26.694,43.77 L26.505001,43.677 L26.220001,43.677 L26.034,43.77 L25.842001,43.961998 L25.749002,44.244 L25.749002,44.433 L25.842001,44.7165 L26.034,44.9055 L26.220001,45 L26.505001,45 L26.694,44.9055 L26.883001,44.7165 M27.636002,43.677 L27.636002,45 M27.636002,44.055 L27.921001,43.77 L28.11,43.677 L28.392002,43.677 L28.584,43.77 L28.677002,44.055 L28.677002,45 M28.677002,44.055 L28.962,43.77 L29.148,43.677 L29.433002,43.677 L29.622,43.77 L29.718002,44.055 L29.718002,45 M30.378002,44.244 L31.512003,44.244 L31.512003,44.055 L31.419,43.866 L31.323002,43.77 L31.134003,43.677 L30.849003,43.677 L30.663,43.77 L30.471003,43.961998 L30.378002,44.244 L30.378002,44.433 L30.471003,44.7165 L30.663,44.9055 L30.849003,45 L31.134003,45 L31.323002,44.9055 L31.512003,44.7165 M33.120003,43.961998 L33.024002,43.77 L32.742,43.677 L32.457005,43.677 L32.172005,43.77 L32.079002,43.961998 L32.172005,44.148003 L32.364002,44.244 L32.835003,44.34 L33.024002,44.433 L33.120003,44.622 L33.120003,44.7165 L33.024002,44.9055 L32.742,45 L32.457005,45 L32.172005,44.9055 L32.079002,44.7165 M35.154,43.014 L34.872,43.11 L34.68,43.392002 L34.587,43.866 L34.587,44.148003 L34.68,44.622 L34.872,44.9055 L35.154,45 L35.343002,45 L35.628,44.9055 L35.814003,44.622 L35.91,44.148003 L35.91,43.866 L35.814003,43.392002 L35.628,43.11 L35.343002,43.014 L35.154,43.014 M36.666,43.014 L37.704002,43.014 L37.14,43.77 L37.422,43.77 L37.611,43.866 L37.704002,43.961998 L37.8,44.244 L37.8,44.433 L37.704002,44.7165 L37.517998,44.9055 L37.233,45 L36.948,45 L36.666,44.9055 L36.57,44.810997 L36.477,44.622 M38.838,43.014 L38.556,43.11 L38.46,43.299 L38.46,43.488 L38.556,43.677 L38.745003,43.77 L39.123,43.866 L39.407997,43.961998 L39.594,44.148003 L39.69,44.34 L39.69,44.622 L39.594,44.810997 L39.501,44.9055 L39.216,45 L38.838,45 L38.556,44.9055 L38.46,44.810997 L38.367,44.622 L38.367,44.34 L38.46,44.148003 L38.652,43.961998 L38.934,43.866 L39.312,43.77 L39.501,43.677 L39.594,43.488 L39.594,43.299 L39.501,43.11 L39.216,43.014 L38.838,43.014 M41.25,44.148003 L42.954,44.148003 M44.799,43.392002 L44.985,43.299 L45.27,43.014 L45.27,45 M47.538002,43.014 L46.593,43.014 L46.497,43.866 L46.593,43.77 L46.875,43.677 L47.16,43.677 L47.445,43.77 L47.631,43.961998 L47.726997,44.244 L47.726997,44.433 L47.631,44.7165 L47.445,44.9055 L47.16,45 L46.875,45 L46.593,44.9055 L46.497,44.810997 L46.404,44.622 M7.0584,40.1464 L6.3528,42 M7.0584,40.1464 L7.764,42 M6.616,41.384 L7.5008,41.384 M8.2036,40.7652 L8.2036,42 M8.2036,41.118 L8.4696,40.851997 L8.646,40.7652 L8.9092,40.7652 L9.0884,40.851997 L9.1751995,41.118 L9.1751995,42 M9.9676,40.1464 L9.9676,41.647198 L10.0571995,41.9118 L10.2308,42 L10.409999,42 M9.7044,40.7652 L10.320399,40.7652 M11.2892,40.7652 L11.1156,40.851997 L10.936399,41.0312 L10.8496,41.2944 L10.8496,41.470802 L10.936399,41.7354 L11.1156,41.9118 L11.2892,42 L11.5552,42 L11.7316,41.9118 L11.907999,41.7354 L11.9948,41.470802 L11.9948,41.2944 L11.907999,41.0312 L11.7316,40.851997 L11.5552,40.7652 L11.2892,40.7652 M12.6108,40.7652 L12.6108,42 M12.6108,41.118 L12.876801,40.851997 L13.0532,40.7652 L13.316401,40.7652 L13.4956,40.851997 L13.5824,41.118 L13.5824,42 M14.2852,40.1464 L14.2852,42 M14.2852,40.1464 L14.990801,42 M15.696401,40.1464 L14.990801,42 M15.696401,40.1464 L15.696401,42 M17.3736,40.7652 L17.3736,42 M17.3736,41.0312 L17.1972,40.851997 L17.020802,40.7652 L16.7548,40.7652 L16.5812,40.851997 L16.402,41.0312 L16.3152,41.2944 L16.3152,41.470802 L16.402,41.7354 L16.5812,41.9118 L16.7548,42 L17.020802,42 L17.1972,41.9118 L17.3736,41.7354 M18.0764,40.1464 L18.0764,42 M18.9612,40.7652 L18.0764,41.647198 M18.429201,41.2944 L19.048,42 M19.490398,41.2944 L20.548801,41.2944 L20.548801,41.118 L20.462,40.9416 L20.3724,40.851997 L20.196001,40.7652 L19.93,40.7652 L19.7564,40.851997 L19.5772,41.0312 L19.490398,41.2944 L19.490398,41.470802 L19.5772,41.7354 L19.7564,41.9118 L19.93,42 L20.196001,42 L20.3724,41.9118 L20.548801,41.7354 M22.0496,41.0312 L21.960001,40.851997 L21.6968,40.7652 L21.430801,40.7652 L21.1648,40.851997 L21.078,41.0312 L21.1648,41.2048 L21.344,41.2944 L21.783602,41.384 L21.960001,41.470802 L22.0496,41.647198 L22.0496,41.7354 L21.960001,41.9118 L21.6968,42 L21.430801,42 L21.1648,41.9118 L21.078,41.7354 M23.9032,40.5888 L23.8136,40.4124 L23.637201,40.236 L23.4608,40.1464 L23.108,40.1464 L22.9316,40.236 L22.7552,40.4124 L22.6656,40.5888 L22.5788,40.851997 L22.5788,41.2944 L22.6656,41.5576 L22.7552,41.7354 L22.9316,41.9118 L23.108,42 L23.4608,42 L23.637201,41.9118 L23.8136,41.7354 L23.9032,41.5576 L23.9032,41.2944 M23.4608,41.2944 L23.9032,41.2944 M25.490799,40.7652 L25.490799,42 M25.490799,41.0312 L25.3144,40.851997 L25.138,40.7652 L24.872,40.7652 L24.698399,40.851997 L24.5192,41.0312 L24.4324,41.2944 L24.4324,41.470802 L24.5192,41.7354 L24.698399,41.9118 L24.872,42 L25.138,42 L25.3144,41.9118 L25.490799,41.7354 M26.1936,40.7652 L26.1936,42 M26.1936,41.118 L26.4596,40.851997 L26.635998,40.7652 L26.8992,40.7652 L27.0784,40.851997 L27.165201,41.118 L27.165201,42 M27.165201,41.118 L27.431202,40.851997 L27.604801,40.7652 L27.8708,40.7652 L28.047201,40.851997 L28.1368,41.118 L28.1368,42 M28.752798,41.2944 L29.8112,41.2944 L29.8112,41.118 L29.7244,40.9416 L29.6348,40.851997 L29.458399,40.7652 L29.192398,40.7652 L29.018799,40.851997 L28.8396,41.0312 L28.752798,41.2944 L28.752798,41.470802 L28.8396,41.7354 L29.018799,41.9118 L29.192398,42 L29.458399,42 L29.6348,41.9118 L29.8112,41.7354 M31.312,41.0312 L31.2224,40.851997 L30.959202,40.7652 L30.693201,40.7652 L30.4272,40.851997 L30.340399,41.0312 L30.4272,41.2048 L30.6064,41.2944 L31.046,41.384 L31.2224,41.470802 L31.312,41.647198 L31.312,41.7354 L31.2224,41.9118 L30.959202,42 L30.693201,42 L30.4272,41.9118 L30.340399,41.7354 M33.2104,40.1464 L32.947197,40.236 L32.767998,40.4992 L32.6812,40.9416 L32.6812,41.2048 L32.767998,41.647198 L32.947197,41.9118 L33.2104,42 L33.3868,42 L33.652798,41.9118 L33.826397,41.647198 L33.915997,41.2048 L33.915997,40.9416 L33.826397,40.4992 L33.652798,40.236 L33.3868,40.1464 L33.2104,40.1464 M34.621597,40.1464 L35.590397,40.1464 L35.064,40.851997 L35.327198,40.851997 L35.503597,40.9416 L35.590397,41.0312 L35.68,41.2944 L35.68,41.470802 L35.590397,41.7354 L35.416798,41.9118 L35.150795,42 L34.884796,42 L34.621597,41.9118 L34.531998,41.8236 L34.445198,41.647198 M36.648796,40.1464 L36.385597,40.236 L36.295998,40.4124 L36.295998,40.5888 L36.385597,40.7652 L36.562,40.851997 L36.9148,40.9416 L37.180798,41.0312 L37.354397,41.2048 L37.444,41.384 L37.444,41.647198 L37.354397,41.8236 L37.2676,41.9118 L37.0016,42 L36.648796,42 L36.385597,41.9118 L36.295998,41.8236 L36.209198,41.647198 L36.209198,41.384 L36.295998,41.2048 L36.475197,41.0312 L36.738396,40.9416 L37.091198,40.851997 L37.2676,40.7652 L37.354397,40.5888 L37.354397,40.4124 L37.2676,40.236 L37.0016,40.1464 L36.648796,40.1464 M38.9,41.2048 L40.4904,41.2048 M42.2124,40.4992 L42.385998,40.4124 L42.652,40.1464 L42.652,42 M44.5924,40.1464 L43.7104,41.384 L45.0348,41.384 M44.5924,40.1464 L44.5924,42 M6.9828005,37.2788 L6.3276,39 M6.9828005,37.2788 L7.6379995,39 M6.572,38.428 L7.3936005,38.428 M8.0462,37.8534 L8.0462,39 M8.0462,38.181 L8.2932,37.934 L8.457,37.8534 L8.7014,37.8534 L8.8678,37.934 L8.9484,38.181 L8.9484,39 M9.684199,37.2788 L9.684199,38.6724 L9.7674,38.9181 L9.928599,39 L10.094999,39 M9.439799,37.8534 L10.0118,37.8534 M10.9114,37.8534 L10.7502,37.934 L10.583799,38.1004 L10.5032,38.3448 L10.5032,38.5086 L10.583799,38.7543 L10.7502,38.9181 L10.9114,39 L11.1584,39 L11.3222,38.9181 L11.485999,38.7543 L11.566599,38.5086 L11.566599,38.3448 L11.485999,38.1004 L11.3222,37.934 L11.1584,37.8534 L10.9114,37.8534 M12.138599,37.8534 L12.138599,39 M12.138599,38.181 L12.385599,37.934 L12.549399,37.8534 L12.793799,37.8534 L12.960199,37.934 L13.040799,38.181 L13.040799,39 M13.693399,37.2788 L13.693399,39 M13.693399,37.2788 L14.348599,39 M15.003799,37.2788 L14.348599,39 M15.003799,37.2788 L15.003799,39 M16.5612,37.8534 L16.5612,39 M16.5612,38.1004 L16.3974,37.934 L16.2336,37.8534 L15.9866,37.8534 L15.825399,37.934 L15.658999,38.1004 L15.5784,38.3448 L15.5784,38.5086 L15.658999,38.7543 L15.825399,38.9181 L15.9866,39 L16.2336,39 L16.3974,38.9181 L16.5612,38.7543 M17.2138,37.2788 L17.2138,39 M18.0354,37.8534 L17.2138,38.6724 M17.5414,38.3448 L18.116001,39 M18.5268,38.3448 L19.509602,38.3448 L19.509602,38.181 L19.429,38.0172 L19.3458,37.934 L19.182001,37.8534 L18.935001,37.8534 L18.7738,37.934 L18.6074,38.1004 L18.5268,38.3448 L18.5268,38.5086 L18.6074,38.7543 L18.7738,38.9181 L18.935001,39 L19.182001,39 L19.3458,38.9181 L19.509602,38.7543 M20.903202,38.1004 L20.820002,37.934 L20.575602,37.8534 L20.328602,37.8534 L20.0816,37.934 L20.001001,38.1004 L20.0816,38.2616 L20.248001,38.3448 L20.6562,38.428 L20.820002,38.5086 L20.903202,38.6724 L20.903202,38.7543 L20.820002,38.9181 L20.575602,39 L20.328602,39 L20.0816,38.9181 L20.001001,38.7543 M22.624401,37.689598 L22.541203,37.5258 L22.377401,37.362 L22.213602,37.2788 L21.886002,37.2788 L21.722202,37.362 L21.558401,37.5258 L21.4752,37.689598 L21.394602,37.934 L21.394602,38.3448 L21.4752,38.5892 L21.558401,38.7543 L21.722202,38.9181 L21.886002,39 L22.213602,39 L22.377401,38.9181 L22.541203,38.7543 L22.624401,38.5892 L22.624401,38.3448 M22.213602,38.3448 L22.624401,38.3448 M24.098602,37.8534 L24.098602,39 M24.098602,38.1004 L23.934803,37.934 L23.771002,37.8534 L23.524002,37.8534 L23.362803,37.934 L23.196402,38.1004 L23.115803,38.3448 L23.115803,38.5086 L23.196402,38.7543 L23.362803,38.9181 L23.524002,39 L23.771002,39 L23.934803,38.9181 L24.098602,38.7543 M24.751202,37.8534 L24.751202,39 M24.751202,38.181 L24.998203,37.934 L25.162003,37.8534 L25.406403,37.8534 L25.572803,37.934 L25.653402,38.181 L25.653402,39 M25.653402,38.181 L25.900402,37.934 L26.061604,37.8534 L26.308603,37.8534 L26.472403,37.934 L26.555603,38.181 L26.555603,39 M27.127604,38.3448 L28.110403,38.3448 L28.110403,38.181 L28.029804,38.0172 L27.946604,37.934 L27.782803,37.8534 L27.535803,37.8534 L27.374603,37.934 L27.208202,38.1004 L27.127604,38.3448 L27.127604,38.5086 L27.208202,38.7543 L27.374603,38.9181 L27.535803,39 L27.782803,39 L27.946604,38.9181 L28.110403,38.7543 M29.504004,38.1004 L29.420803,37.934 L29.176403,37.8534 L28.929403,37.8534 L28.682404,37.934 L28.601803,38.1004 L28.682404,38.2616 L28.848804,38.3448 L29.257004,38.428 L29.420803,38.5086 L29.504004,38.6724 L29.504004,38.7543 L29.420803,38.9181 L29.176403,39 L28.929403,39 L28.682404,38.9181 L28.601803,38.7543 M31.266804,37.2788 L31.022404,37.362 L30.856003,37.6064 L30.775402,38.0172 L30.775402,38.2616 L30.856003,38.6724 L31.022404,38.9181 L31.266804,39 L31.430603,39 L31.677603,38.9181 L31.838802,38.6724 L31.922003,38.2616 L31.922003,38.0172 L31.838802,37.6064 L31.677603,37.362 L31.430603,37.2788 L31.266804,37.2788 M32.5772,37.2788 L33.476803,37.2788 L32.988003,37.934 L33.232403,37.934 L33.396202,38.0172 L33.476803,38.1004 L33.560005,38.3448 L33.560005,38.5086 L33.476803,38.7543 L33.315605,38.9181 L33.068604,39 L32.8216,39 L32.5772,38.9181 L32.494003,38.8362 L32.413403,38.6724 M34.459602,37.2788 L34.215202,37.362 L34.132004,37.5258 L34.132004,37.689598 L34.215202,37.8534 L34.379005,37.934 L34.706604,38.0172 L34.953606,38.1004 L35.114803,38.2616 L35.198006,38.428 L35.198006,38.6724 L35.114803,38.8362 L35.034203,38.9181 L34.787205,39 L34.459602,39 L34.215202,38.9181 L34.132004,38.8362 L34.051403,38.6724 L34.051403,38.428 L34.132004,38.2616 L34.298405,38.1004 L34.542805,38.0172 L34.870403,37.934 L35.034203,37.8534 L35.114803,37.689598 L35.114803,37.5258 L35.034203,37.362 L34.787205,37.2788 L34.459602,37.2788 M36.550003,38.2616 L38.026802,38.2616 M39.6258,37.6064 L39.787003,37.5258 L40.034004,37.2788 L40.034004,39 M41.180603,37.2788 L42.080204,37.2788 L41.591404,37.934 L41.835804,37.934 L41.999603,38.0172 L42.080204,38.1004 L42.163403,38.3448 L42.163403,38.5086 L42.080204,38.7543 L41.919003,38.9181 L41.672005,39 L41.425003,39 L41.180603,38.9181 L41.097404,38.8362 L41.016804,38.6724 M6.9072,34.4112 L6.3024,36 M6.9072,34.4112 L7.512,36 M6.528,35.472 L7.2864,35.472 M7.8888,34.941597 L7.8888,36 M7.8888,35.244 L8.1168,35.016 L8.268,34.941597 L8.493601,34.941597 L8.6472,35.016 L8.721601,35.244 L8.721601,36 M9.4008,34.4112 L9.4008,35.6976 L9.4776,35.9244 L9.6264,36 L9.780001,36 M9.1751995,34.941597 L9.703199,34.941597 M10.5336,34.941597 L10.3848,35.016 L10.231199,35.1696 L10.1568,35.3952 L10.1568,35.5464 L10.231199,35.7732 L10.3848,35.9244 L10.5336,36 L10.7616,36 L10.9128,35.9244 L11.064,35.7732 L11.138399,35.5464 L11.138399,35.3952 L11.064,35.1696 L10.9128,35.016 L10.7616,34.941597 L10.5336,34.941597 M11.666399,34.941597 L11.666399,36 M11.666399,35.244 L11.8944,35.016 L12.045599,34.941597 L12.2712,34.941597 L12.424799,35.016 L12.4992,35.244 L12.4992,36 M13.101599,34.4112 L13.101599,36 M13.101599,34.4112 L13.7064,36 M14.3112,34.4112 L13.7064,36 M14.3112,34.4112 L14.3112,36 M15.748799,34.941597 L15.748799,36 M15.748799,35.1696 L15.597598,35.016 L15.446399,34.941597 L15.218399,34.941597 L15.069598,35.016 L14.915998,35.1696 L14.8415985,35.3952 L14.8415985,35.5464 L14.915998,35.7732 L15.069598,35.9244 L15.218399,36 L15.446399,36 L15.597598,35.9244 L15.748799,35.7732 M16.3512,34.4112 L16.3512,36 M17.1096,34.941597 L16.3512,35.6976 M16.653599,35.3952 L17.184,36 M17.563198,35.3952 L18.4704,35.3952 L18.4704,35.244 L18.396,35.0928 L18.319199,35.016 L18.168,34.941597 L17.939999,34.941597 L17.791199,35.016 L17.6376,35.1696 L17.563198,35.3952 L17.563198,35.5464 L17.6376,35.7732 L17.791199,35.9244 L17.939999,36 L18.168,36 L18.319199,35.9244 L18.4704,35.7732 M19.7568,35.1696 L19.679998,35.016 L19.4544,34.941597 L19.226398,34.941597 L18.9984,35.016 L18.924,35.1696 L18.9984,35.318398 L19.151999,35.3952 L19.5288,35.472 L19.679998,35.5464 L19.7568,35.6976 L19.7568,35.7732 L19.679998,35.9244 L19.4544,36 L19.226398,36 L18.9984,35.9244 L18.924,35.7732 M21.3456,34.790398 L21.268799,34.6392 L21.1176,34.488 L20.9664,34.4112 L20.664,34.4112 L20.512798,34.488 L20.361599,34.6392 L20.2848,34.790398 L20.2104,35.016 L20.2104,35.3952 L20.2848,35.6208 L20.361599,35.7732 L20.512798,35.9244 L20.664,36 L20.9664,36 L21.1176,35.9244 L21.268799,35.7732 L21.3456,35.6208 L21.3456,35.3952 M20.9664,35.3952 L21.3456,35.3952 M22.7064,34.941597 L22.7064,36 M22.7064,35.1696 L22.5552,35.016 L22.404,34.941597 L22.175999,34.941597 L22.027199,35.016 L21.8736,35.1696 L21.799198,35.3952 L21.799198,35.5464 L21.8736,35.7732 L22.027199,35.9244 L22.175999,36 L22.404,36 L22.5552,35.9244 L22.7064,35.7732 M23.3088,34.941597 L23.3088,36 M23.3088,35.244 L23.5368,35.016 L23.688,34.941597 L23.9136,34.941597 L24.0672,35.016 L24.1416,35.244 L24.1416,36 M24.1416,35.244 L24.3696,35.016 L24.518398,34.941597 L24.7464,34.941597 L24.8976,35.016 L24.9744,35.244 L24.9744,36 M25.5024,35.3952 L26.409601,35.3952 L26.409601,35.244 L26.335201,35.0928 L26.258402,35.016 L26.107203,34.941597 L25.8792,34.941597 L25.730402,35.016 L25.576801,35.1696 L25.5024,35.3952 L25.5024,35.5464 L25.576801,35.7732 L25.730402,35.9244 L25.8792,36 L26.107203,36 L26.258402,35.9244 L26.409601,35.7732 M27.696003,35.1696 L27.619202,35.016 L27.3936,34.941597 L27.1656,34.941597 L26.937601,35.016 L26.863201,35.1696 L26.937601,35.318398 L27.091202,35.3952 L27.468002,35.472 L27.619202,35.5464 L27.696003,35.6976 L27.696003,35.7732 L27.619202,35.9244 L27.3936,36 L27.1656,36 L26.937601,35.9244 L26.863201,35.7732 M29.323202,34.4112 L29.097605,34.488 L28.944004,34.7136 L28.869604,35.0928 L28.869604,35.318398 L28.944004,35.6976 L29.097605,35.9244 L29.323202,36 L29.474405,36 L29.702404,35.9244 L29.851202,35.6976 L29.928003,35.318398 L29.928003,35.0928 L29.851202,34.7136 L29.702404,34.488 L29.474405,34.4112 L29.323202,34.4112 M30.532803,34.4112 L31.363201,34.4112 L30.912003,35.016 L31.137604,35.016 L31.288803,35.0928 L31.363201,35.1696 L31.440002,35.3952 L31.440002,35.5464 L31.363201,35.7732 L31.214405,35.9244 L30.986404,36 L30.758402,36 L30.532803,35.9244 L30.456003,35.8488 L30.381603,35.6976 M32.2704,34.4112 L32.044804,34.488 L31.968002,34.6392 L31.968002,34.790398 L32.044804,34.941597 L32.196003,35.016 L32.498405,35.0928 L32.726402,35.1696 L32.875202,35.318398 L32.952003,35.472 L32.952003,35.6976 L32.875202,35.8488 L32.800804,35.9244 L32.572803,36 L32.2704,36 L32.044804,35.9244 L31.968002,35.8488 L31.893604,35.6976 L31.893604,35.472 L31.968002,35.318398 L32.121605,35.1696 L32.347202,35.0928 L32.649605,35.016 L32.800804,34.941597 L32.875202,34.790398 L32.875202,34.6392 L32.800804,34.488 L32.572803,34.4112 L32.2704,34.4112 M34.200005,35.318398 L35.5632,35.318398 M37.039207,34.7136 L37.188004,34.6392 L37.416008,34.4112 L37.416008,36 M38.397606,34.790398 L38.397606,34.7136 L38.474403,34.5648 L38.551205,34.488 L38.700005,34.4112 L39.002403,34.4112 L39.156006,34.488 L39.230404,34.5648 L39.304802,34.7136 L39.304802,34.8672 L39.230404,35.016 L39.079205,35.244 L38.323204,36 L39.381603,36 M6.8316,31.5436 L6.2771997,33 M6.8316,31.5436 L7.386,33 M6.4839997,32.516 L7.1792,32.516 M7.7313995,32.0298 L7.7313995,33 M7.7313995,32.307 L7.9404,32.098 L8.079,32.0298 L8.2858,32.0298 L8.4265995,32.098 L8.4948,32.307 L8.4948,33 M9.117399,31.5436 L9.117399,32.7228 L9.187799,32.930702 L9.3242,33 L9.464999,33 M8.9106,32.0298 L9.3946,32.0298 M10.1558,32.0298 L10.0194,32.098 L9.878599,32.2388 L9.8104,32.4456 L9.8104,32.5842 L9.878599,32.7921 L10.0194,32.930702 L10.1558,33 L10.3648,33 L10.5034,32.930702 L10.642,32.7921 L10.710199,32.5842 L10.710199,32.4456 L10.642,32.2388 L10.5034,32.098 L10.3648,32.0298 L10.1558,32.0298 M11.1942005,32.0298 L11.1942005,33 M11.1942005,32.307 L11.4032,32.098 L11.5418,32.0298 L11.7486,32.0298 L11.8894,32.098 L11.9576,32.307 L11.9576,33 M12.509799,31.5436 L12.509799,33 M12.509799,31.5436 L13.064199,33 M13.618599,31.5436 L13.064199,33 M13.618599,31.5436 L13.618599,33 M14.936399,32.0298 L14.936399,33 M14.936399,32.2388 L14.7978,32.098 L14.6592,32.0298 L14.4502,32.0298 L14.3138,32.098 L14.172999,32.2388 L14.1048,32.4456 L14.1048,32.5842 L14.172999,32.7921 L14.3138,32.930702 L14.4502,33 L14.6592,33 L14.7978,32.930702 L14.936399,32.7921 M15.4886,31.5436 L15.4886,33 M16.183802,32.0298 L15.4886,32.7228 M15.7658,32.4456 L16.252,33 M16.599602,32.4456 L17.431202,32.4456 L17.431202,32.307 L17.363,32.1684 L17.2926,32.098 L17.154001,32.0298 L16.945002,32.0298 L16.808601,32.098 L16.6678,32.2388 L16.599602,32.4456 L16.599602,32.5842 L16.6678,32.7921 L16.808601,32.930702 L16.945002,33 L17.154001,33 L17.2926,32.930702 L17.431202,32.7921 M18.610401,32.2388 L18.54,32.098 L18.333202,32.0298 L18.1242,32.0298 L17.915201,32.098 L17.847002,32.2388 L17.915201,32.375202 L18.056002,32.4456 L18.401402,32.516 L18.54,32.5842 L18.610401,32.7228 L18.610401,32.7921 L18.54,32.930702 L18.333202,33 L18.1242,33 L17.915201,32.930702 L17.847002,32.7921 M20.0668,31.8912 L19.9964,31.7526 L19.8578,31.614002 L19.7192,31.5436 L19.442,31.5436 L19.3034,31.614002 L19.1648,31.7526 L19.0944,31.8912 L19.026201,32.098 L19.026201,32.4456 L19.0944,32.652397 L19.1648,32.7921 L19.3034,32.930702 L19.442,33 L19.7192,33 L19.8578,32.930702 L19.9964,32.7921 L20.0668,32.652397 L20.0668,32.4456 M19.7192,32.4456 L20.0668,32.4456 M21.3142,32.0298 L21.3142,33 M21.3142,32.2388 L21.1756,32.098 L21.036999,32.0298 L20.828,32.0298 L20.6916,32.098 L20.5508,32.2388 L20.482601,32.4456 L20.482601,32.5842 L20.5508,32.7921 L20.6916,32.930702 L20.828,33 L21.036999,33 L21.1756,32.930702 L21.3142,32.7921 M21.8664,32.0298 L21.8664,33 M21.8664,32.307 L22.0754,32.098 L22.214,32.0298 L22.420801,32.0298 L22.5616,32.098 L22.6298,32.307 L22.6298,33 M22.6298,32.307 L22.8388,32.098 L22.9752,32.0298 L23.1842,32.0298 L23.322802,32.098 L23.3932,32.307 L23.3932,33 M23.877201,32.4456 L24.7088,32.4456 L24.7088,32.307 L24.6406,32.1684 L24.5702,32.098 L24.431599,32.0298 L24.222599,32.0298 L24.0862,32.098 L23.9454,32.2388 L23.877201,32.4456 L23.877201,32.5842 L23.9454,32.7921 L24.0862,32.930702 L24.222599,33 L24.431599,33 L24.5702,32.930702 L24.7088,32.7921 M25.888,32.2388 L25.8176,32.098 L25.6108,32.0298 L25.401798,32.0298 L25.192799,32.098 L25.1246,32.2388 L25.192799,32.375202 L25.3336,32.4456 L25.679,32.516 L25.8176,32.5842 L25.888,32.7228 L25.888,32.7921 L25.8176,32.930702 L25.6108,33 L25.401798,33 L25.192799,32.930702 L25.1246,32.7921 M27.379602,31.5436 L27.1728,31.614002 L27.032001,31.8208 L26.9638,32.1684 L26.9638,32.375202 L27.032001,32.7228 L27.1728,32.930702 L27.379602,33 L27.5182,33 L27.7272,32.930702 L27.863602,32.7228 L27.934,32.375202 L27.934,32.1684 L27.863602,31.8208 L27.7272,31.614002 L27.5182,31.5436 L27.379602,31.5436 M28.4884,31.5436 L29.2496,31.5436 L28.835999,32.098 L29.0428,32.098 L29.1814,32.1684 L29.2496,32.2388 L29.319998,32.4456 L29.319998,32.5842 L29.2496,32.7921 L29.1132,32.930702 L28.9042,33 L28.6952,33 L28.4884,32.930702 L28.418,32.8614 L28.349798,32.7228 M30.081198,31.5436 L29.8744,31.614002 L29.803997,31.7526 L29.803997,31.8912 L29.8744,32.0298 L30.012997,32.098 L30.290197,32.1684 L30.499197,32.2388 L30.6356,32.375202 L30.705997,32.516 L30.705997,32.7228 L30.6356,32.8614 L30.567398,32.930702 L30.358398,33 L30.081198,33 L29.8744,32.930702 L29.803997,32.8614 L29.735798,32.7228 L29.735798,32.516 L29.803997,32.375202 L29.944798,32.2388 L30.1516,32.1684 L30.428799,32.098 L30.567398,32.0298 L30.6356,31.8912 L30.6356,31.7526 L30.567398,31.614002 L30.358398,31.5436 L30.081198,31.5436 M31.849997,32.375202 L33.099598,32.375202 M34.4526,31.8208 L34.588997,31.7526 L34.797997,31.5436 L34.797997,33 M35.838596,31.8208 L35.975,31.7526 L36.184,31.5436 L36.184,33 M6.7559996,28.676 L6.252,30 M6.7559996,28.676 L7.2599998,30 M6.44,29.560001 L7.072,29.560001 M7.574,29.118 L7.574,30 M7.574,29.37 L7.764,29.179998 L7.8899994,29.118 L8.078,29.118 L8.205999,29.179998 L8.268,29.37 L8.268,30 M8.834,28.676 L8.834,29.748001 L8.898,29.937 L9.021999,30 L9.15,30 M8.646,29.118 L9.0859995,29.118 M9.777999,29.118 L9.653999,29.179998 L9.525999,29.307999 L9.463999,29.495998 L9.463999,29.622 L9.525999,29.810999 L9.653999,29.937 L9.777999,30 L9.967999,30 L10.094,29.937 L10.219999,29.810999 L10.282,29.622 L10.282,29.495998 L10.219999,29.307999 L10.094,29.179998 L9.967999,29.118 L9.777999,29.118 M10.721999,29.118 L10.721999,30 M10.721999,29.37 L10.912,29.179998 L11.037999,29.118 L11.226,29.118 L11.353999,29.179998 L11.415998,29.37 L11.415998,30 M11.917999,28.676 L11.917999,30 M11.917999,28.676 L12.421999,30 M12.926,28.676 L12.421999,30 M12.926,28.676 L12.926,30 M14.123999,29.118 L14.123999,30 M14.123999,29.307999 L13.997999,29.179998 L13.872,29.118 L13.681999,29.118 L13.557999,29.179998 L13.429998,29.307999 L13.367999,29.495998 L13.367999,29.622 L13.429998,29.810999 L13.557999,29.937 L13.681999,30 L13.872,30 L13.997999,29.937 L14.123999,29.810999 M14.625999,28.676 L14.625999,30 M15.258,29.118 L14.625999,29.748001 M14.878,29.495998 L15.32,30 M15.636,29.495998 L16.392,29.495998 L16.392,29.37 L16.33,29.244 L16.266,29.179998 L16.140001,29.118 L15.95,29.118 L15.826001,29.179998 L15.698,29.307999 L15.636,29.495998 L15.636,29.622 L15.698,29.810999 L15.826001,29.937 L15.95,30 L16.140001,30 L16.266,29.937 L16.392,29.810999 M17.464,29.307999 L17.4,29.179998 L17.212,29.118 L17.022,29.118 L16.831999,29.179998 L16.77,29.307999 L16.831999,29.432001 L16.960001,29.495998 L17.274,29.560001 L17.4,29.622 L17.464,29.748001 L17.464,29.810999 L17.4,29.937 L17.212,30 L17.022,30 L16.831999,29.937 L16.77,29.810999 M18.788,28.992 L18.724,28.866001 L18.598,28.74 L18.472,28.676 L18.22,28.676 L18.094,28.74 L17.967999,28.866001 L17.904,28.992 L17.842,29.179998 L17.842,29.495998 L17.904,29.684 L17.967999,29.810999 L18.094,29.937 L18.22,30 L18.472,30 L18.598,29.937 L18.724,29.810999 L18.788,29.684 L18.788,29.495998 M18.472,29.495998 L18.788,29.495998 M19.922,29.118 L19.922,30 M19.922,29.307999 L19.796001,29.179998 L19.670002,29.118 L19.48,29.118 L19.355999,29.179998 L19.228,29.307999 L19.166,29.495998 L19.166,29.622 L19.228,29.810999 L19.355999,29.937 L19.48,30 L19.670002,30 L19.796001,29.937 L19.922,29.810999 M20.424,29.118 L20.424,30 M20.424,29.37 L20.614002,29.179998 L20.740002,29.118 L20.928001,29.118 L21.056002,29.179998 L21.118,29.37 L21.118,30 M21.118,29.37 L21.308002,29.179998 L21.432001,29.118 L21.622002,29.118 L21.748001,29.179998 L21.812,29.37 L21.812,30 M22.252,29.495998 L23.008,29.495998 L23.008,29.37 L22.946001,29.244 L22.882,29.179998 L22.756,29.118 L22.566,29.118 L22.442001,29.179998 L22.314,29.307999 L22.252,29.495998 L22.252,29.622 L22.314,29.810999 L22.442001,29.937 L22.566,30 L22.756,30 L22.882,29.937 L23.008,29.810999 M24.08,29.307999 L24.016,29.179998 L23.828,29.118 L23.638,29.118 L23.448,29.179998 L23.386,29.307999 L23.448,29.432001 L23.576,29.495998 L23.890001,29.560001 L24.016,29.622 L24.08,29.748001 L24.08,29.810999 L24.016,29.937 L23.828,30 L23.638,30 L23.448,29.937 L23.386,29.810999 M25.436,28.676 L25.248001,28.74 L25.119999,28.928 L25.058,29.244 L25.058,29.432001 L25.119999,29.748001 L25.248001,29.937 L25.436,30 L25.562,30 L25.751999,29.937 L25.876001,29.748001 L25.939999,29.432001 L25.939999,29.244 L25.876001,28.928 L25.751999,28.74 L25.562,28.676 L25.436,28.676 M26.444,28.676 L27.135998,28.676 L26.76,29.179998 L26.947998,29.179998 L27.074,29.244 L27.135998,29.307999 L27.2,29.495998 L27.2,29.622 L27.135998,29.810999 L27.012,29.937 L26.822,30 L26.632,30 L26.444,29.937 L26.38,29.873999 L26.317999,29.748001 M27.892002,28.676 L27.704,28.74 L27.64,28.866001 L27.64,28.992 L27.704,29.118 L27.829998,29.179998 L28.082,29.244 L28.272,29.307999 L28.396,29.432001 L28.460001,29.560001 L28.460001,29.748001 L28.396,29.873999 L28.334,29.937 L28.144001,30 L27.892002,30 L27.704,29.937 L27.64,29.873999 L27.578,29.748001 L27.578,29.560001 L27.64,29.432001 L27.768,29.307999 L27.956,29.244 L28.207998,29.179998 L28.334,29.118 L28.396,28.992 L28.396,28.866001 L28.334,28.74 L28.144001,28.676 L27.892002,28.676 M29.5,29.432001 L30.636002,29.432001 M31.866001,28.928 L31.990002,28.866001 L32.18,28.676 L32.18,30 M33.314003,28.676 L33.126,28.74 L32.998,28.928 L32.936,29.244 L32.936,29.432001 L32.998,29.748001 L33.126,29.937 L33.314003,30 L33.440002,30 L33.63,29.937 L33.754,29.748001 L33.818,29.432001 L33.818,29.244 L33.754,28.928 L33.63,28.74 L33.440002,28.676 L33.314003,28.676 M6.6804,25.8084 L6.2268,27 M6.6804,25.8084 L7.134,27 M6.396,26.604 L6.9648004,26.604 M7.4166,26.206202 L7.4166,27 M7.4166,26.432999 L7.5875998,26.262 L7.701,26.206202 L7.8702,26.206202 L7.9854,26.262 L8.041201,26.432999 L8.041201,27 M8.5506,25.8084 L8.5506,26.7732 L8.6082,26.943302 L8.7198,27 L8.835,27 M8.3814,26.206202 L8.7774,26.206202 M9.4002,26.206202 L9.2886,26.262 L9.1734,26.377201 L9.1176,26.546398 L9.1176,26.6598 L9.1734,26.8299 L9.2886,26.943302 L9.4002,27 L9.5712,27 L9.6846,26.943302 L9.798,26.8299 L9.8538,26.6598 L9.8538,26.546398 L9.798,26.377201 L9.6846,26.262 L9.5712,26.206202 L9.4002,26.206202 M10.2498,26.206202 L10.2498,27 M10.2498,26.432999 L10.4208,26.262 L10.534201,26.206202 L10.703401,26.206202 L10.818601,26.262 L10.8744,26.432999 L10.8744,27 M11.3262005,25.8084 L11.3262005,27 M11.3262005,25.8084 L11.7798,27 M12.2334,25.8084 L11.7798,27 M12.2334,25.8084 L12.2334,27 M13.3116,26.206202 L13.3116,27 M13.3116,26.377201 L13.198201,26.262 L13.084801,26.206202 L12.9138,26.206202 L12.8022,26.262 L12.687,26.377201 L12.631201,26.546398 L12.631201,26.6598 L12.687,26.8299 L12.8022,26.943302 L12.9138,27 L13.084801,27 L13.198201,26.943302 L13.3116,26.8299 M13.763402,25.8084 L13.763402,27 M14.332201,26.206202 L13.763402,26.7732 M13.990201,26.546398 L14.3880005,27 M14.6723995,26.546398 L15.3528,26.546398 L15.3528,26.432999 L15.297,26.319601 L15.239401,26.262 L15.126001,26.206202 L14.955,26.206202 L14.843401,26.262 L14.728201,26.377201 L14.6723995,26.546398 L14.6723995,26.6598 L14.728201,26.8299 L14.843401,26.943302 L14.955,27 L15.126001,27 L15.239401,26.943302 L15.3528,26.8299 M16.3176,26.377201 L16.26,26.262 L16.090801,26.206202 L15.9198,26.206202 L15.7488,26.262 L15.692999,26.377201 L15.7488,26.4888 L15.864,26.546398 L16.1466,26.604 L16.26,26.6598 L16.3176,26.7732 L16.3176,26.8299 L16.26,26.943302 L16.090801,27 L15.9198,27 L15.7488,26.943302 L15.692999,26.8299 M17.5092,26.0928 L17.4516,25.9794 L17.3382,25.866001 L17.2248,25.8084 L16.998,25.8084 L16.8846,25.866001 L16.771198,25.9794 L16.7136,26.0928 L16.657799,26.262 L16.657799,26.546398 L16.7136,26.715601 L16.771198,26.8299 L16.8846,26.943302 L16.998,27 L17.2248,27 L17.3382,26.943302 L17.4516,26.8299 L17.5092,26.715601 L17.5092,26.546398 M17.2248,26.546398 L17.5092,26.546398 M18.529799,26.206202 L18.529799,27 M18.529799,26.377201 L18.4164,26.262 L18.303,26.206202 L18.132,26.206202 L18.0204,26.262 L17.905201,26.377201 L17.8494,26.546398 L17.8494,26.6598 L17.905201,26.8299 L18.0204,26.943302 L18.132,27 L18.303,27 L18.4164,26.943302 L18.529799,26.8299 M18.9816,26.206202 L18.9816,27 M18.9816,26.432999 L19.1526,26.262 L19.265999,26.206202 L19.4352,26.206202 L19.550398,26.262 L19.606197,26.432999 L19.606197,27 M19.606197,26.432999 L19.777199,26.262 L19.888798,26.206202 L20.0598,26.206202 L20.173199,26.262 L20.230799,26.432999 L20.230799,27 M20.626797,26.546398 L21.307198,26.546398 L21.307198,26.432999 L21.251398,26.319601 L21.193798,26.262 L21.080399,26.206202 L20.909397,26.206202 L20.797798,26.262 L20.682598,26.377201 L20.626797,26.546398 L20.626797,26.6598 L20.682598,26.8299 L20.797798,26.943302 L20.909397,27 L21.080399,27 L21.193798,26.943302 L21.307198,26.8299 M22.271997,26.377201 L22.214397,26.262 L22.045198,26.206202 L21.874197,26.206202 L21.703197,26.262 L21.647396,26.377201 L21.703197,26.4888 L21.818398,26.546398 L22.100998,26.604 L22.214397,26.6598 L22.271997,26.7732 L22.271997,26.8299 L22.214397,26.943302 L22.045198,27 L21.874197,27 L21.703197,26.943302 L21.647396,26.8299 M23.492397,25.8084 L23.323196,25.866001 L23.207996,26.035198 L23.152195,26.319601 L23.152195,26.4888 L23.207996,26.7732 L23.323196,26.943302 L23.492397,27 L23.605797,27 L23.776796,26.943302 L23.888397,26.7732 L23.945995,26.4888 L23.945995,26.319601 L23.888397,26.035198 L23.776796,25.866001 L23.605797,25.8084 L23.492397,25.8084 M24.399595,25.8084 L25.022396,25.8084 L24.683996,26.262 L24.853197,26.262 L24.966595,26.319601 L25.022396,26.377201 L25.079996,26.546398 L25.079996,26.6598 L25.022396,26.8299 L24.910795,26.943302 L24.739796,27 L24.568796,27 L24.399595,26.943302 L24.341997,26.8866 L24.286196,26.7732 M25.702795,25.8084 L25.533596,25.866001 L25.475996,25.9794 L25.475996,26.0928 L25.533596,26.206202 L25.646997,26.262 L25.873795,26.319601 L26.044796,26.377201 L26.156397,26.4888 L26.213995,26.604 L26.213995,26.7732 L26.156397,26.8866 L26.100595,26.943302 L25.929596,27 L25.702795,27 L25.533596,26.943302 L25.475996,26.8866 L25.420195,26.7732 L25.420195,26.604 L25.475996,26.4888 L25.591196,26.377201 L25.760395,26.319601 L25.987194,26.262 L26.100595,26.206202 L26.156397,26.0928 L26.156397,25.9794 L26.100595,25.866001 L25.929596,25.8084 L25.702795,25.8084 M27.149994,26.4888 L28.172394,26.4888 M29.844595,26.206202 L29.788794,26.377201 L29.675394,26.4888 L29.506195,26.546398 L29.448593,26.546398 L29.279394,26.4888 L29.164194,26.377201 L29.108395,26.206202 L29.108395,26.1504 L29.164194,25.9794 L29.279394,25.866001 L29.448593,25.8084 L29.506195,25.8084 L29.675394,25.866001 L29.788794,25.9794 L29.844595,26.206202 L29.844595,26.4888 L29.788794,26.7732 L29.675394,26.943302 L29.506195,27 L29.390995,27 L29.221796,26.943302 L29.164194,26.8299 M6.6047997,22.9408 L6.2016,24 M6.6047997,22.9408 L7.0080004,24 M6.352,23.647999 L6.8576,23.647999 M7.2591996,23.2944 L7.2591996,24 M7.2591996,23.496 L7.4112,23.344 L7.5119996,23.2944 L7.6624002,23.2944 L7.7647996,23.344 L7.8143997,23.496 L7.8143997,24 M8.2671995,22.9408 L8.2671995,23.798399 L8.318399,23.9496 L8.417601,24 L8.5199995,24 M8.1168,23.2944 L8.4688,23.2944 M9.0224,23.2944 L8.9232,23.344 L8.820799,23.4464 L8.7712,23.5968 L8.7712,23.6976 L8.820799,23.8488 L8.9232,23.9496 L9.0224,24 L9.174399,24 L9.2752,23.9496 L9.375999,23.8488 L9.4256,23.6976 L9.4256,23.5968 L9.375999,23.4464 L9.2752,23.344 L9.174399,23.2944 L9.0224,23.2944 M9.777599,23.2944 L9.777599,24 M9.777599,23.496 L9.9296,23.344 L10.030399,23.2944 L10.1807995,23.2944 L10.2832,23.344 L10.3328,23.496 L10.3328,24 M10.7344,22.9408 L10.7344,24 M10.7344,22.9408 L11.1376,24 M11.5408,22.9408 L11.1376,24 M11.5408,22.9408 L11.5408,24 M12.4992,23.2944 L12.4992,24 M12.4992,23.4464 L12.3984,23.344 L12.2976,23.2944 L12.1456,23.2944 L12.0464,23.344 L11.943999,23.4464 L11.8944,23.5968 L11.8944,23.6976 L11.943999,23.8488 L12.0464,23.9496 L12.1456,24 L12.2976,24 L12.3984,23.9496 L12.4992,23.8488 M12.9008,22.9408 L12.9008,24 M13.4064,23.2944 L12.9008,23.798399 M13.1024,23.5968 L13.455999,24 M13.708799,23.5968 L14.313601,23.5968 L14.313601,23.496 L14.264,23.395199 L14.212799,23.344 L14.1119995,23.2944 L13.959999,23.2944 L13.8608,23.344 L13.7584,23.4464 L13.708799,23.5968 L13.708799,23.6976 L13.7584,23.8488 L13.8608,23.9496 L13.959999,24 L14.1119995,24 L14.212799,23.9496 L14.313601,23.8488 M15.171201,23.4464 L15.12,23.344 L14.9696,23.2944 L14.817599,23.2944 L14.665601,23.344 L14.616,23.4464 L14.665601,23.545599 L14.768001,23.5968 L15.0192,23.647999 L15.12,23.6976 L15.171201,23.798399 L15.171201,23.8488 L15.12,23.9496 L14.9696,24 L14.817599,24 L14.665601,23.9496 L14.616,23.8488 M16.2304,23.1936 L16.179201,23.0928 L16.078402,22.992 L15.9776,22.9408 L15.776001,22.9408 L15.6751995,22.992 L15.5744,23.0928 L15.523201,23.1936 L15.4736,23.344 L15.4736,23.5968 L15.523201,23.7472 L15.5744,23.8488 L15.6751995,23.9496 L15.776001,24 L15.9776,24 L16.078402,23.9496 L16.179201,23.8488 L16.2304,23.7472 L16.2304,23.5968 M15.9776,23.5968 L16.2304,23.5968 M17.1376,23.2944 L17.1376,24 M17.1376,23.4464 L17.0368,23.344 L16.936,23.2944 L16.784,23.2944 L16.684801,23.344 L16.582401,23.4464 L16.5328,23.5968 L16.5328,23.6976 L16.582401,23.8488 L16.684801,23.9496 L16.784,24 L16.936,24 L17.0368,23.9496 L17.1376,23.8488 M17.5392,23.2944 L17.5392,24 M17.5392,23.496 L17.691198,23.344 L17.792,23.2944 L17.9424,23.2944 L18.0448,23.344 L18.0944,23.496 L18.0944,24 M18.0944,23.496 L18.246399,23.344 L18.3456,23.2944 L18.4976,23.2944 L18.5984,23.344 L18.6496,23.496 L18.6496,24 M19.001598,23.5968 L19.6064,23.5968 L19.6064,23.496 L19.556799,23.395199 L19.505598,23.344 L19.404799,23.2944 L19.252798,23.2944 L19.153599,23.344 L19.051199,23.4464 L19.001598,23.5968 L19.001598,23.6976 L19.051199,23.8488 L19.153599,23.9496 L19.252798,24 L19.404799,24 L19.505598,23.9496 L19.6064,23.8488 M20.464,23.4464 L20.4128,23.344 L20.2624,23.2944 L20.1104,23.2944 L19.9584,23.344 L19.9088,23.4464 L19.9584,23.545599 L20.0608,23.5968 L20.312,23.647999 L20.4128,23.6976 L20.464,23.798399 L20.464,23.8488 L20.4128,23.9496 L20.2624,24 L20.1104,24 L19.9584,23.9496 L19.9088,23.8488 M21.548801,22.9408 L21.398401,22.992 L21.296001,23.142399 L21.2464,23.395199 L21.2464,23.545599 L21.296001,23.798399 L21.398401,23.9496 L21.548801,24 L21.649601,24 L21.801601,23.9496 L21.900799,23.798399 L21.952,23.545599 L21.952,23.395199 L21.900799,23.142399 L21.801601,22.992 L21.649601,22.9408 L21.548801,22.9408 M22.3552,22.9408 L22.9088,22.9408 L22.608,23.344 L22.7584,23.344 L22.859201,23.395199 L22.9088,23.4464 L22.960001,23.5968 L22.960001,23.6976 L22.9088,23.8488 L22.8096,23.9496 L22.6576,24 L22.5056,24 L22.3552,23.9496 L22.304,23.8992 L22.2544,23.798399 M23.5136,22.9408 L23.363201,22.992 L23.312,23.0928 L23.312,23.1936 L23.363201,23.2944 L23.464,23.344 L23.6656,23.395199 L23.8176,23.4464 L23.9168,23.545599 L23.968,23.647999 L23.968,23.798399 L23.9168,23.8992 L23.8672,23.9496 L23.7152,24 L23.5136,24 L23.363201,23.9496 L23.312,23.8992 L23.262402,23.798399 L23.262402,23.647999 L23.312,23.545599 L23.414402,23.4464 L23.5648,23.395199 L23.7664,23.344 L23.8672,23.2944 L23.9168,23.1936 L23.9168,23.0928 L23.8672,22.992 L23.7152,22.9408 L23.5136,22.9408 M24.800001,23.545599 L25.708801,23.545599 M26.792002,22.9408 L26.641602,22.992 L26.590399,23.0928 L26.590399,23.1936 L26.641602,23.2944 L26.742401,23.344 L26.944,23.395199 L27.095999,23.4464 L27.1952,23.545599 L27.246399,23.647999 L27.246399,23.798399 L27.1952,23.8992 L27.1456,23.9496 L26.9936,24 L26.792002,24 L26.641602,23.9496 L26.590399,23.8992 L26.540798,23.798399 L26.540798,23.647999 L26.590399,23.545599 L26.6928,23.4464 L26.8432,23.395199 L27.0448,23.344 L27.1456,23.2944 L27.1952,23.1936 L27.1952,23.0928 L27.1456,22.992 L26.9936,22.9408 L26.792002,22.9408" fill="none" stroke="black" stroke-width="0.4"/>
</svg>