<svg height="100mm" units="mm" viewBox="0 0 150 100" width="150mm" xmlns="http://www.w3.org/2000/svg">
<path d="M6.378,14.338 L6.126,15 M6.378,14.338 L6.63,15 M6.2200003,14.780001 L6.5360003,14.780001 M6.7869997,14.559 L6.7869997,15 M6.7869997,14.685 L6.882,14.589999 L6.9449997,14.559 L7.039,14.559 L7.1029997,14.589999 L7.134,14.685 L7.134,15 M7.417,14.338 L7.417,14.874001 L7.4490004,14.9685 L7.511,15 L7.575,15 M7.3230004,14.559 L7.543,14.559 M7.889,14.559 L7.8270006,14.589999 L7.7629995,14.653999 L7.732,14.747999 L7.732,14.811 L7.7629995,14.905499 L7.8270006,14.9685 L7.889,15 L7.984,15 L8.047,14.9685 L8.11,14.905499 L8.141001,14.811 L8.141001,14.747999 L8.11,14.653999 L8.047,14.589999 L7.984,14.559 L7.889,14.559 M8.361,14.559 L8.361,15 M8.361,14.685 L8.456,14.589999 L8.519,14.559 L8.613001,14.559 L8.677,14.589999 L8.708,14.685 L8.708,15 M8.959001,14.338 L8.959001,15 M8.959001,14.338 L9.211,15 M9.463,14.338 L9.211,15 M9.463,14.338 L9.463,15 M10.062,14.559 L10.062,15 M10.062,14.653999 L9.999001,14.589999 L9.936001,14.559 L9.841001,14.559 L9.779001,14.589999 L9.715,14.653999 L9.684,14.747999 L9.684,14.811 L9.715,14.905499 L9.779001,14.9685 L9.841001,15 L9.936001,15 L9.999001,14.9685 L10.062,14.905499 M10.313001,14.338 L10.313001,15 M10.629001,14.559 L10.313001,14.874001 M10.439001,14.747999 L10.660001,15 M10.818001,14.747999 L11.196001,14.747999 L11.196001,14.685 L11.165001,14.622 L11.133001,14.589999 L11.070002,14.559 L10.975,14.559 L10.913,14.589999 L10.849001,14.653999 L10.818001,14.747999 L10.818001,14.811 L10.849001,14.905499 L10.913,14.9685 L10.975,15 L11.070002,15 L11.133001,14.9685 L11.196001,14.905499 M11.732,14.653999 L11.700001,14.589999 L11.606001,14.559 L11.511001,14.559 L11.416,14.589999 L11.385,14.653999 L11.416,14.716001 L11.4800005,14.747999 L11.637001,14.780001 L11.700001,14.811 L11.732,14.874001 L11.732,14.905499 L11.700001,14.9685 L11.606001,15 L11.511001,15 L11.416,14.9685 L11.385,14.905499 M12.394001,14.496 L12.362001,14.433001 L12.299001,14.37 L12.236001,14.338 L12.110001,14.338 L12.047001,14.37 L11.984,14.433001 L11.952001,14.496 L11.9210005,14.589999 L11.9210005,14.747999 L11.952001,14.842 L11.984,14.905499 L12.047001,14.9685 L12.110001,15 L12.236001,15 L12.299001,14.9685 L12.362001,14.905499 L12.394001,14.842 L12.394001,14.747999 M12.236001,14.747999 L12.394001,14.747999 M12.961001,14.559 L12.961001,15 M12.961001,14.653999 L12.898001,14.589999 L12.835001,14.559 L12.740001,14.559 L12.678001,14.589999 L12.614,14.653999 L12.583001,14.747999 L12.583001,14.811 L12.614,14.905499 L12.678001,14.9685 L12.740001,15 L12.835001,15 L12.898001,14.9685 L12.961001,14.905499 M13.212001,14.559 L13.212001,15 M13.212001,14.685 L13.307001,14.589999 L13.370001,14.559 L13.464002,14.559 L13.528002,14.589999 L13.559001,14.685 L13.559001,15 M13.559001,14.685 L13.654001,14.589999 L13.7160015,14.559 L13.811002,14.559 L13.874002,14.589999 L13.906001,14.685 L13.906001,15 M14.126001,14.747999 L14.504001,14.747999 L14.504001,14.685 L14.4730015,14.622 L14.441,14.589999 L14.378001,14.559 L14.283002,14.559 L14.221001,14.589999 L14.157001,14.653999 L14.126001,14.747999 L14.126001,14.811 L14.157001,14.905499 L14.221001,14.9685 L14.283002,15 L14.378001,15 L14.441,14.9685 L14.504001,14.905499 M15.040001,14.653999 L15.008,14.589999 L14.914001,14.559 L14.819,14.559 L14.724001,14.589999 L14.693001,14.653999 L14.724001,14.716001 L14.788,14.747999 L14.945002,14.780001 L15.008,14.811 L15.040001,14.874001 L15.040001,14.905499 L15.008,14.9685 L14.914001,15 L14.819,15 L14.724001,14.9685 L14.693001,14.905499 M15.718,14.338 L15.624001,14.37 L15.56,14.464 L15.529001,14.622 L15.529001,14.716001 L15.56,14.874001 L15.624001,14.9685 L15.718,15 L15.781001,15 L15.876001,14.9685 L15.938001,14.874001 L15.970001,14.716001 L15.970001,14.622 L15.938001,14.464 L15.876001,14.37 L15.781001,14.338 L15.718,14.338 M16.222002,14.338 L16.568,14.338 L16.380001,14.589999 L16.474,14.589999 L16.537,14.622 L16.568,14.653999 L16.600002,14.747999 L16.600002,14.811 L16.568,14.905499 L16.506,14.9685 L16.411001,15 L16.316002,15 L16.222002,14.9685 L16.19,14.936999 L16.159,14.874001 M17.167002,14.338 L16.852001,14.338 L16.820002,14.622 L16.852001,14.589999 L16.946003,14.559 L17.041002,14.559 L17.136002,14.589999 L17.198002,14.653999 L17.230001,14.747999 L17.230001,14.811 L17.198002,14.905499 L17.136002,14.9685 L17.041002,15 L16.946003,15 L16.852001,14.9685 L16.820002,14.936999 L16.789001,14.874001 M17.750002,14.716001 L18.318003,14.716001 M19.216002,14.338 L18.901003,14.338 L18.869001,14.622 L18.901003,14.589999 L18.995003,14.559 L19.090002,14.559 L19.185001,14.589999 L19.247002,14.653999 L19.279003,14.747999 L19.279003,14.811 L19.247002,14.905499 L19.185001,14.9685 L19.090002,15 L18.995003,15 L18.901003,14.9685 L18.869001,14.936999 L18.838001,14.874001 M6.4536004,17.2056 L6.1512003,18 M6.4536004,17.2056 L6.7559996,18 M6.264,17.736 L6.6432,17.736 M6.9444,17.470798 L6.9444,18 M6.9444,17.622 L7.0584,17.508 L7.1340003,17.470798 L7.2468004,17.470798 L7.3236,17.508 L7.3608003,17.622 L7.3608003,18 M7.7004004,17.2056 L7.7004004,17.8488 L7.7388,17.9622 L7.8132005,18 L7.8900003,18 M7.5876007,17.470798 L7.8516006,17.470798 M8.266801,17.470798 L8.1924,17.508 L8.115601,17.5848 L8.078401,17.6976 L8.078401,17.7732 L8.115601,17.8866 L8.1924,17.9622 L8.266801,18 L8.3808,18 L8.456401,17.9622 L8.532001,17.8866 L8.5692005,17.7732 L8.5692005,17.6976 L8.532001,17.5848 L8.456401,17.508 L8.3808,17.470798 L8.266801,17.470798 M8.8332,17.470798 L8.8332,18 M8.8332,17.622 L8.947201,17.508 L9.022801,17.470798 L9.135601,17.470798 L9.2124,17.508 L9.249601,17.622 L9.249601,18 M9.550801,17.2056 L9.550801,18 M9.550801,17.2056 L9.853201,18 M10.1556015,17.2056 L9.853201,18 M10.1556015,17.2056 L10.1556015,18 M10.874401,17.470798 L10.874401,18 M10.874401,17.5848 L10.7988,17.508 L10.723201,17.470798 L10.609201,17.470798 L10.534801,17.508 L10.458001,17.5848 L10.420801,17.6976 L10.420801,17.7732 L10.458001,17.8866 L10.534801,17.9622 L10.609201,18 L10.723201,18 L10.7988,17.9622 L10.874401,17.8866 M11.175601,17.2056 L11.175601,18 M11.554801,17.470798 L11.175601,17.8488 M11.326801,17.6976 L11.592001,18 M11.781601,17.6976 L12.235201,17.6976 L12.235201,17.622 L12.198001,17.5464 L12.159601,17.508 L12.084002,17.470798 L11.970001,17.470798 L11.895601,17.508 L11.818801,17.5848 L11.781601,17.6976 L11.781601,17.7732 L11.818801,17.8866 L11.895601,17.9622 L11.970001,18 L12.084002,18 L12.159601,17.9622 L12.235201,17.8866 M12.878401,17.5848 L12.840001,17.508 L12.727201,17.470798 L12.613201,17.470798 L12.499201,17.508 L12.462001,17.5848 L12.499201,17.659199 L12.576001,17.6976 L12.764401,17.736 L12.840001,17.7732 L12.878401,17.8488 L12.878401,17.8866 L12.840001,17.9622 L12.727201,18 L12.613201,18 L12.499201,17.9622 L12.462001,17.8866 M13.672801,17.395199 L13.634401,17.3196 L13.558802,17.244 L13.483202,17.2056 L13.332001,17.2056 L13.256401,17.244 L13.180801,17.3196 L13.142401,17.395199 L13.105202,17.508 L13.105202,17.6976 L13.142401,17.8104 L13.180801,17.8866 L13.256401,17.9622 L13.332001,18 L13.483202,18 L13.558802,17.9622 L13.634401,17.8866 L13.672801,17.8104 L13.672801,17.6976 M13.483202,17.6976 L13.672801,17.6976 M14.353201,17.470798 L14.353201,18 M14.353201,17.5848 L14.277601,17.508 L14.202002,17.470798 L14.088,17.470798 L14.013601,17.508 L13.936801,17.5848 L13.899602,17.6976 L13.899602,17.7732 L13.936801,17.8866 L14.013601,17.9622 L14.088,18 L14.202002,18 L14.277601,17.9622 L14.353201,17.8866 M14.654401,17.470798 L14.654401,18 M14.654401,17.622 L14.7684,17.508 L14.844,17.470798 L14.9568,17.470798 L15.033602,17.508 L15.070801,17.622 L15.070801,18 M15.070801,17.622 L15.184801,17.508 L15.259201,17.470798 L15.373201,17.470798 L15.448801,17.508 L15.487201,17.622 L15.487201,18 M15.751201,17.6976 L16.2048,17.6976 L16.2048,17.622 L16.1676,17.5464 L16.1292,17.508 L16.0536,17.470798 L15.9396,17.470798 L15.865201,17.508 L15.788401,17.5848 L15.751201,17.6976 L15.751201,17.7732 L15.788401,17.8866 L15.865201,17.9622 L15.9396,18 L16.0536,18 L16.1292,17.9622 L16.2048,17.8866 M16.848001,17.5848 L16.8096,17.508 L16.6968,17.470798 L16.5828,17.470798 L16.4688,17.508 L16.4316,17.5848 L16.4688,17.659199 L16.5456,17.6976 L16.734001,17.736 L16.8096,17.7732 L16.848001,17.8488 L16.848001,17.8866 L16.8096,17.9622 L16.6968,18 L16.5828,18 L16.4688,17.9622 L16.4316,17.8866 M17.661602,17.2056 L17.548801,17.244 L17.472002,17.3568 L17.434803,17.5464 L17.434803,17.659199 L17.472002,17.8488 L17.548801,17.9622 L17.661602,18 L17.737202,18 L17.851202,17.9622 L17.925602,17.8488 L17.964,17.659199 L17.964,17.5464 L17.925602,17.3568 L17.851202,17.244 L17.737202,17.2056 L17.661602,17.2056 M18.266401,17.2056 L18.6816,17.2056 L18.456001,17.508 L18.568802,17.508 L18.644402,17.5464 L18.6816,17.5848 L18.720001,17.6976 L18.720001,17.7732 L18.6816,17.8866 L18.607203,17.9622 L18.493202,18 L18.3792,18 L18.266401,17.9622 L18.228,17.9244 L18.190802,17.8488 M19.400402,17.2056 L19.022402,17.2056 L18.984001,17.5464 L19.022402,17.508 L19.1352,17.470798 L19.249203,17.470798 L19.363201,17.508 L19.437601,17.5848 L19.476002,17.6976 L19.476002,17.7732 L19.437601,17.8866 L19.363201,17.9622 L19.249203,18 L19.1352,18 L19.022402,17.9622 L18.984001,17.9244 L18.946802,17.8488 M20.100002,17.659199 L20.7816,17.659199 M21.896402,17.3196 L21.859203,17.244 L21.745203,17.2056 L21.670803,17.2056 L21.556803,17.244 L21.481203,17.3568 L21.442802,17.5464 L21.442802,17.736 L21.481203,17.8866 L21.556803,17.9622 L21.670803,18 L21.708004,18 L21.822002,17.9622 L21.896402,17.8866 L21.934803,17.7732 L21.934803,17.736 L21.896402,17.622 L21.822002,17.5464 L21.708004,17.508 L21.670803,17.508 L21.556803,17.5464 L21.481203,17.622 L21.442802,17.736 M6.5292,20.0732 L6.1764,21 M6.5292,20.0732 L6.882,21 M6.308,20.692 L6.7503996,20.692 M7.1018004,20.3826 L7.1018004,21 M7.1018004,20.559 L7.234801,20.425999 L7.3230004,20.3826 L7.4546003,20.3826 L7.5442,20.425999 L7.5876007,20.559 L7.5876007,21 M7.9838004,20.0732 L7.9838004,20.823599 L8.028601,20.9559 L8.1154,21 L8.205,21 M7.8522005,20.3826 L8.1602,20.3826 M8.644601,20.3826 L8.5578,20.425999 L8.468201,20.5156 L8.4248,20.6472 L8.4248,20.735401 L8.468201,20.8677 L8.5578,20.9559 L8.644601,21 L8.777601,21 L8.865801,20.9559 L8.954,20.8677 L8.9974,20.735401 L8.9974,20.6472 L8.954,20.5156 L8.865801,20.425999 L8.777601,20.3826 L8.644601,20.3826 M9.305401,20.3826 L9.305401,21 M9.305401,20.559 L9.4384,20.425999 L9.526601,20.3826 L9.658201,20.3826 L9.747801,20.425999 L9.791201,20.559 L9.791201,21 M10.142601,20.0732 L10.142601,21 M10.142601,20.0732 L10.495401,21 M10.848201,20.0732 L10.495401,21 M10.848201,20.0732 L10.848201,21 M11.686801,20.3826 L11.686801,21 M11.686801,20.5156 L11.5986,20.425999 L11.510401,20.3826 L11.377401,20.3826 L11.290601,20.425999 L11.201001,20.5156 L11.1576,20.6472 L11.1576,20.735401 L11.201001,20.8677 L11.290601,20.9559 L11.377401,21 L11.510401,21 L11.5986,20.9559 L11.686801,20.8677 M12.038201,20.0732 L12.038201,21 M12.4806,20.3826 L12.038201,20.823599 M12.2146015,20.6472 L12.524,21 M12.745201,20.6472 L13.274401,20.6472 L13.274401,20.559 L13.231001,20.4708 L13.186201,20.425999 L13.0980015,20.3826 L12.965001,20.3826 L12.8782015,20.425999 L12.788601,20.5156 L12.745201,20.6472 L12.745201,20.735401 L12.788601,20.8677 L12.8782015,20.9559 L12.965001,21 L13.0980015,21 L13.186201,20.9559 L13.274401,20.8677 M14.0248,20.5156 L13.9800005,20.425999 L13.848401,20.3826 L13.715401,20.3826 L13.5824,20.425999 L13.539,20.5156 L13.5824,20.6024 L13.672,20.6472 L13.8918,20.692 L13.9800005,20.735401 L14.0248,20.823599 L14.0248,20.8677 L13.9800005,20.9559 L13.848401,21 L13.715401,21 L13.5824,20.9559 L13.539,20.8677 M14.951601,20.2944 L14.906799,20.2062 L14.818601,20.118 L14.7304,20.0732 L14.554001,20.0732 L14.4658,20.118 L14.3776,20.2062 L14.3328,20.2944 L14.2894,20.425999 L14.2894,20.6472 L14.3328,20.7788 L14.3776,20.8677 L14.4658,20.9559 L14.554001,21 L14.7304,21 L14.818601,20.9559 L14.906799,20.8677 L14.951601,20.7788 L14.951601,20.6472 M14.7304,20.6472 L14.951601,20.6472 M15.745401,20.3826 L15.745401,21 M15.745401,20.5156 L15.657201,20.425999 L15.569,20.3826 L15.436,20.3826 L15.3492,20.425999 L15.259601,20.5156 L15.2162,20.6472 L15.2162,20.735401 L15.259601,20.8677 L15.3492,20.9559 L15.436,21 L15.569,21 L15.657201,20.9559 L15.745401,20.8677 M16.0968,20.3826 L16.0968,21 M16.0968,20.559 L16.229801,20.425999 L16.317999,20.3826 L16.4496,20.3826 L16.5392,20.425999 L16.5826,20.559 L16.5826,21 M16.5826,20.559 L16.715601,20.425999 L16.8024,20.3826 L16.9354,20.3826 L17.023602,20.425999 L17.068401,20.559 L17.068401,21 M17.3764,20.6472 L17.9056,20.6472 L17.9056,20.559 L17.8622,20.4708 L17.8174,20.425999 L17.729198,20.3826 L17.596199,20.3826 L17.5094,20.425999 L17.4198,20.5156 L17.3764,20.6472 L17.3764,20.735401 L17.4198,20.8677 L17.5094,20.9559 L17.596199,21 L17.729198,21 L17.8174,20.9559 L17.9056,20.8677 M18.656,20.5156 L18.6112,20.425999 L18.4796,20.3826 L18.3466,20.3826 L18.2136,20.425999 L18.1702,20.5156 L18.2136,20.6024 L18.3032,20.6472 L18.522999,20.692 L18.6112,20.735401 L18.656,20.823599 L18.656,20.8677 L18.6112,20.9559 L18.4796,21 L18.3466,21 L18.2136,20.9559 L18.1702,20.8677 M19.6052,20.0732 L19.473598,20.118 L19.383999,20.2496 L19.3406,20.4708 L19.3406,20.6024 L19.383999,20.823599 L19.473598,20.9559 L19.6052,21 L19.6934,21 L19.826399,20.9559 L19.913198,20.823599 L19.957998,20.6024 L19.957998,20.4708 L19.913198,20.2496 L19.826399,20.118 L19.6934,20.0732 L19.6052,20.0732 M20.310799,20.0732 L20.795198,20.0732 L20.532,20.425999 L20.663599,20.425999 L20.751799,20.4708 L20.795198,20.5156 L20.84,20.6472 L20.84,20.735401 L20.795198,20.8677 L20.708399,20.9559 L20.575397,21 L20.442398,21 L20.310799,20.9559 L20.265999,20.9118 L20.222599,20.823599 M21.6338,20.0732 L21.192799,20.0732 L21.147999,20.4708 L21.192799,20.425999 L21.324398,20.3826 L21.4574,20.3826 L21.590399,20.425999 L21.677198,20.5156 L21.722,20.6472 L21.722,20.735401 L21.677198,20.8677 L21.590399,20.9559 L21.4574,21 L21.324398,21 L21.192799,20.9559 L21.147999,20.9118 L21.104599,20.823599 M22.45,20.6024 L23.2452,20.6024 M24.590601,20.0732 L24.149601,21 M23.9732,20.0732 L24.590601,20.0732 M6.6047997,22.9408 L6.2016,24 M6.6047997,22.9408 L7.0080004,24 M6.352,23.647999 L6.8576,23.647999 M7.2591996,23.2944 L7.2591996,24 M7.2591996,23.496 L7.4112,23.344 L7.5119996,23.2944 L7.6624002,23.2944 L7.7647996,23.344 L7.8143997,23.496 L7.8143997,24 M8.2671995,22.9408 L8.2671995,23.798399 L8.318399,23.9496 L8.417601,24 L8.5199995,24 M8.1168,23.2944 L8.4688,23.2944 M9.0224,23.2944 L8.9232,23.344 L8.820799,23.4464 L8.7712,23.5968 L8.7712,23.6976 L8.820799,23.8488 L8.9232,23.9496 L9.0224,24 L9.174399,24 L9.2752,23.9496 L9.375999,23.8488 L9.4256,23.6976 L9.4256,23.5968 L9.375999,23.4464 L9.2752,23.344 L9.174399,23.2944 L9.0224,23.2944 M9.777599,23.2944 L9.777599,24 M9.777599,23.496 L9.9296,23.344 L10.030399,23.2944 L10.1807995,23.2944 L10.2832,23.344 L10.3328,23.496 L10.3328,24 M10.7344,22.9408 L10.7344,24 M10.7344,22.9408 L11.1376,24 M11.5408,22.9408 L11.1376,24 M11.5408,22.9408 L11.5408,24 M12.4992,23.2944 L12.4992,24 M12.4992,23.4464 L12.3984,23.344 L12.2976,23.2944 L12.1456,23.2944 L12.0464,23.344 L11.943999,23.4464 L11.8944,23.5968 L11.8944,23.6976 L11.943999,23.8488 L12.0464,23.9496 L12.1456,24 L12.2976,24 L12.3984,23.9496 L12.4992,23.8488 M12.9008,22.9408 L12.9008,24 M13.4064,23.2944 L12.9008,23.798399 M13.1024,23.5968 L13.455999,24 M13.708799,23.5968 L14.313601,23.5968 L14.313601,23.496 L14.264,23.395199 L14.212799,23.344 L14.1119995,23.2944 L13.959999,23.2944 L13.8608,23.344 L13.7584,23.4464 L13.708799,23.5968 L13.708799,23.6976 L13.7584,23.8488 L13.8608,23.9496 L13.959999,24 L14.1119995,24 L14.212799,23.9496 L14.313601,23.8488 M15.171201,23.4464 L15.12,23.344 L14.9696,23.2944 L14.817599,23.2944 L14.665601,23.344 L14.616,23.4464 L14.665601,23.545599 L14.768001,23.5968 L15.0192,23.647999 L15.12,23.6976 L15.171201,23.798399 L15.171201,23.8488 L15.12,23.9496 L14.9696,24 L14.817599,24 L14.665601,23.9496 L14.616,23.8488 M16.2304,23.1936 L16.179201,23.0928 L16.078402,22.992 L15.9776,22.9408 L15.776001,22.9408 L15.6751995,22.992 L15.5744,23.0928 L15.523201,23.1936 L15.4736,23.344 L15.4736,23.5968 L15.523201,23.7472 L15.5744,23.8488 L15.6751995,23.9496 L15.776001,24 L15.9776,24 L16.078402,23.9496 L16.179201,23.8488 L16.2304,23.7472 L16.2304,23.5968 M15.9776,23.5968 L16.2304,23.5968 M17.1376,23.2944 L17.1376,24 M17.1376,23.4464 L17.0368,23.344 L16.936,23.2944 L16.784,23.2944 L16.684801,23.344 L16.582401,23.4464 L16.5328,23.5968 L16.5328,23.6976 L16.582401,23.8488 L16.684801,23.9496 L16.784,24 L16.936,24 L17.0368,23.9496 L17.1376,23.8488 M17.5392,23.2944 L17.5392,24 M17.5392,23.496 L17.691198,23.344 L17.792,23.2944 L17.9424,23.2944 L18.0448,23.344 L18.0944,23.496 L18.0944,24 M18.0944,23.496 L18.246399,23.344 L18.3456,23.2944 L18.4976,23.2944 L18.5984,23.344 L18.6496,23.496 L18.6496,24 M19.001598,23.5968 L19.6064,23.5968 L19.6064,23.496 L19.556799,23.395199 L19.505598,23.344 L19.404799,23.2944 L19.252798,23.2944 L19.153599,23.344 L19.051199,23.4464 L19.001598,23.5968 L19.001598,23.6976 L19.051199,23.8488 L19.153599,23.9496 L19.252798,24 L19.404799,24 L19.505598,23.9496 L19.6064,23.8488 M20.464,23.4464 L20.4128,23.344 L20.2624,23.2944 L20.1104,23.2944 L19.9584,23.344 L19.9088,23.4464 L19.9584,23.545599 L20.0608,23.5968 L20.312,23.647999 L20.4128,23.6976 L20.464,23.798399 L20.464,23.8488 L20.4128,23.9496 L20.2624,24 L20.1104,24 L19.9584,23.9496 L19.9088,23.8488 M21.548801,22.9408 L21.398401,22.992 L21.296001,23.142399 L21.2464,23.395199 L21.2464,23.545599 L21.296001,23.798399 L21.398401,23.9496 L21.548801,24 L21.649601,24 L21.801601,23.9496 L21.900799,23.798399 L21.952,23.545599 L21.952,23.395199 L21.900799,23.142399 L21.801601,22.992 L21.649601,22.9408 L21.548801,22.9408 M22.3552,22.9408 L22.9088,22.9408 L22.608,23.344 L22.7584,23.344 L22.859201,23.395199 L22.9088,23.4464 L22.960001,23.5968 L22.960001,23.6976 L22.9088,23.8488 L22.8096,23.9496 L22.6576,24 L22.5056,24 L22.3552,23.9496 L22.304,23.8992 L22.2544,23.798399 M23.8672,22.9408 L23.363201,22.9408 L23.312,23.395199 L23.363201,23.344 L23.5136,23.2944 L23.6656,23.2944 L23.8176,23.344 L23.9168,23.4464 L23.968,23.5968 L23.968,23.6976 L23.9168,23.8488 L23.8176,23.9496 L23.6656,24 L23.5136,24 L23.363201,23.9496 L23.312,23.8992 L23.262402,23.798399 M24.800001,23.545599 L25.708801,23.545599 M26.792002,22.9408 L26.641602,22.992 L26.590399,23.0928 L26.590399,23.1936 L26.641602,23.2944 L26.742401,23.344 L26.944,23.395199 L27.095999,23.4464 L27.1952,23.545599 L27.246399,23.647999 L27.246399,23.798399 L27.1952,23.8992 L27.1456,23.9496 L26.9936,24 L26.792002,24 L26.641602,23.9496 L26.590399,23.8992 L26.540798,23.798399 L26.540798,23.647999 L26.590399,23.545599 L26.6928,23.4464 L26.8432,23.395199 L27.0448,23.344 L27.1456,23.2944 L27.1952,23.1936 L27.1952,23.0928 L27.1456,22.992 L26.9936,22.9408 L26.792002,22.9408 M6.6804,25.8084 L6.2268,27 M6.6804,25.8084 L7.134,27 M6.396,26.604 L6.9648004,26.604 M7.4166,26.206202 L7.4166,27 M7.4166,26.432999 L7.5875998,26.262 L7.701,26.206202 L7.8702,26.206202 L7.9854,26.262 L8.041201,26.432999 L8.041201,27 M8.5506,25.8084 L8.5506,26.7732 L8.6082,26.943302 L8.7198,27 L8.835,27 M8.3814,26.206202 L8.7774,26.206202 M9.4002,26.206202 L9.2886,26.262 L9.1734,26.377201 L9.1176,26.546398 L9.1176,26.6598 L9.1734,26.8299 L9.2886,26.943302 L9.4002,27 L9.5712,27 L9.6846,26.943302 L9.798,26.8299 L9.8538,26.6598 L9.8538,26.546398 L9.798,26.377201 L9.6846,26.262 L9.5712,26.206202 L9.4002,26.206202 M10.2498,26.206202 L10.2498,27 M10.2498,26.432999 L10.4208,26.262 L10.534201,26.206202 L10.703401,26.206202 L10.818601,26.262 L10.8744,26.432999 L10.8744,27 M11.3262005,25.8084 L11.3262005,27 M11.3262005,25.8084 L11.7798,27 M12.2334,25.8084 L11.7798,27 M12.2334,25.8084 L12.2334,27 M13.3116,26.206202 L13.3116,27 M13.3116,26.377201 L13.198201,26.262 L13.084801,26.206202 L12.9138,26.206202 L12.8022,26.262 L12.687,26.377201 L12.631201,26.546398 L12.631201,26.6598 L12.687,26.8299 L12.8022,26.943302 L12.9138,27 L13.084801,27 L13.198201,26.943302 L13.3116,26.8299 M13.763402,25.8084 L13.763402,27 M14.332201,26.206202 L13.763402,26.7732 M13.990201,26.546398 L14.3880005,27 M14.6723995,26.546398 L15.3528,26.546398 L15.3528,26.432999 L15.297,26.319601 L15.239401,26.262 L15.126001,26.206202 L14.955,26.206202 L14.843401,26.262 L14.728201,26.377201 L14.6723995,26.546398 L14.6723995,26.6598 L14.728201,26.8299 L14.843401,26.943302 L14.955,27 L15.126001,27 L15.239401,26.943302 L15.3528,26.8299 M16.3176,26.377201 L16.26,26.262 L16.090801,26.206202 L15.9198,26.206202 L15.7488,26.262 L15.692999,26.377201 L15.7488,26.4888 L15.864,26.546398 L16.1466,26.604 L16.26,26.6598 L16.3176,26.7732 L16.3176,26.8299 L16.26,26.943302 L16.090801,27 L15.9198,27 L15.7488,26.943302 L15.692999,26.8299 M17.5092,26.0928 L17.4516,25.9794 L17.3382,25.866001 L17.2248,25.8084 L16.998,25.8084 L16.8846,25.866001 L16.771198,25.9794 L16.7136,26.0928 L16.657799,26.262 L16.657799,26.546398 L16.7136,26.715601 L16.771198,26.8299 L16.8846,26.943302 L16.998,27 L17.2248,27 L17.3382,26.943302 L17.4516,26.8299 L17.5092,26.715601 L17.5092,26.546398 M17.2248,26.546398 L17.5092,26.546398 M18.529799,26.206202 L18.529799,27 M18.529799,26.377201 L18.4164,26.262 L18.303,26.206202 L18.132,26.206202 L18.0204,26.262 L17.905201,26.377201 L17.8494,26.546398 L17.8494,26.6598 L17.905201,26.8299 L18.0204,26.943302 L18.132,27 L18.303,27 L18.4164,26.943302 L18.529799,26.8299 M18.9816,26.206202 L18.9816,27 M18.9816,26.432999 L19.1526,26.262 L19.265999,26.206202 L19.4352,26.206202 L19.550398,26.262 L19.606197,26.432999 L19.606197,27 M19.606197,26.432999 L19.777199,26.262 L19.888798,26.206202 L20.0598,26.206202 L20.173199,26.262 L20.230799,26.432999 L20.230799,27 M20.626797,26.546398 L21.307198,26.546398 L21.307198,26.432999 L21.251398,26.319601 L21.193798,26.262 L21.080399,26.206202 L20.909397,26.206202 L20.797798,26.262 L20.682598,26.377201 L20.626797,26.546398 L20.626797,26.6598 L20.682598,26.8299 L20.797798,26.943302 L20.909397,27 L21.080399,27 L21.193798,26.943302 L21.307198,26.8299 M22.271997,26.377201 L22.214397,26.262 L22.045198,26.206202 L21.874197,26.206202 L21.703197,26.262 L21.647396,26.377201 L21.703197,26.4888 L21.818398,26.546398 L22.100998,26.604 L22.214397,26.6598 L22.271997,26.7732 L22.271997,26.8299 L22.214397,26.943302 L22.045198,27 L21.874197,27 L21.703197,26.943302 L21.647396,26.8299 M23.492397,25.8084 L23.323196,25.866001 L23.207996,26.035198 L23.152195,26.319601 L23.152195,26.4888 L23.207996,26.7732 L23.323196,26.943302 L23.492397,27 L23.605797,27 L23.776796,26.943302 L23.888397,26.7732 L23.945995,26.4888 L23.945995,26.319601 L23.888397,26.035198 L23.776796,25.866001 L23.605797,25.8084 L23.492397,25.8084 M24.399595,25.8084 L25.022396,25.8084 L24.683996,26.262 L24.853197,26.262 L24.966595,26.319601 L25.022396,26.377201 L25.079996,26.546398 L25.079996,26.6598 L25.022396,26.8299 L24.910795,26.943302 L24.739796,27 L24.568796,27 L24.399595,26.943302 L24.341997,26.8866 L24.286196,26.7732 M26.100595,25.8084 L25.533596,25.8084 L25.475996,26.319601 L25.533596,26.262 L25.702795,26.206202 L25.873795,26.206202 L26.044796,26.262 L26.156397,26.377201 L26.213995,26.546398 L26.213995,26.6598 L26.156397,26.8299 L26.044796,26.943302 L25.873795,27 L25.702795,27 L25.533596,26.943302 L25.475996,26.8866 L25.420195,26.7732 M27.149994,26.4888 L28.172394,26.4888 M29.844595,26.206202 L29.788794,26.377201 L29.675394,26.4888 L29.506195,26.546398 L29.448593,26.546398 L29.279394,26.4888 L29.164194,26.377201 L29.108395,26.206202 L29.108395,26.1504 L29.164194,25.9794 L29.279394,25.866001 L29.448593,25.8084 L29.506195,25.8084 L29.675394,25.866001 L29.788794,25.9794 L29.844595,26.206202 L29.844595,26.4888 L29.788794,26.7732 L29.675394,26.943302 L29.506195,27 L29.390995,27 L29.221796,26.943302 L29.164194,26.8299 M6.7559996,28.676 L6.252,30 M6.7559996,28.676 L7.2599998,30 M6.44,29.560001 L7.072,29.560001 M7.574,29.118 L7.574,30 M7.574,29.37 L7.764,29.179998 L7.8899994,29.118 L8.078,29.118 L8.205999,29.179998 L8.268,29.37 L8.268,30 M8.834,28.676 L8.834,29.748001 L8.898,29.937 L9.021999,30 L9.15,30 M8.646,29.118 L9.0859995,29.118 M9.777999,29.118 L9.653999,29.179998 L9.525999,29.307999 L9.463999,29.495998 L9.463999,29.622 L9.525999,29.810999 L9.653999,29.937 L9.777999,30 L9.967999,30 L10.094,29.937 L10.219999,29.810999 L10.282,29.622 L10.282,29.495998 L10.219999,29.307999 L10.094,29.179998 L9.967999,29.118 L9.777999,29.118 M10.721999,29.118 L10.721999,30 M10.721999,29.37 L10.912,29.179998 L11.037999,29.118 L11.226,29.118 L11.353999,29.179998 L11.415998,29.37 L11.415998,30 M11.917999,28.676 L11.917999,30 M11.917999,28.676 L12.421999,30 M12.926,28.676 L12.421999,30 M12.926,28.676 L12.926,30 M14.123999,29.118 L14.123999,30 M14.123999,29.307999 L13.997999,29.179998 L13.872,29.118 L13.681999,29.118 L13.557999,29.179998 L13.429998,29.307999 L13.367999,29.495998 L13.367999,29.622 L13.429998,29.810999 L13.557999,29.937 L13.681999,30 L13.872,30 L13.997999,29.937 L14.123999,29.810999 M14.625999,28.676 L14.625999,30 M15.258,29.118 L14.625999,29.748001 M14.878,29.495998 L15.32,30 M15.636,29.495998 L16.392,29.495998 L16.392,29.37 L16.33,29.244 L16.266,29.179998 L16.140001,29.118 L15.95,29.118 L15.826001,29.179998 L15.698,29.307999 L15.636,29.495998 L15.636,29.622 L15.698,29.810999 L15.826001,29.937 L15.95,30 L16.140001,30 L16.266,29.937 L16.392,29.810999 M17.464,29.307999 L17.4,29.179998 L17.212,29.118 L17.022,29.118 L16.831999,29.179998 L16.77,29.307999 L16.831999,29.432001 L16.960001,29.495998 L17.274,29.560001 L17.4,29.622 L17.464,29.748001 L17.464,29.810999 L17.4,29.937 L17.212,30 L17.022,30 L16.831999,29.937 L16.77,29.810999 M18.788,28.992 L18.724,28.866001 L18.598,28.74 L18.472,28.676 L18.22,28.676 L18.094,28.74 L17.967999,28.866001 L17.904,28.992 L17.842,29.179998 L17.842,29.495998 L17.904,29.684 L17.967999,29.810999 L18.094,29.937 L18.22,30 L18.472,30 L18.598,29.937 L18.724,29.810999 L18.788,29.684 L18.788,29.495998 M18.472,29.495998 L18.788,29.495998 M19.922,29.118 L19.922,30 M19.922,29.307999 L19.796001,29.179998 L19.670002,29.118 L19.48,29.118 L19.355999,29.179998 L19.228,29.307999 L19.166,29.495998 L19.166,29.622 L19.228,29.810999 L19.355999,29.937 L19.48,30 L19.670002,30 L19.796001,29.937 L19.922,29.810999 M20.424,29.118 L20.424,30 M20.424,29.37 L20.614002,29.179998 L20.740002,29.118 L20.928001,29.118 L21.056002,29.179998 L21.118,29.37 L21.118,30 M21.118,29.37 L21.308002,29.179998 L21.432001,29.118 L21.622002,29.118 L21.748001,29.179998 L21.812,29.37 L21.812,30 M22.252,29.495998 L23.008,29.495998 L23.008,29.37 L22.946001,29.244 L22.882,29.179998 L22.756,29.118 L22.566,29.118 L22.442001,29.179998 L22.314,29.307999 L22.252,29.495998 L22.252,29.622 L22.314,29.810999 L22.442001,29.937 L22.566,30 L22.756,30 L22.882,29.937 L23.008,29.810999 M24.08,29.307999 L24.016,29.179998 L23.828,29.118 L23.638,29.118 L23.448,29.179998 L23.386,29.307999 L23.448,29.432001 L23.576,29.495998 L23.890001,29.560001 L24.016,29.622 L24.08,29.748001 L24.08,29.810999 L24.016,29.937 L23.828,30 L23.638,30 L23.448,29.937 L23.386,29.810999 M25.436,28.676 L25.248001,28.74 L25.119999,28.928 L25.058,29.244 L25.058,29.432001 L25.119999,29.748001 L25.248001,29.937 L25.436,30 L25.562,30 L25.751999,29.937 L25.876001,29.748001 L25.939999,29.432001 L25.939999,29.244 L25.876001,28.928 L25.751999,28.74 L25.562,28.676 L25.436,28.676 M26.444,28.676 L27.135998,28.676 L26.76,29.179998 L26.947998,29.179998 L27.074,29.244 L27.135998,29.307999 L27.2,29.495998 L27.2,29.622 L27.135998,29.810999 L27.012,29.937 L26.822,30 L26.632,30 L26.444,29.937 L26.38,29.873999 L26.317999,29.748001 M28.334,28.676 L27.704,28.676 L27.64,29.244 L27.704,29.179998 L27.892002,29.118 L28.082,29.118 L28.272,29.179998 L28.396,29.307999 L28.460001,29.495998 L28.460001,29.622 L28.396,29.810999 L28.272,29.937 L28.082,30 L27.892002,30 L27.704,29.937 L27.64,29.873999 L27.578,29.748001 M29.5,29.432001 L30.636002,29.432001 M31.866001,28.928 L31.990002,28.866001 L32.18,28.676 L32.18,30 M33.314003,28.676 L33.126,28.74 L32.998,28.928 L32.936,29.244 L32.936,29.432001 L32.998,29.748001 L33.126,29.937 L33.314003,30 L33.440002,30 L33.63,29.937 L33.754,29.748001 L33.818,29.432001 L33.818,29.244 L33.754,28.928 L33.63,28.74 L33.440002,28.676 L33.314003,28.676 M6.8316,31.5436 L6.2771997,33 M6.8316,31.5436 L7.386,33 M6.4839997,32.516 L7.1792,32.516 M7.7313995,32.0298 L7.7313995,33 M7.7313995,32.307 L7.9404,32.098 L8.079,32.0298 L8.2858,32.0298 L8.4265995,32.098 L8.4948,32.307 L8.4948,33 M9.117399,31.5436 L9.117399,32.7228 L9.187799,32.930702 L9.3242,33 L9.464999,33 M8.9106,32.0298 L9.3946,32.0298 M10.1558,32.0298 L10.0194,32.098 L9.878599,32.2388 L9.8104,32.4456 L9.8104,32.5842 L9.878599,32.7921 L10.0194,32.930702 L10.1558,33 L10.3648,33 L10.5034,32.930702 L10.642,32.7921 L10.710199,32.5842 L10.710199,32.4456 L10.642,32.2388 L10.5034,32.098 L10.3648,32.0298 L10.1558,32.0298 M11.1942005,32.0298 L11.1942005,33 M11.1942005,32.307 L11.4032,32.098 L11.5418,32.0298 L11.7486,32.0298 L11.8894,32.098 L11.9576,32.307 L11.9576,33 M12.509799,31.5436 L12.509799,33 M12.509799,31.5436 L13.064199,33 M13.618599,31.5436 L13.064199,33 M13.618599,31.5436 L13.618599,33 M14.936399,32.0298 L14.936399,33 M14.936399,32.2388 L14.7978,32.098 L14.6592,32.0298 L14.4502,32.0298 L14.3138,32.098 L14.172999,32.2388 L14.1048,32.4456 L14.1048,32.5842 L14.172999,32.7921 L14.3138,32.930702 L14.4502,33 L14.6592,33 L14.7978,32.930702 L14.936399,32.7921 M15.4886,31.5436 L15.4886,33 M16.183802,32.0298 L15.4886,32.7228 M15.7658,32.4456 L16.252,33 M16.599602,32.4456 L17.431202,32.4456 L17.431202,32.307 L17.363,32.1684 L17.2926,32.098 L17.154001,32.0298 L16.945002,32.0298 L16.808601,32.098 L16.6678,32.2388 L16.599602,32.4456 L16.599602,32.5842 L16.6678,32.7921 L16.808601,32.930702 L16.945002,33 L17.154001,33 L17.2926,32.930702 L17.431202,32.7921 M18.610401,32.2388 L18.54,32.098 L18.333202,32.0298 L18.1242,32.0298 L17.915201,32.098 L17.847002,32.2388 L17.915201,32.375202 L18.056002,32.4456 L18.401402,32.516 L18.54,32.5842 L18.610401,32.7228 L18.610401,32.7921 L18.54,32.930702 L18.333202,33 L18.1242,33 L17.915201,32.930702 L17.847002,32.7921 M20.0668,31.8912 L19.9964,31.7526 L19.8578,31.614002 L19.7192,31.5436 L19.442,31.5436 L19.3034,31.614002 L19.1648,31.7526 L19.0944,31.8912 L19.026201,32.098 L19.026201,32.4456 L19.0944,32.652397 L19.1648,32.7921 L19.3034,32.930702 L19.442,33 L19.7192,33 L19.8578,32.930702 L19.9964,32.7921 L20.0668,32.652397 L20.0668,32.4456 M19.7192,32.4456 L20.0668,32.4456 M21.3142,32.0298 L21.3142,33 M21.3142,32.2388 L21.1756,32.098 L21.036999,32.0298 L20.828,32.0298 L20.6916,32.098 L20.5508,32.2388 L20.482601,32.4456 L20.482601,32.5842 L20.5508,32.7921 L20.6916,32.930702 L20.828,33 L21.036999,33 L21.1756,32.930702 L21.3142,32.7921 M21.8664,32.0298 L21.8664,33 M21.8664,32.307 L22.0754,32.098 L22.214,32.0298 L22.420801,32.0298 L22.5616,32.098 L22.6298,32.307 L22.6298,33 M22.6298,32.307 L22.8388,32.098 L22.9752,32.0298 L23.1842,32.0298 L23.322802,32.098 L23.3932,32.307 L23.3932,33 M23.877201,32.4456 L24.7088,32.4456 L24.7088,32.307 L24.6406,32.1684 L24.5702,32.098 L24.431599,32.0298 L24.222599,32.0298 L24.0862,32.098 L23.9454,32.2388 L23.877201,32.4456 L23.877201,32.5842 L23.9454,32.7921 L24.0862,32.930702 L24.222599,33 L24.431599,33 L24.5702,32.930702 L24.7088,32.7921 M25.888,32.2388 L25.8176,32.098 L25.6108,32.0298 L25.401798,32.0298 L25.192799,32.098 L25.1246,32.2388 L25.192799,32.375202 L25.3336,32.4456 L25.679,32.516 L25.8176,32.5842 L25.888,32.7228 L25.888,32.7921 L25.8176,32.930702 L25.6108,33 L25.401798,33 L25.192799,32.930702 L25.1246,32.7921 M27.379602,31.5436 L27.1728,31.614002 L27.032001,31.8208 L26.9638,32.1684 L26.9638,32.375202 L27.032001,32.7228 L27.1728,32.930702 L27.379602,33 L27.5182,33 L27.7272,32.930702 L27.863602,32.7228 L27.934,32.375202 L27.934,32.1684 L27.863602,31.8208 L27.7272,31.614002 L27.5182,31.5436 L27.379602,31.5436 M28.4884,31.5436 L29.2496,31.5436 L28.835999,32.098 L29.0428,32.098 L29.1814,32.1684 L29.2496,32.2388 L29.319998,32.4456 L29.319998,32.5842 L29.2496,32.7921 L29.1132,32.930702 L28.9042,33 L28.6952,33 L28.4884,32.930702 L28.418,32.8614 L28.349798,32.7228 M30.567398,31.5436 L29.8744,31.5436 L29.803997,32.1684 L29.8744,32.098 L30.081198,32.0298 L30.290197,32.0298 L30.499197,32.098 L30.6356,32.2388 L30.705997,32.4456 L30.705997,32.5842 L30.6356,32.7921 L30.499197,32.930702 L30.290197,33 L30.081198,33 L29.8744,32.930702 L29.803997,32.8614 L29.735798,32.7228 M31.849997,32.375202 L33.099598,32.375202 M34.4526,31.8208 L34.588997,31.7526 L34.797997,31.5436 L34.797997,33 M35.838596,31.8208 L35.975,31.7526 L36.184,31.5436 L36.184,33 M6.9072,34.4112 L6.3024,36 M6.9072,34.4112 L7.512,36 M6.528,35.472 L7.2864,35.472 M7.8888,34.941597 L7.8888,36 M7.8888,35.244 L8.1168,35.016 L8.268,34.941597 L8.493601,34.941597 L8.6472,35.016 L8.721601,35.244 L8.721601,36 M9.4008,34.4112 L9.4008,35.6976 L9.4776,35.9244 L9.6264,36 L9.780001,36 M9.1751995,34.941597 L9.703199,34.941597 M10.5336,34.941597 L10.3848,35.016 L10.231199,35.1696 L10.1568,35.3952 L10.1568,35.5464 L10.231199,35.7732 L10.3848,35.9244 L10.5336,36 L10.7616,36 L10.9128,35.9244 L11.064,35.7732 L11.138399,35.5464 L11.138399,35.3952 L11.064,35.1696 L10.9128,35.016 L10.7616,34.941597 L10.5336,34.941597 M11.666399,34.941597 L11.666399,36 M11.666399,35.244 L11.8944,35.016 L12.045599,34.941597 L12.2712,34.941597 L12.424799,35.016 L12.4992,35.244 L12.4992,36 M13.101599,34.4112 L13.101599,36 M13.101599,34.4112 L13.7064,36 M14.3112,34.4112 L13.7064,36 M14.3112,34.4112 L14.3112,36 M15.748799,34.941597 L15.748799,36 M15.748799,35.1696 L15.597598,35.016 L15.446399,34.941597 L15.218399,34.941597 L15.069598,35.016 L14.915998,35.1696 L14.8415985,35.3952 L14.8415985,35.5464 L14.915998,35.7732 L15.069598,35.9244 L15.218399,36 L15.446399,36 L15.597598,35.9244 L15.748799,35.7732 M16.3512,34.4112 L16.3512,36 M17.1096,34.941597 L16.3512,35.6976 M16.653599,35.3952 L17.184,36 M17.563198,35.3952 L18.4704,35.3952 L18.4704,35.244 L18.396,35.0928 L18.319199,35.016 L18.168,34.941597 L17.939999,34.941597 L17.791199,35.016 L17.6376,35.1696 L17.563198,35.3952 L17.563198,35.5464 L17.6376,35.7732 L17.791199,35.9244 L17.939999,36 L18.168,36 L18.319199,35.9244 L18.4704,35.7732 M19.7568,35.1696 L19.679998,35.016 L19.4544,34.941597 L19.226398,34.941597 L18.9984,35.016 L18.924,35.1696 L18.9984,35.318398 L19.151999,35.3952 L19.5288,35.472 L19.679998,35.5464 L19.7568,35.6976 L19.7568,35.7732 L19.679998,35.9244 L19.4544,36 L19.226398,36 L18.9984,35.9244 L18.924,35.7732 M21.3456,34.790398 L21.268799,34.6392 L21.1176,34.488 L20.9664,34.4112 L20.664,34.4112 L20.512798,34.488 L20.361599,34.6392 L20.2848,34.790398 L20.2104,35.016 L20.2104,35.3952 L20.2848,35.6208 L20.361599,35.7732 L20.512798,35.9244 L20.664,36 L20.9664,36 L21.1176,35.9244 L21.268799,35.7732 L21.3456,35.6208 L21.3456,35.3952 M20.9664,35.3952 L21.3456,35.3952 M22.7064,34.941597 L22.7064,36 M22.7064,35.1696 L22.5552,35.016 L22.404,34.941597 L22.175999,34.941597 L22.027199,35.016 L21.8736,35.1696 L21.799198,35.3952 L21.799198,35.5464 L21.8736,35.7732 L22.027199,35.9244 L22.175999,36 L22.404,36 L22.5552,35.9244 L22.7064,35.7732 M23.3088,34.941597 L23.3088,36 M23.3088,35.244 L23.5368,35.016 L23.688,34.941597 L23.9136,34.941597 L24.0672,35.016 L24.1416,35.244 L24.1416,36 M24.1416,35.244 L24.3696,35.016 L24.518398,34.941597 L24.7464,34.941597 L24.8976,35.016 L24.9744,35.244 L24.9744,36 M25.5024,35.3952 L26.409601,35.3952 L26.409601,35.244 L26.335201,35.0928 L26.258402,35.016 L26.107203,34.941597 L25.8792,34.941597 L25.730402,35.016 L25.576801,35.1696 L25.5024,35.3952 L25.5024,35.5464 L25.576801,35.7732 L25.730402,35.9244 L25.8792,36 L26.107203,36 L26.258402,35.9244 L26.409601,35.7732 M27.696003,35.1696 L27.619202,35.016 L27.3936,34.941597 L27.1656,34.941597 L26.937601,35.016 L26.863201,35.1696 L26.937601,35.318398 L27.091202,35.3952 L27.468002,35.472 L27.619202,35.5464 L27.696003,35.6976 L27.696003,35.7732 L27.619202,35.9244 L27.3936,36 L27.1656,36 L26.937601,35.9244 L26.863201,35.7732 M29.323202,34.4112 L29.097605,34.488 L28.944004,34.7136 L28.869604,35.0928 L28.869604,35.318398 L28.944004,35.6976 L29.097605,35.9244 L29.323202,36 L29.474405,36 L29.702404,35.9244 L29.851202,35.6976 L29.928003,35.318398 L29.928003,35.0928 L29.851202,34.7136 L29.702404,34.488 L29.474405,34.4112 L29.323202,34.4112 M30.532803,34.4112 L31.363201,34.4112 L30.912003,35.016 L31.137604,35.016 L31.288803,35.0928 L31.363201,35.1696 L31.440002,35.3952 L31.440002,35.5464 L31.363201,35.7732 L31.214405,35.9244 L30.986404,36 L30.758402,36 L30.532803,35.9244 L30.456003,35.8488 L30.381603,35.6976 M32.800804,34.4112 L32.044804,34.4112 L31.968002,35.0928 L32.044804,35.016 L32.2704,34.941597 L32.498405,34.941597 L32.726402,35.016 L32.875202,35.1696 L32.952003,35.3952 L32.952003,35.5464 L32.875202,35.7732 L32.726402,35.9244 L32.498405,36 L32.2704,36 L32.044804,35.9244 L31.968002,35.8488 L31.893604,35.6976 M34.200005,35.318398 L35.5632,35.318398 M37.039207,34.7136 L37.188004,34.6392 L37.416008,34.4112 L37.416008,36 M38.397606,34.790398 L38.397606,34.7136 L38.474403,34.5648 L38.551205,34.488 L38.700005,34.4112 L39.002403,34.4112 L39.156006,34.488 L39.230404,34.5648 L39.304802,34.7136 L39.304802,34.8672 L39.230404,35.016 L39.079205,35.244 L38.323204,36 L39.381603,36 M6.9828005,37.2788 L6.3276,39 M6.9828005,37.2788 L7.6379995,39 M6.572,38.428 L7.3936005,38.428 M8.0462,37.8534 L8.0462,39 M8.0462,38.181 L8.2932,37.934 L8.457,37.8534 L8.7014,37.8534 L8.8678,37.934 L8.9484,38.181 L8.9484,39 M9.684199,37.2788 L9.684199,38.6724 L9.7674,38.9181 L9.928599,39 L10.094999,39 M9.439799,37.8534 L10.0118,37.8534 M10.9114,37.8534 L10.7502,37.934 L10.583799,38.1004 L10.5032,38.3448 L10.5032,38.5086 L10.583799,38.7543 L10.7502,38.9181 L10.9114,39 L11.1584,39 L11.3222,38.9181 L11.485999,38.7543 L11.566599,38.5086 L11.566599,38.3448 L11.485999,38.1004 L11.3222,37.934 L11.1584,37.8534 L10.9114,37.8534 M12.138599,37.8534 L12.138599,39 M12.138599,38.181 L12.385599,37.934 L12.549399,37.8534 L12.793799,37.8534 L12.960199,37.934 L13.040799,38.181 L13.040799,39 M13.693399,37.2788 L13.693399,39 M13.693399,37.2788 L14.348599,39 M15.003799,37.2788 L14.348599,39 M15.003799,37.2788 L15.003799,39 M16.5612,37.8534 L16.5612,39 M16.5612,38.1004 L16.3974,37.934 L16.2336,37.8534 L15.9866,37.8534 L15.825399,37.934 L15.658999,38.1004 L15.5784,38.3448 L15.5784,38.5086 L15.658999,38.7543 L15.825399,38.9181 L15.9866,39 L16.2336,39 L16.3974,38.9181 L16.5612,38.7543 M17.2138,37.2788 L17.2138,39 M18.0354,37.8534 L17.2138,38.6724 M17.5414,38.3448 L18.116001,39 M18.5268,38.3448 L19.509602,38.3448 L19.509602,38.181 L19.429,38.0172 L19.3458,37.934 L19.182001,37.8534 L18.935001,37.8534 L18.7738,37.934 L18.6074,38.1004 L18.5268,38.3448 L18.5268,38.5086 L18.6074,38.7543 L18.7738,38.9181 L18.935001,39 L19.182001,39 L19.3458,38.9181 L19.509602,38.7543 M20.903202,38.1004 L20.820002,37.934 L20.575602,37.8534 L20.328602,37.8534 L20.0816,37.934 L20.001001,38.1004 L20.0816,38.2616 L20.248001,38.3448 L20.6562,38.428 L20.820002,38.5086 L20.903202,38.6724 L20.903202,38.7543 L20.820002,38.9181 L20.575602,39 L20.328602,39 L20.0816,38.9181 L20.001001,38.7543 M22.624401,37.689598 L22.541203,37.5258 L22.377401,37.362 L22.213602,37.2788 L21.886002,37.2788 L21.722202,37.362 L21.558401,37.5258 L21.4752,37.689598 L21.394602,37.934 L21.394602,38.3448 L21.4752,38.5892 L21.558401,38.7543 L21.722202,38.9181 L21.886002,39 L22.213602,39 L22.377401,38.9181 L22.541203,38.7543 L22.624401,38.5892 L22.624401,38.3448 M22.213602,38.3448 L22.624401,38.3448 M24.098602,37.8534 L24.098602,39 M24.098602,38.1004 L23.934803,37.934 L23.771002,37.8534 L23.524002,37.8534 L23.362803,37.934 L23.196402,38.1004 L23.115803,38.3448 L23.115803,38.5086 L23.196402,38.7543 L23.362803,38.9181 L23.524002,39 L23.771002,39 L23.934803,38.9181 L24.098602,38.7543 M24.751202,37.8534 L24.751202,39 M24.751202,38.181 L24.998203,37.934 L25.162003,37.8534 L25.406403,37.8534 L25.572803,37.934 L25.653402,38.181 L25.653402,39 M25.653402,38.181 L25.900402,37.934 L26.061604,37.8534 L26.308603,37.8534 L26.472403,37.934 L26.555603,38.181 L26.555603,39 M27.127604,38.3448 L28.110403,38.3448 L28.110403,38.181 L28.029804,38.0172 L27.946604,37.934 L27.782803,37.8534 L27.535803,37.8534 L27.374603,37.934 L27.208202,38.1004 L27.127604,38.3448 L27.127604,38.5086 L27.208202,38.7543 L27.374603,38.9181 L27.535803,39 L27.782803,39 L27.946604,38.9181 L28.110403,38.7543 M29.504004,38.1004 L29.420803,37.934 L29.176403,37.8534 L28.929403,37.8534 L28.682404,37.934 L28.601803,38.1004 L28.682404,38.2616 L28.848804,38.3448 L29.257004,38.428 L29.420803,38.5086 L29.504004,38.6724 L29.504004,38.7543 L29.420803,38.9181 L29.176403,39 L28.929403,39 L28.682404,38.9181 L28.601803,38.7543 M31.266804,37.2788 L31.022404,37.362 L30.856003,37.6064 L30.775402,38.0172 L30.775402,38.2616 L30.856003,38.6724 L31.022404,38.9181 L31.266804,39 L31.430603,39 L31.677603,38.9181 L31.838802,38.6724 L31.922003,38.2616 L31.922003,38.0172 L31.838802,37.6064 L31.677603,37.362 L31.430603,37.2788 L31.266804,37.2788 M32.5772,37.2788 L33.476803,37.2788 L32.988003,37.934 L33.232403,37.934 L33.396202,38.0172 L33.476803,38.1004 L33.560005,38.3448 L33.560005,38.5086 L33.476803,38.7543 L33.315605,38.9181 L33.068604,39 L32.8216,39 L32.5772,38.9181 L32.494003,38.8362 L32.413403,38.6724 M35.034203,37.2788 L34.215202,37.2788 L34.132004,38.0172 L34.215202,37.934 L34.459602,37.8534 L34.706604,37.8534 L34.953606,37.934 L35.114803,38.1004 L35.198006,38.3448 L35.198006,38.5086 L35.114803,38.7543 L34.953606,38.9181 L34.706604,39 L34.459602,39 L34.215202,38.9181 L34.132004,38.8362 L34.051403,38.6724 M36.550003,38.2616 L38.026802,38.2616 M39.6258,37.6064 L39.787003,37.5258 L40.034004,37.2788 L40.034004,39 M41.180603,37.2788 L42.080204,37.2788 L41.591404,37.934 L41.835804,37.934 L41.999603,38.0172 L42.080204,38.1004 L42.163403,38.3448 L42.163403,38.5086 L42.080204,38.7543 L41.919003,38.9181 L41.672005,39 L41.425003,39 L41.180603,38.9181 L41.097404,38.8362 L41.016804,38.6724 M7.0584,40.1464 L6.3528,42 M7.0584,40.1464 L7.764,42 M6.616,41.384 L7.5008,41.384 M8.2036,40.7652 L8.2036,42 M8.2036,41.118 L8.4696,40.851997 L8.646,40.7652 L8.9092,40.7652 L9.0884,40.851997 L9.1751995,41.118 L9.1751995,42 M9.9676,40.1464 L9.9676,41.647198 L10.0571995,41.9118 L10.2308,42 L10.409999,42 M9.7044,40.7652 L10.320399,40.7652 M11.2892,40.7652 L11.1156,40.851997 L10.936399,41.0312 L10.8496,41.2944 L10.8496,41.470802 L10.936399,41.7354 L11.1156,41.9118 L11.2892,42 L11.5552,42 L11.7316,41.9118 L11.907999,41.7354 L11.9948,41.470802 L11.9948,41.2944 L11.907999,41.0312 L11.7316,40.851997 L11.5552,40.7652 L11.2892,40.7652 M12.6108,40.7652 L12.6108,42 M12.6108,41.118 L12.876801,40.851997 L13.0532,40.7652 L13.316401,40.7652 L13.4956,40.851997 L13.5824,41.118 L13.5824,42 M14.2852,40.1464 L14.2852,42 M14.2852,40.1464 L14.990801,42 M15.696401,40.1464 L14.990801,42 M15.696401,40.1464 L15.696401,42 M17.3736,40.7652 L17.3736,42 M17.3736,41.0312 L17.1972,40.851997 L17.020802,40.7652 L16.7548,40.7652 L16.5812,40.851997 L16.402,41.0312 L16.3152,41.2944 L16.3152,41.470802 L16.402,41.7354 L16.5812,41.9118 L16.7548,42 L17.020802,42 L17.1972,41.9118 L17.3736,41.7354 M18.0764,40.1464 L18.0764,42 M18.9612,40.7652 L18.0764,41.647198 M18.429201,41.2944 L19.048,42 M19.490398,41.2944 L20.548801,41.2944 L20.548801,41.118 L20.462,40.9416 L20.3724,40.851997 L20.196001,40.7652 L19.93,40.7652 L19.7564,40.851997 L19.5772,41.0312 L19.490398,41.2944 L19.490398,41.470802 L19.5772,41.7354 L19.7564,41.9118 L19.93,42 L20.196001,42 L20.3724,41.9118 L20.548801,41.7354 M22.0496,41.0312 L21.960001,40.851997 L21.6968,40.7652 L21.430801,40.7652 L21.1648,40.851997 L21.078,41.0312 L21.1648,41.2048 L21.344,41.2944 L21.783602,41.384 L21.960001,41.470802 L22.0496,41.647198 L22.0496,41.7354 L21.960001,41.9118 L21.6968,42 L21.430801,42 L21.1648,41.9118 L21.078,41.7354 M23.9032,40.5888 L23.8136,40.4124 L23.637201,40.236 L23.4608,40.1464 L23.108,40.1464 L22.9316,40.236 L22.7552,40.4124 L22.6656,40.5888 L22.5788,40.851997 L22.5788,41.2944 L22.6656,41.5576 L22.7552,41.7354 L22.9316,41.9118 L23.108,42 L23.4608,42 L23.637201,41.9118 L23.8136,41.7354 L23.9032,41.5576 L23.9032,41.2944 M23.4608,41.2944 L23.9032,41.2944 M25.490799,40.7652 L25.490799,42 M25.490799,41.0312 L25.3144,40.851997 L25.138,40.7652 L24.872,40.7652 L24.698399,40.851997 L24.5192,41.0312 L24.4324,41.2944 L24.4324,41.470802 L24.5192,41.7354 L24.698399,41.9118 L24.872,42 L25.138,42 L25.3144,41.9118 L25.490799,41.7354 M26.1936,40.7652 L26.1936,42 M26.1936,41.118 L26.4596,40.851997 L26.635998,40.7652 L26.8992,40.7652 L27.0784,40.851997 L27.165201,41.118 L27.165201,42 M27.165201,41.118 L27.431202,40.851997 L27.604801,40.7652 L27.8708,40.7652 L28.047201,40.851997 L28.1368,41.118 L28.1368,42 M28.752798,41.2944 L29.8112,41.2944 L29.8112,41.118 L29.7244,40.9416 L29.6348,40.851997 L29.458399,40.7652 L29.192398,40.7652 L29.018799,40.851997 L28.8396,41.0312 L28.752798,41.2944 L28.752798,41.470802 L28.8396,41.7354 L29.018799,41.9118 L29.192398,42 L29.458399,42 L29.6348,41.9118 L29.8112,41.7354 M31.312,41.0312 L31.2224,40.851997 L30.959202,40.7652 L30.693201,40.7652 L30.4272,40.851997 L30.340399,41.0312 L30.4272,41.2048 L30.6064,41.2944 L31.046,41.384 L31.2224,41.470802 L31.312,41.647198 L31.312,41.7354 L31.2224,41.9118 L30.959202,42 L30.693201,42 L30.4272,41.9118 L30.340399,41.7354 M33.2104,40.1464 L32.947197,40.236 L32.767998,40.4992 L32.6812,40.9416 L32.6812,41.2048 L32.767998,41.647198 L32.947197,41.9118 L33.2104,42 L33.3868,42 L33.652798,41.9118 L33.826397,41.647198 L33.915997,41.2048 L33.915997,40.9416 L33.826397,40.4992 L33.652798,40.236 L33.3868,40.1464 L33.2104,40.1464 M34.621597,40.1464 L35.590397,40.1464 L35.064,40.851997 L35.327198,40.851997 L35.503597,40.9416 L35.590397,41.0312 L35.68,41.2944 L35.68,41.470802 L35.590397,41.7354 L35.416798,41.9118 L35.150795,42 L34.884796,42 L34.621597,41.9118 L34.531998,41.8236 L34.445198,41.647198 M37.2676,40.1464 L36.385597,40.1464 L36.295998,40.9416 L36.385597,40.851997 L36.648796,40.7652 L36.9148,40.7652 L37.180798,40.851997 L37.354397,41.0312 L37.444,41.2944 L37.444,41.470802 L37.354397,41.7354 L37.180798,41.9118 L36.9148,42 L36.648796,42 L36.385597,41.9118 L36.295998,41.8236 L36.209198,41.647198 M38.9,41.2048 L40.4904,41.2048 M42.2124,40.4992 L42.385998,40.4124 L42.652,40.1464 L42.652,42 M44.5924,40.1464 L43.7104,41.384 L45.0348,41.384 M44.5924,40.1464 L44.5924,42 M129.8664,98.2084 L129.4128,99.4 M129.8664,98.2084 L130.31999,99.4 M129.582,99.004 L130.15079,99.004 M130.6026,98.6062 L130.6026,99.4 M130.6026,98.833 L130.7736,98.662 L130.887,98.6062 L131.0562,98.6062 L131.1714,98.662 L131.2272,98.833 L131.2272,99.4 M131.7366,98.2084 L131.7366,99.1732 L131.79422,99.3433 L131.9058,99.4 L132.02101,99.4 M131.56741,98.6062 L131.96341,98.6062 M132.58621,98.6062 L132.47461,98.662 L132.3594,98.7772 L132.3036,98.946396 L132.3036,99.0598 L132.3594,99.229904 L132.47461,99.3433 L132.58621,99.4 L132.7572,99.4 L132.8706,99.3433 L132.98401,99.229904 L133.03981,99.0598 L133.03981,98.946396 L132.98401,98.7772 L132.8706,98.662 L132.7572,98.6062 L132.58621,98.6062 M133.4358,98.6062 L133.4358,99.4 M133.4358,98.833 L133.60681,98.662 L133.7202,98.6062 L133.8894,98.6062 L134.00461,98.662 L134.06041,98.833 L134.06041,99.4 M134.5122,98.2084 L134.5122,99.4 M134.5122,98.2084 L134.9658,99.4 M135.4194,98.2084 L134.9658,99.4 M135.4194,98.2084 L135.4194,99.4 M136.49762,98.6062 L136.49762,99.4 M136.49762,98.7772 L136.38422,98.662 L136.27081,98.6062 L136.09982,98.6062 L135.98822,98.662 L135.87302,98.7772 L135.81721,98.946396 L135.81721,99.0598 L135.87302,99.229904 L135.98822,99.3433 L136.09982,99.4 L136.27081,99.4 L136.38422,99.3433 L136.49762,99.229904 M136.94942,98.2084 L136.94942,99.4 M137.51822,98.6062 L136.94942,99.1732 M137.17622,98.946396 L137.57402,99.4 M137.85841,98.946396 L138.53882,98.946396 L138.53882,98.833 L138.483,98.7196 L138.42542,98.662 L138.31201,98.6062 L138.14102,98.6062 L138.02942,98.662 L137.91422,98.7772 L137.85841,98.946396 L137.85841,99.0598 L137.91422,99.229904 L138.02942,99.3433 L138.14102,99.4 L138.31201,99.4 L138.42542,99.3433 L138.53882,99.229904 M139.50362,98.7772 L139.44601,98.662 L139.27682,98.6062 L139.10582,98.6062 L138.93481,98.662 L138.87901,98.7772 L138.93481,98.8888 L139.05002,98.946396 L139.33261,99.004 L139.44601,99.0598 L139.50362,99.1732 L139.50362,99.229904 L139.44601,99.3433 L139.27682,99.4 L139.10582,99.4 L138.93481,99.3433 L138.87901,99.229904 M140.69522,98.4928 L140.6376,98.3794 L140.52422,98.266 L140.41081,98.2084 L140.184,98.2084 L140.07062,98.266 L139.95721,98.3794 L139.89961,98.4928 L139.84381,98.662 L139.84381,98.946396 L139.89961,99.1156 L139.95721,99.229904 L140.07062,99.3433 L140.184,99.4 L140.41081,99.4 L140.52422,99.3433 L140.6376,99.229904 L140.69522,99.1156 L140.69522,98.946396 M140.41081,98.946396 L140.69522,98.946396 M141.71582,98.6062 L141.71582,99.4 M141.71582,98.7772 L141.60242,98.662 L141.48901,98.6062 L141.31802,98.6062 L141.20642,98.662 L141.09122,98.7772 L141.03542,98.946396 L141.03542,99.0598 L141.09122,99.229904 L141.20642,99.3433 L141.31802,99.4 L141.48901,99.4 L141.60242,99.3433 L141.71582,99.229904 M142.16762,98.6062 L142.16762,99.4 M142.16762,98.833 L142.33862,98.662 L142.45201,98.6062 L142.62122,98.6062 L142.73642,98.662 L142.79222,98.833 L142.79222,99.4 M142.79222,98.833 L142.96323,98.662 L143.07481,98.6062 L143.24582,98.6062 L143.35922,98.662 L143.41682,98.833 L143.41682,99.4 M143.81282,98.946396 L144.49323,98.946396 L144.49323,98.833 L144.43741,98.7196 L144.37982,98.662 L144.26642,98.6062 L144.09543,98.6062 L143.98383,98.662 L143.86862,98.7772 L143.81282,98.946396 L143.81282,99.0598 L143.86862,99.229904 L143.98383,99.3433 L144.09543,99.4 L144.26642,99.4 L144.37982,99.3433 L144.49323,99.229904 M145.45802,98.7772 L145.40042,98.662 L145.23123,98.6062 L145.06023,98.6062 L144.88922,98.662 L144.83342,98.7772 L144.88922,98.8888 L145.00443,98.946396 L145.28702,99.004 L145.40042,99.0598 L145.45802,99.1732 L145.45802,99.229904 L145.40042,99.3433 L145.23123,99.4 L145.06023,99.4 L144.88922,99.3433 L144.83342,99.229904 M146.67842,98.2084 L146.50923,98.266 L146.39401,98.435196 L146.33823,98.7196 L146.33823,98.8888 L146.39401,99.1732 L146.50923,99.3433 L146.67842,99.4 L146.79182,99.4 L146.96281,99.3433 L147.07443,99.1732 L147.13202,98.8888 L147.13202,98.7196 L147.07443,98.435196 L146.96281,98.266 L146.79182,98.2084 L146.67842,98.2084 M147.58562,98.2084 L148.20842,98.2084 L147.87003,98.662 L148.03922,98.662 L148.15262,98.7196 L148.20842,98.7772 L148.26602,98.946396 L148.26602,99.0598 L148.20842,99.229904 L148.09682,99.3433 L147.92581,99.4 L147.75482,99.4 L147.58562,99.3433 L147.52802,99.286606 L147.47221,99.1732 M149.28662,98.2084 L148.71962,98.2084 L148.66202,98.7196 L148.71962,98.662 L148.88882,98.6062 L149.05981,98.6062 L149.2308,98.662 L149.34242,98.7772 L149.40001,98.946396 L149.40001,99.0598 L149.34242,99.229904 L149.2308,99.3433 L149.05981,99.4 L148.88882,99.4 L148.71962,99.3433 L148.66202,99.286606 L148.60622,99.1732" fill="none" stroke="black" stroke-width="0.4"/>
</svg>