<svg height="100mm" units="mm" viewBox="0 0 150 100" width="150mm" xmlns="http://www.w3.org/2000/svg">
<path d="M90.24205,59.6 L91.627686,59.6 L92.32051,58.4 L91.627686,57.2 L90.24205,57.2 L90.93487,58.4 L89.54923,58.4 L88.85641,57.2 L88.16359,58.4 L86.77795,58.4 L86.08513,59.6 L86.77795,60.8 L85.3923,60.8 L84.69948,59.6 L84.00667,58.4 L84.69948,57.2 L84.00667,56 L85.3923,56 L84.69948,54.8 L85.3923,53.6 L84.69948,52.4 L85.3923,51.2 L84.00667,51.2 L84.69948,50 L86.08513,50 L86.77795,48.8 L85.3923,48.8 L86.08513,47.6 L86.77795,46.4 L87.470764,47.6 L88.16359,48.8 L89.54923,48.8 L90.24205,50 L91.627686,50 L92.32051,48.8 L93.01333,47.6 L93.706154,46.4 L92.32051,46.4 L91.627686,47.6 L90.24205,47.6 L90.93487,48.8 M79.84975,44 L80.54256,42.8 L81.92821,42.8 L82.621025,44 L83.31384,45.2 L81.92821,45.2 L81.23538,44 L80.54256,45.2 L79.15692,45.2 L78.4641,44 L77.771286,45.2 L77.07846,46.4 L76.385635,47.6 L77.771286,47.6 L78.4641,46.4 L79.84975,46.4 L80.54256,47.6 L79.15692,47.6 L79.84975,48.8 L78.4641,48.8 L79.15692,50 L78.4641,51.2 L77.771286,50 L77.07846,48.8 L76.385635,50 L75.692825,48.8 L75,50 L74.30718,51.2 L73.614365,52.4 L72.92154,53.6 L72.228714,52.4 L72.92154,51.2 L72.228714,50 L71.535904,51.2 L70.84308,50 L70.15026,51.2 L69.45744,50 L70.15026,48.8 L68.76462,48.8 L67.37898,48.8 L68.07179,50 L68.76462,51.2 L68.07179,52.4 L68.76462,53.6 L69.45744,52.4 L70.15026,53.6 L70.84308,54.8 L70.15026,56 L69.45744,54.8 L68.07179,54.8 L66.68616,54.8 L67.37898,53.6 L66.68616,52.4 L65.300514,52.4 L65.99333,53.6 L65.300514,54.8 L64.6077,56 L63.914875,54.8 L63.222057,56 L63.914875,57.2 L64.6077,58.4 L65.300514,57.2 L66.68616,57.2 L67.37898,56 L65.99333,56 M115.8764,48.8 L116.569214,47.6 L117.26204,46.4 L116.569214,45.2 L115.8764,46.4 L115.18358,47.6 L113.797935,47.6 L114.49076,46.4 L115.18358,45.2 L113.797935,45.2 L114.49076,44 L113.797935,42.8 L114.49076,41.6 L115.18358,40.4 L113.797935,40.4 L113.10512,39.2 L112.41229,38 L113.797935,38 L115.18358,38 L114.49076,39.2 L115.8764,39.2 L116.569214,38 L117.95486,38 L119.3405,38 L120.726135,38 L122.11178,38 L121.41896,39.2 L120.726135,40.4 L122.11178,40.4 L123.49742,40.4 L122.8046,41.6 L121.41896,41.6 L122.11178,42.8 L123.49742,42.8 L122.8046,44 L121.41896,44 L120.033325,44 L120.726135,45.2 L119.3405,45.2 L118.64768,44 L119.3405,42.8 L117.95486,42.8 L117.26204,41.6 L115.8764,41.6 L116.569214,40.4 L117.26204,39.2 L118.64768,39.2 L119.3405,40.4 L117.95486,40.4 L118.64768,41.6 L120.033325,41.6 L120.726135,42.8 M25.809757,53.6 L26.502579,52.4 L25.809757,51.2 L24.424118,51.2 L25.116938,52.4 L23.731297,52.4 L23.038477,51.2 L22.345655,50 L23.731297,50 L25.116938,50 L24.424118,48.8 L25.809757,48.8 L27.195398,48.8 L27.88822,47.6 L29.273859,47.6 L29.966679,46.4 L30.6595,47.6 L31.35232,48.8 L32.73796,48.8 L32.045143,47.6 L33.43078,47.6 L32.73796,46.4 L32.045143,45.2 L31.35232,44 L32.73796,44 L32.045143,42.8 L31.35232,41.6 L32.045143,40.4 L32.73796,39.2 L32.045143,38 L31.35232,39.2 L29.966679,39.2 L30.6595,40.4 L29.273859,40.4 L29.966679,41.6 L28.58104,41.6 L27.195398,41.6 L25.809757,41.6 L25.116938,42.8 L23.731297,42.8 L23.038477,41.6 L24.424118,41.6 L23.731297,40.4 L23.038477,39.2 L21.652836,39.2 L20.960016,38 L20.267195,39.2 L20.960016,40.4 L19.574375,40.4 L20.267195,41.6 L18.881556,41.6 L18.188734,42.8 L16.803095,42.8 L17.495914,41.6 L18.188734,40.4 L17.495914,39.2 L16.803095,40.4 L16.110273,39.2 L16.803095,38 L18.188734,38 L18.881556,39.2 L19.574375,38 M12.646172,57.2 L14.031812,57.2 L14.724632,56 L13.338992,56 L14.031812,54.8 L12.646172,54.8 L13.338992,53.6 L14.724632,53.6 L14.031812,52.4 L12.646172,52.4 L13.338992,51.2 L14.724632,51.2 L14.031812,50 L15.417453,50 L14.724632,48.8 L13.338992,48.8 L12.646172,47.6 L14.031812,47.6 L15.417453,47.6 L16.110273,46.4 L17.495914,46.4 L16.803095,47.6 L16.110273,48.8 L17.495914,48.8 L18.881556,48.8 L18.188734,47.6 L18.881556,46.4 L20.267195,46.4 L21.652836,46.4 L22.345655,45.2 L21.652836,44 L23.038477,44 L24.424118,44 L25.809757,44 L27.195398,44 L27.88822,45.2 L29.273859,45.2 L28.58104,44 L29.966679,44 L29.273859,42.8 L30.6595,42.8 M97.17025,57.2 L95.78461,57.2 L95.09179,56 L95.78461,54.8 L96.47743,53.6 L95.78461,52.4 L97.17025,52.4 L97.863075,53.6 L98.55589,52.4 L99.24871,51.2 L99.94153,52.4 L101.32717,52.4 L102.02,53.6 L102.712814,52.4 L103.40564,51.2 L104.098465,50 L104.79128,48.8 L103.40564,48.8 L102.712814,50 L102.02,48.8 L101.32717,47.6 L99.94153,47.6 L100.63435,46.4 L99.24871,46.4 L99.94153,45.2 L101.32717,45.2 L100.63435,44 L101.32717,42.8 L99.94153,42.8 L100.63435,41.6 L101.32717,40.4 L102.02,41.6 L103.40564,41.6 L104.79128,41.6 L105.48409,40.4 L106.17692,39.2 L104.79128,39.2 L104.098465,40.4 L103.40564,39.2 L102.712814,40.4 L102.02,39.2 L101.32717,38 L100.63435,39.2 L99.94153,38 L99.24871,39.2 L97.863075,39.2 L97.17025,40.4 L95.78461,40.4 L94.39897,40.4 L95.09179,39.2 L95.78461,38 L97.17025,38 L96.47743,39.2 M42.437447,48.8 L41.744625,50 L43.130264,50 L43.823082,51.2 L45.208725,51.2 L46.594368,51.2 L47.980007,51.2 L47.28719,50 L48.67283,50 L50.058468,50 L50.75129,51.2 L49.365646,51.2 L48.67283,52.4 L49.365646,53.6 L50.058468,54.8 L51.44411,54.8 L52.136932,53.6 L53.52257,53.6 L52.82975,52.4 L54.215393,52.4 L54.908215,51.2 L53.52257,51.2 L54.215393,50 L53.52257,48.8 L52.82975,50 L52.136932,51.2 L51.44411,50 L52.136932,48.8 L50.75129,48.8 L50.058468,47.6 L49.365646,46.4 L50.058468,45.2 L49.365646,44 L47.980007,44 L47.28719,42.8 L47.980007,41.6 L49.365646,41.6 L50.058468,42.8 L50.75129,41.6 L50.058468,40.4 L48.67283,40.4 L49.365646,39.2 L48.67283,38 L47.28719,38 L46.594368,39.2 L47.980007,39.2 L47.28719,40.4 L45.901546,40.4 L46.594368,41.6 L45.208725,41.6 L45.901546,42.8 L45.208725,44 L44.515907,45.2 L43.823082,46.4 L44.515907,47.6 L45.208725,46.4 L45.901546,47.6 L46.594368,46.4 L47.28719,47.6 L46.594368,48.8 L45.901546,50 L44.515907,50 L45.208725,48.8 L43.823082,48.8 L43.130264,47.6 L41.744625,47.6 L41.051804,48.8 L40.358986,50 L39.66616,51.2 L41.051804,51.2 L42.437447,51.2 L43.130264,52.4 L42.437447,53.6 L41.051804,53.6 L41.744625,52.4 L40.358986,52.4 L38.973343,52.4 L38.280525,53.6 L39.66616,53.6 L38.973343,54.8 L40.358986,54.8 L41.744625,54.8 L42.437447,56 L41.051804,56 L39.66616,56 L40.358986,57.2 L41.051804,58.4 L41.744625,57.2 L42.437447,58.4 L43.130264,59.6 L43.823082,58.4 L44.515907,57.2 L45.208725,56 L43.823082,56 L44.515907,54.8 L43.823082,53.6 L45.208725,53.6 L46.594368,53.6 L47.28719,52.4 L47.980007,53.6 L47.28719,54.8 L48.67283,54.8 L47.980007,56 L47.28719,57.2 L46.594368,56 L45.901546,54.8 M113.797935,52.4 L114.49076,53.6 L113.797935,54.8 L113.10512,53.6 L111.71948,53.6 L111.02666,52.4 L112.41229,52.4 L111.71948,51.2 L112.41229,50 L113.10512,48.8 L113.797935,50 L115.18358,50 L114.49076,51.2 L113.10512,51.2 M43.130264,57.2 M132.50409,58.4 L133.19691,59.6 L134.58255,59.6 L135.27536,60.8 L136.66101,60.8 L137.35384,59.6 L138.04666,58.4 L139.43228,58.4 L138.73947,59.6 L138.04666,60.8 L139.43228,60.8 L140.81793,60.8 L140.1251,59.6 L140.81793,58.4 L141.51076,57.2 L142.20358,58.4 L142.8964,59.6 L143.5892,58.4 L142.8964,57.2 L142.20358,56 L141.51076,54.8 L140.1251,54.8 L139.43228,53.6 L138.04666,53.6 L137.35384,52.4 L138.04666,51.2 L136.66101,51.2 L137.35384,50 L138.04666,48.8 L136.66101,48.8 L135.96819,47.6 L136.66101,46.4 L135.96819,45.2 L136.66101,44 L137.35384,45.2 L138.04666,46.4 L137.35384,47.6 L138.73947,47.6 L139.43228,48.8 L138.73947,50 L140.1251,50 L140.81793,51.2 L139.43228,51.2 L140.1251,52.4 L138.73947,52.4 M99.94153,59.6 L100.63435,58.4 L99.94153,57.2 L98.55589,57.2 L99.24871,56 L100.63435,56 L101.32717,54.8 L102.02,56 L101.32717,57.2 L102.02,58.4 L102.712814,59.6 L104.098465,59.6 L104.79128,60.8 L103.40564,60.8 L102.02,60.8 L100.63435,60.8 L101.32717,59.6 M121.41896,46.4 L122.11178,45.2 L122.8046,46.4 L122.11178,47.6 L123.49742,47.6 L124.19025,48.8 L124.88306,47.6 L126.2687,47.6 L125.57588,46.4 L124.88306,45.2 L124.19025,46.4 L123.49742,45.2 L124.19025,44 L125.57588,44 L124.88306,42.8 L124.19025,41.6 L124.88306,40.4 L125.57588,39.2 L126.2687,38 L126.961525,39.2 L127.65434,40.4 L128.34717,39.2 L129.03998,38 L129.7328,39.2 L129.03998,40.4 L129.7328,41.6 L129.03998,42.8 L128.34717,41.6 L126.961525,41.6 L125.57588,41.6 L126.2687,40.4 M111.02666,47.6 L109.641014,47.6 L110.33384,48.8 L111.71948,48.8 L111.02666,50 L109.641014,50 L110.33384,51.2 L108.9482,51.2 L108.25537,50 L107.562546,48.8 L106.86973,50 L105.48409,50 L106.17692,51.2 L106.86973,52.4 L108.25537,52.4 L108.9482,53.6 L107.562546,53.6 L106.17692,53.6 L105.48409,54.8 L106.17692,56 L106.86973,57.2 L106.17692,58.4 L107.562546,58.4 L108.25537,59.6 L109.641014,59.6 L108.9482,58.4 L108.25537,57.2 L107.562546,56 L108.25537,54.8 L108.9482,56 L109.641014,54.8 L110.33384,56 L111.71948,56 L112.41229,57.2 L111.02666,57.2 L111.71948,58.4 L111.02666,59.6 L111.71948,60.8 L113.10512,60.8 L112.41229,59.6 L113.797935,59.6 L115.18358,59.6 L114.49076,58.4 L113.797935,57.2 L113.10512,58.4 M19.574375,42.8 L20.960016,42.8 L20.267195,44 L20.960016,45.2 L19.574375,45.2 L18.188734,45.2 L17.495914,44 L18.881556,44 M94.39897,42.8 L93.706154,44 L94.39897,45.2 L95.78461,45.2 L96.47743,46.4 L97.17025,45.2 L97.863075,46.4 L98.55589,45.2 L99.24871,44 L98.55589,42.8 L99.24871,41.6 L97.863075,41.6 L98.55589,40.4 L99.94153,40.4 M24.424118,53.6 L25.116938,54.8 L26.502579,54.8 L25.809757,56 L27.195398,56 L27.88822,54.8 L28.58104,56 L29.273859,54.8 L29.966679,56 L30.6595,54.8 L31.35232,56 L30.6595,57.2 L29.273859,57.2 L29.966679,58.4 L29.273859,59.6 L28.58104,60.8 L29.966679,60.8 L30.6595,59.6 L31.35232,58.4 L32.045143,57.2 L32.73796,56 L33.43078,57.2 L34.1236,56 L34.81642,57.2 L35.50924,56 L36.894882,56 L37.587704,57.2 L38.280525,56 L37.587704,54.8 L36.202065,54.8 L34.81642,54.8 L35.50924,53.6 L34.81642,52.4 L35.50924,51.2 L36.894882,51.2 L38.280525,51.2 L37.587704,50 L36.894882,48.8 L35.50924,48.8 L36.202065,47.6 L36.894882,46.4 L37.587704,45.2 L36.202065,45.2 L36.894882,44 L36.202065,42.8 L36.894882,41.6 L35.50924,41.6 L36.202065,40.4 L35.50924,39.2 L36.894882,39.2 L36.202065,38 L34.81642,38 L33.43078,38 L34.1236,39.2 L34.81642,40.4 L34.1236,41.6 L33.43078,42.8 L34.81642,42.8 L34.1236,44 L35.50924,44 L34.81642,45.2 L34.1236,46.4 L34.81642,47.6 L34.1236,48.8 L34.81642,50 L34.1236,51.2 L33.43078,50 L32.73796,51.2 L32.045143,50 L31.35232,51.2 L32.045143,52.4 L31.35232,53.6 L30.6595,52.4 L29.966679,53.6 L29.273859,52.4 L28.58104,51.2 L29.966679,51.2 L30.6595,50 L29.966679,48.8 L28.58104,48.8 L27.88822,50 L27.195398,51.2 L26.502579,50 M118.64768,48.8 L120.033325,48.8 L119.3405,50 L118.64768,51.2 L120.033325,51.2 L120.726135,52.4 L120.033325,53.6 L121.41896,53.6 L120.726135,54.8 L121.41896,56 L120.033325,56 L118.64768,56 L117.26204,56 L117.95486,54.8 L117.26204,53.6 L116.569214,52.4 L117.95486,52.4 L118.64768,53.6 L119.3405,54.8 M104.098465,45.2 L104.79128,44 L105.48409,45.2 L106.17692,44 L106.86973,42.8 L107.562546,41.6 L106.86973,40.4 L106.17692,41.6 L105.48409,42.8 L104.098465,42.8 L103.40564,44 L102.712814,42.8 L102.02,44 L102.712814,45.2 L103.40564,46.4 L102.02,46.4 L102.712814,47.6 L104.098465,47.6 L104.79128,46.4 L106.17692,46.4 L106.86973,47.6 L106.17692,48.8 L105.48409,47.6 M140.81793,46.4 L141.51076,45.2 L142.20358,44 L142.8964,42.8 L142.20358,41.6 L141.51076,42.8 L140.81793,41.6 L140.1251,42.8 L140.81793,44 L139.43228,44 L138.73947,42.8 L137.35384,42.8 L136.66101,41.6 L135.96819,42.8 L134.58255,42.8 L133.88974,44 L133.19691,42.8 L132.50409,44 L131.11844,44 L129.7328,44 L129.03998,45.2 L130.42563,45.2 L131.11844,46.4 L132.50409,46.4 L131.81126,47.6 L132.50409,48.8 L131.81126,50 L133.19691,50 L132.50409,51.2 L131.81126,52.4 L133.19691,52.4 L133.88974,51.2 L135.27536,51.2 L134.58255,52.4 L135.27536,53.6 L136.66101,53.6 L135.96819,52.4 M23.731297,47.6 L24.424118,46.4 L25.809757,46.4 L25.116938,47.6 L26.502579,47.6 L27.195398,46.4 L26.502579,45.2 L25.116938,45.2 L23.731297,45.2 L23.038477,46.4 L22.345655,47.6 L23.038477,48.8 L21.652836,48.8 L20.960016,47.6 L19.574375,47.6 L20.267195,48.8 L19.574375,50 L20.960016,50 L21.652836,51.2 L20.267195,51.2 L18.881556,51.2 L17.495914,51.2 L18.188734,50 L16.803095,50 L16.110273,51.2 L16.803095,52.4 L18.188734,52.4 L18.881556,53.6 L18.188734,54.8 L16.803095,54.8 L17.495914,53.6 L16.110273,53.6 L15.417453,52.4 M129.03998,57.2 L127.65434,57.2 L126.2687,57.2 L125.57588,56 L124.88306,54.8 L124.19025,56 L123.49742,54.8 L122.8046,53.6 L122.11178,54.8 L122.8046,56 L123.49742,57.2 L124.88306,57.2 L125.57588,58.4 L124.19025,58.4 L122.8046,58.4 L122.11178,57.2 L121.41896,58.4 L122.11178,59.6 L123.49742,59.6 L124.88306,59.6 L125.57588,60.8 L124.19025,60.8 L122.8046,60.8 L121.41896,60.8 L120.033325,60.8 L118.64768,60.8 L117.26204,60.8 L117.95486,59.6 L119.3405,59.6 L120.033325,58.4 L120.726135,59.6 M82.621025,56 L81.92821,54.8 L81.23538,56 L81.92821,57.2 L80.54256,57.2 L79.84975,58.4 L81.23538,58.4 L81.92821,59.6 L83.31384,59.6 L82.621025,58.4 L83.31384,57.2 M77.771286,54.8 L78.4641,56 L79.15692,54.8 L80.54256,54.8 L79.84975,56 L79.15692,57.2 L77.771286,57.2 L76.385635,57.2 L75.692825,56 L75,57.2 L75.692825,58.4 L77.07846,58.4 L76.385635,59.6 L77.771286,59.6 L77.07846,60.8 L78.4641,60.8 L79.84975,60.8 L81.23538,60.8 L82.621025,60.8 L84.00667,60.8 M61.836414,53.6 L62.529236,52.4 L63.914875,52.4 L63.222057,53.6 L62.529236,54.8 L61.143593,54.8 L59.757954,54.8 L59.065136,56 L57.679493,56 L58.372314,57.2 L57.679493,58.4 L56.98667,59.6 L57.679493,60.8 L59.065136,60.8 L60.450775,60.8 L59.757954,59.6 L61.143593,59.6 L61.836414,60.8 L63.222057,60.8 L64.6077,60.8 L63.914875,59.6 L62.529236,59.6 L63.222057,58.4 L61.836414,58.4 L62.529236,57.2 L61.143593,57.2 L60.450775,58.4 L59.065136,58.4 L59.757954,57.2 L60.450775,56 L61.836414,56 M5.717969,52.4 L6.4107885,53.6 L7.1036096,54.8 L8.48925,54.8 L9.18207,56 L10.56771,56 L9.87489,57.2 L8.48925,57.2 L7.7964296,56 L6.4107885,56 L5.717969,57.2 L6.4107885,58.4 L7.7964296,58.4 L9.18207,58.4 L10.56771,58.4 L11.260531,57.2 L11.953352,56 L11.260531,54.8 L11.953352,53.6 L10.56771,53.6 L9.87489,54.8 L9.18207,53.6 L7.7964296,53.6 L8.48925,52.4 L9.18207,51.2 L9.87489,52.4 L10.56771,51.2 L11.953352,51.2 L11.260531,52.4 M88.16359,44 L88.85641,42.8 L89.54923,44 L90.24205,42.8 L90.93487,41.6 L91.627686,40.4 L90.93487,39.2 L90.24205,38 L91.627686,38 L93.01333,38 L92.32051,39.2 L93.01333,40.4 L93.706154,39.2 L94.39897,38 M68.07179,38 L67.37898,39.2 L68.07179,40.4 L69.45744,40.4 L68.76462,39.2 L69.45744,38 L70.84308,38 L72.228714,38 L72.92154,39.2 L73.614365,38 L74.30718,39.2 L75,38 L76.385635,38 L77.771286,38 L77.07846,39.2 L78.4641,39.2 L79.84975,39.2 L80.54256,38 L79.15692,38 M52.82975,42.8 L54.215393,42.8 L54.908215,44 L55.601032,42.8 L56.293854,44 L56.98667,45.2 L57.679493,44 L59.065136,44 L60.450775,44 L59.757954,42.8 L59.065136,41.6 L58.372314,42.8 L56.98667,42.8 L56.293854,41.6 L57.679493,41.6 L58.372314,40.4 L56.98667,40.4 L55.601032,40.4 L54.215393,40.4 L52.82975,40.4 L52.136932,39.2 L53.52257,39.2 L52.82975,38 L54.215393,38 L55.601032,38 L54.908215,39.2 L56.293854,39.2 L56.98667,38 L58.372314,38 L57.679493,39.2 L59.065136,39.2 L59.757954,38 L61.143593,38 L62.529236,38 L63.914875,38 L65.300514,38 L64.6077,39.2 L63.914875,40.4 L65.300514,40.4 L65.99333,39.2 L66.68616,38 M55.601032,47.6 L54.908215,46.4 L54.215393,45.2 L53.52257,46.4 L54.215393,47.6 L52.82975,47.6 L51.44411,47.6 L50.75129,46.4 L51.44411,45.2 L50.75129,44 L51.44411,42.8 L52.136932,41.6 L51.44411,40.4 L50.75129,39.2 L51.44411,38 L50.058468,38 M126.2687,52.4 L125.57588,51.2 L126.961525,51.2 L127.65434,52.4 L129.03998,52.4 L129.7328,53.6 L131.11844,53.6 L132.50409,53.6 L131.81126,54.8 L130.42563,54.8 L129.03998,54.8 L127.65434,54.8 L128.34717,53.6 L126.961525,53.6 L126.2687,54.8 L126.961525,56 L128.34717,56 L129.7328,56 L131.11844,56 L132.50409,56 L133.88974,56 L134.58255,54.8 L135.96819,54.8 L135.27536,56 L134.58255,57.2 L135.96819,57.2 L136.66101,56 L137.35384,54.8 L138.04666,56 L137.35384,57.2 L138.73947,57.2 L140.1251,57.2 L139.43228,56 L138.73947,54.8 M26.502579,40.4 L27.88822,40.4 L27.195398,39.2 L25.809757,39.2 L25.116938,40.4 L24.424118,39.2 L23.731297,38 L22.345655,38 M76.385635,54.8 L75.692825,53.6 L77.07846,53.6 L77.771286,52.4 L78.4641,53.6 L79.84975,53.6 L80.54256,52.4 L81.23538,51.2 L80.54256,50 L81.23538,48.8 L81.92821,50 L82.621025,51.2 L83.31384,52.4 L82.621025,53.6 L84.00667,53.6 L83.31384,54.8 M81.23538,53.6 L81.92821,52.4 M74.30718,60.8 L72.92154,60.8 L73.614365,59.6 L72.228714,59.6 L71.535904,60.8 L70.15026,60.8 L70.84308,59.6 L70.15026,58.4 L69.45744,57.2 L68.76462,58.4 L67.37898,58.4 L66.68616,59.6 L68.07179,59.6 L67.37898,60.8 L65.99333,60.8 L65.300514,59.6 L65.99333,58.4 M68.76462,60.8 L69.45744,59.6 M32.73796,60.8 L32.045143,59.6 L31.35232,60.8 M143.5892,41.6 L142.8964,40.4 L142.20358,39.2 L141.51076,40.4 L140.1251,40.4 L138.73947,40.4 L139.43228,41.6 L138.04666,41.6 L137.35384,40.4 L135.96819,40.4 L135.27536,39.2 L133.88974,39.2 L133.19691,38 L134.58255,38 L135.96819,38 L137.35384,38 L138.73947,38 L140.1251,38 L141.51076,38 L142.8964,38 L143.5892,39.2 M116.569214,50 L117.26204,51.2 L117.95486,50 L117.26204,48.8 L117.95486,47.6 L118.64768,46.4 L119.3405,47.6 L120.726135,47.6 L121.41896,48.8 L120.726135,50 L122.11178,50 L121.41896,51.2 L122.8046,51.2 L122.11178,52.4 L123.49742,52.4 L124.19025,51.2 L123.49742,50 L122.8046,48.8 M36.894882,53.6 L37.587704,52.4 L36.202065,52.4 M87.470764,50 L88.16359,51.2 L88.85641,50 L89.54923,51.2 L88.85641,52.4 L90.24205,52.4 L90.93487,51.2 L92.32051,51.2 L93.01333,52.4 L92.32051,53.6 L90.93487,53.6 L91.627686,54.8 L93.01333,54.8 L94.39897,54.8 L93.706154,56 L92.32051,56 L93.01333,57.2 L94.39897,57.2 L93.706154,58.4 L94.39897,59.6 L95.78461,59.6 L97.17025,59.6 L98.55589,59.6 L97.863075,60.8 L96.47743,60.8 L95.09179,60.8 L93.706154,60.8 L93.01333,59.6 L92.32051,60.8 L90.93487,60.8 L89.54923,60.8 L88.85641,59.6 L87.470764,59.6 L88.16359,60.8 M66.68616,50 L65.99333,48.8 L65.300514,47.6 L65.99333,46.4 L66.68616,47.6 L68.07179,47.6 L68.76462,46.4 L68.07179,45.2 L66.68616,45.2 L65.300514,45.2 L64.6077,46.4 L63.222057,46.4 L63.914875,47.6 L64.6077,48.8 L65.300514,50 L64.6077,51.2 L63.222057,51.2 L61.836414,51.2 L61.143593,52.4 L59.757954,52.4 L58.372314,52.4 L59.065136,51.2 L59.757954,50 L60.450775,51.2 L61.143593,50 L61.836414,48.8 L62.529236,50 L63.914875,50 L63.222057,48.8 L62.529236,47.6 L61.143593,47.6 L59.757954,47.6 L59.065136,48.8 L57.679493,48.8 L56.98667,47.6 L56.293854,48.8 L54.908215,48.8 L55.601032,50 L56.293854,51.2 L55.601032,52.4 L54.908215,53.6 L55.601032,54.8 L54.908215,56 L55.601032,57.2 L54.215393,57.2 L53.52257,56 L52.82975,54.8 L52.136932,56 L50.75129,56 L49.365646,56 L50.058468,57.2 L48.67283,57.2 L47.980007,58.4 L46.594368,58.4 L47.28719,59.6 L46.594368,60.8 L47.980007,60.8 L48.67283,59.6 L50.058468,59.6 L49.365646,60.8 L50.75129,60.8 L51.44411,59.6 L50.75129,58.4 L51.44411,57.2 L52.82975,57.2 L52.136932,58.4 L53.52257,58.4 L52.82975,59.6 L53.52257,60.8 L52.136932,60.8 M73.614365,40.4 L72.92154,41.6 L71.535904,41.6 L72.228714,40.4 L70.84308,40.4 L71.535904,39.2 L70.15026,39.2 M89.54923,46.4 L90.24205,45.2 L90.93487,46.4 L91.627686,45.2 L90.93487,44 L91.627686,42.8 L92.32051,44 L93.01333,45.2 M33.43078,45.2 M23.038477,56 L23.731297,57.2 L25.116938,57.2 L26.502579,57.2 L27.88822,57.2 L28.58104,58.4 L27.88822,59.6 L27.195398,58.4 L25.809757,58.4 L25.116938,59.6 L23.731297,59.6 L23.038477,60.8 L24.424118,60.8 L25.809757,60.8 L26.502579,59.6 L27.195398,60.8 M84.00667,44 L85.3923,44 L84.69948,45.2 L85.3923,46.4 L84.69948,47.6 L84.00667,48.8 L83.31384,47.6 L84.00667,46.4 L82.621025,46.4 L81.23538,46.4 L81.92821,47.6 L82.621025,48.8 L83.31384,50 M61.836414,39.2 L63.222057,39.2 L62.529236,40.4 L61.143593,40.4 L59.757954,40.4 L60.450775,39.2 M38.973343,38 L38.280525,39.2 L39.66616,39.2 L40.358986,38 L41.051804,39.2 L42.437447,39.2 L43.130264,38 L44.515907,38 L43.823082,39.2 L44.515907,40.4 L45.208725,39.2 L45.901546,38 M6.4107885,41.6 L5.717969,42.8 L6.4107885,44 L7.1036096,45.2 L6.4107885,46.4 L7.7964296,46.4 L8.48925,47.6 L7.7964296,48.8 L8.48925,50 L7.7964296,51.2 L7.1036096,50 L5.717969,50 L6.4107885,48.8 L7.1036096,47.6 L5.717969,47.6 M70.84308,52.4 L71.535904,53.6 L72.228714,54.8 L72.92154,56 L72.228714,57.2 L71.535904,58.4 L72.92154,58.4 L73.614365,57.2 L74.30718,58.4 L75,59.6 L75.692825,60.8 M138.73947,45.2 L140.1251,45.2 L139.43228,46.4 L140.1251,47.6 L141.51076,47.6 L142.8964,47.6 L142.20358,48.8 L143.5892,48.8 L142.8964,50 L142.20358,51.2 L142.8964,52.4 L143.5892,53.6 L142.8964,54.8 L143.5892,56 M33.43078,54.8 L32.73796,53.6 L32.045143,54.8 M70.84308,57.2 L71.535904,56 M98.55589,38 M16.110273,56 L15.417453,57.2 L14.724632,58.4 L14.031812,59.6 L13.338992,58.4 L11.953352,58.4 L11.260531,59.6 L11.953352,60.8 L10.56771,60.8 L9.87489,59.6 L8.48925,59.6 L7.7964296,60.8 L6.4107885,60.8 L7.1036096,59.6 L5.717969,59.6 M11.260531,45.2 L11.953352,46.4 L13.338992,46.4 L14.031812,45.2 L14.724632,44 L13.338992,44 L12.646172,42.8 L11.953352,41.6 L11.260531,42.8 L9.87489,42.8 L9.18207,44 L8.48925,45.2 L9.18207,46.4 L9.87489,45.2 L10.56771,44 L11.953352,44 L12.646172,45.2 M84.00667,39.2 L84.69948,38 L85.3923,39.2 L86.77795,39.2 L87.470764,40.4 L88.85641,40.4 L88.16359,41.6 L89.54923,41.6 L90.24205,40.4 L89.54923,39.2 L88.85641,38 L87.470764,38 L88.16359,39.2 M16.110273,41.6 L15.417453,42.8 L16.110273,44 L16.803095,45.2 L15.417453,45.2 L14.724632,46.4 M14.031812,42.8 L14.724632,41.6 L13.338992,41.6 L14.031812,40.4 L15.417453,40.4 L14.724632,39.2 L13.338992,39.2 L12.646172,40.4 L11.260531,40.4 L11.953352,39.2 L11.260531,38 L12.646172,38 L14.031812,38 L15.417453,38 M24.424118,58.4 L23.038477,58.4 L22.345655,57.2 L20.960016,57.2 L19.574375,57.2 L18.881556,56 L20.267195,56 L19.574375,54.8 L20.267195,53.6 L21.652836,53.6 L22.345655,54.8 L23.038477,53.6 L23.731297,54.8 L24.424118,56 M27.88822,52.4 L28.58104,53.6 L27.195398,53.6 M38.280525,44 L39.66616,44 L38.973343,45.2 L38.280525,46.4 L37.587704,47.6 L38.280525,48.8 L38.973343,47.6 L39.66616,48.8 L38.973343,50 M7.1036096,42.8 L7.7964296,44 L8.48925,42.8 L7.7964296,41.6 L9.18207,41.6 L8.48925,40.4 L7.7964296,39.2 L7.1036096,38 L6.4107885,39.2 L5.717969,38 M108.9482,39.2 L109.641014,38 L108.25537,38 L107.562546,39.2 L106.86973,38 L105.48409,38 L104.098465,38 L102.712814,38 M134.58255,45.2 L135.27536,46.4 L134.58255,47.6 L135.27536,48.8 L133.88974,48.8 L133.19691,47.6 L133.88974,46.4 L133.19691,45.2 L131.81126,45.2 M109.641014,45.2 L108.9482,46.4 L107.562546,46.4 L108.25537,45.2 L107.562546,44 L108.25537,42.8 L108.9482,44 L110.33384,44 L109.641014,42.8 L110.33384,41.6 L111.02666,42.8 L111.71948,41.6 L112.41229,40.4 L111.71948,39.2 L111.02666,40.4 L109.641014,40.4 L110.33384,39.2 L111.02666,38 M33.43078,52.4 L34.1236,53.6 M124.88306,38 L123.49742,38 L124.19025,39.2 L122.8046,39.2 M96.47743,41.6 L97.17025,42.8 L95.78461,42.8 L95.09179,44 L96.47743,44 L97.863075,44 M54.908215,60.8 L54.215393,59.6 L54.908215,58.4 L55.601032,59.6 L56.293854,58.4 L56.98667,57.2 L56.293854,56 L56.98667,54.8 L58.372314,54.8 L57.679493,53.6 L56.98667,52.4 L57.679493,51.2 L58.372314,50 L56.98667,50 M130.42563,38 L131.81126,38 L132.50409,39.2 L133.19691,40.4 L132.50409,41.6 L133.88974,41.6 L134.58255,40.4 L135.27536,41.6 M110.33384,53.6 L111.02666,54.8 L112.41229,54.8 L113.10512,56 L114.49076,56 L115.18358,57.2 L115.8764,56 L116.569214,54.8 L115.18358,54.8 L115.8764,53.6 L115.18358,52.4 L115.8764,51.2 M76.385635,42.8 L77.07846,44 L77.771286,42.8 L77.07846,41.6 L75.692825,41.6 L76.385635,40.4 L75.692825,39.2 L75,40.4 L74.30718,41.6 L75,42.8 L75.692825,44 L76.385635,45.2 L75.692825,46.4 L75,45.2 L74.30718,46.4 L72.92154,46.4 L73.614365,45.2 L72.228714,45.2 L71.535904,44 L72.228714,42.8 L70.84308,42.8 L69.45744,42.8 L68.07179,42.8 L67.37898,44 L68.76462,44 L69.45744,45.2 L70.15026,46.4 L70.84308,45.2 L70.15026,44 M59.757954,45.2 L59.065136,46.4 L58.372314,45.2 L57.679493,46.4 L56.293854,46.4 L55.601032,45.2 M115.8764,44 L117.26204,44 L117.95486,45.2 M11.260531,50 L9.87489,50 L9.18207,48.8 L9.87489,47.6 L11.260531,47.6 L11.953352,48.8 L10.56771,48.8 M44.515907,59.6 L45.901546,59.6 L45.208725,60.8 L43.823082,60.8 L42.437447,60.8 L41.051804,60.8 L39.66616,60.8 L38.973343,59.6 L40.358986,59.6 L39.66616,58.4 L38.280525,58.4 L38.973343,57.2 M100.63435,51.2 L101.32717,50 L100.63435,48.8 L99.94153,50 L98.55589,50 L99.24871,48.8 L98.55589,47.6 L97.17025,47.6 L96.47743,48.8 L95.78461,47.6 L95.09179,46.4 L94.39897,47.6 L95.09179,48.8 L94.39897,50 L95.09179,51.2 L95.78461,50 L96.47743,51.2 L97.17025,50 L97.863075,51.2 M48.67283,42.8 M142.20358,46.4 L143.5892,46.4 L142.8964,45.2 L143.5892,44 M66.68616,40.4 L67.37898,41.6 L68.76462,41.6 L70.15026,41.6 M54.908215,41.6 L53.52257,41.6 M77.07846,51.2 L76.385635,52.4 L75,52.4 L74.30718,53.6 L73.614365,54.8 L75,54.8 L74.30718,56 M17.495914,56 L16.803095,57.2 L17.495914,58.4 L16.803095,59.6 L18.188734,59.6 L18.881556,60.8 L20.267195,60.8 L20.960016,59.6 L21.652836,58.4 L20.267195,58.4 L18.881556,58.4 L18.188734,57.2 M129.03998,47.6 L130.42563,47.6 L129.7328,48.8 L128.34717,48.8 L126.961525,48.8 L127.65434,47.6 L126.961525,46.4 L127.65434,45.2 L128.34717,46.4 L129.7328,46.4 M114.49076,60.8 L115.8764,60.8 L116.569214,59.6 L117.26204,58.4 L116.569214,57.2 L117.95486,57.2 L119.3405,57.2 L120.726135,57.2 M138.04666,39.2 L136.66101,39.2 M124.88306,52.4 L124.19025,53.6 L125.57588,53.6 M29.273859,50 M54.215393,54.8 M132.50409,60.8 L131.11844,60.8 L131.81126,59.6 L131.11844,58.4 L130.42563,57.2 L129.7328,58.4 L128.34717,58.4 L126.961525,58.4 L127.65434,59.6 L128.34717,60.8 L129.03998,59.6 L130.42563,59.6 L129.7328,60.8 M136.66101,58.4 L135.96819,59.6 L135.27536,58.4 L133.88974,58.4 L133.19691,57.2 L131.81126,57.2 M81.23538,39.2 L81.92821,38 L83.31384,38 L82.621025,39.2 L83.31384,40.4 L84.00667,41.6 L84.69948,42.8 L86.08513,42.8 L87.470764,42.8 L86.77795,41.6 L85.3923,41.6 L86.08513,40.4 L84.69948,40.4 M43.130264,45.2 L42.437447,44 L41.744625,45.2 L41.051804,44 L40.358986,45.2 L39.66616,46.4 L41.051804,46.4 L42.437447,46.4 M65.99333,51.2 L67.37898,51.2 M97.863075,56 L98.55589,54.8 L99.24871,53.6 L99.94153,54.8 L100.63435,53.6 M71.535904,46.4 L70.84308,47.6 L72.228714,47.6 L72.92154,48.8 L73.614365,50 L74.30718,48.8 L73.614365,47.6 L75,47.6 M38.280525,41.6 L39.66616,41.6 L41.051804,41.6 L40.358986,42.8 L38.973343,42.8 L37.587704,42.8 M110.33384,60.8 L108.9482,60.8 L107.562546,60.8 L106.86973,59.6 L106.17692,60.8 L105.48409,59.6 L104.79128,58.4 L104.098465,57.2 L104.79128,56 L105.48409,57.2 M64.6077,53.6 M60.450775,41.6 L61.836414,41.6 L63.222057,41.6 L64.6077,41.6 L63.914875,42.8 L65.300514,42.8 L64.6077,44 L65.99333,44 L66.68616,42.8 L65.99333,41.6 M90.93487,56 L90.24205,54.8 L89.54923,53.6 L88.16359,53.6 L86.77795,53.6 L87.470764,54.8 L88.16359,56 L87.470764,57.2 L86.77795,56 L86.08513,54.8 M130.42563,52.4 L131.11844,51.2 L129.7328,51.2 L129.03998,50 L127.65434,50 L128.34717,51.2 M10.56771,39.2 L9.87489,38 L8.48925,38 L9.18207,39.2 L9.87489,40.4 L10.56771,41.6 M43.823082,41.6 L42.437447,41.6 L41.744625,42.8 L43.130264,42.8 L43.823082,44 L44.515907,42.8 M58.372314,47.6 M95.09179,53.6 L94.39897,52.4 L93.706154,53.6 M56.293854,53.6 M56.293854,60.8 M130.42563,42.8 L131.81126,42.8 L131.11844,41.6 L131.81126,40.4 L131.11844,39.2 L130.42563,40.4 M109.641014,52.4 M49.365646,58.4 M34.81642,59.6 L36.202065,59.6 L36.894882,60.8 L35.50924,60.8 L34.1236,60.8 L33.43078,59.6 L32.73796,58.4 L34.1236,58.4 L35.50924,58.4 L36.202065,57.2 L36.894882,58.4 L37.587704,59.6 L38.280525,60.8 M50.058468,52.4 L50.75129,53.6 L51.44411,52.4 M7.1036096,40.4 L5.717969,40.4 M99.24871,60.8 M118.64768,58.4 M7.1036096,52.4 L6.4107885,51.2 M105.48409,52.4 L104.79128,53.6 L104.098465,54.8 L103.40564,53.6 L104.098465,52.4 L104.79128,51.2 M63.222057,44 L62.529236,42.8 L61.836414,44 L61.143593,42.8 M113.10512,41.6 L112.41229,42.8 L113.10512,44 L111.71948,44 L111.02666,45.2 L110.33384,46.4 L111.71948,46.4 L112.41229,45.2 L113.10512,46.4 L112.41229,47.6 M140.81793,53.6 L141.51076,52.4 L142.20358,53.6 M135.96819,50 L134.58255,50 M44.515907,52.4 L45.901546,52.4 M40.358986,47.6 M68.76462,56 L68.07179,57.2 M67.37898,46.4 M15.417453,54.8 M20.960016,54.8 L21.652836,56 M13.338992,60.8 L12.646172,59.6 M45.901546,45.2 L46.594368,44 L47.28719,45.2 L47.980007,46.4 L48.67283,45.2 M37.587704,40.4 L38.973343,40.4 L40.358986,40.4 L41.744625,40.4 L43.130264,40.4 M93.01333,42.8 L92.32051,41.6 L93.706154,41.6 L95.09179,41.6 M36.202065,50 M52.136932,46.4 L52.82975,45.2 L52.136932,44 L53.52257,44 M133.88974,53.6 L133.19691,54.8 M143.5892,60.8 L142.20358,60.8 L141.51076,59.6 M47.980007,48.8 L48.67283,47.6 L49.365646,48.8 M86.08513,45.2 L86.77795,44 L87.470764,45.2 L88.85641,45.2 L88.16359,46.4 L88.85641,47.6 M102.02,51.2 M27.88822,42.8 L26.502579,42.8 M5.717969,45.2 M140.81793,56 M74.30718,44 L73.614365,42.8 L72.92154,44 M77.771286,40.4 L79.15692,40.4 L79.84975,41.6 L80.54256,40.4 L81.23538,41.6 L82.621025,41.6 L83.31384,42.8 M22.345655,59.6 L21.652836,60.8 M79.15692,59.6 L78.4641,58.4 M133.88974,60.8 M16.110273,60.8 L15.417453,59.6 L14.724632,60.8 M97.17025,54.8 L96.47743,56 M126.2687,45.2 L126.961525,44 L128.34717,44 L127.65434,42.8 L126.2687,42.8 M138.04666,44 M59.065136,53.6 L60.450775,53.6 M85.3923,58.4 L86.08513,57.2 M63.914875,45.2 L62.529236,45.2 L61.836414,46.4 L60.450775,46.4 L61.143593,45.2 M114.49076,48.8 M30.6595,45.2 L31.35232,46.4 M96.47743,58.4 L97.863075,58.4 L99.24871,58.4 M102.712814,54.8 L103.40564,56 L102.712814,57.2 L103.40564,58.4 M5.717969,54.8 M27.88822,38 L29.273859,38 L30.6595,38 M93.706154,51.2 L93.01333,50 L93.706154,48.8 M35.50924,46.4 M130.42563,50 L131.11844,48.8 M25.116938,38 L26.502579,38 M58.372314,59.6 M120.033325,39.2 M115.8764,58.4 M109.641014,57.2 L110.33384,58.4 M21.652836,41.6 L22.345655,40.4 M108.25537,40.4 L108.9482,41.6 M22.345655,52.4 L20.960016,52.4 L19.574375,52.4 M141.51076,50 L140.81793,48.8 M45.208725,58.4 L45.901546,57.2 M97.863075,48.8 M126.961525,60.8 L126.2687,59.6 M116.569214,42.8 L115.18358,42.8 M86.08513,38 M7.1036096,57.2 M95.09179,58.4 M108.9482,48.8 L108.25537,47.6 M43.130264,54.8 M77.07846,56 M79.84975,51.2 L79.15692,52.4 M69.45744,47.6 M125.57588,48.8 L124.88306,50 L126.2687,50 M87.470764,52.4 L86.08513,52.4 L86.77795,51.2 M16.110273,58.4 M10.56771,46.4 M143.5892,51.2 M107.562546,51.2 M28.58104,46.4 M140.81793,39.2 L139.43228,39.2 M120.033325,46.4 M81.92821,40.4 M41.744625,38 M41.744625,59.6 M9.18207,60.8 M32.73796,41.6 L33.43078,40.4 M119.3405,52.4 M78.4641,41.6 L79.15692,42.8 M106.86973,54.8 M91.627686,52.4 M28.58104,39.2 M12.646172,50 M106.86973,45.2 M127.65434,38 M60.450775,48.8 M88.85641,54.8 L89.54923,56 M19.574375,59.6 M17.495914,60.8 M22.345655,42.8 M75.692825,51.2 M37.587704,38 M80.54256,59.6 M71.535904,48.8 M135.27536,44 M129.8664,98.2084 L129.4128,99.4 M129.8664,98.2084 L130.31999,99.4 M129.582,99.004 L130.15079,99.004 M130.6026,98.6062 L130.6026,99.4 M130.6026,98.833 L130.7736,98.662 L130.887,98.6062 L131.0562,98.6062 L131.1714,98.662 L131.2272,98.833 L131.2272,99.4 M131.7366,98.2084 L131.7366,99.1732 L131.79422,99.3433 L131.9058,99.4 L132.02101,99.4 M131.56741,98.6062 L131.96341,98.6062 M132.58621,98.6062 L132.47461,98.662 L132.3594,98.7772 L132.3036,98.946396 L132.3036,99.0598 L132.3594,99.229904 L132.47461,99.3433 L132.58621,99.4 L132.7572,99.4 L132.8706,99.3433 L132.98401,99.229904 L133.03981,99.0598 L133.03981,98.946396 L132.98401,98.7772 L132.8706,98.662 L132.7572,98.6062 L132.58621,98.6062 M133.4358,98.6062 L133.4358,99.4 M133.4358,98.833 L133.60681,98.662 L133.7202,98.6062 L133.8894,98.6062 L134.00461,98.662 L134.06041,98.833 L134.06041,99.4 M134.5122,98.2084 L134.5122,99.4 M134.5122,98.2084 L134.9658,99.4 M135.4194,98.2084 L134.9658,99.4 M135.4194,98.2084 L135.4194,99.4 M136.49762,98.6062 L136.49762,99.4 M136.49762,98.7772 L136.38422,98.662 L136.27081,98.6062 L136.09982,98.6062 L135.98822,98.662 L135.87302,98.7772 L135.81721,98.946396 L135.81721,99.0598 L135.87302,99.229904 L135.98822,99.3433 L136.09982,99.4 L136.27081,99.4 L136.38422,99.3433 L136.49762,99.229904 M136.94942,98.2084 L136.94942,99.4 M137.51822,98.6062 L136.94942,99.1732 M137.17622,98.946396 L137.57402,99.4 M137.85841,98.946396 L138.53882,98.946396 L138.53882,98.833 L138.483,98.7196 L138.42542,98.662 L138.31201,98.6062 L138.14102,98.6062 L138.02942,98.662 L137.91422,98.7772 L137.85841,98.946396 L137.85841,99.0598 L137.91422,99.229904 L138.02942,99.3433 L138.14102,99.4 L138.31201,99.4 L138.42542,99.3433 L138.53882,99.229904 M139.50362,98.7772 L139.44601,98.662 L139.27682,98.6062 L139.10582,98.6062 L138.93481,98.662 L138.87901,98.7772 L138.93481,98.8888 L139.05002,98.946396 L139.33261,99.004 L139.44601,99.0598 L139.50362,99.1732 L139.50362,99.229904 L139.44601,99.3433 L139.27682,99.4 L139.10582,99.4 L138.93481,99.3433 L138.87901,99.229904 M140.69522,98.4928 L140.6376,98.3794 L140.52422,98.266 L140.41081,98.2084 L140.184,98.2084 L140.07062,98.266 L139.95721,98.3794 L139.89961,98.4928 L139.84381,98.662 L139.84381,98.946396 L139.89961,99.1156 L139.95721,99.229904 L140.07062,99.3433 L140.184,99.4 L140.41081,99.4 L140.52422,99.3433 L140.6376,99.229904 L140.69522,99.1156 L140.69522,98.946396 M140.41081,98.946396 L140.69522,98.946396 M141.71582,98.6062 L141.71582,99.4 M141.71582,98.7772 L141.60242,98.662 L141.48901,98.6062 L141.31802,98.6062 L141.20642,98.662 L141.09122,98.7772 L141.03542,98.946396 L141.03542,99.0598 L141.09122,99.229904 L141.20642,99.3433 L141.31802,99.4 L141.48901,99.4 L141.60242,99.3433 L141.71582,99.229904 M142.16762,98.6062 L142.16762,99.4 M142.16762,98.833 L142.33862,98.662 L142.45201,98.6062 L142.62122,98.6062 L142.73642,98.662 L142.79222,98.833 L142.79222,99.4 M142.79222,98.833 L142.96323,98.662 L143.07481,98.6062 L143.24582,98.6062 L143.35922,98.662 L143.41682,98.833 L143.41682,99.4 M143.81282,98.946396 L144.49323,98.946396 L144.49323,98.833 L144.43741,98.7196 L144.37982,98.662 L144.26642,98.6062 L144.09543,98.6062 L143.98383,98.662 L143.86862,98.7772 L143.81282,98.946396 L143.81282,99.0598 L143.86862,99.229904 L143.98383,99.3433 L144.09543,99.4 L144.26642,99.4 L144.37982,99.3433 L144.49323,99.229904 M145.45802,98.7772 L145.40042,98.662 L145.23123,98.6062 L145.06023,98.6062 L144.88922,98.662 L144.83342,98.7772 L144.88922,98.8888 L145.00443,98.946396 L145.28702,99.004 L145.40042,99.0598 L145.45802,99.1732 L145.45802,99.229904 L145.40042,99.3433 L145.23123,99.4 L145.06023,99.4 L144.88922,99.3433 L144.83342,99.229904 M146.67842,98.2084 L146.50923,98.266 L146.39401,98.435196 L146.33823,98.7196 L146.33823,98.8888 L146.39401,99.1732 L146.50923,99.3433 L146.67842,99.4 L146.79182,99.4 L146.96281,99.3433 L147.07443,99.1732 L147.13202,98.8888 L147.13202,98.7196 L147.07443,98.435196 L146.96281,98.266 L146.79182,98.2084 L146.67842,98.2084 M148.15262,98.2084 L147.58562,98.2084 L147.52802,98.7196 L147.58562,98.662 L147.75482,98.6062 L147.92581,98.6062 L148.09682,98.662 L148.20842,98.7772 L148.26602,98.946396 L148.26602,99.0598 L148.20842,99.229904 L148.09682,99.3433 L147.92581,99.4 L147.75482,99.4 L147.58562,99.3433 L147.52802,99.286606 L147.47221,99.1732 M148.66202,98.4928 L148.66202,98.435196 L148.71962,98.3236 L148.77722,98.266 L148.88882,98.2084 L149.11562,98.2084 L149.2308,98.266 L149.28662,98.3236 L149.34242,98.435196 L149.34242,98.5504 L149.28662,98.662 L149.17322,98.833 L148.60622,99.4 L149.40001,99.4" fill="none" stroke="black" stroke-width="0.4"/>
</svg>