<svg height="100mm" units="mm" viewBox="0 0 150 100" width="150mm" xmlns="http://www.w3.org/2000/svg">
<path d="M59.757954,38 M63.914875,55.6 L63.34919,55.365685 L63.114876,54.8 L63.34919,54.234314 L63.914875,54 L64.48056,54.234314 L64.714874,54.8 L64.48056,55.365685 L63.914875,55.6 M75,26.8 L74.43431,26.565685 L74.2,26 L74.43431,25.434315 L75,25.2 L75.56569,25.434315 L75.8,26 L75.56569,26.565685 L75,26.8 M47.28719,60.4 L46.721504,60.165688 L46.48719,59.6 L46.721504,59.034313 L47.28719,58.8 L47.852875,59.034313 L48.08719,59.6 L47.852875,60.165688 L47.28719,60.4 M101.32717,67.6 L100.76149,67.365685 L100.527176,66.8 L100.76149,66.234314 L101.32717,66 L101.89286,66.234314 L102.127174,66.8 L101.89286,67.365685 L101.32717,67.6 M86.08513,31.6 L85.51944,31.365686 L85.285126,30.8 L85.51944,30.234314 L86.08513,30 L86.65081,30.234314 L86.885124,30.8 L86.65081,31.365686 L86.08513,31.6 M61.143593,31.6 L60.577904,31.365686 L60.34359,30.8 L60.577904,30.234314 L61.143593,30 L61.70928,30.234314 L61.943592,30.8 L61.70928,31.365686 L61.143593,31.6 M90.24205,29.2 L89.67636,28.965687 L89.44205,28.4 L89.67636,27.834314 L90.24205,27.6 L90.80773,27.834314 L91.042046,28.4 L90.80773,28.965687 L90.24205,29.2 M101.32717,38.8 L100.76149,38.565685 L100.527176,38 L100.76149,37.434315 L101.32717,37.2 L101.89286,37.434315 L102.127174,38 L101.89286,38.565685 L101.32717,38.8 M55.601032,26.8 L55.035347,26.565685 L54.801033,26 L55.035347,25.434315 L55.601032,25.2 L56.166718,25.434315 L56.40103,26 L56.166718,26.565685 L55.601032,26.8 M68.07179,43.6 L67.50611,43.365685 L67.2718,42.8 L67.50611,42.234314 L68.07179,42 L68.63748,42.234314 L68.871796,42.8 L68.63748,43.365685 L68.07179,43.6 M94.39897,31.6 L93.83328,31.365686 L93.59897,30.8 L93.83328,30.234314 L94.39897,30 L94.96465,30.234314 L95.19897,30.8 L94.96465,31.365686 L94.39897,31.6 M47.28719,46 L46.721504,45.765686 L46.48719,45.2 L46.721504,44.634315 L47.28719,44.4 L47.852875,44.634315 L48.08719,45.2 L47.852875,45.765686 L47.28719,46 M47.28719,31.6 L46.721504,31.365686 L46.48719,30.8 L46.721504,30.234314 L47.28719,30 L47.852875,30.234314 L48.08719,30.8 L47.852875,31.365686 L47.28719,31.6 M75,41.2 L74.43431,40.965687 L74.2,40.4 L74.43431,39.834312 L75,39.6 L75.56569,39.834312 L75.8,40.4 L75.56569,40.965687 L75,41.2 M84.69948,72.4 L84.1338,72.16569 L83.89948,71.6 L84.1338,71.03432 L84.69948,70.8 L85.26517,71.03432 L85.49948,71.6 L85.26517,72.16569 L84.69948,72.4 M47.28719,69.2 L48.67283,71.6 M66.68616,59.6 L68.07179,62 M62.52923,66.8 L59.757954,66.8 M80.542564,54.8 L81.92821,57.2 M62.52923,71.6 L59.757954,71.6 M48.67283,62 L51.44411,62 M84.69948,38 L83.31384,40.4 M97.17025,64.4 L95.78461,62 M101.32717,28.4 L99.941536,26 M81.92821,47.6 L80.542564,50 M59.757954,47.6 L61.143593,45.2 M97.17025,40.4 L96.47743,41.6 L96.260925,42.125 L96.30422,42.5 L96.60734,42.725 L98.55589,42.8 M93.01332,57.2 L93.70615,56 L94.05256,55.4 L94.398964,54.8 L94.74538,54.2 L95.78461,52.4 M62.52923,47.6 L63.222054,48.8 L63.568462,49.25 L63.914867,49.4 L64.26128,49.25 L65.300514,47.6 M81.92821,71.6 L80.542564,71.6 L79.84975,71.6 L79.15692,71.6 L78.464096,71.6 L76.385635,71.6 M72.22872,50 L70.84308,50 L70.28017,49.925 L69.97705,49.7 L69.933754,49.325 L70.15025,48.8 L70.496666,48.2 L70.84308,47.6 L71.18949,47 L72.22872,45.2 M61.143593,40.4 L61.836414,39.2 L62.182823,38.6 L62.529236,38 L62.87564,37.4 L63.222054,36.8 L63.43856,36.275 L63.395264,35.9 L63.09215,35.675 L61.143593,35.6 M48.67283,42.8 L47.98001,41.6 L47.763504,41.075 L47.806805,40.7 L48.109913,40.475 L48.67283,40.4 L49.36565,40.4 L50.058468,40.4 L50.75129,40.4 L51.44411,40.4 L52.007027,40.475 L52.31013,40.7 L52.35343,41.075 L51.44411,42.8 M56.98667,52.4 L56.293846,51.2 L55.947437,50.75 L55.601025,50.6 L55.25462,50.75 L54.90821,51.2 L54.5618,51.65 L54.215393,51.8 L53.86898,51.65 L53.52257,51.2 L53.17616,50.75 L52.82975,50.6 L52.483337,50.75 L52.136925,51.2 L51.877117,51.8 L51.790516,52.4 L51.877117,53 L52.82975,54.8 M76.385635,33.2 L77.07846,32 L77.29497,31.475 L77.25167,31.1 L76.94856,30.875 L76.38564,30.8 L75.73612,30.725 L75.1732,30.5 L74.696884,30.125 L74.307175,29.6 L73.96077,29.15 L73.614365,29 L73.26796,29.15 L72.92155,29.6 L72.661736,30.2 L72.575134,30.8 L72.661736,31.4 L73.614365,33.2 M48.67283,38 L47.98001,36.8 L47.720203,36.2 L47.6336,35.6 L47.720203,35 L47.98001,34.4 L48.326424,33.95 L48.67283,33.8 L49.019238,33.95 L49.36565,34.4 L49.755363,34.925 L50.231674,35.3 L50.79459,35.525 L51.44411,35.6 L52.007027,35.675 L52.31013,35.9 L52.35343,36.275 L51.44411,38 M75,64.4 L74.307175,65.6 L74.090675,66.125 L74.13397,66.5 L74.43709,66.725 L75,66.8 L75.56291,66.875 L75.86603,67.1 L75.909325,67.475 L75.692825,68 L75.47632,68.525 L75.519615,68.9 L75.82273,69.125 L76.38564,69.2 L77.07847,69.2 L77.771286,69.2 L78.464096,69.2 L79.15692,69.2 L79.80644,69.125 L80.36936,68.9 L80.84568,68.525 L81.92821,66.8 M73.614365,71.6 L72.22872,71.6 L71.66581,71.525 L71.36269,71.3 L71.3194,70.925 L71.535904,70.4 L71.7524,69.875 L71.70911,69.5 L71.40599,69.275 L70.84308,69.2 L70.19356,69.125 L69.63064,68.9 L69.154335,68.525 L68.76462,68 L68.418205,67.55 L68.0718,67.4 L67.72539,67.55 L67.37898,68 L67.11917,68.6 L67.03257,69.2 L67.11917,69.8 L67.37898,70.4 L67.59548,70.925 L67.552185,71.3 L67.24907,71.525 L65.300514,71.6 M54.215385,47.6 L53.52257,46.4 L53.17616,45.95 L52.82975,45.8 L52.483337,45.95 L52.136925,46.4 L51.790516,46.85 L51.444103,47 L51.0977,46.85 L50.75129,46.4 L50.404877,45.95 L50.058468,45.8 L49.71206,45.95 L49.36565,46.4 L49.105843,47 L49.019238,47.6 L49.105843,48.2 L49.36565,48.8 L49.582157,49.325 L49.538857,49.7 L49.235744,49.925 L48.67283,50 L48.109913,50.075 L47.806805,50.3 L47.763504,50.675 L47.98001,51.2 L48.23982,51.8 L48.326424,52.4 L48.23982,53 L47.28719,54.8 M83.31384,54.8 L82.62102,53.6 L82.23131,53.075 L81.755,52.7 L81.192085,52.475 L80.542564,52.4 L79.89304,52.325 L79.330124,52.1 L78.853806,51.725 L78.464096,51.2 L78.20429,50.6 L78.11769,50 L78.20429,49.4 L78.464096,48.8 L78.72391,48.2 L78.81051,47.6 L78.72391,47 L78.464096,46.4 L78.07439,45.875 L77.598076,45.5 L77.035164,45.275 L76.38564,45.2 L75.73612,45.275 L75.1732,45.5 L74.696884,45.875 L74.307175,46.4 L74.04737,47 L73.96077,47.6 L74.04737,48.2 L74.307175,48.8 L74.65359,49.25 L75,49.4 L75.34641,49.25 L76.385635,47.6 M91.627686,35.6 L90.93486,36.8 L90.67506,37.4 L90.588455,38 L90.67506,38.6 L90.93486,39.2 L91.28127,39.8 L91.627686,40.4 L91.9741,41 L92.32051,41.6 L92.53701,42.125 L92.49371,42.5 L92.1906,42.725 L91.627686,42.8 L91.06477,42.875 L90.76166,43.1 L90.71836,43.475 L90.93486,44 L91.28127,44.6 L91.627686,45.2 L91.9741,45.8 L92.32051,46.4 L92.666916,46.85 L93.01333,47 L93.35973,46.85 L93.70615,46.4 L94.09586,45.875 L94.57217,45.5 L95.135086,45.275 L95.78461,45.2 L96.34752,45.275 L96.650635,45.5 L96.69393,45.875 L96.47743,46.4 L96.260925,46.925 L96.30422,47.3 L96.60734,47.525 L98.55589,47.6 M52.82975,26 L51.44411,26 L50.75129,26 L50.058468,26 L49.36565,26 L48.67283,26 L48.109913,26.075 L47.806805,26.3 L47.763504,26.675 L47.98001,27.2 L48.326424,27.8 L48.67283,28.4 L49.019238,29 L49.36565,29.6 L49.71206,30.2 L50.058468,30.8 L50.404877,31.4 L50.75129,32 L51.141,32.525 L51.61731,32.9 L52.18023,33.125 L52.82975,33.2 L53.392662,33.125 L53.695778,32.9 L53.739075,32.525 L53.52257,32 L53.17616,31.4 L52.82975,30.8 L52.483337,30.2 L52.136925,29.6 L51.92042,29.075 L51.963722,28.7 L52.266834,28.475 L52.82975,28.4 L53.479267,28.475 L54.042187,28.7 L54.518494,29.075 L54.90821,29.6 L55.25462,30.2 L55.601025,30.8 L55.947437,31.4 L56.98667,33.2 M94.39897,40.4 L93.70615,39.2 L93.48964,38.675 L93.532936,38.3 L93.836044,38.075 L94.398964,38 L94.961876,37.925 L95.26499,37.7 L95.30829,37.325 L95.09178,36.8 L94.74538,36.2 L94.398964,35.6 L94.05256,35 L93.70615,34.4 L93.48964,33.875 L93.532936,33.5 L93.836044,33.275 L94.398964,33.2 L95.09178,33.2 L95.78461,33.2 L96.47743,33.2 L97.17025,33.2 L97.81977,33.275 L98.38269,33.5 L98.85899,33.875 L99.24871,34.4 L99.465225,34.925 L99.42192,35.3 L99.11881,35.525 L98.55589,35.6 L97.99298,35.675 L97.689865,35.9 L97.64657,36.275 L97.863075,36.8 L98.20949,37.4 L98.55589,38 L98.9023,38.6 L99.24871,39.2 L99.59512,39.8 L99.94153,40.4 L100.28794,41 L100.63435,41.6 L100.89416,42.2 L100.98076,42.8 L100.89416,43.4 L100.63435,44 L100.37454,44.6 L100.28794,45.2 L100.37454,45.8 L100.63435,46.4 L100.89416,47 L100.98076,47.6 L100.89416,48.2 L100.63435,48.8 L100.37454,49.4 L100.28794,50 L100.37454,50.6 L100.63435,51.2 L100.89416,51.8 L100.98076,52.4 L100.89416,53 L100.63435,53.6 L100.28794,54.2 L99.94153,54.8 L99.59512,55.4 L99.24871,56 L99.0322,56.525 L99.0755,56.9 L99.37862,57.125 L99.94153,57.2 L100.50444,57.275 L100.807556,57.5 L100.85085,57.875 L100.63435,58.4 L100.28794,59 L99.94153,59.6 L99.59512,60.2 L99.24871,60.8 L99.0322,61.325 L99.0755,61.7 L99.37862,61.925 L99.94153,62 L100.50444,62.075 L100.807556,62.3 L100.85085,62.675 L100.63435,63.2 L100.28794,63.8 L99.94153,64.4 L99.59512,65 L99.24871,65.6 L98.85899,66.125 L98.38269,66.5 L97.81977,66.725 L97.17025,66.8 L96.47743,66.8 L95.78461,66.8 L95.09178,66.8 L94.398964,66.8 L93.74944,66.875 L93.18653,67.1 L92.71022,67.475 L92.32051,68 L91.9741,68.6 L91.627686,69.2 L91.28127,69.8 L90.93486,70.4 L90.71836,70.925 L90.76166,71.3 L91.06477,71.525 L91.627686,71.6 L92.32051,71.6 L93.01332,71.6 L93.70614,71.6 L94.398964,71.6 L94.961876,71.525 L95.26499,71.3 L95.30829,70.925 L95.09178,70.4 L94.87528,69.875 L94.91858,69.5 L95.221695,69.275 L95.78461,69.2 L96.47743,69.2 L97.17025,69.2 L97.863075,69.2 L98.55589,69.2 L99.205414,69.275 L99.768326,69.5 L100.244644,69.875 L100.63435,70.4 L100.85085,70.925 L100.807556,71.3 L100.50444,71.525 L98.55589,71.6 M76.385635,38 L77.77128,38 L78.33419,38.075 L78.63731,38.3 L78.6806,38.675 L78.464096,39.2 L78.20429,39.8 L78.11769,40.4 L78.20429,41 L78.464096,41.6 L78.6806,42.125 L78.63731,42.5 L78.33419,42.725 L77.77128,42.8 L77.07845,42.8 L76.385635,42.8 L75.692825,42.8 L75,42.8 L74.307175,42.8 L73.614365,42.8 L72.92155,42.8 L72.22872,42.8 L71.66581,42.725 L71.36269,42.5 L71.3194,42.125 L71.535904,41.6 L71.7524,41.075 L71.70911,40.7 L71.40599,40.475 L70.84308,40.4 L70.19356,40.325 L69.63064,40.1 L69.154335,39.725 L68.76462,39.2 L68.50481,38.6 L68.418205,38 L68.50481,37.4 L68.76462,36.8 L69.11103,36.2 L69.457436,35.6 L69.80385,35 L70.15025,34.4 L70.496666,33.95 L70.84308,33.8 L71.18949,33.95 L71.535904,34.4 L71.79571,35 L71.88231,35.6 L71.79571,36.2 L71.535904,36.8 L71.3194,37.325 L71.36269,37.7 L71.66581,37.925 L72.22872,38 L72.87824,37.925 L73.441154,37.7 L73.917465,37.325 L74.307175,36.8 L74.696884,36.275 L75.1732,35.9 L75.73612,35.675 L76.38564,35.6 L77.035164,35.525 L77.598076,35.3 L78.07439,34.925 L78.464096,34.4 L78.81051,33.95 L79.15692,33.8 L79.503334,33.95 L79.84975,34.4 L80.19615,34.85 L80.542564,35 L80.88898,34.85 L81.23539,34.4 L81.49519,33.8 L81.5818,33.2 L81.49519,32.6 L81.23539,32 L80.88898,31.4 L80.542564,30.8 L80.19615,30.2 L79.84975,29.6 L79.46004,29.075 L78.98372,28.7 L78.4208,28.475 L77.77128,28.4 L77.20836,28.325 L76.90525,28.1 L76.86195,27.725 L77.07846,27.2 L77.46818,26.675 L77.94448,26.3 L78.5074,26.075 L79.15692,26 L79.84975,26 L80.542564,26 L81.23538,26 L81.92821,26 L82.621025,26 L83.31384,26 L84.00667,26 L84.699486,26 L85.39231,26 L86.08513,26 L86.77794,26 L87.470764,26 L88.16359,26 L88.85641,26 L89.549225,26 L90.24205,26 L90.89156,26.075 L91.45448,26.3 L91.9308,26.675 L92.32051,27.2 L92.666916,27.65 L93.01333,27.8 L93.35973,27.65 L93.70615,27.2 L94.09586,26.675 L94.57217,26.3 L95.135086,26.075 L95.78461,26 L96.34752,26.075 L96.650635,26.3 L96.69393,26.675 L96.47743,27.2 L96.21762,27.8 L96.13102,28.4 L96.21762,29 L96.47743,29.6 L96.82384,30.05 L97.17025,30.2 L97.51666,30.05 L97.863075,29.6 L98.20949,29.15 L98.55589,29 L98.9023,29.15 L99.24871,29.6 L99.59512,30.2 L99.94153,30.8 L100.28794,31.4 L101.32717,33.2 M87.470764,66.8 L86.08512,66.8 L85.4356,66.875 L84.87269,67.1 L84.39638,67.475 L84.00667,68 L83.79016,68.525 L83.83346,68.9 L84.13657,69.125 L84.699486,69.2 L85.34901,69.275 L85.91192,69.5 L86.38823,69.875 L86.77794,70.4 L87.12435,70.85 L87.470764,71 L87.81718,70.85 L88.16359,70.4 L88.509995,69.8 L88.85641,69.2 L89.20282,68.6 L89.54923,68 L89.80904,67.4 L89.895645,66.8 L89.80904,66.2 L89.54923,65.6 L89.332726,65.075 L89.37602,64.7 L89.67913,64.475 L90.24205,64.4 L90.93487,64.4 L91.627686,64.4 L92.32051,64.4 L93.01333,64.4 L93.57625,64.325 L93.87936,64.1 L93.92265,63.725 L93.70615,63.2 L93.31643,62.675 L92.840126,62.3 L92.27721,62.075 L91.627686,62 L91.06477,61.925 L90.76166,61.7 L90.71836,61.325 L90.93486,60.8 L91.19467,60.2 L91.28127,59.6 L91.19467,59 L90.93486,58.4 L90.588455,57.95 L90.24205,57.8 L89.895645,57.95 L89.54923,58.4 L89.20282,59 L88.85641,59.6 L88.509995,60.2 L88.16359,60.8 L87.81718,61.4 L87.470764,62 L87.12435,62.6 L86.77794,63.2 L86.38823,63.725 L85.91192,64.1 L85.34901,64.325 L84.699486,64.4 L84.00667,64.4 L83.31384,64.4 L82.621025,64.4 L81.92821,64.4 L81.27869,64.475 L80.715775,64.7 L80.239456,65.075 L79.84975,65.6 L79.503334,66.05 L79.15692,66.2 L78.81051,66.05 L78.464096,65.6 L78.11769,65 L77.77128,64.4 L77.42487,63.8 L77.07846,63.2 L76.68874,62.675 L76.21244,62.3 L75.64952,62.075 L75,62 L74.35048,61.925 L73.78757,61.7 L73.31126,61.325 L72.92155,60.8 L72.661736,60.2 L72.575134,59.6 L72.661736,59 L72.92155,58.4 L73.13805,57.875 L73.09475,57.5 L72.79164,57.275 L72.22872,57.2 L71.66581,57.125 L71.36269,56.9 L71.3194,56.525 L71.535904,56 L71.92561,55.475 L72.40193,55.1 L72.96484,54.875 L73.614365,54.8 L74.26388,54.875 L74.8268,55.1 L75.303116,55.475 L75.692825,56 L75.95263,56.6 L76.03923,57.2 L75.95263,57.8 L75.692825,58.4 L75.47632,58.925 L75.519615,59.3 L75.82273,59.525 L76.38564,59.6 L77.07847,59.6 L77.771286,59.6 L78.464096,59.6 L79.15692,59.6 L79.71983,59.675 L80.02295,59.9 L80.066246,60.275 L79.84975,60.8 L79.63324,61.325 L79.67654,61.7 L79.97965,61.925 L80.542564,62 L81.192085,61.925 L81.755,61.7 L82.23131,61.325 L82.62102,60.8 L82.96743,60.35 L83.31384,60.2 L83.660255,60.35 L84.00667,60.8 L84.35307,61.25 L84.699486,61.4 L85.04589,61.25 L85.3923,60.8 L85.652115,60.2 L85.738716,59.6 L85.652115,59 L85.3923,58.4 L85.13249,57.8 L85.04589,57.2 L85.13249,56.6 L85.3923,56 L85.738716,55.55 L86.08512,55.4 L86.43153,55.55 L86.77794,56 L87.12435,56.45 L87.470764,56.6 L87.81718,56.45 L88.85641,54.8 M94.39897,59.6 L95.78461,59.6 L96.34752,59.525 L96.650635,59.3 L96.69393,58.925 L96.47743,58.4 L96.21762,57.8 L96.13102,57.2 L96.21762,56.6 L96.47743,56 L96.82384,55.4 L97.17025,54.8 L97.51666,54.2 L97.863075,53.6 L98.12288,53 L98.20949,52.4 L98.12288,51.8 L97.863075,51.2 L97.473366,50.675 L96.99705,50.3 L96.43413,50.075 L95.78461,50 L95.09178,50 L94.39897,50 L93.706154,50 L93.01333,50 L92.45042,50.075 L92.1473,50.3 L92.104004,50.675 L92.32051,51.2 L92.580315,51.8 L92.666916,52.4 L92.580315,53 L92.32051,53.6 L91.9741,54.05 L91.627686,54.2 L91.28127,54.05 L90.93486,53.6 L90.588455,53 L90.24205,52.4 L89.895645,51.8 L89.54923,51.2 L89.28942,50.6 L89.20282,50 L89.28942,49.4 L89.54923,48.8 L89.80904,48.2 L89.895645,47.6 L89.80904,47 L89.54923,46.4 L89.20282,45.8 L88.85641,45.2 L88.509995,44.6 L88.16359,44 L87.77388,43.475 L87.29756,43.1 L86.73464,42.875 L86.08512,42.8 L85.5222,42.725 L85.21909,42.5 L85.1758,42.125 L85.3923,41.6 L85.78202,41.075 L86.25832,40.7 L86.82124,40.475 L87.470764,40.4 L88.033676,40.325 L88.33679,40.1 L88.38009,39.725 L88.16359,39.2 L87.90378,38.6 L87.81718,38 L87.90378,37.4 L88.16359,36.8 L88.509995,36.2 L88.85641,35.6 L89.20282,35 L89.54923,34.4 L89.895645,33.8 L90.24205,33.2 L90.588455,32.6 L90.93486,32 L91.15137,31.475 L91.10807,31.1 L90.80496,30.875 L90.24205,30.8 L89.59253,30.725 L89.02962,30.5 L88.5533,30.125 L88.16359,29.6 L87.77388,29.075 L87.29756,28.7 L86.73464,28.475 L86.08512,28.4 L85.392296,28.4 L84.69948,28.4 L84.00667,28.4 L83.31384,28.4 L82.75093,28.475 L82.447815,28.7 L82.40452,29.075 L82.62102,29.6 L82.96743,30.2 L83.31384,30.8 L83.660255,31.4 L84.00667,32 L84.39638,32.525 L84.87269,32.9 L85.4356,33.125 L86.08512,33.2 L86.64803,33.275 L86.95115,33.5 L86.994446,33.875 L86.77794,34.4 L86.38823,34.925 L85.91192,35.3 L85.34901,35.525 L84.699486,35.6 L84.049965,35.675 L83.487045,35.9 L83.01073,36.275 L82.62102,36.8 L82.27461,37.4 L81.92821,38 L81.5818,38.6 L81.23539,39.2 L80.97558,39.8 L80.88898,40.4 L80.97558,41 L81.23539,41.6 L81.49519,42.2 L81.5818,42.8 L81.49519,43.4 L81.23539,44 L81.01888,44.525 L81.06218,44.9 L81.36529,45.125 L81.92821,45.2 L82.621025,45.2 L83.31384,45.2 L84.00667,45.2 L84.699486,45.2 L85.34901,45.275 L85.91192,45.5 L86.38823,45.875 L86.77794,46.4 L86.994446,46.925 L86.95115,47.3 L86.64803,47.525 L86.08512,47.6 L85.4356,47.675 L84.87269,47.9 L84.39638,48.275 L84.00667,48.8 L83.74686,49.4 L83.660255,50 L83.74686,50.6 L84.00667,51.2 L84.39638,51.725 L84.87269,52.1 L85.4356,52.325 L86.08512,52.4 L86.64803,52.325 L86.95115,52.1 L86.994446,51.725 L86.08513,50 M59.757954,38 L59.065136,36.8 L58.718727,36.35 L58.372314,36.2 L58.0259,36.35 L57.679493,36.8 L57.33308,37.25 L56.98667,37.4 L56.64026,37.25 L56.293846,36.8 L55.947437,36.35 L55.601025,36.2 L55.25462,36.35 L54.90821,36.8 L54.6484,37.4 L54.5618,38 L54.6484,38.6 L54.90821,39.2 L55.297924,39.725 L55.77423,40.1 L56.33715,40.325 L56.98667,40.4 L57.636192,40.475 L58.19911,40.7 L58.675426,41.075 L59.065136,41.6 L59.28164,42.125 L59.238342,42.5 L58.93523,42.725 L58.372314,42.8 L57.679493,42.8 L56.98667,42.8 L56.293846,42.8 L55.601025,42.8 L55.03811,42.875 L54.734997,43.1 L54.6917,43.475 L54.90821,44 L55.297924,44.525 L55.77423,44.9 L56.33715,45.125 L56.98667,45.2 L57.549583,45.275 L57.8527,45.5 L57.895996,45.875 L57.679493,46.4 L57.419685,47 L57.33308,47.6 L57.419685,48.2 L57.679493,48.8 L58.069202,49.325 L58.54552,49.7 L59.108437,49.925 L59.757954,50 L60.32087,50.075 L60.623974,50.3 L60.667274,50.675 L60.450768,51.2 L60.234264,51.725 L60.277565,52.1 L60.580677,52.325 L61.143593,52.4 L61.836414,52.4 L62.52923,52.4 L63.222046,52.4 L63.914867,52.4 L64.56439,52.325 L65.127304,52.1 L65.60362,51.725 L65.99333,51.2 L66.339745,50.6 L66.68616,50 L67.03257,49.4 L67.37898,48.8 L67.72539,48.2 L68.0718,47.6 L68.418205,47 L68.76462,46.4 L68.981125,45.875 L68.93783,45.5 L68.63472,45.275 L68.0718,45.2 L67.42228,45.125 L66.85936,44.9 L66.38304,44.525 L65.99333,44 L65.64693,43.55 L65.300514,43.4 L64.9541,43.55 L64.60769,44 L64.26128,44.45 L63.914867,44.6 L63.568462,44.45 L63.222054,44 L62.962242,43.4 L62.87564,42.8 L62.962242,42.2 L63.222054,41.6 L63.611767,41.075 L64.08807,40.7 L64.65099,40.475 L65.300514,40.4 L65.86343,40.325 L66.16654,40.1 L66.20984,39.725 L65.99333,39.2 L65.73353,38.6 L65.64693,38 L65.73353,37.4 L65.99333,36.8 L66.25314,36.2 L66.339745,35.6 L66.25314,35 L65.99333,34.4 L65.64693,33.8 L65.300514,33.2 L64.9541,32.6 L64.60769,32 L64.26128,31.55 L63.914867,31.4 L63.568462,31.55 L63.222054,32 L62.832336,32.525 L62.35603,32.9 L61.79311,33.125 L61.143593,33.2 L60.494072,33.125 L59.93116,32.9 L59.454845,32.525 L59.065136,32 L58.718727,31.4 L58.372314,30.8 L58.0259,30.2 L57.679493,29.6 L57.419685,29 L57.33308,28.4 L57.419685,27.8 L57.679493,27.2 L58.0259,26.75 L58.372314,26.6 L58.718727,26.75 L59.065136,27.2 L59.454845,27.725 L59.93116,28.1 L60.494072,28.325 L61.143593,28.4 L61.706505,28.325 L62.00962,28.1 L62.052917,27.725 L61.836414,27.2 L61.61991,26.675 L61.663208,26.3 L61.96632,26.075 L62.529236,26 L63.178753,26.075 L63.74167,26.3 L64.21798,26.675 L64.60769,27.2 L64.9541,27.65 L65.300514,27.8 L65.64693,27.65 L65.99333,27.2 L66.339745,26.75 L66.68616,26.6 L67.03257,26.75 L67.37898,27.2 L67.63879,27.8 L67.72539,28.4 L67.63879,29 L67.37898,29.6 L67.11917,30.2 L67.03257,30.8 L67.11917,31.4 L67.37898,32 L67.72539,32.45 L68.0718,32.6 L68.418205,32.45 L68.76462,32 L69.11103,31.4 L69.457436,30.8 L69.80385,30.2 L70.15025,29.6 L70.496666,29 L70.84308,28.4 L71.18949,27.8 L71.535904,27.2 L71.7524,26.675 L71.70911,26.3 L71.40599,26.075 L69.45744,26 M79.15692,57.2 L78.464096,56 L78.11769,55.4 L77.77128,54.8 L77.42487,54.2 L77.07846,53.6 L76.68874,53.075 L76.21244,52.7 L75.64952,52.475 L75,52.4 L74.307175,52.4 L73.614365,52.4 L72.92155,52.4 L72.22872,52.4 L71.535904,52.4 L70.84308,52.4 L70.15025,52.4 L69.457436,52.4 L68.807915,52.475 L68.245,52.7 L67.76869,53.075 L67.37898,53.6 L67.162476,54.125 L67.20577,54.5 L67.50889,54.725 L68.0718,54.8 L68.63472,54.875 L68.93783,55.1 L68.981125,55.475 L68.76462,56 L68.50481,56.6 L68.418205,57.2 L68.50481,57.8 L68.76462,58.4 L69.11103,59 L69.457436,59.6 L69.80385,60.2 L70.15025,60.8 L70.496666,61.4 L70.84308,62 L71.18949,62.6 L71.535904,63.2 L71.79571,63.8 L71.88231,64.4 L71.79571,65 L71.535904,65.6 L71.18949,66.05 L70.84308,66.2 L70.496666,66.05 L70.15025,65.6 L69.760544,65.075 L69.28423,64.7 L68.72132,64.475 L68.0718,64.4 L67.42228,64.325 L66.85936,64.1 L66.38304,63.725 L65.99333,63.2 L65.60362,62.675 L65.127304,62.3 L64.56439,62.075 L63.914867,62 L63.26535,62.075 L62.702435,62.3 L62.226124,62.675 L61.836414,63.2 L61.61991,63.725 L61.663208,64.1 L61.96632,64.325 L62.529236,64.4 L63.178753,64.475 L63.74167,64.7 L64.21798,65.075 L64.60769,65.6 L64.8675,66.2 L64.9541,66.8 L64.8675,67.4 L64.60769,68 L64.21798,68.525 L63.74167,68.9 L63.178753,69.125 L62.529236,69.2 L61.836414,69.2 L61.143593,69.2 L60.450775,69.2 L59.757954,69.2 L59.108437,69.125 L58.54552,68.9 L58.069202,68.525 L57.679493,68 L57.419685,67.4 L57.33308,66.8 L57.419685,66.2 L57.679493,65.6 L58.0259,65 L58.372314,64.4 L58.718727,63.8 L59.065136,63.2 L59.41155,62.6 L59.757954,62 L60.10436,61.4 L60.450768,60.8 L60.840477,60.275 L61.316795,59.9 L61.87971,59.675 L62.529236,59.6 L63.178753,59.525 L63.74167,59.3 L64.21798,58.925 L64.60769,58.4 L64.824196,57.875 L64.7809,57.5 L64.47778,57.275 L63.914867,57.2 L63.26535,57.125 L62.702435,56.9 L62.226124,56.525 L61.836414,56 L61.446705,55.475 L60.970387,55.1 L60.40747,54.875 L59.757954,54.8 L59.195038,54.875 L58.89193,55.1 L58.848633,55.475 L59.065136,56 L59.28164,56.525 L59.238342,56.9 L58.93523,57.125 L58.372314,57.2 L57.72279,57.125 L57.159874,56.9 L56.683556,56.525 L56.293846,56 L55.947437,55.55 L55.601025,55.4 L55.25462,55.55 L54.90821,56 L54.518494,56.525 L54.042187,56.9 L53.479267,57.125 L52.82975,57.2 L52.18023,57.125 L51.61731,56.9 L51.141,56.525 L50.75129,56 L50.404877,55.55 L50.058468,55.4 L49.71206,55.55 L49.36565,56 L49.105843,56.6 L49.019238,57.2 L49.105843,57.8 L49.36565,58.4 L49.755363,58.925 L50.231674,59.3 L50.79459,59.525 L51.44411,59.6 L52.093628,59.675 L52.656544,59.9 L53.132862,60.275 L53.52257,60.8 L53.86898,61.25 L54.215393,61.4 L54.5618,61.25 L54.90821,60.8 L55.297924,60.275 L55.77423,59.9 L56.33715,59.675 L56.98667,59.6 L57.549583,59.675 L57.8527,59.9 L57.895996,60.275 L57.679493,60.8 L57.33308,61.4 L56.98667,62 L56.64026,62.6 L56.293846,63.2 L55.904137,63.725 L55.427826,64.1 L54.86491,64.325 L54.215393,64.4 L53.56587,64.475 L53.002953,64.7 L52.526634,65.075 L52.136925,65.6 L51.790516,66.05 L51.444103,66.2 L51.0977,66.05 L50.75129,65.6 L50.361576,65.075 L49.88526,64.7 L49.32235,64.475 L48.67283,64.4 L48.109913,64.475 L47.806805,64.7 L47.763504,65.075 L47.98001,65.6 L48.326424,66.2 L48.67283,66.8 L49.019238,67.4 L49.36565,68 L49.755363,68.525 L50.231674,68.9 L50.79459,69.125 L51.44411,69.2 L52.007027,69.275 L52.31013,69.5 L52.35343,69.875 L52.136925,70.4 L51.92042,70.925 L51.963722,71.3 L52.266834,71.525 L52.82975,71.6 L53.52257,71.6 L54.215385,71.6 L54.908203,71.6 L55.601025,71.6 L56.16394,71.525 L56.467052,71.3 L56.510353,70.925 L56.293846,70.4 L55.947437,69.8 L55.601025,69.2 L55.25462,68.6 L54.215385,66.8 M127.46639,98.2084 L127.012794,99.4 M127.46639,98.2084 L127.92,99.4 M127.18199,99.004 L127.75079,99.004 M128.2026,98.6062 L128.2026,99.4 M128.2026,98.833 L128.37361,98.662 L128.487,98.6062 L128.6562,98.6062 L128.7714,98.662 L128.82721,98.833 L128.82721,99.4 M129.33661,98.2084 L129.33661,99.1732 L129.39421,99.3433 L129.50581,99.4 L129.621,99.4 M129.1674,98.6062 L129.5634,98.6062 M130.1862,98.6062 L130.07462,98.662 L129.9594,98.7772 L129.9036,98.946396 L129.9036,99.0598 L129.9594,99.229904 L130.07462,99.3433 L130.1862,99.4 L130.35721,99.4 L130.47061,99.3433 L130.58401,99.229904 L130.6398,99.0598 L130.6398,98.946396 L130.58401,98.7772 L130.47061,98.662 L130.35721,98.6062 L130.1862,98.6062 M131.0358,98.6062 L131.0358,99.4 M131.0358,98.833 L131.20682,98.662 L131.3202,98.6062 L131.48941,98.6062 L131.6046,98.662 L131.66042,98.833 L131.66042,99.4 M132.11221,98.2084 L132.11221,99.4 M132.11221,98.2084 L132.56581,99.4 M133.01941,98.2084 L132.56581,99.4 M133.01941,98.2084 L133.01941,99.4 M134.09763,98.6062 L134.09763,99.4 M134.09763,98.7772 L133.98422,98.662 L133.87082,98.6062 L133.69981,98.6062 L133.58823,98.662 L133.473,98.7772 L133.4172,98.946396 L133.4172,99.0598 L133.473,99.229904 L133.58823,99.3433 L133.69981,99.4 L133.87082,99.4 L133.98422,99.3433 L134.09763,99.229904 M134.54941,98.2084 L134.54941,99.4 M135.11821,98.6062 L134.54941,99.1732 M134.77621,98.946396 L135.17403,99.4 M135.4584,98.946396 L136.13882,98.946396 L136.13882,98.833 L136.08301,98.7196 L136.02542,98.662 L135.91202,98.6062 L135.74101,98.6062 L135.62943,98.662 L135.5142,98.7772 L135.4584,98.946396 L135.4584,99.0598 L135.5142,99.229904 L135.62943,99.3433 L135.74101,99.4 L135.91202,99.4 L136.02542,99.3433 L136.13882,99.229904 M137.1036,98.7772 L137.04602,98.662 L136.87682,98.6062 L136.70583,98.6062 L136.53482,98.662 L136.47902,98.7772 L136.53482,98.8888 L136.65002,98.946396 L136.93262,99.004 L137.04602,99.0598 L137.1036,99.1732 L137.1036,99.229904 L137.04602,99.3433 L136.87682,99.4 L136.70583,99.4 L136.53482,99.3433 L136.47902,99.229904 M138.29521,98.4928 L138.23761,98.3794 L138.12422,98.266 L138.01082,98.2084 L137.78401,98.2084 L137.67062,98.266 L137.55722,98.3794 L137.4996,98.4928 L137.44382,98.662 L137.44382,98.946396 L137.4996,99.1156 L137.55722,99.229904 L137.67062,99.3433 L137.78401,99.4 L138.01082,99.4 L138.12422,99.3433 L138.23761,99.229904 L138.29521,99.1156 L138.29521,98.946396 M138.01082,98.946396 L138.29521,98.946396 M139.31583,98.6062 L139.31583,99.4 M139.31583,98.7772 L139.20242,98.662 L139.08902,98.6062 L138.91801,98.6062 L138.80643,98.662 L138.69121,98.7772 L138.6354,98.946396 L138.6354,99.0598 L138.69121,99.229904 L138.80643,99.3433 L138.91801,99.4 L139.08902,99.4 L139.20242,99.3433 L139.31583,99.229904 M139.76761,98.6062 L139.76761,99.4 M139.76761,98.833 L139.93863,98.662 L140.05202,98.6062 L140.22122,98.6062 L140.33641,98.662 L140.39223,98.833 L140.39223,99.4 M140.39223,98.833 L140.56322,98.662 L140.67482,98.6062 L140.84581,98.6062 L140.95921,98.662 L141.01682,98.833 L141.01682,99.4 M141.41281,98.946396 L142.09323,98.946396 L142.09323,98.833 L142.03741,98.7196 L141.97983,98.662 L141.86642,98.6062 L141.69542,98.6062 L141.58383,98.662 L141.46861,98.7772 L141.41281,98.946396 L141.41281,99.0598 L141.46861,99.229904 L141.58383,99.3433 L141.69542,99.4 L141.86642,99.4 L141.97983,99.3433 L142.09323,99.229904 M143.05801,98.7772 L143.00043,98.662 L142.83122,98.6062 L142.66023,98.6062 L142.48923,98.662 L142.43343,98.7772 L142.48923,98.8888 L142.60443,98.946396 L142.88702,99.004 L143.00043,99.0598 L143.05801,99.1732 L143.05801,99.229904 L143.00043,99.3433 L142.83122,99.4 L142.66023,99.4 L142.48923,99.3433 L142.43343,99.229904 M144.27841,98.2084 L144.10922,98.266 L143.99402,98.435196 L143.93822,98.7196 L143.93822,98.8888 L143.99402,99.1732 L144.10922,99.3433 L144.27841,99.4 L144.39182,99.4 L144.56282,99.3433 L144.67442,99.1732 L144.73203,98.8888 L144.73203,98.7196 L144.67442,98.435196 L144.56282,98.266 L144.39182,98.2084 L144.27841,98.2084 M145.75262,98.2084 L145.18562,98.2084 L145.12802,98.7196 L145.18562,98.662 L145.35483,98.6062 L145.52582,98.6062 L145.69681,98.662 L145.80843,98.7772 L145.86601,98.946396 L145.86601,99.0598 L145.80843,99.229904 L145.69681,99.3433 L145.52582,99.4 L145.35483,99.4 L145.18562,99.3433 L145.12802,99.286606 L145.07222,99.1732 M146.94241,98.3794 L146.88663,98.266 L146.7156,98.2084 L146.60402,98.2084 L146.43301,98.266 L146.31961,98.435196 L146.26201,98.7196 L146.26201,99.004 L146.31961,99.229904 L146.43301,99.3433 L146.60402,99.4 L146.65982,99.4 L146.83081,99.3433 L146.94241,99.229904 L147.00002,99.0598 L147.00002,99.004 L146.94241,98.833 L146.83081,98.7196 L146.65982,98.662 L146.60402,98.662 L146.43301,98.7196 L146.31961,98.833 L146.26201,99.004" fill="none" stroke="black" stroke-width="0.4"/>
</svg>