<svg height="100mm" units="mm" viewBox="0 0 150 100" width="150mm" xmlns="http://www.w3.org/2000/svg">
<path d="M6.5292,20.0732 L6.1764,21 M6.5292,20.0732 L6.882,21 M6.308,20.692 L6.7503996,20.692 M7.1018004,20.3826 L7.1018004,21 M7.1018004,20.559 L7.234801,20.425999 L7.3230004,20.3826 L7.4546003,20.3826 L7.5442,20.425999 L7.5876007,20.559 L7.5876007,21 M7.9838004,20.0732 L7.9838004,20.823599 L8.028601,20.9559 L8.1154,21 L8.205,21 M7.8522005,20.3826 L8.1602,20.3826 M8.644601,20.3826 L8.5578,20.425999 L8.468201,20.5156 L8.4248,20.6472 L8.4248,20.735401 L8.468201,20.8677 L8.5578,20.9559 L8.644601,21 L8.777601,21 L8.865801,20.9559 L8.954,20.8677 L8.9974,20.735401 L8.9974,20.6472 L8.954,20.5156 L8.865801,20.425999 L8.777601,20.3826 L8.644601,20.3826 M9.305401,20.3826 L9.305401,21 M9.305401,20.559 L9.4384,20.425999 L9.526601,20.3826 L9.658201,20.3826 L9.747801,20.425999 L9.791201,20.559 L9.791201,21 M10.142601,20.0732 L10.142601,21 M10.142601,20.0732 L10.495401,21 M10.848201,20.0732 L10.495401,21 M10.848201,20.0732 L10.848201,21 M11.686801,20.3826 L11.686801,21 M11.686801,20.5156 L11.5986,20.425999 L11.510401,20.3826 L11.377401,20.3826 L11.290601,20.425999 L11.201001,20.5156 L11.1576,20.6472 L11.1576,20.735401 L11.201001,20.8677 L11.290601,20.9559 L11.377401,21 L11.510401,21 L11.5986,20.9559 L11.686801,20.8677 M12.038201,20.0732 L12.038201,21 M12.4806,20.3826 L12.038201,20.823599 M12.2146015,20.6472 L12.524,21 M12.745201,20.6472 L13.274401,20.6472 L13.274401,20.559 L13.231001,20.4708 L13.186201,20.425999 L13.0980015,20.3826 L12.965001,20.3826 L12.8782015,20.425999 L12.788601,20.5156 L12.745201,20.6472 L12.745201,20.735401 L12.788601,20.8677 L12.8782015,20.9559 L12.965001,21 L13.0980015,21 L13.186201,20.9559 L13.274401,20.8677 M14.0248,20.5156 L13.9800005,20.425999 L13.848401,20.3826 L13.715401,20.3826 L13.5824,20.425999 L13.539,20.5156 L13.5824,20.6024 L13.672,20.6472 L13.8918,20.692 L13.9800005,20.735401 L14.0248,20.823599 L14.0248,20.8677 L13.9800005,20.9559 L13.848401,21 L13.715401,21 L13.5824,20.9559 L13.539,20.8677 M14.951601,20.2944 L14.906799,20.2062 L14.818601,20.118 L14.7304,20.0732 L14.554001,20.0732 L14.4658,20.118 L14.3776,20.2062 L14.3328,20.2944 L14.2894,20.425999 L14.2894,20.6472 L14.3328,20.7788 L14.3776,20.8677 L14.4658,20.9559 L14.554001,21 L14.7304,21 L14.818601,20.9559 L14.906799,20.8677 L14.951601,20.7788 L14.951601,20.6472 M14.7304,20.6472 L14.951601,20.6472 M15.745401,20.3826 L15.745401,21 M15.745401,20.5156 L15.657201,20.425999 L15.569,20.3826 L15.436,20.3826 L15.3492,20.425999 L15.259601,20.5156 L15.2162,20.6472 L15.2162,20.735401 L15.259601,20.8677 L15.3492,20.9559 L15.436,21 L15.569,21 L15.657201,20.9559 L15.745401,20.8677 M16.0968,20.3826 L16.0968,21 M16.0968,20.559 L16.229801,20.425999 L16.317999,20.3826 L16.4496,20.3826 L16.5392,20.425999 L16.5826,20.559 L16.5826,21 M16.5826,20.559 L16.715601,20.425999 L16.8024,20.3826 L16.9354,20.3826 L17.023602,20.425999 L17.068401,20.559 L17.068401,21 M17.3764,20.6472 L17.9056,20.6472 L17.9056,20.559 L17.8622,20.4708 L17.8174,20.425999 L17.729198,20.3826 L17.596199,20.3826 L17.5094,20.425999 L17.4198,20.5156 L17.3764,20.6472 L17.3764,20.735401 L17.4198,20.8677 L17.5094,20.9559 L17.596199,21 L17.729198,21 L17.8174,20.9559 L17.9056,20.8677 M18.656,20.5156 L18.6112,20.425999 L18.4796,20.3826 L18.3466,20.3826 L18.2136,20.425999 L18.1702,20.5156 L18.2136,20.6024 L18.3032,20.6472 L18.522999,20.692 L18.6112,20.735401 L18.656,20.823599 L18.656,20.8677 L18.6112,20.9559 L18.4796,21 L18.3466,21 L18.2136,20.9559 L18.1702,20.8677 M19.6052,20.0732 L19.473598,20.118 L19.383999,20.2496 L19.3406,20.4708 L19.3406,20.6024 L19.383999,20.823599 L19.473598,20.9559 L19.6052,21 L19.6934,21 L19.826399,20.9559 L19.913198,20.823599 L19.957998,20.6024 L19.957998,20.4708 L19.913198,20.2496 L19.826399,20.118 L19.6934,20.0732 L19.6052,20.0732 M20.310799,20.0732 L20.795198,20.0732 L20.532,20.425999 L20.663599,20.425999 L20.751799,20.4708 L20.795198,20.5156 L20.84,20.6472 L20.84,20.735401 L20.795198,20.8677 L20.708399,20.9559 L20.575397,21 L20.442398,21 L20.310799,20.9559 L20.265999,20.9118 L20.222599,20.823599 M21.722,20.0732 L21.281,21 M21.104599,20.0732 L21.722,20.0732 M22.45,20.6024 L23.2452,20.6024 M24.590601,20.0732 L24.149601,21 M23.9732,20.0732 L24.590601,20.0732 M6.4536004,17.2056 L6.1512003,18 M6.4536004,17.2056 L6.7559996,18 M6.264,17.736 L6.6432,17.736 M6.9444,17.470798 L6.9444,18 M6.9444,17.622 L7.0584,17.508 L7.1340003,17.470798 L7.2468004,17.470798 L7.3236,17.508 L7.3608003,17.622 L7.3608003,18 M7.7004004,17.2056 L7.7004004,17.8488 L7.7388,17.9622 L7.8132005,18 L7.8900003,18 M7.5876007,17.470798 L7.8516006,17.470798 M8.266801,17.470798 L8.1924,17.508 L8.115601,17.5848 L8.078401,17.6976 L8.078401,17.7732 L8.115601,17.8866 L8.1924,17.9622 L8.266801,18 L8.3808,18 L8.456401,17.9622 L8.532001,17.8866 L8.5692005,17.7732 L8.5692005,17.6976 L8.532001,17.5848 L8.456401,17.508 L8.3808,17.470798 L8.266801,17.470798 M8.8332,17.470798 L8.8332,18 M8.8332,17.622 L8.947201,17.508 L9.022801,17.470798 L9.135601,17.470798 L9.2124,17.508 L9.249601,17.622 L9.249601,18 M9.550801,17.2056 L9.550801,18 M9.550801,17.2056 L9.853201,18 M10.1556015,17.2056 L9.853201,18 M10.1556015,17.2056 L10.1556015,18 M10.874401,17.470798 L10.874401,18 M10.874401,17.5848 L10.7988,17.508 L10.723201,17.470798 L10.609201,17.470798 L10.534801,17.508 L10.458001,17.5848 L10.420801,17.6976 L10.420801,17.7732 L10.458001,17.8866 L10.534801,17.9622 L10.609201,18 L10.723201,18 L10.7988,17.9622 L10.874401,17.8866 M11.175601,17.2056 L11.175601,18 M11.554801,17.470798 L11.175601,17.8488 M11.326801,17.6976 L11.592001,18 M11.781601,17.6976 L12.235201,17.6976 L12.235201,17.622 L12.198001,17.5464 L12.159601,17.508 L12.084002,17.470798 L11.970001,17.470798 L11.895601,17.508 L11.818801,17.5848 L11.781601,17.6976 L11.781601,17.7732 L11.818801,17.8866 L11.895601,17.9622 L11.970001,18 L12.084002,18 L12.159601,17.9622 L12.235201,17.8866 M12.878401,17.5848 L12.840001,17.508 L12.727201,17.470798 L12.613201,17.470798 L12.499201,17.508 L12.462001,17.5848 L12.499201,17.659199 L12.576001,17.6976 L12.764401,17.736 L12.840001,17.7732 L12.878401,17.8488 L12.878401,17.8866 L12.840001,17.9622 L12.727201,18 L12.613201,18 L12.499201,17.9622 L12.462001,17.8866 M13.672801,17.395199 L13.634401,17.3196 L13.558802,17.244 L13.483202,17.2056 L13.332001,17.2056 L13.256401,17.244 L13.180801,17.3196 L13.142401,17.395199 L13.105202,17.508 L13.105202,17.6976 L13.142401,17.8104 L13.180801,17.8866 L13.256401,17.9622 L13.332001,18 L13.483202,18 L13.558802,17.9622 L13.634401,17.8866 L13.672801,17.8104 L13.672801,17.6976 M13.483202,17.6976 L13.672801,17.6976 M14.353201,17.470798 L14.353201,18 M14.353201,17.5848 L14.277601,17.508 L14.202002,17.470798 L14.088,17.470798 L14.013601,17.508 L13.936801,17.5848 L13.899602,17.6976 L13.899602,17.7732 L13.936801,17.8866 L14.013601,17.9622 L14.088,18 L14.202002,18 L14.277601,17.9622 L14.353201,17.8866 M14.654401,17.470798 L14.654401,18 M14.654401,17.622 L14.7684,17.508 L14.844,17.470798 L14.9568,17.470798 L15.033602,17.508 L15.070801,17.622 L15.070801,18 M15.070801,17.622 L15.184801,17.508 L15.259201,17.470798 L15.373201,17.470798 L15.448801,17.508 L15.487201,17.622 L15.487201,18 M15.751201,17.6976 L16.2048,17.6976 L16.2048,17.622 L16.1676,17.5464 L16.1292,17.508 L16.0536,17.470798 L15.9396,17.470798 L15.865201,17.508 L15.788401,17.5848 L15.751201,17.6976 L15.751201,17.7732 L15.788401,17.8866 L15.865201,17.9622 L15.9396,18 L16.0536,18 L16.1292,17.9622 L16.2048,17.8866 M16.848001,17.5848 L16.8096,17.508 L16.6968,17.470798 L16.5828,17.470798 L16.4688,17.508 L16.4316,17.5848 L16.4688,17.659199 L16.5456,17.6976 L16.734001,17.736 L16.8096,17.7732 L16.848001,17.8488 L16.848001,17.8866 L16.8096,17.9622 L16.6968,18 L16.5828,18 L16.4688,17.9622 L16.4316,17.8866 M17.661602,17.2056 L17.548801,17.244 L17.472002,17.3568 L17.434803,17.5464 L17.434803,17.659199 L17.472002,17.8488 L17.548801,17.9622 L17.661602,18 L17.737202,18 L17.851202,17.9622 L17.925602,17.8488 L17.964,17.659199 L17.964,17.5464 L17.925602,17.3568 L17.851202,17.244 L17.737202,17.2056 L17.661602,17.2056 M18.266401,17.2056 L18.6816,17.2056 L18.456001,17.508 L18.568802,17.508 L18.644402,17.5464 L18.6816,17.5848 L18.720001,17.6976 L18.720001,17.7732 L18.6816,17.8866 L18.607203,17.9622 L18.493202,18 L18.3792,18 L18.266401,17.9622 L18.228,17.9244 L18.190802,17.8488 M19.476002,17.2056 L19.098001,18 M18.946802,17.2056 L19.476002,17.2056 M20.100002,17.659199 L20.7816,17.659199 M21.896402,17.3196 L21.859203,17.244 L21.745203,17.2056 L21.670803,17.2056 L21.556803,17.244 L21.481203,17.3568 L21.442802,17.5464 L21.442802,17.736 L21.481203,17.8866 L21.556803,17.9622 L21.670803,18 L21.708004,18 L21.822002,17.9622 L21.896402,17.8866 L21.934803,17.7732 L21.934803,17.736 L21.896402,17.622 L21.822002,17.5464 L21.708004,17.508 L21.670803,17.508 L21.556803,17.5464 L21.481203,17.622 L21.442802,17.736 M6.378,14.338 L6.126,15 M6.378,14.338 L6.63,15 M6.2200003,14.780001 L6.5360003,14.780001 M6.7869997,14.559 L6.7869997,15 M6.7869997,14.685 L6.882,14.589999 L6.9449997,14.559 L7.039,14.559 L7.1029997,14.589999 L7.134,14.685 L7.134,15 M7.417,14.338 L7.417,14.874001 L7.4490004,14.9685 L7.511,15 L7.575,15 M7.3230004,14.559 L7.543,14.559 M7.889,14.559 L7.8270006,14.589999 L7.7629995,14.653999 L7.732,14.747999 L7.732,14.811 L7.7629995,14.905499 L7.8270006,14.9685 L7.889,15 L7.984,15 L8.047,14.9685 L8.11,14.905499 L8.141001,14.811 L8.141001,14.747999 L8.11,14.653999 L8.047,14.589999 L7.984,14.559 L7.889,14.559 M8.361,14.559 L8.361,15 M8.361,14.685 L8.456,14.589999 L8.519,14.559 L8.613001,14.559 L8.677,14.589999 L8.708,14.685 L8.708,15 M8.959001,14.338 L8.959001,15 M8.959001,14.338 L9.211,15 M9.463,14.338 L9.211,15 M9.463,14.338 L9.463,15 M10.062,14.559 L10.062,15 M10.062,14.653999 L9.999001,14.589999 L9.936001,14.559 L9.841001,14.559 L9.779001,14.589999 L9.715,14.653999 L9.684,14.747999 L9.684,14.811 L9.715,14.905499 L9.779001,14.9685 L9.841001,15 L9.936001,15 L9.999001,14.9685 L10.062,14.905499 M10.313001,14.338 L10.313001,15 M10.629001,14.559 L10.313001,14.874001 M10.439001,14.747999 L10.660001,15 M10.818001,14.747999 L11.196001,14.747999 L11.196001,14.685 L11.165001,14.622 L11.133001,14.589999 L11.070002,14.559 L10.975,14.559 L10.913,14.589999 L10.849001,14.653999 L10.818001,14.747999 L10.818001,14.811 L10.849001,14.905499 L10.913,14.9685 L10.975,15 L11.070002,15 L11.133001,14.9685 L11.196001,14.905499 M11.732,14.653999 L11.700001,14.589999 L11.606001,14.559 L11.511001,14.559 L11.416,14.589999 L11.385,14.653999 L11.416,14.716001 L11.4800005,14.747999 L11.637001,14.780001 L11.700001,14.811 L11.732,14.874001 L11.732,14.905499 L11.700001,14.9685 L11.606001,15 L11.511001,15 L11.416,14.9685 L11.385,14.905499 M12.394001,14.496 L12.362001,14.433001 L12.299001,14.37 L12.236001,14.338 L12.110001,14.338 L12.047001,14.37 L11.984,14.433001 L11.952001,14.496 L11.9210005,14.589999 L11.9210005,14.747999 L11.952001,14.842 L11.984,14.905499 L12.047001,14.9685 L12.110001,15 L12.236001,15 L12.299001,14.9685 L12.362001,14.905499 L12.394001,14.842 L12.394001,14.747999 M12.236001,14.747999 L12.394001,14.747999 M12.961001,14.559 L12.961001,15 M12.961001,14.653999 L12.898001,14.589999 L12.835001,14.559 L12.740001,14.559 L12.678001,14.589999 L12.614,14.653999 L12.583001,14.747999 L12.583001,14.811 L12.614,14.905499 L12.678001,14.9685 L12.740001,15 L12.835001,15 L12.898001,14.9685 L12.961001,14.905499 M13.212001,14.559 L13.212001,15 M13.212001,14.685 L13.307001,14.589999 L13.370001,14.559 L13.464002,14.559 L13.528002,14.589999 L13.559001,14.685 L13.559001,15 M13.559001,14.685 L13.654001,14.589999 L13.7160015,14.559 L13.811002,14.559 L13.874002,14.589999 L13.906001,14.685 L13.906001,15 M14.126001,14.747999 L14.504001,14.747999 L14.504001,14.685 L14.4730015,14.622 L14.441,14.589999 L14.378001,14.559 L14.283002,14.559 L14.221001,14.589999 L14.157001,14.653999 L14.126001,14.747999 L14.126001,14.811 L14.157001,14.905499 L14.221001,14.9685 L14.283002,15 L14.378001,15 L14.441,14.9685 L14.504001,14.905499 M15.040001,14.653999 L15.008,14.589999 L14.914001,14.559 L14.819,14.559 L14.724001,14.589999 L14.693001,14.653999 L14.724001,14.716001 L14.788,14.747999 L14.945002,14.780001 L15.008,14.811 L15.040001,14.874001 L15.040001,14.905499 L15.008,14.9685 L14.914001,15 L14.819,15 L14.724001,14.9685 L14.693001,14.905499 M15.718,14.338 L15.624001,14.37 L15.56,14.464 L15.529001,14.622 L15.529001,14.716001 L15.56,14.874001 L15.624001,14.9685 L15.718,15 L15.781001,15 L15.876001,14.9685 L15.938001,14.874001 L15.970001,14.716001 L15.970001,14.622 L15.938001,14.464 L15.876001,14.37 L15.781001,14.338 L15.718,14.338 M16.222002,14.338 L16.568,14.338 L16.380001,14.589999 L16.474,14.589999 L16.537,14.622 L16.568,14.653999 L16.600002,14.747999 L16.600002,14.811 L16.568,14.905499 L16.506,14.9685 L16.411001,15 L16.316002,15 L16.222002,14.9685 L16.19,14.936999 L16.159,14.874001 M17.230001,14.338 L16.915,15 M16.789001,14.338 L17.230001,14.338 M17.750002,14.716001 L18.318003,14.716001 M19.216002,14.338 L18.901003,14.338 L18.869001,14.622 L18.901003,14.589999 L18.995003,14.559 L19.090002,14.559 L19.185001,14.589999 L19.247002,14.653999 L19.279003,14.747999 L19.279003,14.811 L19.247002,14.905499 L19.185001,14.9685 L19.090002,15 L18.995003,15 L18.901003,14.9685 L18.869001,14.936999 L18.838001,14.874001" fill="none" stroke="black" stroke-width="0.4"/>
</svg>