<svg height="100mm" units="mm" viewBox="0 0 150 100" width="150mm" xmlns="http://www.w3.org/2000/svg">
<path d="M123.49742,21.2 M9.874891,83.6 L7.1036096,83.6 M14.031812,33.2 L12.646173,30.8 M51.44411,21.2 L52.82975,18.8 M80.54256,81.2 L81.9282,78.8 M99.94153,33.2 L98.55589,30.8 M23.731297,45.2 L25.116938,47.6 M93.01332,64.4 L91.627686,62 M32.045143,40.4 L30.6595,38 M36.202065,23.6 L34.81642,26 M26.502579,54.8 L25.116938,57.2 M45.901546,59.6 L43.13027,59.6 M105.48409,23.6 L108.25537,23.6 M25.116938,52.4 L22.345655,52.4 M142.8964,83.6 L140.1251,83.6 M98.55589,64.4 L99.94153,66.8 M141.51076,42.8 L142.3075,41.420002 L142.49153,40.97375 L142.45473,40.655 L142.19708,40.463753 L140.1251,40.4 M58.372314,57.2 L56.778828,57.2 L56.226734,57.13625 L55.748253,56.945 L55.34339,56.626244 L54.215385,54.8 M29.27386,74 L30.070602,72.62 L30.365051,72.2375 L30.6595,72.11 L30.953949,72.2375 L32.045143,74 M15.417452,74 L14.6207075,72.62 L14.2894535,72.17375 L13.884587,71.854996 L13.40611,71.66375 L11.260531,71.6 M141.51076,76.4 L139.91727,76.4 L139.36517,76.33625 L138.88669,76.145004 L138.48184,75.82625 L137.35384,74 M34.81642,16.4 L35.613167,15.0199995 L35.797195,14.573749 L35.760387,14.255 L35.502747,14.063749 L33.43078,14 M18.188734,74 L18.985477,75.38 L19.169508,75.82625 L19.132702,76.145004 L18.87506,76.33625 L16.803095,76.4 M119.3405,76.4 L120.137245,77.78 L120.32127,78.22624 L120.28447,78.545 L120.02683,78.73625 L117.95486,78.8 M36.202065,33.2 L36.998806,34.579998 L37.293255,34.9625 L37.587704,35.09 L37.882153,34.9625 L38.973343,33.2 M135.96819,28.4 L136.76492,29.779999 L137.05939,30.289997 L137.35384,30.8 L137.64828,31.310003 L138.73947,33.2 M30.6595,81.2 L31.456244,82.58 L31.640274,83.026245 L31.603466,83.345 L31.345829,83.53625 L29.27386,83.6 M47.28719,42.8 L48.08393,44.18 L48.267963,44.626247 L48.23116,44.945 L47.973515,45.13625 L45.901546,45.2 M8.48925,38 L9.285994,36.620003 L9.580442,36.2375 L9.874891,36.11 L10.169339,36.2375 L10.671634,36.98 L10.89247,37.489998 L10.966083,38 L10.89247,38.510002 L9.874891,40.4 M142.8964,64.4 L141.3029,64.4 L140.82443,64.46375 L140.56679,64.655 L140.52998,64.973755 L140.92184,65.78 L141.21631,66.28999 L141.51076,66.8 L141.8052,67.310005 L142.8964,69.2 M90.24205,78.8 L89.445305,80.18 L89.15086,80.5625 L88.85641,80.69 L88.56196,80.5625 L88.05966,79.82 L87.83882,79.310005 L87.76521,78.8 L87.83882,78.28999 L88.85641,76.4 M65.300514,21.2 L63.707024,21.2 L63.22854,21.13625 L62.970905,20.945 L62.9341,20.626251 L63.325977,19.82 L63.546814,19.31 L63.620422,18.8 L63.546814,18.29 L62.52923,16.4 M38.973343,66.8 L39.77009,68.18 L40.10134,68.62624 L40.506207,68.945 L40.984688,69.136246 L41.952473,69.2 L42.43095,69.26375 L42.68859,69.455 L42.7254,69.77376 L41.744625,71.6 M77.771286,71.6 L76.97453,72.979996 L76.68009,73.49 L76.38564,74 L76.091194,74.51 L75.5889,75.38 L75.29445,75.7625 L75,75.89 L74.70555,75.7625 L73.61436,74 M44.515907,23.6 L46.109394,23.6 L46.69829,23.6 L47.28719,23.6 L47.876083,23.6 L48.880672,23.6 L49.46957,23.6 L50.058464,23.6 L50.64736,23.6 L52.82975,23.6 M16.803095,71.6 L18.39658,71.6 L18.985477,71.6 L19.574375,71.6 L20.163273,71.6 L21.167862,71.6 L21.75676,71.6 L22.345655,71.6 L22.934551,71.6 L25.116938,71.6 M9.874891,54.8 L10.671634,56.18 L10.855664,56.626244 L10.818858,56.945 L10.561216,57.13625 L9.667045,57.2 L9.078147,57.2 L8.48925,57.2 L7.9003534,57.2 L5.717969,57.2 M27.88822,47.6 L28.684963,48.98 L29.01622,49.426247 L29.421087,49.745003 L29.899567,49.93625 L30.86735,50 L31.345829,49.93625 L31.603466,49.745003 L31.640274,49.426247 L30.6595,47.6 M141.51076,81.2 L139.91727,81.2 L139.43878,81.136246 L139.18114,80.945 L139.14433,80.62624 L139.53621,79.82 L139.86746,79.37376 L140.27234,79.055 L140.75082,78.863754 L142.8964,78.8 M91.627686,81.2 L92.42443,82.58 L92.60846,83.026245 L92.571655,83.345 L92.31401,83.53625 L91.419846,83.6 L90.83095,83.6 L90.24205,83.6 L89.65315,83.6 L87.470764,83.6 M37.587704,64.4 L35.994217,64.4 L35.442127,64.33625 L34.963646,64.145004 L34.55878,63.826244 L34.019676,63.02 L33.72523,62.510002 L33.43078,62 L33.13633,61.489998 L32.045143,59.6 M95.78461,26 L96.58135,24.619999 L96.8758,24.109999 L97.17025,23.6 L97.46471,23.09 L97.966995,22.22 L98.151024,21.773748 L98.11422,21.455 L97.85658,21.26375 L95.78461,21.2 M20.960014,35.6 L22.553501,35.6 L23.031979,35.536247 L23.289623,35.345 L23.32643,35.02625 L22.934553,34.22 L22.603298,33.77375 L22.198431,33.454998 L21.719952,33.263752 L20.75217,33.2 L20.273691,33.13625 L20.016048,32.945 L19.97924,32.626247 L20.960014,30.8 M76.385635,21.2 L75.5889,22.58 L75.36806,23.09 L75.29445,23.6 L75.36806,24.109999 L75.796745,24.98 L76.091194,25.49 L76.38564,26 L76.68009,26.510004 L77.18239,27.38 L77.51364,27.826248 L77.9185,28.145 L78.39699,28.336248 L80.54256,28.4 M122.11178,66.8 L121.31505,65.42 L121.02059,65.0375 L120.72615,64.909996 L120.4317,65.0375 L119.929405,65.78 L119.70857,66.28999 L119.634964,66.8 L119.70857,67.310005 L120.137245,68.18 L120.35808,68.689995 L120.43169,69.2 L120.35808,69.71001 L119.3405,71.6 M5.717969,38 L6.5147123,36.620003 L6.735549,36.110004 L6.809161,35.6 L6.735549,35.089996 L6.3068666,34.22 L6.08603,33.710003 L6.012418,33.2 L6.08603,32.689995 L6.5147123,31.820002 L6.809161,31.4375 L7.1036096,31.310001 L7.3980575,31.4375 L8.48925,33.2 M134.58255,64.4 L132.98906,64.4 L132.43698,64.46375 L131.9585,64.655 L131.55362,64.973755 L131.01453,65.78 L130.83049,66.22624 L130.8673,66.545 L131.12494,66.73625 L132.01912,66.8 L132.608,66.8 L133.1969,66.8 L133.7858,66.8 L135.96819,66.8 M12.646173,83.6 L14.239657,83.6 L14.718137,83.53625 L14.975779,83.345 L15.012584,83.026245 L14.6207075,82.22 L14.326259,81.71001 L14.031812,81.2 L13.737364,80.689995 L13.235069,79.82 L12.94062,79.4375 L12.646173,79.31 L12.351725,79.4375 L11.260531,81.2 M138.73947,14 L139.53621,15.38 L139.86746,15.826251 L140.27234,16.145 L140.75082,16.33625 L141.7186,16.4 L142.19708,16.463749 L142.45473,16.655 L142.49153,16.97375 L142.09966,17.78 L141.87881,18.29 L141.8052,18.8 L141.87881,19.31 L142.8964,21.2 M117.95486,30.8 L117.15812,29.420002 L116.93728,28.910004 L116.86367,28.4 L116.93728,27.889996 L117.36595,27.02 L117.660416,26.510004 L117.95486,26 L118.249306,25.49 L118.7516,24.619999 L119.04606,24.109999 L119.3405,23.6 L119.63495,23.09 L120.72615,21.2 M22.345655,42.8 L20.75217,42.8 L20.273691,42.736248 L20.016048,42.545002 L19.97924,42.22625 L20.371117,41.420002 L20.555147,40.97375 L20.518341,40.655 L20.2607,40.463753 L19.366528,40.4 L18.814438,40.463753 L18.335958,40.655 L17.931091,40.97375 L16.803095,42.8 M47.28719,38 L48.880672,38 L49.432762,37.93625 L49.911243,37.745003 L50.31611,37.426247 L50.855213,36.620003 L51.14966,36.2375 L51.44411,36.11 L51.738556,36.2375 L52.240852,36.98 L52.535297,37.3625 L52.82975,37.489998 L53.1242,37.3625 L53.626495,36.620003 L53.92094,36.2375 L54.215393,36.11 L54.50984,36.2375 L55.601032,38 M70.84308,54.8 L69.24959,54.8 L68.697495,54.86375 L68.21902,55.055 L67.81416,55.373756 L67.275055,56.18 L67.09103,56.626244 L67.12783,56.945 L67.385475,57.13625 L68.27965,57.2 L68.83174,57.263752 L69.31022,57.454998 L69.71507,57.773754 L70.25418,58.579998 L70.43821,59.026245 L70.401405,59.345 L70.14376,59.536247 L68.07179,59.6 M122.11178,47.6 L122.90852,46.22 L123.20298,45.8375 L123.49742,45.71 L123.79187,45.8375 L124.29415,46.579998 L124.62541,47.02625 L125.03027,47.345 L125.508766,47.536247 L126.47655,47.6 L126.95503,47.66375 L127.21267,47.855 L127.24947,48.17375 L126.857605,48.98 L126.526344,49.426247 L126.12148,49.745003 L125.64299,49.93625 L123.49742,50 M11.260531,18.8 L9.667045,18.8 L9.188566,18.86375 L8.930923,19.055 L8.894117,19.373749 L9.285994,20.18 L9.617249,20.626251 L10.022116,20.945 L10.500594,21.13625 L11.468378,21.2 L11.9468565,21.26375 L12.2045,21.455 L12.241305,21.773748 L11.849429,22.58 L11.6654,23.02625 L11.702205,23.345 L11.9598465,23.536251 L14.031812,23.6 M69.45744,47.6 L70.25418,48.98 L70.54863,49.489998 L70.84308,50 L71.13753,50.510002 L71.639824,51.379997 L71.971085,51.826244 L72.37594,52.145 L72.854416,52.33625 L73.822205,52.4 L74.30068,52.33625 L74.55833,52.145 L74.59513,51.826244 L74.203255,51.02 L73.908806,50.510002 L73.61436,50 L73.3199,49.489998 L72.228714,47.6 M93.01332,35.6 L93.810074,34.22 L94.03091,33.710003 L94.104515,33.2 L94.03091,32.689995 L93.60222,31.820002 L93.30778,31.310003 L93.01333,30.8 L92.71888,30.289997 L92.21658,29.420002 L91.99574,28.910004 L91.922134,28.4 L91.99574,27.889996 L92.42443,27.02 L92.71888,26.510004 L93.01333,26 L93.30778,25.49 L93.810074,24.619999 L93.994095,24.173748 L93.95729,23.855 L93.69966,23.66375 L91.627686,23.6 M61.143593,47.6 L59.55011,47.6 L58.998024,47.536247 L58.519543,47.345 L58.114674,47.02625 L57.57557,46.22 L57.39154,45.77375 L57.428345,45.454998 L57.685986,45.263752 L58.58016,45.2 L59.058643,45.13625 L59.316284,44.945 L59.35309,44.626247 L58.961212,43.82 L58.740376,43.310005 L58.66676,42.8 L58.740376,42.289997 L59.16906,41.420002 L59.46351,41.0375 L59.757954,40.91 L60.0524,41.0375 L60.554695,41.78 L60.84914,42.1625 L61.143593,42.29 L61.43804,42.1625 L62.52923,40.4 M41.744625,42.8 L40.947884,41.420002 L40.653435,41.0375 L40.358986,40.91 L40.064533,41.0375 L39.56224,41.78 L39.26779,42.289997 L38.973343,42.8 L38.678894,43.310005 L38.1766,44.18 L37.882153,44.689995 L37.587704,45.2 L37.293255,45.710003 L36.790962,46.579998 L36.45971,47.02625 L36.05484,47.345 L35.57636,47.536247 L34.608574,47.6 L34.130096,47.536247 L33.872456,47.345 L33.835648,47.02625 L34.227524,46.22 L34.521973,45.710003 L34.81642,45.2 L35.11087,44.689995 L36.202065,42.8 M120.72615,50 L121.52289,51.379997 L121.706924,51.826244 L121.67012,52.145 L121.412476,52.33625 L120.518295,52.4 L119.96621,52.33625 L119.48772,52.145 L119.08286,51.826244 L118.54376,51.02 L118.2125,50.573753 L117.80764,50.254997 L117.32915,50.06375 L116.36137,50 L115.77248,50 L115.18358,50 L114.59469,50 L113.5901,50 L113.11162,50.06375 L112.85398,50.254997 L112.81718,50.573753 L113.209045,51.379997 L113.429886,51.889996 L113.503494,52.4 L113.429886,52.910004 L112.41231,54.8 M134.58255,45.2 L135.37929,46.579998 L135.67374,46.9625 L135.96819,47.09 L136.26263,46.9625 L136.76492,46.22 L137.05939,45.8375 L137.35384,45.71 L137.64828,45.8375 L138.15057,46.579998 L138.37141,47.089996 L138.44502,47.6 L138.37141,48.110004 L137.94273,48.98 L137.61148,49.426247 L137.20662,49.745003 L136.72812,49.93625 L135.76035,50 L135.20825,49.93625 L134.72978,49.745003 L134.32492,49.426247 L133.78581,48.620003 L133.49136,48.110004 L133.19691,47.6 L132.90247,47.089996 L131.81126,45.2 M47.28719,28.4 L48.880672,28.4 L49.432762,28.46375 L49.911243,28.654999 L50.31611,28.973751 L50.855213,29.779999 L51.18647,30.226248 L51.59133,30.545002 L52.069813,30.736248 L53.03759,30.8 L53.589684,30.736248 L54.068165,30.545002 L54.47303,30.226248 L55.012135,29.420002 L55.30658,29.0375 L55.601025,28.91 L55.895477,29.0375 L56.397774,29.779999 L56.61861,30.289997 L56.692223,30.8 L56.61861,31.310003 L56.189922,32.18 L56.005898,32.626247 L56.0427,32.945 L56.300343,33.13625 L58.372314,33.2 M119.3405,33.2 L117.74701,33.2 L117.19492,33.13625 L116.71643,32.945 L116.31157,32.626247 L115.77248,31.820002 L115.47803,31.4375 L115.18358,31.310001 L114.88914,31.4375 L114.38684,32.18 L114.05558,32.626247 L113.65071,32.945 L113.17224,33.13625 L112.20445,33.2 L111.725975,33.13625 L111.46834,32.945 L111.43153,32.626247 L111.8234,31.820002 L112.11786,31.310003 L112.41231,30.8 L112.70675,30.289997 L113.209045,29.420002 L113.503494,28.910004 L113.797935,28.4 L114.092384,27.889996 L115.18358,26 M33.43078,81.2 L34.227524,82.58 L34.521973,82.9625 L34.81642,83.090004 L35.11087,82.9625 L35.613167,82.22 L35.94442,81.77376 L36.349285,81.455 L36.827766,81.26375 L37.795547,81.2 L38.347637,81.26375 L38.82612,81.455 L39.230984,81.77376 L39.77009,82.58 L40.064533,82.9625 L40.358986,83.090004 L40.653435,82.9625 L41.155727,82.22 L41.376564,81.71001 L41.450176,81.2 L41.376564,80.689995 L40.947884,79.82 L40.61663,79.37376 L40.21176,79.055 L39.733284,78.863754 L38.7655,78.8 L38.21341,78.73625 L37.734932,78.545 L37.330063,78.22624 L36.202065,76.4 M86.08513,38 L86.88187,39.379997 L87.065895,39.82625 L87.02909,40.145 L86.77145,40.33625 L85.87727,40.4 L85.32518,40.33625 L84.8467,40.145 L84.44185,39.82625 L83.90274,39.02 L83.60829,38.6375 L83.31384,38.510002 L83.019394,38.6375 L82.5171,39.379997 L82.22265,39.7625 L81.9282,39.89 L81.63374,39.7625 L81.131454,39.02 L80.837006,38.510002 L80.54256,38 L80.248116,37.489998 L79.74582,36.620003 L79.56179,36.17375 L79.598595,35.855 L79.85624,35.66375 L80.750404,35.6 L81.22888,35.536247 L81.48653,35.345 L81.52333,35.02625 L80.54256,33.2 M12.646173,16.4 L11.052686,16.4 L10.574206,16.33625 L10.316564,16.145 L10.2797575,15.826251 L10.671634,15.0199995 L10.855664,14.573749 L10.818858,14.255 L10.561216,14.063749 L9.667045,14 L9.078147,14 L8.48925,14 L7.9003534,14 L6.8957634,14 L6.4172845,14.063749 L6.159642,14.255 L6.122836,14.573749 L6.5147123,15.38 L6.735549,15.890001 L6.809161,16.4 L6.735549,16.91 L6.3068666,17.78 L6.08603,18.29 L6.012418,18.8 L6.08603,19.31 L6.5147123,20.18 L6.735549,20.69 L6.809161,21.2 L6.735549,21.71 L5.717969,23.6 M20.960014,83.6 L22.553501,83.6 L23.142399,83.6 L23.731297,83.6 L24.320194,83.6 L25.324783,83.6 L25.876873,83.53625 L26.355352,83.345 L26.76022,83.026245 L27.299322,82.22 L27.52016,81.71001 L27.593771,81.2 L27.52016,80.689995 L27.091476,79.82 L26.907446,79.37376 L26.94425,79.055 L27.201895,78.863754 L28.096066,78.8 L28.684963,78.8 L29.27386,78.8 L29.862759,78.8 L30.86735,78.8 L31.345829,78.73625 L31.603466,78.545 L31.640274,78.22624 L31.248398,77.42 L30.917141,76.973755 L30.512274,76.655 L30.033794,76.46375 L29.066013,76.4 L28.477116,76.4 L27.88822,76.4 L27.299322,76.4 L25.116938,76.4 M101.32716,59.6 L102.12392,60.98 L102.34475,61.489998 L102.41837,62 L102.34475,62.510002 L101.91607,63.379997 L101.62162,63.7625 L101.32717,63.890003 L101.03272,63.7625 L100.530426,63.02 L100.23598,62.510002 L99.94153,62 L99.64708,61.489998 L99.14478,60.620003 L98.92395,60.110004 L98.850334,59.6 L98.92395,59.089996 L99.35263,58.22 L99.68388,57.773754 L100.08876,57.454998 L100.56724,57.263752 L101.53502,57.2 L102.12392,57.2 L102.712814,57.2 L103.30172,57.2 L104.30631,57.2 L104.78479,57.13625 L105.042435,56.945 L105.07924,56.626244 L104.68736,55.82 L104.3561,55.373756 L103.95125,55.055 L103.472755,54.86375 L101.32716,54.8 M76.385635,59.6 L75.5889,58.22 L75.40487,57.773754 L75.44167,57.454998 L75.69932,57.263752 L76.59349,57.2 L77.145584,57.13625 L77.62406,56.945 L78.028915,56.626244 L78.56802,55.82 L78.89928,55.373756 L79.30415,55.055 L79.78263,54.86375 L80.750404,54.8 L81.22888,54.86375 L81.48653,55.055 L81.52333,55.373756 L81.131454,56.18 L80.91062,56.689995 L80.837006,57.2 L80.91062,57.710003 L81.3393,58.579998 L81.63374,58.9625 L81.9282,59.090004 L82.22265,58.9625 L82.724945,58.22 L83.0562,57.773754 L83.461075,57.454998 L83.93955,57.263752 L84.90733,57.2 L85.45943,57.263752 L85.937904,57.454998 L86.34276,57.773754 L87.470764,59.6 M135.96819,76.4 L136.76492,77.78 L136.98576,78.28999 L137.05937,78.8 L136.98576,79.310005 L136.5571,80.18 L136.33626,80.689995 L136.26265,81.2 L136.33626,81.71001 L136.76492,82.58 L136.94896,83.026245 L136.91216,83.345 L136.65451,83.53625 L135.76035,83.6 L135.20825,83.53625 L134.72978,83.345 L134.32492,83.026245 L133.78581,82.22 L133.45456,81.77376 L133.04968,81.455 L132.5712,81.26375 L131.60342,81.2 L131.12494,81.26375 L130.8673,81.455 L130.83049,81.77376 L131.22237,82.58 L131.4064,83.026245 L131.3696,83.345 L131.11197,83.53625 L130.21779,83.6 L129.6657,83.53625 L129.18721,83.345 L128.78235,83.026245 L127.65434,81.2 M81.9282,26 L82.724945,24.619999 L82.90897,24.173748 L82.87217,23.855 L82.614525,23.66375 L81.72035,23.6 L81.16826,23.66375 L80.68978,23.855 L80.28493,24.173748 L79.74582,24.98 L79.45137,25.3625 L79.15692,25.49 L78.86247,25.3625 L78.360176,24.619999 L78.13934,24.109999 L78.06573,23.6 L78.13934,23.09 L78.56802,22.22 L78.89928,21.773748 L79.30415,21.455 L79.78263,21.26375 L80.750404,21.2 L81.339294,21.2 L81.9282,21.2 L82.517105,21.2 L83.52168,21.2 L84.07378,21.26375 L84.55226,21.455 L84.95712,21.773748 L85.49623,22.58 L85.717064,23.09 L85.79067,23.6 L85.717064,24.109999 L85.288376,24.98 L85.06754,25.49 L84.993935,26 L85.06754,26.510004 L86.08513,28.4 M25.116938,23.6 L24.320194,24.98 L23.98894,25.42625 L23.584072,25.745 L23.105593,25.936249 L22.137808,26 L21.659328,25.936249 L21.401688,25.745 L21.364882,25.42625 L21.756758,24.619999 L21.940788,24.173748 L21.903982,23.855 L21.646341,23.66375 L20.75217,23.6 L20.200077,23.66375 L19.7216,23.855 L19.316732,24.173748 L18.777632,24.98 L18.483183,25.3625 L18.188734,25.49 L17.894285,25.3625 L17.39199,24.619999 L17.097542,24.109999 L16.803095,23.6 L16.508644,23.09 L16.00635,22.22 L15.711901,21.71 L15.417452,21.2 L15.123003,20.69 L14.6207075,19.82 L14.436678,19.373749 L14.473485,19.055 L14.731128,18.86375 L15.625299,18.8 L16.177391,18.86375 L16.65587,19.055 L17.060736,19.373749 L18.188734,21.2 M34.81642,78.8 L34.019676,77.42 L33.79884,76.91 L33.725227,76.4 L33.79884,75.89 L34.227524,75.020004 L34.44836,74.51 L34.521973,74 L34.44836,73.49 L34.019676,72.62 L33.79884,72.11 L33.725227,71.6 L33.79884,71.09 L34.227524,70.22 L34.411552,69.77376 L34.37475,69.455 L34.117104,69.26375 L33.222935,69.2 L32.744453,69.136246 L32.486816,68.945 L32.45001,68.62624 L32.84188,67.82 L33.173134,67.37376 L33.578003,67.055 L34.056484,66.863754 L35.02427,66.8 L35.57636,66.863754 L36.05484,67.055 L36.45971,67.37376 L36.998806,68.18 L37.293255,68.689995 L37.587704,69.2 L37.882153,69.71001 L38.384445,70.58 L38.60528,71.09 L38.678894,71.6 L38.60528,72.11 L38.1766,72.979996 L37.882153,73.3625 L37.587704,73.490005 L37.293255,73.3625 L36.202065,71.6 M115.18358,69.2 L116.77706,69.2 L117.25554,69.136246 L117.51318,68.945 L117.54999,68.62624 L117.15812,67.82 L116.93728,67.310005 L116.86367,66.8 L116.93728,66.28999 L117.36595,65.42 L117.58679,64.91 L117.6604,64.4 L117.58679,63.889996 L117.15812,63.02 L116.97408,62.573753 L117.01089,62.254997 L117.26853,62.06375 L118.162704,62 L118.7148,61.93625 L119.19328,61.745003 L119.598145,61.426247 L120.137245,60.620003 L120.4317,60.2375 L120.72615,60.109997 L121.02059,60.2375 L121.52289,60.98 L121.85415,61.426247 L122.25901,61.745003 L122.73747,61.93625 L123.70526,62 L124.25735,61.93625 L124.73584,61.745003 L125.1407,61.426247 L125.679794,60.620003 L125.86383,60.173756 L125.82703,59.855 L125.56938,59.66375 L124.67521,59.6 L124.19673,59.536247 L123.93909,59.345 L123.90228,59.026245 L124.88306,57.2 M116.569214,81.2 L115.77248,82.58 L115.58844,83.026245 L115.625244,83.345 L115.88289,83.53625 L116.77706,83.6 L117.36595,83.6 L117.95486,83.6 L118.54376,83.6 L119.548355,83.6 L120.02683,83.53625 L120.28447,83.345 L120.32127,83.026245 L119.929405,82.22 L119.74538,81.77376 L119.78218,81.455 L120.03982,81.26375 L120.934,81.2 L121.486084,81.26375 L121.964554,81.455 L122.36942,81.77376 L122.90852,82.58 L123.239784,83.026245 L123.64465,83.345 L124.12312,83.53625 L125.090904,83.6 L125.56938,83.53625 L125.82703,83.345 L125.86383,83.026245 L125.47196,82.22 L125.25112,81.71001 L125.17751,81.2 L125.25112,80.689995 L125.679794,79.82 L125.86383,79.37376 L125.82703,79.055 L125.56938,78.863754 L124.67521,78.8 L124.19673,78.73625 L123.93909,78.545 L123.90228,78.22624 L124.88306,76.4 M88.85641,42.8 L89.65315,44.18 L89.98441,44.626247 L90.38927,44.945 L90.86775,45.13625 L91.835526,45.2 L92.38762,45.13625 L92.866104,44.945 L93.270966,44.626247 L93.810074,43.82 L93.994095,43.373753 L93.95729,43.055 L93.69966,42.86375 L92.80548,42.8 L92.253395,42.736248 L91.77492,42.545002 L91.37004,42.22625 L90.83094,41.420002 L90.61011,40.910004 L90.53649,40.4 L90.61011,39.889996 L91.03879,39.02 L91.22282,38.573753 L91.18601,38.254997 L90.92837,38.06375 L90.0342,38 L89.48212,37.93625 L89.00364,37.745003 L88.59877,37.426247 L88.05966,36.620003 L87.87563,36.17375 L87.91244,35.855 L88.17008,35.66375 L89.064255,35.6 L89.61635,35.536247 L90.094826,35.345 L90.49968,35.02625 L91.03879,34.22 L91.22282,33.77375 L91.18601,33.454998 L90.92837,33.263752 L88.85641,33.2 M79.15692,74 L80.750404,74 L81.22888,74.06375 L81.48653,74.255 L81.52333,74.57375 L81.131454,75.38 L80.837006,75.89 L80.54256,76.4 L80.248116,76.91 L79.74582,77.78 L79.414566,78.22624 L79.00969,78.545 L78.53121,78.73625 L77.56343,78.8 L77.084946,78.863754 L76.82732,79.055 L76.79051,79.37376 L77.18239,80.18 L77.40322,80.689995 L77.47683,81.2 L77.40322,81.71001 L76.97453,82.58 L76.68009,82.9625 L76.38564,83.090004 L76.091194,82.9625 L75.5889,82.22 L75.257645,81.77376 L74.85277,81.455 L74.37429,81.26375 L73.40651,81.2 L72.81761,81.2 L72.228714,81.2 L71.63982,81.2 L70.63524,81.2 L70.15675,81.26375 L69.89911,81.455 L69.862305,81.77376 L70.25418,82.58 L70.43821,83.026245 L70.401405,83.345 L70.14376,83.53625 L69.24959,83.6 L68.66069,83.6 L68.07179,83.6 L67.482895,83.6 L65.300514,83.6 M43.13027,64.4 L42.333523,63.02 L42.149494,62.573753 L42.1863,62.254997 L42.443943,62.06375 L43.33811,62 L43.890205,62.06375 L44.368683,62.254997 L44.773552,62.573753 L45.31265,63.379997 L45.643906,63.826244 L46.048775,64.145004 L46.527252,64.33625 L47.495033,64.4 L47.973515,64.33625 L48.23116,64.145004 L48.267963,63.826244 L47.876087,63.02 L47.692055,62.573753 L47.728863,62.254997 L47.986504,62.06375 L48.880672,62 L49.432762,61.93625 L49.911243,61.745003 L50.31611,61.426247 L50.855213,60.620003 L51.03924,60.173756 L51.002434,59.855 L50.744797,59.66375 L49.850624,59.6 L49.372147,59.536247 L49.114502,59.345 L49.077698,59.026245 L49.46957,58.22 L49.653603,57.773754 L49.6168,57.454998 L49.359154,57.263752 L48.46498,57.2 L47.986504,57.13625 L47.728863,56.945 L47.692055,56.626244 L48.08393,55.82 L48.30477,55.310005 L48.37838,54.8 L48.30477,54.289997 L47.28719,52.4 M56.98667,35.6 L57.783417,36.98 L58.07786,37.3625 L58.372314,37.489998 L58.666767,37.3625 L59.16906,36.620003 L59.46351,36.2375 L59.757954,36.11 L60.0524,36.2375 L60.554695,36.98 L60.88595,37.426247 L61.29082,37.745003 L61.7693,37.93625 L62.73708,38 L63.325977,38 L63.914875,38 L64.50377,38 L65.50836,38 L65.98684,38.06375 L66.244484,38.254997 L66.28129,38.573753 L65.88941,39.379997 L65.66857,39.889996 L65.594955,40.4 L65.66857,40.910004 L66.09726,41.78 L66.28129,42.22625 L66.244484,42.545002 L65.98684,42.736248 L65.09267,42.8 L64.54057,42.86375 L64.062096,43.055 L63.657234,43.373753 L63.118126,44.18 L62.9341,44.626247 L62.970905,44.945 L63.22854,45.13625 L64.12272,45.2 L64.6012,45.263752 L64.85884,45.454998 L64.895645,45.77375 L64.50377,46.579998 L64.20932,47.089996 L63.914867,47.6 L63.620422,48.110004 L63.118126,48.98 L62.9341,49.426247 L62.970905,49.745003 L63.22854,49.93625 L65.300514,50 M129.04,64.4 L129.83673,63.02 L130.02077,62.573753 L129.98396,62.254997 L129.72632,62.06375 L128.83214,62 L128.35367,61.93625 L128.09602,61.745003 L128.05922,61.426247 L128.45108,60.620003 L128.78235,60.173756 L129.18721,59.855 L129.6657,59.66375 L130.63348,59.6 L131.18558,59.536247 L131.66403,59.345 L132.06891,59.026245 L132.608,58.22 L132.82884,57.710003 L132.90247,57.2 L132.82884,56.689995 L132.40018,55.82 L132.21614,55.373756 L132.25294,55.055 L132.51059,54.86375 L133.40475,54.8 L133.99365,54.8 L134.58255,54.8 L135.17145,54.8 L136.17604,54.8 L136.65451,54.86375 L136.91216,55.055 L136.94896,55.373756 L136.5571,56.18 L136.33626,56.689995 L136.26265,57.2 L136.33626,57.710003 L136.76492,58.579998 L136.98576,59.089996 L137.05937,59.6 L136.98576,60.110004 L136.5571,60.98 L136.22583,61.426247 L135.82097,61.745003 L135.34248,61.93625 L134.3747,62 L133.89621,61.93625 L133.63858,61.745003 L133.60178,61.426247 L134.58255,59.6 M97.17025,71.6 L97.966995,70.22 L98.18783,69.71001 L98.261444,69.2 L98.18783,68.689995 L97.75915,67.82 L97.46471,67.310005 L97.17025,66.8 L96.8758,66.28999 L96.373505,65.42 L96.152664,64.91 L96.079056,64.4 L96.152664,63.889996 L96.58135,63.02 L96.80219,62.510002 L96.87581,62 L96.80219,61.489998 L96.373505,60.620003 L96.079056,60.2375 L95.78461,60.109997 L95.49016,60.2375 L94.98786,60.98 L94.69341,61.3625 L94.398964,61.49 L94.104515,61.3625 L93.60222,60.620003 L93.30778,60.110004 L93.01333,59.6 L92.71888,59.089996 L92.21658,58.22 L91.99574,57.710003 L91.922134,57.2 L91.99574,56.689995 L92.42443,55.82 L92.71888,55.310005 L93.01333,54.8 L93.30778,54.289997 L93.810074,53.420002 L94.104515,53.0375 L94.398964,52.909996 L94.69341,53.0375 L95.19571,53.78 L95.52696,54.226246 L95.93184,54.545002 L96.41032,54.736248 L97.3781,54.8 L97.85658,54.86375 L98.11422,55.055 L98.151024,55.373756 L97.75915,56.18 L97.427895,56.626244 L97.023026,56.945 L96.54454,57.13625 L94.39897,57.2 M59.757954,21.2 L60.554695,19.82 L60.73872,19.373749 L60.701916,19.055 L60.444275,18.86375 L59.55011,18.8 L58.998024,18.86375 L58.519543,19.055 L58.114674,19.373749 L57.57557,20.18 L57.35473,20.69 L57.281116,21.2 L57.35473,21.71 L57.783417,22.58 L58.114674,23.02625 L58.519543,23.345 L58.998024,23.536251 L59.965797,23.6 L60.444275,23.66375 L60.701916,23.855 L60.73872,24.173748 L60.346844,24.98 L60.16282,25.42625 L60.199623,25.745 L60.457264,25.936249 L61.351433,26 L61.903526,26.063751 L62.382008,26.255 L62.786873,26.573751 L63.325977,27.38 L63.510002,27.826248 L63.473198,28.145 L63.215565,28.336248 L62.32139,28.4 L61.7693,28.46375 L61.29082,28.654999 L60.88595,28.973751 L60.346844,29.779999 L60.126015,30.289997 L60.0524,30.8 L60.126015,31.310003 L60.554695,32.18 L60.84914,32.689995 L61.143593,33.2 L61.43804,33.710003 L61.94034,34.579998 L62.234783,34.9625 L62.529236,35.09 L62.82368,34.9625 L63.325977,34.22 L63.546814,33.710003 L63.620422,33.2 L63.546814,32.689995 L62.52923,30.8 M94.39897,38 L93.60222,39.379997 L93.4182,39.82625 L93.455,40.145 L93.71263,40.33625 L94.60681,40.4 L95.1589,40.33625 L95.637375,40.145 L96.04225,39.82625 L96.58135,39.02 L96.8758,38.510002 L97.17025,38 L97.46471,37.489998 L97.966995,36.620003 L98.151024,36.17375 L98.11422,35.855 L97.85658,35.66375 L96.9624,35.6 L96.483925,35.536247 L96.22628,35.345 L96.189476,35.02625 L96.58135,34.22 L96.80219,33.710003 L96.87581,33.2 L96.80219,32.689995 L96.373505,31.820002 L96.079056,31.310003 L95.78461,30.8 L95.49016,30.289997 L94.98786,29.420002 L94.80383,28.973751 L94.84064,28.654999 L95.09828,28.46375 L95.992455,28.4 L96.581345,28.4 L97.17025,28.4 L97.759155,28.4 L98.76373,28.4 L99.24221,28.336248 L99.499855,28.145 L99.53666,27.826248 L99.14478,27.02 L98.92395,26.510004 L98.850334,26 L98.92395,25.49 L99.35263,24.619999 L99.68388,24.173748 L100.08876,23.855 L100.56724,23.66375 L101.53502,23.6 L102.013504,23.66375 L102.27114,23.855 L102.307945,24.173748 L101.32716,26 M15.417452,64.4 L17.010939,64.4 L17.56303,64.33625 L18.04151,64.145004 L18.446377,63.826244 L18.985477,63.02 L19.279926,62.510002 L19.574375,62 L19.868822,61.489998 L20.371117,60.620003 L20.591953,60.110004 L20.665565,59.6 L20.591953,59.089996 L20.16327,58.22 L19.868822,57.8375 L19.574375,57.71 L19.279926,57.8375 L18.777632,58.579998 L18.483183,59.089996 L18.188734,59.6 L17.894285,60.110004 L17.39199,60.98 L17.097542,61.3625 L16.803095,61.49 L16.508644,61.3625 L16.00635,60.620003 L15.711901,60.2375 L15.417452,60.109997 L15.123003,60.2375 L14.6207075,60.98 L14.326259,61.3625 L14.031812,61.49 L13.737364,61.3625 L13.235069,60.620003 L12.94062,60.2375 L12.646173,60.109997 L12.351725,60.2375 L11.849429,60.98 L11.55498,61.3625 L11.260531,61.49 L10.966083,61.3625 L10.463788,60.620003 L10.132533,60.173756 L9.727667,59.855 L9.249187,59.66375 L8.2814045,59.6 L7.802925,59.66375 L7.545282,59.855 L7.5084763,60.173756 L7.9003525,60.98 L8.084383,61.426247 L8.047577,61.745003 L7.7899346,61.93625 L5.717969,62 M65.300514,78.8 L66.09726,80.18 L66.28129,80.62624 L66.244484,80.945 L65.98684,81.136246 L65.09267,81.2 L64.54057,81.26375 L64.062096,81.455 L63.657234,81.77376 L63.118126,82.58 L62.786873,83.026245 L62.382008,83.345 L61.903526,83.53625 L60.93575,83.6 L60.383656,83.53625 L59.905174,83.345 L59.500317,83.026245 L58.961212,82.22 L58.666767,81.8375 L58.372314,81.71 L58.07786,81.8375 L57.57557,82.58 L57.28112,82.9625 L56.98667,83.090004 L56.69222,82.9625 L56.189922,82.22 L55.969093,81.71001 L55.895477,81.2 L55.969093,80.689995 L56.397774,79.82 L56.61861,79.310005 L56.692223,78.8 L56.61861,78.28999 L56.189922,77.42 L55.858665,76.973755 L55.453808,76.655 L54.97533,76.46375 L54.007545,76.4 L53.455456,76.33625 L52.97698,76.145004 L52.572105,75.82625 L52.033,75.020004 L51.738556,74.6375 L51.44411,74.509995 L51.14966,74.6375 L50.647366,75.38 L50.42653,75.89 L50.352917,76.4 L50.42653,76.91 L50.855213,77.78 L51.14966,78.28999 L51.44411,78.8 L51.738556,79.310005 L52.240852,80.18 L52.535297,80.5625 L52.82975,80.69 L53.1242,80.5625 L54.215385,78.8 M81.9282,83.6 L83.52168,83.6 L84.07378,83.53625 L84.55226,83.345 L84.95712,83.026245 L85.49623,82.22 L85.68025,81.77376 L85.64345,81.455 L85.38582,81.26375 L84.49164,81.2 L84.01316,81.136246 L83.755516,80.945 L83.71871,80.62624 L84.11059,79.82 L84.40504,79.310005 L84.699486,78.8 L84.993935,78.28999 L85.49623,77.42 L85.68025,76.973755 L85.64345,76.655 L85.38582,76.46375 L84.49164,76.4 L84.01316,76.33625 L83.755516,76.145004 L83.71871,75.82625 L84.11059,75.020004 L84.33142,74.51 L84.40504,74 L84.33142,73.49 L83.90274,72.62 L83.57149,72.17375 L83.16661,71.854996 L82.68813,71.66375 L81.72035,71.6 L81.24187,71.53625 L80.98423,71.345 L80.947426,71.026245 L81.3393,70.22 L81.670555,69.77376 L82.075424,69.455 L82.55391,69.26375 L83.52168,69.2 L84.11058,69.2 L84.69948,69.2 L85.288376,69.2 L86.29297,69.2 L86.88186,69.2 L87.470764,69.2 L88.05967,69.2 L89.064255,69.2 L89.61635,69.136246 L90.094826,68.945 L90.49968,68.62624 L91.03879,67.82 L91.33324,67.4375 L91.627686,67.31 L91.922134,67.4375 L92.42443,68.18 L92.71888,68.5625 L93.01333,68.69 L93.30778,68.5625 L93.810074,67.82 L94.104515,67.4375 L94.398964,67.31 L94.69341,67.4375 L95.78461,69.2 M134.58255,69.2 L132.98906,69.2 L132.40018,69.2 L131.81128,69.2 L131.22238,69.2 L130.21779,69.2 L129.6657,69.136246 L129.18721,68.945 L128.78235,68.62624 L128.24326,67.82 L127.94879,67.310005 L127.65434,66.8 L127.3599,66.28999 L126.857605,65.42 L126.526344,64.973755 L126.12148,64.655 L125.64299,64.46375 L124.67521,64.4 L124.19673,64.46375 L123.93909,64.655 L123.90228,64.973755 L124.29415,65.78 L124.58861,66.28999 L124.88306,66.8 L125.177505,67.310005 L125.679794,68.18 L125.900635,68.689995 L125.97424,69.2 L125.900635,69.71001 L125.47196,70.58 L125.177505,70.9625 L124.88306,71.090004 L124.58861,70.9625 L124.08632,70.22 L123.79187,69.8375 L123.49742,69.71 L123.20298,69.8375 L122.70068,70.58 L122.40623,71.09 L122.11178,71.6 L121.81734,72.11 L121.31505,72.979996 L120.98379,73.42625 L120.57893,73.745 L120.10044,73.93625 L119.13265,74 L118.58057,74.06375 L118.10207,74.255 L117.69722,74.57375 L117.15812,75.38 L116.86366,75.7625 L116.569214,75.89 L116.274765,75.7625 L115.77248,75.020004 L115.551636,74.51 L115.47803,74 L115.551636,73.49 L115.98031,72.62 L116.164345,72.17375 L116.12754,71.854996 L115.869896,71.66375 L114.97572,71.6 L114.42363,71.66375 L113.94517,71.854996 L113.540306,72.17375 L113.001205,72.979996 L112.70675,73.3625 L112.41231,73.490005 L112.11786,73.3625 L111.61556,72.62 L111.2843,72.17375 L110.87944,71.854996 L110.400955,71.66375 L108.25537,71.6 M30.6595,62 L29.862759,60.620003 L29.56831,60.2375 L29.27386,60.109997 L28.979412,60.2375 L28.477118,60.98 L28.182673,61.3625 L27.88822,61.49 L27.59377,61.3625 L27.091476,60.620003 L26.87064,60.110004 L26.797028,59.6 L26.87064,59.089996 L27.299322,58.22 L27.630575,57.773754 L28.035442,57.454998 L28.513922,57.263752 L29.481705,57.2 L29.960184,57.13625 L30.217829,56.945 L30.254633,56.626244 L29.862759,55.82 L29.56831,55.310005 L29.27386,54.8 L28.979412,54.289997 L28.477118,53.420002 L28.182673,52.910004 L27.88822,52.4 L27.59377,51.889996 L27.091476,51.02 L26.76022,50.573753 L26.355352,50.254997 L25.876873,50.06375 L24.909092,50 L24.356998,49.93625 L23.878521,49.745003 L23.473654,49.426247 L22.934553,48.620003 L22.640104,48.110004 L22.345655,47.6 L22.051207,47.089996 L21.548912,46.22 L21.217657,45.77375 L20.81279,45.454998 L20.33431,45.263752 L19.366528,45.2 L18.88805,45.263752 L18.630407,45.454998 L18.593601,45.77375 L18.985477,46.579998 L19.169508,47.02625 L19.132702,47.345 L18.87506,47.536247 L17.980888,47.6 L17.428797,47.66375 L16.95032,47.855 L16.54545,48.17375 L16.00635,48.98 L15.675095,49.426247 L15.270227,49.745003 L14.791748,49.93625 L13.823965,50 L13.235067,50 L12.646173,50 L12.057276,50 L11.052686,50 L10.574206,50.06375 L10.316564,50.254997 L10.2797575,50.573753 L10.671634,51.379997 L10.966083,51.889996 L11.260531,52.4 L11.55498,52.910004 L12.646173,54.8 M55.601032,66.8 L57.19452,66.8 L57.78341,66.8 L58.372314,66.8 L58.96122,66.8 L59.965797,66.8 L60.554688,66.8 L61.143593,66.8 L61.732494,66.8 L62.73708,66.8 L63.325977,66.8 L63.914875,66.8 L64.50377,66.8 L65.50836,66.8 L66.06045,66.73625 L66.538925,66.545 L66.9438,66.22624 L67.4829,65.42 L67.81416,64.973755 L68.21902,64.655 L68.697495,64.46375 L69.66528,64.4 L70.14376,64.46375 L70.401405,64.655 L70.43821,64.973755 L70.04633,65.78 L69.8255,66.28999 L69.751884,66.8 L69.8255,67.310005 L70.25418,68.18 L70.585434,68.62624 L70.99031,68.945 L71.46879,69.136246 L72.43656,69.2 L72.98865,69.26375 L73.467125,69.455 L73.871994,69.77376 L74.4111,70.58 L74.70555,70.9625 L75,71.090004 L75.29445,70.9625 L75.796745,70.22 L76.091194,69.71001 L76.38564,69.2 L76.68009,68.689995 L77.18239,67.82 L77.47683,67.310005 L77.77128,66.8 L78.06573,66.28999 L78.56802,65.42 L78.86247,65.0375 L79.15692,64.909996 L79.45137,65.0375 L79.95367,65.78 L80.248116,66.1625 L80.54256,66.29 L80.837006,66.1625 L81.3393,65.42 L81.560135,64.91 L81.63375,64.4 L81.560135,63.889996 L81.131454,63.02 L80.80019,62.573753 L80.39534,62.254997 L79.916855,62.06375 L78.94908,62 L78.39699,62.06375 L77.9185,62.254997 L77.51364,62.573753 L76.97453,63.379997 L76.64328,63.826244 L76.23842,64.145004 L75.75993,64.33625 L74.79215,64.4 L74.313675,64.46375 L74.05603,64.655 L74.019226,64.973755 L74.4111,65.78 L74.59513,66.22624 L74.55833,66.545 L74.30068,66.73625 L72.228714,66.8 M12.646173,74 L11.849429,75.38 L11.6654,75.82625 L11.702205,76.145004 L11.9598465,76.33625 L12.854017,76.4 L13.40611,76.46375 L13.884587,76.655 L14.2894535,76.973755 L14.828554,77.78 L15.159808,78.22624 L15.564676,78.545 L16.043156,78.73625 L17.010939,78.8 L17.489418,78.863754 L17.74706,79.055 L17.783867,79.37376 L17.39199,80.18 L17.171154,80.689995 L17.097544,81.2 L17.171154,81.71001 L17.599836,82.58 L17.894285,82.9625 L18.188734,83.090004 L18.483183,82.9625 L18.985477,82.22 L19.279926,81.71001 L19.574375,81.2 L19.868822,80.689995 L20.371117,79.82 L20.665565,79.4375 L20.960014,79.31 L21.254463,79.4375 L21.756758,80.18 L22.051207,80.5625 L22.345655,80.69 L22.640104,80.5625 L23.142399,79.82 L23.363235,79.310005 L23.436848,78.8 L23.363235,78.28999 L22.934553,77.42 L22.713718,76.91 L22.640104,76.4 L22.713718,75.89 L23.142399,75.020004 L23.473654,74.57375 L23.878521,74.255 L24.356998,74.06375 L25.324783,74 L25.876873,73.93625 L26.355352,73.745 L26.76022,73.42625 L27.299322,72.62 L27.59377,72.11 L27.88822,71.6 L28.182673,71.09 L28.684963,70.22 L28.979412,69.71001 L29.27386,69.2 L29.56831,68.689995 L30.070602,67.82 L30.365051,67.310005 L30.6595,66.8 L30.953949,66.28999 L31.456244,65.42 L31.640274,64.973755 L31.603466,64.655 L31.345829,64.46375 L30.451656,64.4 L29.862759,64.4 L29.27386,64.4 L28.684963,64.4 L27.680374,64.4 L27.128284,64.46375 L26.649805,64.655 L26.244938,64.973755 L25.705835,65.78 L25.411386,66.28999 L25.116938,66.8 L24.822489,67.310005 L24.320194,68.18 L24.136164,68.62624 L24.17297,68.945 L24.430613,69.136246 L25.324783,69.2 L25.876873,69.136246 L26.355352,68.945 L26.76022,68.62624 L27.88822,66.8 M66.68616,71.6 L65.09267,71.6 L64.54057,71.53625 L64.062096,71.345 L63.657234,71.026245 L63.118126,70.22 L62.9341,69.77376 L62.970905,69.455 L63.22854,69.26375 L64.12272,69.2 L64.71161,69.2 L65.300514,69.2 L65.88942,69.2 L66.894,69.2 L67.44609,69.26375 L67.924576,69.455 L68.32944,69.77376 L68.868546,70.58 L69.1998,71.026245 L69.60466,71.345 L70.083145,71.53625 L71.05092,71.6 L71.5294,71.66375 L71.78705,71.854996 L71.82385,72.17375 L71.43198,72.979996 L71.211136,73.49 L71.13753,74 L71.211136,74.51 L71.639824,75.38 L71.86066,75.89 L71.93427,76.4 L71.86066,76.91 L71.43198,77.78 L71.13753,78.1625 L70.84308,78.29 L70.54863,78.1625 L70.04633,77.42 L69.751884,76.91 L69.457436,76.4 L69.16299,75.89 L68.66069,75.020004 L68.36625,74.6375 L68.0718,74.509995 L67.77735,74.6375 L67.275055,75.38 L66.980606,75.7625 L66.68616,75.89 L66.39171,75.7625 L65.88941,75.020004 L65.59496,74.6375 L65.300514,74.509995 L65.00606,74.6375 L64.50377,75.38 L64.20932,75.89 L63.914867,76.4 L63.620422,76.91 L63.118126,77.78 L62.82368,78.28999 L62.529236,78.8 L62.234783,79.310005 L61.73249,80.18 L61.43804,80.5625 L61.143593,80.69 L60.84914,80.5625 L60.346844,79.82 L60.126015,79.310005 L60.0524,78.8 L60.126015,78.28999 L60.554695,77.42 L60.84914,76.91 L61.143593,76.4 L61.43804,75.89 L61.94034,75.020004 L62.16117,74.51 L62.234783,74 L62.16117,73.49 L61.73249,72.62 L61.43804,72.2375 L61.143593,72.11 L60.84914,72.2375 L60.346844,72.979996 L60.015587,73.42625 L59.61073,73.745 L59.13225,73.93625 L58.164467,74 L57.575573,74 L56.98667,74 L56.397766,74 L54.215385,74 M79.15692,45.2 L80.750404,45.2 L81.22888,45.263752 L81.48653,45.454998 L81.52333,45.77375 L81.131454,46.579998 L80.80019,47.02625 L80.39534,47.345 L79.916855,47.536247 L78.94908,47.6 L78.39699,47.66375 L77.9185,47.855 L77.51364,48.17375 L76.97453,48.98 L76.79051,49.426247 L76.82732,49.745003 L77.084946,49.93625 L77.979126,50 L78.4576,50.06375 L78.71525,50.254997 L78.75205,50.573753 L78.360176,51.379997 L78.06573,51.889996 L77.77128,52.4 L77.47683,52.910004 L76.97453,53.78 L76.64328,54.226246 L76.23842,54.545002 L75.75993,54.736248 L74.79215,54.8 L74.24007,54.86375 L73.76158,55.055 L73.35671,55.373756 L72.81761,56.18 L72.59678,56.689995 L72.52316,57.2 L72.59678,57.710003 L73.02546,58.579998 L73.3199,59.089996 L73.61436,59.6 L73.908806,60.110004 L74.4111,60.98 L74.59513,61.426247 L74.55833,61.745003 L74.30068,61.93625 L73.40651,62 L72.81761,62 L72.228714,62 L71.63982,62 L70.63524,62 L70.04634,62 L69.45744,62 L68.868546,62 L67.86395,62 L67.31187,61.93625 L66.83339,61.745003 L66.42851,61.426247 L65.88941,60.620003 L65.55815,60.173756 L65.15328,59.855 L64.674805,59.66375 L63.707024,59.6 L63.15493,59.66375 L62.676453,59.855 L62.271595,60.173756 L61.73249,60.98 L61.43804,61.3625 L61.143593,61.49 L60.84914,61.3625 L60.346844,60.620003 L60.0524,60.2375 L59.757954,60.109997 L59.46351,60.2375 L58.961212,60.98 L58.740376,61.489998 L58.66676,62 L58.740376,62.510002 L59.16906,63.379997 L59.500317,63.826244 L59.905174,64.145004 L60.383656,64.33625 L61.351433,64.4 L61.94033,64.4 L62.52923,64.4 L63.118126,64.4 L64.12272,64.4 L64.6012,64.33625 L64.85884,64.145004 L64.895645,63.826244 L63.914875,62 M102.712814,52.4 L104.30631,52.4 L104.8584,52.33625 L105.33687,52.145 L105.74174,51.826244 L106.28084,51.02 L106.46487,50.573753 L106.42808,50.254997 L106.17043,50.06375 L105.27626,50 L104.797775,49.93625 L104.54014,49.745003 L104.503334,49.426247 L104.8952,48.620003 L105.07924,48.17375 L105.042435,47.855 L104.78479,47.66375 L103.89061,47.6 L103.41213,47.536247 L103.154495,47.345 L103.11769,47.02625 L103.50956,46.22 L103.73039,45.710003 L103.804,45.2 L103.73039,44.689995 L103.30172,43.82 L103.11769,43.373753 L103.154495,43.055 L103.41213,42.86375 L104.30631,42.8 L104.78479,42.736248 L105.042435,42.545002 L105.07924,42.22625 L104.68736,41.420002 L104.3561,40.97375 L103.95125,40.655 L103.472755,40.463753 L102.50497,40.4 L101.91606,40.4 L101.32716,40.4 L100.738266,40.4 L99.73369,40.4 L99.2552,40.463753 L98.99756,40.655 L98.960754,40.97375 L99.35263,41.78 L99.64708,42.289997 L99.94153,42.8 L100.23598,43.310005 L100.73827,44.18 L100.9223,44.626247 L100.8855,44.945 L100.62785,45.13625 L99.73369,45.2 L99.181595,45.13625 L98.70311,44.945 L98.298256,44.626247 L97.75915,43.82 L97.46471,43.4375 L97.17025,43.31 L96.8758,43.4375 L96.373505,44.18 L96.079056,44.689995 L95.78461,45.2 L95.49016,45.710003 L94.98786,46.579998 L94.80383,47.02625 L94.84064,47.345 L95.09828,47.536247 L95.992455,47.6 L96.54454,47.66375 L97.023026,47.855 L97.427895,48.17375 L97.966995,48.98 L98.151024,49.426247 L98.11422,49.745003 L97.85658,49.93625 L96.9624,50 L96.483925,50.06375 L96.22628,50.254997 L96.189476,50.573753 L96.58135,51.379997 L96.91261,51.826244 L97.31748,52.145 L97.79596,52.33625 L98.76373,52.4 L99.31582,52.33625 L99.7943,52.145 L100.19917,51.826244 L100.73827,51.02 L100.95911,50.510002 L101.03272,50 L100.95911,49.489998 L99.94153,47.6 M126.2687,16.4 L125.47196,15.0199995 L125.1407,14.573749 L124.73584,14.255 L124.25735,14.063749 L123.289566,14 L122.70067,14 L122.11178,14 L121.52289,14 L120.518295,14 L120.03982,14.063749 L119.78218,14.255 L119.74538,14.573749 L120.137245,15.38 L120.468506,15.826251 L120.87337,16.145 L121.35185,16.33625 L122.31964,16.4 L122.87173,16.463749 L123.3502,16.655 L123.75505,16.97375 L124.29415,17.78 L124.62541,18.226252 L125.03027,18.545 L125.508766,18.73625 L126.47655,18.8 L127.02864,18.73625 L127.507126,18.545 L127.91199,18.226252 L128.45108,17.42 L128.67192,16.91 L128.74553,16.4 L128.67192,15.890001 L128.24326,15.0199995 L128.05922,14.573749 L128.09602,14.255 L128.35367,14.063749 L129.24783,14 L129.79993,14.063749 L130.2784,14.255 L130.68326,14.573749 L131.22237,15.38 L131.51682,15.890001 L131.81126,16.4 L132.10571,16.91 L132.608,17.78 L132.79204,18.226252 L132.75523,18.545 L132.49759,18.73625 L131.60342,18.8 L131.05133,18.86375 L130.57285,19.055 L130.168,19.373749 L129.62889,20.18 L129.40805,20.69 L129.33444,21.2 L129.40805,21.71 L129.83673,22.58 L130.13118,22.9625 L130.42563,23.09 L130.72006,22.9625 L131.22237,22.22 L131.55362,21.773748 L131.9585,21.455 L132.43698,21.26375 L133.40475,21.2 L133.95685,21.13625 L134.43533,20.945 L134.84018,20.626251 L135.37929,19.82 L135.67374,19.4375 L135.96819,19.310001 L136.26263,19.4375 L136.76492,20.18 L137.05939,20.5625 L137.35384,20.689999 L137.64828,20.5625 L138.15057,19.82 L138.37141,19.31 L138.44502,18.8 L138.37141,18.29 L137.94273,17.42 L137.64828,16.91 L137.35384,16.4 L137.05939,15.890001 L136.5571,15.0199995 L136.26263,14.6375 L135.96819,14.51 L135.67374,14.6375 L135.17145,15.38 L134.877,15.7625 L134.58255,15.889999 L134.28812,15.7625 L133.19691,14 M40.358986,64.4 L41.155727,65.78 L41.486984,66.22624 L41.891853,66.545 L42.37033,66.73625 L43.33811,66.8 L43.92701,66.8 L44.515907,66.8 L45.104805,66.8 L46.109394,66.8 L46.58787,66.863754 L46.845512,67.055 L46.88232,67.37376 L46.490444,68.18 L46.306416,68.62624 L46.34322,68.945 L46.600864,69.136246 L47.495033,69.2 L47.973515,69.26375 L48.23116,69.455 L48.267963,69.77376 L47.876087,70.58 L47.65525,71.09 L47.58164,71.6 L47.65525,72.11 L48.08393,72.979996 L48.30477,73.49 L48.37838,74 L48.30477,74.51 L47.876087,75.38 L47.581642,75.7625 L47.28719,75.89 L46.992737,75.7625 L46.490444,75.020004 L46.195995,74.51 L45.901546,74 L45.607098,73.49 L45.104805,72.62 L44.810356,72.2375 L44.515907,72.11 L44.221455,72.2375 L43.719166,72.979996 L43.387913,73.42625 L42.983044,73.745 L42.504562,73.93625 L41.53678,74 L40.984688,74.06375 L40.506207,74.255 L40.10134,74.57375 L39.56224,75.38 L39.378212,75.82625 L39.415016,76.145004 L39.67266,76.33625 L40.56683,76.4 L41.11892,76.46375 L41.5974,76.655 L42.002266,76.973755 L42.54137,77.78 L42.835815,78.1625 L43.13027,78.29 L43.42472,78.1625 L43.92701,77.42 L44.221455,77.0375 L44.515907,76.909996 L44.810356,77.0375 L45.31265,77.78 L45.533485,78.28999 L45.607098,78.8 L45.533485,79.310005 L45.104805,80.18 L44.883965,80.689995 L44.810356,81.2 L44.883965,81.71001 L45.31265,82.58 L45.607098,82.9625 L45.901546,83.090004 L46.195995,82.9625 L46.69829,82.22 L46.992737,81.71001 L47.28719,81.2 L47.581642,80.689995 L48.08393,79.82 L48.37838,79.4375 L48.67283,79.31 L48.967278,79.4375 L49.46957,80.18 L49.690407,80.689995 L49.76402,81.2 L49.690407,81.71001 L49.261726,82.58 L49.077698,83.026245 L49.114502,83.345 L49.372147,83.53625 L50.26632,83.6 L50.855217,83.6 L51.44411,83.6 L52.03301,83.6 L54.215385,83.6 M30.6595,52.4 L32.252987,52.4 L32.805077,52.463753 L33.283558,52.655 L33.688423,52.973755 L34.227524,53.78 L34.411552,54.226246 L34.37475,54.545002 L34.117104,54.736248 L33.222935,54.8 L32.744453,54.86375 L32.486816,55.055 L32.45001,55.373756 L32.84188,56.18 L33.13633,56.689995 L33.43078,57.2 L33.72523,57.710003 L34.227524,58.579998 L34.521973,59.089996 L34.81642,59.6 L35.11087,60.110004 L35.613167,60.98 L35.94442,61.426247 L36.349285,61.745003 L36.827766,61.93625 L37.795547,62 L38.347637,61.93625 L38.82612,61.745003 L39.230984,61.426247 L39.77009,60.620003 L40.064533,60.110004 L40.358986,59.6 L40.653435,59.089996 L41.155727,58.22 L41.486984,57.773754 L41.891853,57.454998 L42.37033,57.263752 L43.33811,57.2 L43.890205,57.13625 L44.368683,56.945 L44.773552,56.626244 L45.31265,55.82 L45.49668,55.373756 L45.459877,55.055 L45.202232,54.86375 L44.30806,54.8 L43.75597,54.736248 L43.27749,54.545002 L42.872623,54.226246 L42.333523,53.420002 L42.002266,52.973755 L41.5974,52.655 L41.11892,52.463753 L40.15114,52.4 L39.67266,52.463753 L39.415016,52.655 L39.378212,52.973755 L39.77009,53.78 L39.990925,54.289997 L40.064537,54.8 L39.990925,55.310005 L39.56224,56.18 L39.26779,56.689995 L38.973343,57.2 L38.678894,57.710003 L38.1766,58.579998 L37.882153,58.9625 L37.587704,59.090004 L37.293255,58.9625 L36.790962,58.22 L36.57012,57.710003 L36.496513,57.2 L36.57012,56.689995 L36.998806,55.82 L37.219643,55.310005 L37.293255,54.8 L37.219643,54.289997 L36.790962,53.420002 L36.57012,52.910004 L36.496513,52.4 L36.57012,51.889996 L36.998806,51.02 L37.330063,50.573753 L37.734932,50.254997 L38.21341,50.06375 L39.18119,50 L39.733284,49.93625 L40.21176,49.745003 L40.61663,49.426247 L41.155727,48.620003 L41.486984,48.17375 L41.891853,47.855 L42.37033,47.66375 L43.33811,47.6 L43.890205,47.66375 L44.368683,47.855 L44.773552,48.17375 L45.31265,48.98 L45.533485,49.489998 L45.607098,50 L45.533485,50.510002 L45.104805,51.379997 L44.810356,51.7625 L44.515907,51.890003 L44.221455,51.7625 L43.13027,50 M122.11178,76.4 L122.90852,75.020004 L123.239784,74.57375 L123.64465,74.255 L124.12312,74.06375 L125.090904,74 L125.64299,74.06375 L126.12148,74.255 L126.526344,74.57375 L127.065445,75.38 L127.3599,75.89 L127.65434,76.4 L127.94879,76.91 L128.45108,77.78 L128.78235,78.22624 L129.18721,78.545 L129.6657,78.73625 L130.63348,78.8 L131.18558,78.73625 L131.66403,78.545 L132.06891,78.22624 L132.608,77.42 L132.79204,76.973755 L132.75523,76.655 L132.49759,76.46375 L131.60342,76.4 L131.05133,76.33625 L130.57285,76.145004 L130.168,75.82625 L129.62889,75.020004 L129.40805,74.51 L129.33444,74 L129.40805,73.49 L129.83673,72.62 L130.13118,72.2375 L130.42563,72.11 L130.72006,72.2375 L131.22237,72.979996 L131.55362,73.42625 L131.9585,73.745 L132.43698,73.93625 L133.40475,74 L133.88324,73.93625 L134.14088,73.745 L134.17769,73.42625 L133.78581,72.62 L133.60178,72.17375 L133.63858,71.854996 L133.89621,71.66375 L134.79039,71.6 L135.34248,71.53625 L135.82097,71.345 L136.22583,71.026245 L136.76492,70.22 L137.05939,69.8375 L137.35384,69.71 L137.64828,69.8375 L138.15057,70.58 L138.44502,71.09 L138.73947,71.6 L139.0339,72.11 L139.53621,72.979996 L139.86746,73.42625 L140.27234,73.745 L140.75082,73.93625 L141.7186,74 L142.19708,73.93625 L142.45473,73.745 L142.49153,73.42625 L142.09966,72.62 L141.8052,72.11 L141.51076,71.6 L141.21631,71.09 L140.71402,70.22 L140.41956,69.71001 L140.1251,69.2 L139.83066,68.689995 L139.32837,67.82 L139.0339,67.310005 L138.73947,66.8 L138.44502,66.28999 L137.94273,65.42 L137.7219,64.91 L137.64828,64.4 L137.7219,63.889996 L138.15057,63.02 L138.44502,62.510002 L138.73947,62 L139.0339,61.489998 L139.53621,60.620003 L139.86746,60.173756 L140.27234,59.855 L140.75082,59.66375 L141.7186,59.6 L142.19708,59.536247 L142.45473,59.345 L142.49153,59.026245 L142.09966,58.22 L141.7684,57.773754 L141.36353,57.454998 L140.88504,57.263752 L139.91727,57.2 L139.43878,57.13625 L139.18114,56.945 L139.14433,56.626244 L139.53621,55.82 L139.83066,55.310005 L140.1251,54.8 L140.41956,54.289997 L140.92184,53.420002 L141.21631,53.0375 L141.51076,52.909996 L141.8052,53.0375 L142.8964,54.8 M15.417452,26 L16.214195,27.38 L16.398228,27.826248 L16.361422,28.145 L16.103779,28.336248 L15.209607,28.4 L14.657515,28.336248 L14.179036,28.145 L13.77417,27.826248 L13.235069,27.02 L12.94062,26.6375 L12.646173,26.51 L12.351725,26.6375 L11.849429,27.38 L11.55498,27.7625 L11.260531,27.89 L10.966083,27.7625 L10.463788,27.02 L10.169339,26.510004 L9.874891,26 L9.580442,25.49 L9.078148,24.619999 L8.783699,24.2375 L8.48925,24.11 L8.194801,24.2375 L7.6925063,24.98 L7.3980575,25.49 L7.1036096,26 L6.809161,26.510004 L6.3068666,27.38 L6.122836,27.826248 L6.159642,28.145 L6.4172845,28.336248 L7.3114557,28.4 L7.863547,28.46375 L8.342026,28.654999 L8.746893,28.973751 L9.285994,29.779999 L9.580442,30.289997 L9.874891,30.8 L10.169339,31.310003 L10.671634,32.18 L10.966083,32.689995 L11.260531,33.2 L11.55498,33.710003 L12.057276,34.579998 L12.351725,35.089996 L12.646173,35.6 L12.94062,36.110004 L13.442915,36.98 L13.737364,37.489998 L14.031812,38 L14.326259,38.510002 L14.828554,39.379997 L15.012584,39.82625 L14.975779,40.145 L14.718137,40.33625 L13.823965,40.4 L13.345487,40.463753 L13.087845,40.655 L13.051039,40.97375 L13.442915,41.78 L13.737364,42.289997 L14.031812,42.8 L14.326259,43.310005 L14.828554,44.18 L15.04939,44.689995 L15.123003,45.2 L15.04939,45.710003 L14.6207075,46.579998 L14.2894535,47.02625 L13.884587,47.345 L13.40611,47.536247 L12.438326,47.6 L11.849428,47.6 L11.260531,47.6 L10.671635,47.6 L9.667045,47.6 L9.188566,47.536247 L8.930923,47.345 L8.894117,47.02625 L9.285994,46.22 L9.617249,45.77375 L10.022116,45.454998 L10.500594,45.263752 L11.468378,45.2 L11.9468565,45.13625 L12.2045,44.945 L12.241305,44.626247 L11.849429,43.82 L11.518175,43.373753 L11.113307,43.055 L10.634829,42.86375 L9.667045,42.8 L9.114954,42.736248 L8.636475,42.545002 L8.231607,42.22625 L7.6925063,41.420002 L7.3980575,41.0375 L7.1036096,40.91 L6.809161,41.0375 L6.3068666,41.78 L6.08603,42.289997 L6.012418,42.8 L6.08603,43.310005 L6.5147123,44.18 L6.735549,44.689995 L6.809161,45.2 L6.735549,45.710003 L6.3068666,46.579998 L6.08603,47.089996 L6.012418,47.6 L6.08603,48.110004 L6.5147123,48.98 L6.809161,49.489998 L7.1036096,50 L7.3980575,50.510002 L7.9003525,51.379997 L8.121189,51.889996 L8.194801,52.4 L8.121189,52.910004 L7.6925063,53.78 L7.3980575,54.1625 L7.1036096,54.29 L6.809161,54.1625 L5.717969,52.4 M56.98667,69.2 L57.783417,70.58 L57.967445,71.026245 L57.93064,71.345 L57.672997,71.53625 L56.778828,71.6 L56.226734,71.53625 L55.748253,71.345 L55.34339,71.026245 L54.804283,70.22 L54.50984,69.8375 L54.215393,69.71 L53.92094,69.8375 L53.418648,70.58 L53.08739,71.026245 L52.682518,71.345 L52.20404,71.53625 L51.23626,71.6 L50.757782,71.53625 L50.50014,71.345 L50.463337,71.026245 L50.855213,70.22 L51.07605,69.71001 L51.149662,69.2 L51.07605,68.689995 L50.647366,67.82 L50.42653,67.310005 L50.352917,66.8 L50.42653,66.28999 L50.855213,65.42 L51.14966,65.0375 L51.44411,64.909996 L51.738556,65.0375 L52.240852,65.78 L52.535297,66.1625 L52.82975,66.29 L53.1242,66.1625 L53.626495,65.42 L53.92094,64.91 L54.215393,64.4 L54.50984,63.889996 L55.012135,63.02 L55.23297,62.510002 L55.30658,62 L55.23297,61.489998 L54.804283,60.620003 L54.50984,60.110004 L54.215393,59.6 L53.92094,59.089996 L53.418648,58.22 L53.1242,57.710003 L52.82975,57.2 L52.535297,56.689995 L52.033,55.82 L51.738556,55.310005 L51.44411,54.8 L51.14966,54.289997 L50.647366,53.420002 L50.352917,52.910004 L50.058468,52.4 L49.76402,51.889996 L49.261726,51.02 L48.967278,50.510002 L48.67283,50 L48.37838,49.489998 L47.876087,48.620003 L47.692055,48.17375 L47.728863,47.855 L47.986504,47.66375 L48.880672,47.6 L49.432762,47.66375 L49.911243,47.855 L50.31611,48.17375 L50.855213,48.98 L51.14966,49.489998 L51.44411,50 L51.738556,50.510002 L52.240852,51.379997 L52.535297,51.7625 L52.82975,51.890003 L53.1242,51.7625 L53.626495,51.02 L53.92094,50.6375 L54.215393,50.510002 L54.50984,50.6375 L55.012135,51.379997 L55.30658,51.7625 L55.601025,51.890003 L55.895477,51.7625 L56.397774,51.02 L56.61861,50.510002 L56.692223,50 L56.61861,49.489998 L56.189922,48.620003 L55.895477,48.110004 L55.601025,47.6 L55.30658,47.089996 L54.804283,46.22 L54.50984,45.8375 L54.215393,45.71 L53.92094,45.8375 L53.418648,46.579998 L53.1242,46.9625 L52.82975,47.09 L52.535297,46.9625 L52.033,46.22 L51.738556,45.710003 L51.44411,45.2 L51.14966,44.689995 L50.647366,43.82 L50.352917,43.310005 L50.058468,42.8 L49.76402,42.289997 L49.261726,41.420002 L49.077698,40.97375 L49.114502,40.655 L49.372147,40.463753 L50.26632,40.4 L50.81841,40.463753 L51.296886,40.655 L51.70175,40.97375 L52.240852,41.78 L52.535297,42.1625 L52.82975,42.29 L53.1242,42.1625 L53.626495,41.420002 L53.957752,40.97375 L54.36261,40.655 L54.841087,40.463753 L55.808876,40.4 L56.287354,40.463753 L56.544994,40.655 L56.5818,40.97375 L55.601032,42.8 M34.81642,30.8 L34.019676,29.420002 L33.688423,28.973751 L33.283558,28.654999 L32.805077,28.46375 L31.837296,28.4 L31.358816,28.336248 L31.101171,28.145 L31.064367,27.826248 L31.456244,27.02 L31.75069,26.510004 L32.045143,26 L32.339592,25.49 L32.84188,24.619999 L33.025913,24.173748 L32.989105,23.855 L32.73147,23.66375 L31.837296,23.6 L31.358816,23.536251 L31.101171,23.345 L31.064367,23.02625 L31.456244,22.22 L31.787497,21.773748 L32.192364,21.455 L32.670845,21.26375 L33.638626,21.2 L34.227524,21.2 L34.81642,21.2 L35.40532,21.2 L36.40991,21.2 L36.961998,21.13625 L37.44048,20.945 L37.845345,20.626251 L38.384445,19.82 L38.678894,19.4375 L38.973343,19.310001 L39.26779,19.4375 L39.77009,20.18 L40.10134,20.626251 L40.506207,20.945 L40.984688,21.13625 L41.952473,21.2 L42.54137,21.2 L43.13027,21.2 L43.719162,21.2 L44.72375,21.2 L45.31265,21.2 L45.901546,21.2 L46.490444,21.2 L47.495033,21.2 L48.047127,21.13625 L48.525604,20.945 L48.930473,20.626251 L49.46957,19.82 L49.690407,19.31 L49.76402,18.8 L49.690407,18.29 L49.261726,17.42 L49.04089,16.91 L48.967278,16.4 L49.04089,15.890001 L49.46957,15.0199995 L49.653603,14.573749 L49.6168,14.255 L49.359154,14.063749 L48.46498,14 L47.91289,14.063749 L47.43441,14.255 L47.029545,14.573749 L46.490444,15.38 L46.269608,15.890001 L46.195995,16.4 L46.269608,16.91 L46.69829,17.78 L46.88232,18.226252 L46.845512,18.545 L46.58787,18.73625 L45.693703,18.8 L45.104805,18.8 L44.515907,18.8 L43.92701,18.8 L42.92242,18.8 L42.443943,18.73625 L42.1863,18.545 L42.149494,18.226252 L42.54137,17.42 L42.835815,16.91 L43.13027,16.4 L43.42472,15.890001 L43.92701,15.0199995 L44.11104,14.573749 L44.07423,14.255 L43.816593,14.063749 L42.92242,14 L42.333523,14 L41.744625,14 L41.155727,14 L40.15114,14 L39.67266,14.063749 L39.415016,14.255 L39.378212,14.573749 L39.77009,15.38 L39.954117,15.826251 L39.91731,16.145 L39.65967,16.33625 L38.7655,16.4 L38.21341,16.463749 L37.734932,16.655 L37.330063,16.97375 L36.790962,17.78 L36.45971,18.226252 L36.05484,18.545 L35.57636,18.73625 L34.608574,18.8 L34.019676,18.8 L33.43078,18.8 L32.841885,18.8 L31.837296,18.8 L31.358816,18.73625 L31.101171,18.545 L31.064367,18.226252 L31.456244,17.42 L31.677082,16.91 L31.750692,16.4 L31.677082,15.890001 L31.248398,15.0199995 L30.917141,14.573749 L30.512274,14.255 L30.033794,14.063749 L29.066013,14 L28.513922,14.063749 L28.035442,14.255 L27.630575,14.573749 L27.091476,15.38 L26.797028,15.890001 L26.502579,16.4 L26.20813,16.91 L25.116938,18.8 M18.188734,54.8 L17.39199,56.18 L17.060736,56.626244 L16.65587,56.945 L16.177391,57.13625 L15.209607,57.2 L14.731128,57.13625 L14.473485,56.945 L14.436678,56.626244 L14.828554,55.82 L15.04939,55.310005 L15.123003,54.8 L15.04939,54.289997 L14.6207075,53.420002 L14.436678,52.973755 L14.473485,52.655 L14.731128,52.463753 L15.625299,52.4 L16.177391,52.33625 L16.65587,52.145 L17.060736,51.826244 L17.599836,51.02 L17.931091,50.573753 L18.335958,50.254997 L18.814438,50.06375 L19.78222,50 L20.2607,50.06375 L20.518341,50.254997 L20.555147,50.573753 L20.16327,51.379997 L19.942434,51.889996 L19.868824,52.4 L19.942434,52.910004 L20.371117,53.78 L20.702372,54.226246 L21.107239,54.545002 L21.585718,54.736248 L22.553501,54.8 L23.031979,54.86375 L23.289623,55.055 L23.32643,55.373756 L22.934553,56.18 L22.713718,56.689995 L22.640104,57.2 L22.713718,57.710003 L23.142399,58.579998 L23.436848,59.089996 L23.731297,59.6 L24.025745,60.110004 L24.52804,60.98 L24.748877,61.489998 L24.822489,62 L24.748877,62.510002 L24.320194,63.379997 L24.025745,63.7625 L23.731297,63.890003 L23.436848,63.7625 L22.934553,63.02 L22.640104,62.6375 L22.345655,62.51 L22.051207,62.6375 L21.548912,63.379997 L21.254463,63.889996 L20.960014,64.4 L20.665565,64.91 L20.16327,65.78 L19.97924,66.22624 L20.016048,66.545 L20.273691,66.73625 L21.167862,66.8 L21.646341,66.863754 L21.903982,67.055 L21.940788,67.37376 L21.548912,68.18 L21.217657,68.62624 L20.81279,68.945 L20.33431,69.136246 L19.366528,69.2 L18.77763,69.2 L18.188732,69.2 L17.599836,69.2 L16.595247,69.2 L16.00635,69.2 L15.417453,69.2 L14.828555,69.2 L13.823965,69.2 L13.345487,69.136246 L13.087845,68.945 L13.051039,68.62624 L13.442915,67.82 L13.663752,67.310005 L13.737363,66.8 L13.663752,66.28999 L13.235069,65.42 L12.903814,64.973755 L12.498948,64.655 L12.020469,64.46375 L11.052686,64.4 L10.463788,64.4 L9.874891,64.4 L9.285994,64.4 L8.2814045,64.4 L7.802925,64.46375 L7.545282,64.655 L7.5084763,64.973755 L7.9003525,65.78 L8.194801,66.28999 L8.48925,66.8 L8.783699,67.310005 L9.285994,68.18 L9.470024,68.62624 L9.433218,68.945 L9.175575,69.136246 L8.2814045,69.2 L7.729313,69.26375 L7.250834,69.455 L6.8459673,69.77376 L6.3068666,70.58 L6.122836,71.026245 L6.159642,71.345 L6.4172845,71.53625 L7.3114557,71.6 L7.863547,71.66375 L8.342026,71.854996 L8.746893,72.17375 L9.285994,72.979996 L9.470024,73.42625 L9.433218,73.745 L9.175575,73.93625 L8.2814045,74 L7.729313,74.06375 L7.250834,74.255 L6.8459673,74.57375 L6.3068666,75.38 L6.122836,75.82625 L6.159642,76.145004 L6.4172845,76.33625 L7.3114557,76.4 L7.863547,76.46375 L8.342026,76.655 L8.746893,76.973755 L9.285994,77.78 L9.50683,78.28999 L9.580442,78.8 L9.50683,79.310005 L9.078148,80.18 L8.746893,80.62624 L8.342026,80.945 L7.863547,81.136246 L6.8957634,81.2 L6.4172845,81.136246 L6.159642,80.945 L6.122836,80.62624 L7.1036096,78.8 M127.65434,57.2 L128.45108,55.82 L128.67192,55.310005 L128.74553,54.8 L128.67192,54.289997 L128.24326,53.420002 L127.91199,52.973755 L127.507126,52.655 L127.02864,52.463753 L126.06085,52.4 L125.582375,52.463753 L125.32473,52.655 L125.287926,52.973755 L125.679794,53.78 L125.86383,54.226246 L125.82703,54.545002 L125.56938,54.736248 L124.67521,54.8 L124.12312,54.86375 L123.64465,55.055 L123.239784,55.373756 L122.70068,56.18 L122.40623,56.5625 L122.11178,56.690002 L121.81734,56.5625 L121.31505,55.82 L120.98379,55.373756 L120.57893,55.055 L120.10044,54.86375 L119.13265,54.8 L118.58057,54.736248 L118.10207,54.545002 L117.69722,54.226246 L117.15812,53.420002 L116.86366,53.0375 L116.569214,52.909996 L116.274765,53.0375 L115.77248,53.78 L115.551636,54.289997 L115.47803,54.8 L115.551636,55.310005 L115.98031,56.18 L116.274765,56.689995 L116.569214,57.2 L116.86366,57.710003 L117.36595,58.579998 L117.54999,59.026245 L117.51318,59.345 L117.25554,59.536247 L116.36137,59.6 L115.80928,59.66375 L115.33081,59.855 L114.92594,60.173756 L114.38684,60.98 L114.166,61.489998 L114.092384,62 L114.166,62.510002 L114.59468,63.379997 L114.77871,63.826244 L114.74192,64.145004 L114.484276,64.33625 L113.5901,64.4 L113.03801,64.46375 L112.559525,64.655 L112.15466,64.973755 L111.61556,65.78 L111.43153,66.22624 L111.46834,66.545 L111.725975,66.73625 L112.620155,66.8 L113.09863,66.863754 L113.35628,67.055 L113.39308,67.37376 L113.001205,68.18 L112.669945,68.62624 L112.26509,68.945 L111.7866,69.136246 L110.81881,69.2 L110.22992,69.2 L109.641014,69.2 L109.05211,69.2 L108.04752,69.2 L107.49544,69.26375 L107.01697,69.455 L106.6121,69.77376 L106.073,70.58 L105.77854,71.09 L105.48409,71.6 L105.18965,72.11 L104.68736,72.979996 L104.46653,73.49 L104.39292,74 L104.46653,74.51 L104.8952,75.38 L105.18965,75.89 L105.48409,76.4 L105.77854,76.91 L106.28084,77.78 L106.6121,78.22624 L107.01697,78.545 L107.49544,78.73625 L108.46322,78.8 L108.941696,78.863754 L109.19934,79.055 L109.236145,79.37376 L108.84428,80.18 L108.54982,80.689995 L108.25537,81.2 L107.96092,81.71001 L107.45863,82.58 L107.2746,83.026245 L107.3114,83.345 L107.569046,83.53625 L108.46322,83.6 L109.05211,83.6 L109.641014,83.6 L110.22992,83.6 L111.23451,83.6 L111.71299,83.53625 L111.97063,83.345 L112.00743,83.026245 L111.61556,82.22 L111.43153,81.77376 L111.46834,81.455 L111.725975,81.26375 L112.620155,81.2 L113.17224,81.136246 L113.65071,80.945 L114.05558,80.62624 L114.59468,79.82 L114.81551,79.310005 L114.88914,78.8 L114.81551,78.28999 L114.38684,77.42 L114.092384,77.0375 L113.797935,76.909996 L113.503494,77.0375 L113.001205,77.78 L112.70675,78.1625 L112.41231,78.29 L112.11786,78.1625 L111.61556,77.42 L111.321106,76.91 L111.02666,76.4 L110.732216,75.89 L110.22992,75.020004 L109.89866,74.57375 L109.4938,74.255 L109.015305,74.06375 L108.04752,74 L107.569046,74.06375 L107.3114,74.255 L107.2746,74.57375 L108.25537,76.4 M122.11178,18.8 L120.518295,18.8 L119.96621,18.73625 L119.48772,18.545 L119.08286,18.226252 L118.54376,17.42 L118.249306,16.91 L117.95486,16.4 L117.660416,15.890001 L117.15812,15.0199995 L116.82686,14.573749 L116.422,14.255 L115.943504,14.063749 L114.97572,14 L114.49724,14.063749 L114.2396,14.255 L114.202805,14.573749 L114.59468,15.38 L114.88914,15.890001 L115.18358,16.4 L115.47803,16.91 L115.98031,17.78 L116.274765,18.29 L116.569214,18.8 L116.86366,19.31 L117.36595,20.18 L117.58679,20.69 L117.6604,21.2 L117.58679,21.71 L117.15812,22.58 L116.82686,23.02625 L116.422,23.345 L115.943504,23.536251 L114.97572,23.6 L114.386826,23.6 L113.797935,23.6 L113.209045,23.6 L112.20445,23.6 L111.725975,23.66375 L111.46834,23.855 L111.43153,24.173748 L111.8234,24.98 L112.044235,25.49 L112.11784,26 L112.044235,26.510004 L111.61556,27.38 L111.321106,27.889996 L111.02666,28.4 L110.732216,28.910004 L110.22992,29.779999 L109.89866,30.226248 L109.4938,30.545002 L109.015305,30.736248 L108.04752,30.8 L107.49544,30.736248 L107.01697,30.545002 L106.6121,30.226248 L106.073,29.420002 L105.88896,28.973751 L105.92576,28.654999 L106.183395,28.46375 L107.077576,28.4 L107.62966,28.336248 L108.108154,28.145 L108.513016,27.826248 L109.05211,27.02 L109.236145,26.573751 L109.19934,26.255 L108.941696,26.063751 L108.04752,26 L107.45863,26 L106.869736,26 L106.280846,26 L105.27626,26 L104.72417,26.063751 L104.24568,26.255 L103.84082,26.573751 L103.30172,27.38 L103.00726,27.889996 L102.712814,28.4 L102.41837,28.910004 L101.91607,29.779999 L101.73204,30.226248 L101.768845,30.545002 L102.02648,30.736248 L102.92067,30.8 L103.472755,30.86375 L103.95125,31.054998 L104.3561,31.373753 L104.8952,32.18 L105.11604,32.689995 L105.18965,33.2 L105.11604,33.710003 L104.68736,34.579998 L104.39291,34.9625 L104.098465,35.09 L103.804016,34.9625 L103.30172,34.22 L103.00726,33.8375 L102.712814,33.71 L102.41837,33.8375 L101.91607,34.579998 L101.62162,35.089996 L101.32717,35.6 L101.03272,36.110004 L100.530426,36.98 L100.3464,37.426247 L100.3832,37.745003 L100.64085,37.93625 L101.53502,38 L102.12392,38 L102.712814,38 L103.30172,38 L104.30631,38 L104.8952,38 L105.48409,38 L106.07298,38 L107.077576,38 L107.55605,37.93625 L107.8137,37.745003 L107.8505,37.426247 L107.45863,36.620003 L107.2746,36.17375 L107.3114,35.855 L107.569046,35.66375 L108.46322,35.6 L109.05211,35.6 L109.641014,35.6 L110.22992,35.6 L111.23451,35.6 L111.8234,35.6 L112.41231,35.6 L113.001205,35.6 L114.0058,35.6 L114.484276,35.66375 L114.74192,35.855 L114.77871,36.17375 L114.38684,36.98 L114.202805,37.426247 L114.2396,37.745003 L114.49724,37.93625 L115.39142,38 L115.869896,38.06375 L116.12754,38.254997 L116.164345,38.573753 L115.77248,39.379997 L115.47803,39.889996 L115.18358,40.4 L114.88914,40.910004 L114.38684,41.78 L114.092384,42.1625 L113.797935,42.29 L113.503494,42.1625 L113.001205,41.420002 L112.70675,40.910004 L112.41231,40.4 L112.11786,39.889996 L111.02666,38 M52.82975,33.2 L51.23626,33.2 L50.68417,33.13625 L50.205692,32.945 L49.800827,32.626247 L49.261726,31.820002 L48.967278,31.4375 L48.67283,31.310001 L48.37838,31.4375 L47.876087,32.18 L47.581642,32.5625 L47.28719,32.69 L46.992737,32.5625 L46.490444,31.820002 L46.159187,31.373753 L45.754322,31.054998 L45.27584,30.86375 L44.30806,30.8 L43.75597,30.736248 L43.27749,30.545002 L42.872623,30.226248 L42.333523,29.420002 L42.039074,29.0375 L41.744625,28.91 L41.450176,29.0375 L40.947884,29.779999 L40.61663,30.226248 L40.21176,30.545002 L39.733284,30.736248 L38.7655,30.8 L38.21341,30.736248 L37.734932,30.545002 L37.330063,30.226248 L36.790962,29.420002 L36.60693,28.973751 L36.643738,28.654999 L36.901375,28.46375 L37.795547,28.4 L38.274025,28.336248 L38.53167,28.145 L38.568474,27.826248 L38.1766,27.02 L37.955765,26.510004 L37.882153,26 L37.955765,25.49 L38.384445,24.619999 L38.715702,24.173748 L39.120567,23.855 L39.59905,23.66375 L40.56683,23.6 L41.04531,23.66375 L41.302956,23.855 L41.33976,24.173748 L40.947884,24.98 L40.76385,25.42625 L40.80066,25.745 L41.0583,25.936249 L41.952473,26 L42.54137,26 L43.13027,26 L43.719162,26 L44.72375,26 L45.31265,26 L45.901546,26 L46.490444,26 L47.495033,26 L48.08393,26 L48.67283,26 L49.261726,26 L50.26632,26 L50.81841,26.063751 L51.296886,26.255 L51.70175,26.573751 L52.240852,27.38 L52.535297,27.7625 L52.82975,27.89 L53.1242,27.7625 L53.626495,27.02 L53.957752,26.573751 L54.36261,26.255 L54.841087,26.063751 L55.808876,26 L56.287354,25.936249 L56.544994,25.745 L56.5818,25.42625 L56.189922,24.619999 L55.895477,24.109999 L55.601025,23.6 L55.30658,23.09 L54.804283,22.22 L54.583447,21.71 L54.50984,21.2 L54.583447,20.69 L55.012135,19.82 L55.23297,19.31 L55.30658,18.8 L55.23297,18.29 L54.804283,17.42 L54.47303,16.97375 L54.068165,16.655 L53.589684,16.463749 L52.621906,16.4 L52.14342,16.33625 L51.88578,16.145 L51.848976,15.826251 L52.240852,15.0199995 L52.572105,14.573749 L52.97698,14.255 L53.455456,14.063749 L54.423237,14 L55.012135,14 L55.601032,14 L56.18993,14 L57.19452,14 L57.746605,14.063749 L58.225086,14.255 L58.629955,14.573749 L59.16906,15.38 L59.46351,15.7625 L59.757954,15.889999 L60.0524,15.7625 L60.554695,15.0199995 L60.88595,14.573749 L61.29082,14.255 L61.7693,14.063749 L62.73708,14 L63.289173,14.063749 L63.76765,14.255 L64.17251,14.573749 L64.71162,15.38 L65.00606,15.7625 L65.300514,15.889999 L65.59496,15.7625 L66.09726,15.0199995 L66.42851,14.573749 L66.83339,14.255 L67.31187,14.063749 L68.27965,14 L68.83174,14.063749 L69.31022,14.255 L69.71507,14.573749 L70.25418,15.38 L70.54863,15.7625 L70.84308,15.889999 L71.13753,15.7625 L71.639824,15.0199995 L71.971085,14.573749 L72.37594,14.255 L72.854416,14.063749 L73.822205,14 L74.37429,14.063749 L74.85277,14.255 L75.257645,14.573749 L75.796745,15.38 L75.980774,15.826251 L75.94397,16.145 L75.686325,16.33625 L74.79215,16.4 L74.313675,16.463749 L74.05603,16.655 L74.019226,16.97375 L74.4111,17.78 L74.63194,18.29 L74.70555,18.8 L74.63194,19.31 L74.203255,20.18 L73.871994,20.626251 L73.467125,20.945 L72.98865,21.13625 L72.020874,21.2 L71.5424,21.13625 L71.28475,20.945 L71.24795,20.626251 L72.228714,18.8 M127.65434,28.4 L128.45108,29.779999 L128.78235,30.226248 L129.18721,30.545002 L129.6657,30.736248 L130.63348,30.8 L131.11197,30.736248 L131.3696,30.545002 L131.4064,30.226248 L131.01453,29.420002 L130.83049,28.973751 L130.8673,28.654999 L131.12494,28.46375 L132.01912,28.4 L132.49759,28.336248 L132.75523,28.145 L132.79204,27.826248 L132.40018,27.02 L132.17934,26.510004 L132.10571,26 L132.17934,25.49 L132.608,24.619999 L132.90247,24.2375 L133.19691,24.11 L133.49136,24.2375 L133.99365,24.98 L134.28812,25.3625 L134.58255,25.49 L134.877,25.3625 L135.37929,24.619999 L135.71054,24.173748 L136.1154,23.855 L136.5939,23.66375 L137.56168,23.6 L138.11377,23.536251 L138.59224,23.345 L138.9971,23.02625 L139.53621,22.22 L139.83066,21.8375 L140.1251,21.710001 L140.41956,21.8375 L140.92184,22.58 L141.21631,23.09 L141.51076,23.6 L141.8052,24.109999 L142.3075,24.98 L142.49153,25.42625 L142.45473,25.745 L142.19708,25.936249 L141.3029,26 L140.71402,26 L140.12512,26 L139.53622,26 L138.53163,26 L138.05315,26.063751 L137.7955,26.255 L137.7587,26.573751 L138.15057,27.38 L138.44502,27.889996 L138.73947,28.4 L139.0339,28.910004 L139.53621,29.779999 L139.83066,30.1625 L140.1251,30.289999 L140.41956,30.1625 L140.92184,29.420002 L141.21631,29.0375 L141.51076,28.91 L141.8052,29.0375 L142.3075,29.779999 L142.52834,30.289997 L142.60196,30.8 L142.52834,31.310003 L142.09966,32.18 L141.8052,32.689995 L141.51076,33.2 L141.21631,33.710003 L140.71402,34.579998 L140.49318,35.089996 L140.41956,35.6 L140.49318,36.110004 L140.92184,36.98 L141.10588,37.426247 L141.06908,37.745003 L140.81143,37.93625 L139.91727,38 L139.36517,37.93625 L138.88669,37.745003 L138.48184,37.426247 L137.94273,36.620003 L137.64828,36.110004 L137.35384,35.6 L137.05939,35.089996 L136.5571,34.22 L136.26263,33.710003 L135.96819,33.2 L135.67374,32.689995 L135.17145,31.820002 L134.877,31.4375 L134.58255,31.310001 L134.28812,31.4375 L133.78581,32.18 L133.56497,32.689995 L133.49136,33.2 L133.56497,33.710003 L133.99365,34.579998 L134.17769,35.02625 L134.14088,35.345 L133.88324,35.536247 L132.98906,35.6 L132.40018,35.6 L131.81128,35.6 L131.22238,35.6 L130.21779,35.6 L129.7393,35.536247 L129.48166,35.345 L129.44485,35.02625 L129.83673,34.22 L130.02077,33.77375 L129.98396,33.454998 L129.72632,33.263752 L128.83214,33.2 L128.28006,33.263752 L127.80156,33.454998 L127.396706,33.77375 L126.857605,34.579998 L126.56315,35.089996 L126.2687,35.6 L125.97426,36.110004 L125.47196,36.98 L125.1407,37.426247 L124.73584,37.745003 L124.25735,37.93625 L123.289566,38 L122.73747,38.06375 L122.25901,38.254997 L121.85415,38.573753 L121.31505,39.379997 L121.13102,39.82625 L121.16782,40.145 L121.42546,40.33625 L122.31964,40.4 L122.87173,40.463753 L123.3502,40.655 L123.75505,40.97375 L124.29415,41.78 L124.62541,42.22625 L125.03027,42.545002 L125.508766,42.736248 L126.47655,42.8 L127.02864,42.736248 L127.507126,42.545002 L127.91199,42.22625 L128.45108,41.420002 L128.67192,40.910004 L128.74553,40.4 L128.67192,39.889996 L128.24326,39.02 L128.05922,38.573753 L128.09602,38.254997 L128.35367,38.06375 L129.24783,38 L129.83673,38 L130.42563,38 L131.01453,38 L132.01912,38 L132.608,38 L133.1969,38 L133.7858,38 L134.79039,38 L135.26888,38.06375 L135.52652,38.254997 L135.56332,38.573753 L135.17145,39.379997 L134.877,39.889996 L134.58255,40.4 L134.28812,40.910004 L133.78581,41.78 L133.60178,42.22625 L133.63858,42.545002 L133.89621,42.736248 L134.79039,42.8 L135.34248,42.736248 L135.82097,42.545002 L136.22583,42.22625 L136.76492,41.420002 L137.05939,41.0375 L137.35384,40.91 L137.64828,41.0375 L138.15057,41.78 L138.44502,42.289997 L138.73947,42.8 L139.0339,43.310005 L139.53621,44.18 L139.83066,44.689995 L140.1251,45.2 L140.41956,45.710003 L140.92184,46.579998 L141.14268,47.089996 L141.21631,47.6 L141.14268,48.110004 L140.71402,48.98 L140.41956,49.489998 L140.1251,50 L139.83066,50.510002 L139.32837,51.379997 L138.9971,51.826244 L138.59224,52.145 L138.11377,52.33625 L137.14598,52.4 L136.5571,52.4 L135.96819,52.4 L135.37929,52.4 L134.3747,52.4 L133.8226,52.33625 L133.34415,52.145 L132.93927,51.826244 L132.40018,51.02 L132.10571,50.6375 L131.81126,50.510002 L131.51682,50.6375 L131.01453,51.379997 L130.72006,51.7625 L130.42563,51.890003 L130.13118,51.7625 L129.62889,51.02 L129.40805,50.510002 L129.33444,50 L129.40805,49.489998 L129.83673,48.620003 L130.05757,48.110004 L130.13118,47.6 L130.05757,47.089996 L129.62889,46.22 L129.40805,45.710003 L129.33444,45.2 L129.40805,44.689995 L129.83673,43.82 L130.13118,43.310005 L130.42563,42.8 L130.72006,42.289997 L131.81126,40.4 M40.358986,45.2 L41.952473,45.2 L42.504562,45.13625 L42.983044,44.945 L43.387913,44.626247 L43.92701,43.82 L44.147846,43.310005 L44.22146,42.8 L44.147846,42.289997 L43.719166,41.420002 L43.535133,40.97375 L43.57194,40.655 L43.829582,40.463753 L44.72375,40.4 L45.202232,40.33625 L45.459877,40.145 L45.49668,39.82625 L45.104805,39.02 L44.883965,38.510002 L44.810356,38 L44.883965,37.489998 L45.31265,36.620003 L45.49668,36.17375 L45.459877,35.855 L45.202232,35.66375 L44.30806,35.6 L43.829582,35.536247 L43.57194,35.345 L43.535133,35.02625 L43.92701,34.22 L44.11104,33.77375 L44.07423,33.454998 L43.816593,33.263752 L42.92242,33.2 L42.37033,33.263752 L41.891853,33.454998 L41.486984,33.77375 L40.947884,34.579998 L40.727043,35.089996 L40.653435,35.6 L40.727043,36.110004 L41.155727,36.98 L41.33976,37.426247 L41.302956,37.745003 L41.04531,37.93625 L40.15114,38 L39.59905,38.06375 L39.120567,38.254997 L38.715702,38.573753 L38.1766,39.379997 L37.845345,39.82625 L37.44048,40.145 L36.961998,40.33625 L35.994217,40.4 L35.51574,40.33625 L35.258095,40.145 L35.22129,39.82625 L35.613167,39.02 L35.797195,38.573753 L35.760387,38.254997 L35.502747,38.06375 L34.608574,38 L34.130096,37.93625 L33.872456,37.745003 L33.835648,37.426247 L34.227524,36.620003 L34.411552,36.17375 L34.37475,35.855 L34.117104,35.66375 L33.222935,35.6 L32.744453,35.536247 L32.486816,35.345 L32.45001,35.02625 L32.84188,34.22 L33.06272,33.710003 L33.13633,33.2 L33.06272,32.689995 L32.63404,31.820002 L32.302788,31.373753 L31.897919,31.054998 L31.41944,30.86375 L30.451656,30.8 L29.973179,30.86375 L29.715534,31.054998 L29.67873,31.373753 L30.070602,32.18 L30.254633,32.626247 L30.217829,32.945 L29.960184,33.13625 L29.066013,33.2 L28.587534,33.263752 L28.329895,33.454998 L28.293087,33.77375 L28.684963,34.579998 L28.868994,35.02625 L28.83219,35.345 L28.574545,35.536247 L27.680374,35.6 L27.201895,35.66375 L26.94425,35.855 L26.907446,36.17375 L27.299322,36.98 L27.52016,37.489998 L27.593771,38 L27.52016,38.510002 L27.091476,39.379997 L26.87064,39.889996 L26.797028,40.4 L26.87064,40.910004 L27.299322,41.78 L27.59377,42.1625 L27.88822,42.29 L28.182673,42.1625 L28.684963,41.420002 L28.979412,41.0375 L29.27386,40.91 L29.56831,41.0375 L30.070602,41.78 L30.40186,42.22625 L30.806726,42.545002 L31.285206,42.736248 L32.252987,42.8 L32.73147,42.86375 L32.989105,43.055 L33.025913,43.373753 L32.63404,44.18 L32.302788,44.626247 L31.897919,44.945 L31.41944,45.13625 L30.451656,45.2 L29.862759,45.2 L29.27386,45.2 L28.684963,45.2 L27.680374,45.2 L27.128284,45.13625 L26.649805,44.945 L26.244938,44.626247 L25.705835,43.82 L25.411386,43.310005 L25.116938,42.8 L24.822489,42.289997 L24.320194,41.420002 L24.025745,40.910004 L23.731297,40.4 L23.436848,39.889996 L22.934553,39.02 L22.603298,38.573753 L22.198431,38.254997 L21.719952,38.06375 L20.75217,38 L20.200077,37.93625 L19.7216,37.745003 L19.316732,37.426247 L18.777632,36.620003 L18.483183,36.2375 L18.188734,36.11 L17.894285,36.2375 L17.39199,36.98 L17.097542,37.3625 L16.803095,37.489998 L16.508644,37.3625 L16.00635,36.620003 L15.785513,36.110004 L15.711901,35.6 L15.785513,35.089996 L16.214195,34.22 L16.435032,33.710003 L16.508646,33.2 L16.435032,32.689995 L16.00635,31.820002 L15.822319,31.373753 L15.859125,31.054998 L16.116768,30.86375 L17.010939,30.8 L17.56303,30.736248 L18.04151,30.545002 L18.446377,30.226248 L18.985477,29.420002 L19.316732,28.973751 L19.7216,28.654999 L20.200077,28.46375 L21.167862,28.4 L21.719952,28.46375 L22.198431,28.654999 L22.603298,28.973751 L23.142399,29.779999 L23.473654,30.226248 L23.878521,30.545002 L24.356998,30.736248 L25.324783,30.8 L25.803263,30.736248 L26.060907,30.545002 L26.097712,30.226248 L25.705835,29.420002 L25.484997,28.910004 L25.411386,28.4 L25.484997,27.889996 L25.913681,27.02 L26.20813,26.6375 L26.502579,26.51 L26.797028,26.6375 L27.299322,27.38 L27.59377,27.7625 L27.88822,27.89 L28.182673,27.7625 L28.684963,27.02 L28.905802,26.510004 L28.979412,26 L28.905802,25.49 L28.477118,24.619999 L28.25628,24.109999 L28.182669,23.6 L28.25628,23.09 L28.684963,22.22 L28.905802,21.71 L28.979412,21.2 L28.905802,20.69 L28.477118,19.82 L28.182673,19.4375 L27.88822,19.310001 L27.59377,19.4375 L27.091476,20.18 L26.76022,20.626251 L26.355352,20.945 L25.876873,21.13625 L24.909092,21.2 L24.356998,21.13625 L23.878521,20.945 L23.473654,20.626251 L22.934553,19.82 L22.640104,19.4375 L22.345655,19.310001 L22.051207,19.4375 L21.548912,20.18 L21.254463,20.5625 L20.960014,20.689999 L20.665565,20.5625 L20.16327,19.82 L19.868822,19.31 L19.574375,18.8 L19.279926,18.29 L18.777632,17.42 L18.446377,16.97375 L18.04151,16.655 L17.56303,16.463749 L16.595247,16.4 L16.043156,16.33625 L15.564676,16.145 L15.159808,15.826251 L14.6207075,15.0199995 L14.436678,14.573749 L14.473485,14.255 L14.731128,14.063749 L15.625299,14 L16.214197,14 L16.803095,14 L17.39199,14 L18.39658,14 L18.948673,14.063749 L19.42715,14.255 L19.832016,14.573749 L20.371117,15.38 L20.702372,15.826251 L21.107239,16.145 L21.585718,16.33625 L22.553501,16.4 L23.105593,16.33625 L23.584072,16.145 L23.98894,15.826251 L24.52804,15.0199995 L24.71207,14.573749 L24.675264,14.255 L24.417622,14.063749 L22.345655,14 M63.914875,52.4 L62.32139,52.4 L61.732494,52.4 L61.143593,52.4 L60.554688,52.4 L59.55011,52.4 L58.998024,52.463753 L58.519543,52.655 L58.114674,52.973755 L57.57557,53.78 L57.39154,54.226246 L57.428345,54.545002 L57.685986,54.736248 L58.58016,54.8 L59.13225,54.86375 L59.61073,55.055 L60.015587,55.373756 L60.554695,56.18 L60.88595,56.626244 L61.29082,56.945 L61.7693,57.13625 L62.73708,57.2 L63.289173,57.13625 L63.76765,56.945 L64.17251,56.626244 L64.71162,55.82 L65.00606,55.310005 L65.300514,54.8 L65.59496,54.289997 L66.09726,53.420002 L66.39171,52.910004 L66.68616,52.4 L66.980606,51.889996 L67.4829,51.02 L67.703735,50.510002 L67.77735,50 L67.703735,49.489998 L67.275055,48.620003 L67.054214,48.110004 L66.980606,47.6 L67.054214,47.089996 L67.4829,46.22 L67.81416,45.77375 L68.21902,45.454998 L68.697495,45.263752 L69.66528,45.2 L70.21737,45.13625 L70.69585,44.945 L71.10072,44.626247 L71.639824,43.82 L71.93427,43.4375 L72.228714,43.31 L72.52316,43.4375 L73.02546,44.18 L73.3199,44.689995 L73.61436,45.2 L73.908806,45.710003 L74.4111,46.579998 L74.70555,46.9625 L75,47.09 L75.29445,46.9625 L75.796745,46.22 L76.091194,45.710003 L76.38564,45.2 L76.68009,44.689995 L77.18239,43.82 L77.40322,43.310005 L77.47683,42.8 L77.40322,42.289997 L76.97453,41.420002 L76.68009,41.0375 L76.38564,40.91 L76.091194,41.0375 L75.5889,41.78 L75.29445,42.1625 L75,42.29 L74.70555,42.1625 L74.203255,41.420002 L73.871994,40.97375 L73.467125,40.655 L72.98865,40.463753 L72.020874,40.4 L71.46879,40.463753 L70.99031,40.655 L70.585434,40.97375 L70.04633,41.78 L69.751884,42.1625 L69.457436,42.29 L69.16299,42.1625 L68.66069,41.420002 L68.43986,40.910004 L68.36625,40.4 L68.43986,39.889996 L68.868546,39.02 L69.08938,38.510002 L69.16299,38 L69.08938,37.489998 L68.66069,36.620003 L68.36625,36.110004 L68.0718,35.6 L67.77735,35.089996 L67.275055,34.22 L66.980606,33.710003 L66.68616,33.2 L66.39171,32.689995 L65.88941,31.820002 L65.70538,31.373753 L65.74219,31.054998 L65.99983,30.86375 L66.894,30.8 L67.44609,30.86375 L67.924576,31.054998 L68.32944,31.373753 L68.868546,32.18 L69.16299,32.689995 L69.457436,33.2 L69.751884,33.710003 L70.25418,34.579998 L70.54863,35.089996 L70.84308,35.6 L71.13753,36.110004 L71.639824,36.98 L71.971085,37.426247 L72.37594,37.745003 L72.854416,37.93625 L73.822205,38 L74.37429,37.93625 L74.85277,37.745003 L75.257645,37.426247 L75.796745,36.620003 L76.091194,36.2375 L76.38564,36.11 L76.68009,36.2375 L77.18239,36.98 L77.47683,37.489998 L77.77128,38 L78.06573,38.510002 L78.56802,39.379997 L78.86247,39.889996 L79.15692,40.4 L79.45137,40.910004 L79.95367,41.78 L80.28493,42.22625 L80.68978,42.545002 L81.16826,42.736248 L82.13605,42.8 L82.68813,42.86375 L83.16661,43.055 L83.57149,43.373753 L84.11059,44.18 L84.40504,44.5625 L84.699486,44.69 L84.993935,44.5625 L85.49623,43.82 L85.79067,43.4375 L86.08512,43.31 L86.37957,43.4375 L86.88187,44.18 L87.10271,44.689995 L87.176315,45.2 L87.10271,45.710003 L86.67402,46.579998 L86.37957,47.089996 L86.08512,47.6 L85.79067,48.110004 L85.288376,48.98 L84.993935,49.3625 L84.699486,49.489998 L84.40504,49.3625 L83.90274,48.620003 L83.60829,48.2375 L83.31384,48.11 L83.019394,48.2375 L82.5171,48.98 L82.22265,49.489998 L81.9282,50 L81.63374,50.510002 L81.131454,51.379997 L80.947426,51.826244 L80.98423,52.145 L81.24187,52.33625 L82.13605,52.4 L82.68813,52.463753 L83.16661,52.655 L83.57149,52.973755 L84.11059,53.78 L84.40504,54.1625 L84.699486,54.29 L84.993935,54.1625 L85.49623,53.420002 L85.79067,52.910004 L86.08512,52.4 L86.37957,51.889996 L86.88187,51.02 L87.176315,50.510002 L87.470764,50 L87.76521,49.489998 L88.26751,48.620003 L88.59877,48.17375 L89.00364,47.855 L89.48212,47.66375 L90.44989,47.6 L90.92837,47.66375 L91.18601,47.855 L91.22282,48.17375 L90.83094,48.98 L90.64691,49.426247 L90.683716,49.745003 L90.94136,49.93625 L91.835526,50 L92.31401,50.06375 L92.571655,50.254997 L92.60846,50.573753 L92.21658,51.379997 L91.922134,51.889996 L91.627686,52.4 L91.33324,52.910004 L90.83094,53.78 L90.53649,54.1625 L90.24205,54.29 L89.9476,54.1625 L89.445305,53.420002 L89.15086,53.0375 L88.85641,52.909996 L88.56196,53.0375 L88.05966,53.78 L87.83882,54.289997 L87.76521,54.8 L87.83882,55.310005 L88.26751,56.18 L88.56196,56.689995 L88.85641,57.2 L89.15086,57.710003 L89.65315,58.579998 L89.873985,59.089996 L89.9476,59.6 L89.873985,60.110004 L89.445305,60.98 L89.22447,61.489998 L89.150856,62 L89.22447,62.510002 L89.65315,63.379997 L89.873985,63.889996 L89.9476,64.4 L89.873985,64.91 L89.445305,65.78 L89.11405,66.22624 L88.70918,66.545 L88.2307,66.73625 L87.262924,66.8 L86.67403,66.8 L86.08513,66.8 L85.49623,66.8 L84.49164,66.8 L84.01316,66.73625 L83.755516,66.545 L83.71871,66.22624 L84.11059,65.42 L84.33142,64.91 L84.40504,64.4 L84.33142,63.889996 L83.90274,63.02 L83.6819,62.510002 L83.60829,62 L83.6819,61.489998 L84.11059,60.620003 L84.40504,60.2375 L84.699486,60.109997 L84.993935,60.2375 L85.49623,60.98 L85.79067,61.489998 L86.08512,62 L86.37957,62.510002 L87.470764,64.4 M68.07179,16.4 L67.275055,17.78 L67.09103,18.226252 L67.12783,18.545 L67.385475,18.73625 L68.27965,18.8 L68.75813,18.86375 L69.01576,19.055 L69.05257,19.373749 L68.66069,20.18 L68.43986,20.69 L68.36625,21.2 L68.43986,21.71 L68.868546,22.58 L69.05257,23.02625 L69.01576,23.345 L68.75813,23.536251 L67.86395,23.6 L67.31187,23.66375 L66.83339,23.855 L66.42851,24.173748 L65.88941,24.98 L65.70538,25.42625 L65.74219,25.745 L65.99983,25.936249 L66.894,26 L67.44609,26.063751 L67.924576,26.255 L68.32944,26.573751 L68.868546,27.38 L69.16299,27.7625 L69.457436,27.89 L69.751884,27.7625 L70.25418,27.02 L70.54863,26.510004 L70.84308,26 L71.13753,25.49 L71.639824,24.619999 L71.93427,24.2375 L72.228714,24.11 L72.52316,24.2375 L73.02546,24.98 L73.3199,25.49 L73.61436,26 L73.908806,26.510004 L74.4111,27.38 L74.70555,27.889996 L75,28.4 L75.29445,28.910004 L75.796745,29.779999 L75.980774,30.226248 L75.94397,30.545002 L75.686325,30.736248 L74.79215,30.8 L74.20326,30.8 L73.61436,30.8 L73.02545,30.8 L72.020874,30.8 L71.5424,30.86375 L71.28475,31.054998 L71.24795,31.373753 L71.639824,32.18 L71.93427,32.689995 L72.228714,33.2 L72.52316,33.710003 L73.02546,34.579998 L73.3199,34.9625 L73.61436,35.09 L73.908806,34.9625 L74.4111,34.22 L74.742355,33.77375 L75.14723,33.454998 L75.62571,33.263752 L76.59349,33.2 L77.145584,33.13625 L77.62406,32.945 L78.028915,32.626247 L78.56802,31.820002 L78.89928,31.373753 L79.30415,31.054998 L79.78263,30.86375 L80.750404,30.8 L81.30249,30.736248 L81.78097,30.545002 L82.18584,30.226248 L82.724945,29.420002 L83.019394,29.0375 L83.31384,28.91 L83.60829,29.0375 L84.11059,29.779999 L84.33142,30.289997 L84.40504,30.8 L84.33142,31.310003 L83.90274,32.18 L83.71871,32.626247 L83.755516,32.945 L84.01316,33.13625 L84.90733,33.2 L85.45943,33.13625 L85.937904,32.945 L86.34276,32.626247 L86.88187,31.820002 L87.21312,31.373753 L87.618,31.054998 L88.09647,30.86375 L89.064255,30.8 L89.54274,30.736248 L89.80038,30.545002 L89.83718,30.226248 L89.445305,29.420002 L89.15086,28.910004 L88.85641,28.4 L88.56196,27.889996 L88.05966,27.02 L87.87563,26.573751 L87.91244,26.255 L88.17008,26.063751 L89.064255,26 L89.54274,25.936249 L89.80038,25.745 L89.83718,25.42625 L89.445305,24.619999 L89.15086,24.109999 L88.85641,23.6 L88.56196,23.09 L88.05966,22.22 L87.83882,21.71 L87.76521,21.2 L87.83882,20.69 L88.26751,19.82 L88.56196,19.31 L88.85641,18.8 L89.15086,18.29 L89.65315,17.42 L89.83718,16.97375 L89.80038,16.655 L89.54274,16.463749 L88.64856,16.4 L88.09647,16.463749 L87.618,16.655 L87.21312,16.97375 L86.67402,17.78 L86.34276,18.226252 L85.937904,18.545 L85.45943,18.73625 L84.49164,18.8 L83.90275,18.8 L83.31384,18.8 L82.72494,18.8 L81.72035,18.8 L81.16826,18.73625 L80.68978,18.545 L80.28493,18.226252 L79.74582,17.42 L79.45137,16.91 L79.15692,16.4 L78.86247,15.890001 L78.360176,15.0199995 L78.17615,14.573749 L78.21295,14.255 L78.4706,14.063749 L79.36476,14 L79.916855,14.063749 L80.39534,14.255 L80.80019,14.573749 L81.3393,15.38 L81.670555,15.826251 L82.075424,16.145 L82.55391,16.33625 L83.52168,16.4 L84.00017,16.33625 L84.25781,16.145 L84.29462,15.826251 L83.90274,15.0199995 L83.71871,14.573749 L83.755516,14.255 L84.01316,14.063749 L84.90733,14 L85.49623,14 L86.08513,14 L86.67403,14 L87.67861,14 L88.2675,14 L88.85641,14 L89.44531,14 L90.44989,14 L91.03878,14 L91.627686,14 L92.21659,14 L93.221176,14 L93.69966,14.063749 L93.95729,14.255 L93.994095,14.573749 L93.60222,15.38 L93.30778,15.890001 L93.01333,16.4 L92.71888,16.91 L92.21658,17.78 L91.922134,18.29 L91.627686,18.8 L91.33324,19.31 L90.83094,20.18 L90.64691,20.626251 L90.683716,20.945 L90.94136,21.13625 L91.835526,21.2 L92.38762,21.13625 L92.866104,20.945 L93.270966,20.626251 L93.810074,19.82 L94.14133,19.373749 L94.54619,19.055 L95.02467,18.86375 L95.992455,18.8 L96.54454,18.73625 L97.023026,18.545 L97.427895,18.226252 L97.966995,17.42 L98.261444,17.0375 L98.55589,16.91 L98.850334,17.0375 L99.35263,17.78 L99.64708,18.29 L99.94153,18.8 L100.23598,19.31 L100.73827,20.18 L101.069534,20.626251 L101.47439,20.945 L101.95287,21.13625 L102.92067,21.2 L103.39915,21.13625 L103.656784,20.945 L103.69359,20.626251 L103.30172,19.82 L103.08089,19.31 L103.00728,18.8 L103.08089,18.29 L103.50956,17.42 L103.84082,16.97375 L104.24568,16.655 L104.72417,16.463749 L105.691956,16.4 L106.17043,16.463749 L106.42808,16.655 L106.46487,16.97375 L106.073,17.78 L105.85216,18.29 L105.77854,18.8 L105.85216,19.31 L106.28084,20.18 L106.575294,20.5625 L106.869736,20.689999 L107.164185,20.5625 L107.666466,19.82 L107.96092,19.4375 L108.25537,19.310001 L108.54982,19.4375 L109.05211,20.18 L109.38338,20.626251 L109.78823,20.945 L110.26672,21.13625 L111.23451,21.2 L111.7866,21.13625 L112.26509,20.945 L112.669945,20.626251 L113.209045,19.82 L113.39308,19.373749 L113.35628,19.055 L113.09863,18.86375 L112.20445,18.8 L111.725975,18.73625 L111.46834,18.545 L111.43153,18.226252 L111.8234,17.42 L112.044235,16.91 L112.11784,16.4 L112.044235,15.890001 L111.61556,15.0199995 L111.2843,14.573749 L110.87944,14.255 L110.400955,14.063749 L109.43317,14 L108.84428,14 L108.25537,14 L107.666466,14 L106.66188,14 L106.07298,14 L105.48409,14 L104.8952,14 L103.89061,14 L103.30172,14 L102.712814,14 L102.12392,14 L101.11932,14 L100.53043,14 L99.94153,14 L99.35262,14 L98.348045,14 L97.79596,14.063749 L97.31748,14.255 L96.91261,14.573749 L95.78461,16.4 M123.49742,21.2 L125.090904,21.2 L125.64299,21.26375 L126.12148,21.455 L126.526344,21.773748 L127.065445,22.58 L127.3599,23.09 L127.65434,23.6 L127.94879,24.109999 L128.45108,24.98 L128.63512,25.42625 L128.59831,25.745 L128.34067,25.936249 L127.446495,26 L126.857605,26 L126.2687,26 L125.679794,26 L124.67521,26 L124.12312,25.936249 L123.64465,25.745 L123.239784,25.42625 L122.70068,24.619999 L122.40623,24.2375 L122.11178,24.11 L121.81734,24.2375 L121.31505,24.98 L121.02059,25.49 L120.72615,26 L120.4317,26.510004 L119.929405,27.38 L119.70857,27.889996 L119.634964,28.4 L119.70857,28.910004 L120.137245,29.779999 L120.4317,30.1625 L120.72615,30.289999 L121.02059,30.1625 L121.52289,29.420002 L121.85415,28.973751 L122.25901,28.654999 L122.73747,28.46375 L123.70526,28.4 L124.25735,28.46375 L124.73584,28.654999 L125.1407,28.973751 L125.679794,29.779999 L125.900635,30.289997 L125.97424,30.8 L125.900635,31.310003 L125.47196,32.18 L125.177505,32.5625 L124.88306,32.69 L124.58861,32.5625 L124.08632,31.820002 L123.79187,31.4375 L123.49742,31.310001 L123.20298,31.4375 L122.70068,32.18 L122.40623,32.689995 L122.11178,33.2 L121.81734,33.710003 L121.31505,34.579998 L120.98379,35.02625 L120.57893,35.345 L120.10044,35.536247 L119.13265,35.6 L118.654175,35.66375 L118.39653,35.855 L118.359726,36.17375 L118.7516,36.98 L118.972435,37.489998 L119.04604,38 L118.972435,38.510002 L118.54376,39.379997 L118.249306,39.889996 L117.95486,40.4 L117.660416,40.910004 L117.15812,41.78 L116.97408,42.22625 L117.01089,42.545002 L117.26853,42.736248 L118.162704,42.8 L118.7148,42.86375 L119.19328,43.055 L119.598145,43.373753 L120.137245,44.18 L120.32127,44.626247 L120.28447,44.945 L120.02683,45.13625 L119.13265,45.2 L118.58057,45.263752 L118.10207,45.454998 L117.69722,45.77375 L117.15812,46.579998 L116.86366,46.9625 L116.569214,47.09 L116.274765,46.9625 L115.77248,46.22 L115.47803,45.8375 L115.18358,45.71 L114.88914,45.8375 L114.38684,46.579998 L114.05558,47.02625 L113.65071,47.345 L113.17224,47.536247 L112.20445,47.6 L111.725975,47.536247 L111.46834,47.345 L111.43153,47.02625 L111.8234,46.22 L112.044235,45.710003 L112.11784,45.2 L112.044235,44.689995 L111.61556,43.82 L111.321106,43.310005 L111.02666,42.8 L110.732216,42.289997 L110.22992,41.420002 L109.89866,40.97375 L109.4938,40.655 L109.015305,40.463753 L108.04752,40.4 L107.569046,40.463753 L107.3114,40.655 L107.2746,40.97375 L107.666466,41.78 L107.96092,42.289997 L108.25537,42.8 L108.54982,43.310005 L109.05211,44.18 L109.236145,44.626247 L109.19934,44.945 L108.941696,45.13625 L108.04752,45.2 L107.569046,45.263752 L107.3114,45.454998 L107.2746,45.77375 L107.666466,46.579998 L107.96092,47.089996 L108.25537,47.6 L108.54982,48.110004 L109.05211,48.98 L109.27295,49.489998 L109.34656,50 L109.27295,50.510002 L108.84428,51.379997 L108.66024,51.826244 L108.697044,52.145 L108.95469,52.33625 L109.84886,52.4 L110.32735,52.463753 L110.584984,52.655 L110.62179,52.973755 L110.22992,53.78 L109.89866,54.226246 L109.4938,54.545002 L109.015305,54.736248 L108.04752,54.8 L107.569046,54.86375 L107.3114,55.055 L107.2746,55.373756 L107.666466,56.18 L107.99773,56.626244 L108.40259,56.945 L108.88108,57.13625 L109.84886,57.2 L110.43776,57.2 L111.02666,57.2 L111.61556,57.2 L112.620155,57.2 L113.09863,57.263752 L113.35628,57.454998 L113.39308,57.773754 L113.001205,58.579998 L112.70675,59.089996 L112.41231,59.6 L112.11786,60.110004 L111.61556,60.98 L111.321106,61.3625 L111.02666,61.49 L110.732216,61.3625 L110.22992,60.620003 L109.89866,60.173756 L109.4938,59.855 L109.015305,59.66375 L108.04752,59.6 L107.45863,59.6 L106.869736,59.6 L106.280846,59.6 L105.27626,59.6 L104.797775,59.66375 L104.54014,59.855 L104.503334,60.173756 L104.8952,60.98 L105.22646,61.426247 L105.631325,61.745003 L106.10979,61.93625 L107.077576,62 L107.55605,62.06375 L107.8137,62.254997 L107.8505,62.573753 L107.45863,63.379997 L107.2746,63.826244 L107.3114,64.145004 L107.569046,64.33625 L108.46322,64.4 L108.941696,64.46375 L109.19934,64.655 L109.236145,64.973755 L108.84428,65.78 L108.513016,66.22624 L108.108154,66.545 L107.62966,66.73625 L106.66188,66.8 L106.07298,66.8 L105.48409,66.8 L104.8952,66.8 L103.89061,66.8 L103.338524,66.863754 L102.86003,67.055 L102.45518,67.37376 L101.91607,68.18 L101.62162,68.689995 L101.32717,69.2 L101.03272,69.71001 L100.530426,70.58 L100.3464,71.026245 L100.3832,71.345 L100.64085,71.53625 L101.53502,71.6 L102.013504,71.66375 L102.27114,71.854996 L102.307945,72.17375 L101.91607,72.979996 L101.62162,73.49 L101.32717,74 L101.03272,74.51 L100.530426,75.38 L100.23598,75.89 L99.94153,76.4 L99.64708,76.91 L99.14478,77.78 L98.850334,78.28999 L98.55589,78.8 L98.261444,79.310005 L97.75915,80.18 L97.57512,80.62624 L97.61192,80.945 L97.86957,81.136246 L98.76373,81.2 L99.31582,81.136246 L99.7943,80.945 L100.19917,80.62624 L100.73827,79.82 L101.069534,79.37376 L101.47439,79.055 L101.95287,78.863754 L102.92067,78.8 L103.472755,78.863754 L103.95125,79.055 L104.3561,79.37376 L104.8952,80.18 L105.11604,80.689995 L105.18965,81.2 L105.11604,81.71001 L104.68736,82.58 L104.39291,82.9625 L104.098465,83.090004 L103.804016,82.9625 L103.30172,82.22 L103.00726,81.8375 L102.712814,81.71 L102.41837,81.8375 L101.91607,82.58 L101.584816,83.026245 L101.17995,83.345 L100.70146,83.53625 L99.73369,83.6 L99.14479,83.6 L98.55589,83.6 L97.966995,83.6 L96.9624,83.6 L96.41032,83.53625 L95.93184,83.345 L95.52696,83.026245 L94.98786,82.22 L94.76703,81.71001 L94.69341,81.2 L94.76703,80.689995 L95.19571,79.82 L95.37974,79.37376 L95.34293,79.055 L95.08529,78.863754 L94.19112,78.8 L93.63902,78.73625 L93.160545,78.545 L92.75569,78.22624 L92.21658,77.42 L91.922134,76.91 L91.627686,76.4 L91.33324,75.89 L90.83094,75.020004 L90.49968,74.57375 L90.094826,74.255 L89.61635,74.06375 L88.64856,74 L88.09647,73.93625 L87.618,73.745 L87.21312,73.42625 L86.67402,72.62 L86.48999,72.17375 L86.526794,71.854996 L86.78444,71.66375 L87.67861,71.6 L88.2675,71.6 L88.85641,71.6 L89.44531,71.6 L90.44989,71.6 L91.03878,71.6 L91.627686,71.6 L92.21659,71.6 L93.221176,71.6 L93.77327,71.66375 L94.25175,71.854996 L94.6566,72.17375 L95.19571,72.979996 L95.52696,73.42625 L95.93184,73.745 L96.41032,73.93625 L97.3781,74 L97.85658,74.06375 L98.11422,74.255 L98.151024,74.57375 L97.75915,75.38 L97.427895,75.82625 L97.023026,76.145004 L96.54454,76.33625 L95.57677,76.4 L95.02467,76.33625 L94.54619,76.145004 L94.14133,75.82625 L93.01332,74 M127.46639,98.2084 L127.012794,99.4 M127.46639,98.2084 L127.92,99.4 M127.18199,99.004 L127.75079,99.004 M128.2026,98.6062 L128.2026,99.4 M128.2026,98.833 L128.37361,98.662 L128.487,98.6062 L128.6562,98.6062 L128.7714,98.662 L128.82721,98.833 L128.82721,99.4 M129.33661,98.2084 L129.33661,99.1732 L129.39421,99.3433 L129.50581,99.4 L129.621,99.4 M129.1674,98.6062 L129.5634,98.6062 M130.1862,98.6062 L130.07462,98.662 L129.9594,98.7772 L129.9036,98.946396 L129.9036,99.0598 L129.9594,99.229904 L130.07462,99.3433 L130.1862,99.4 L130.35721,99.4 L130.47061,99.3433 L130.58401,99.229904 L130.6398,99.0598 L130.6398,98.946396 L130.58401,98.7772 L130.47061,98.662 L130.35721,98.6062 L130.1862,98.6062 M131.0358,98.6062 L131.0358,99.4 M131.0358,98.833 L131.20682,98.662 L131.3202,98.6062 L131.48941,98.6062 L131.6046,98.662 L131.66042,98.833 L131.66042,99.4 M132.11221,98.2084 L132.11221,99.4 M132.11221,98.2084 L132.56581,99.4 M133.01941,98.2084 L132.56581,99.4 M133.01941,98.2084 L133.01941,99.4 M134.09763,98.6062 L134.09763,99.4 M134.09763,98.7772 L133.98422,98.662 L133.87082,98.6062 L133.69981,98.6062 L133.58823,98.662 L133.473,98.7772 L133.4172,98.946396 L133.4172,99.0598 L133.473,99.229904 L133.58823,99.3433 L133.69981,99.4 L133.87082,99.4 L133.98422,99.3433 L134.09763,99.229904 M134.54941,98.2084 L134.54941,99.4 M135.11821,98.6062 L134.54941,99.1732 M134.77621,98.946396 L135.17403,99.4 M135.4584,98.946396 L136.13882,98.946396 L136.13882,98.833 L136.08301,98.7196 L136.02542,98.662 L135.91202,98.6062 L135.74101,98.6062 L135.62943,98.662 L135.5142,98.7772 L135.4584,98.946396 L135.4584,99.0598 L135.5142,99.229904 L135.62943,99.3433 L135.74101,99.4 L135.91202,99.4 L136.02542,99.3433 L136.13882,99.229904 M137.1036,98.7772 L137.04602,98.662 L136.87682,98.6062 L136.70583,98.6062 L136.53482,98.662 L136.47902,98.7772 L136.53482,98.8888 L136.65002,98.946396 L136.93262,99.004 L137.04602,99.0598 L137.1036,99.1732 L137.1036,99.229904 L137.04602,99.3433 L136.87682,99.4 L136.70583,99.4 L136.53482,99.3433 L136.47902,99.229904 M138.29521,98.4928 L138.23761,98.3794 L138.12422,98.266 L138.01082,98.2084 L137.78401,98.2084 L137.67062,98.266 L137.55722,98.3794 L137.4996,98.4928 L137.44382,98.662 L137.44382,98.946396 L137.4996,99.1156 L137.55722,99.229904 L137.67062,99.3433 L137.78401,99.4 L138.01082,99.4 L138.12422,99.3433 L138.23761,99.229904 L138.29521,99.1156 L138.29521,98.946396 M138.01082,98.946396 L138.29521,98.946396 M139.31583,98.6062 L139.31583,99.4 M139.31583,98.7772 L139.20242,98.662 L139.08902,98.6062 L138.91801,98.6062 L138.80643,98.662 L138.69121,98.7772 L138.6354,98.946396 L138.6354,99.0598 L138.69121,99.229904 L138.80643,99.3433 L138.91801,99.4 L139.08902,99.4 L139.20242,99.3433 L139.31583,99.229904 M139.76761,98.6062 L139.76761,99.4 M139.76761,98.833 L139.93863,98.662 L140.05202,98.6062 L140.22122,98.6062 L140.33641,98.662 L140.39223,98.833 L140.39223,99.4 M140.39223,98.833 L140.56322,98.662 L140.67482,98.6062 L140.84581,98.6062 L140.95921,98.662 L141.01682,98.833 L141.01682,99.4 M141.41281,98.946396 L142.09323,98.946396 L142.09323,98.833 L142.03741,98.7196 L141.97983,98.662 L141.86642,98.6062 L141.69542,98.6062 L141.58383,98.662 L141.46861,98.7772 L141.41281,98.946396 L141.41281,99.0598 L141.46861,99.229904 L141.58383,99.3433 L141.69542,99.4 L141.86642,99.4 L141.97983,99.3433 L142.09323,99.229904 M143.05801,98.7772 L143.00043,98.662 L142.83122,98.6062 L142.66023,98.6062 L142.48923,98.662 L142.43343,98.7772 L142.48923,98.8888 L142.60443,98.946396 L142.88702,99.004 L143.00043,99.0598 L143.05801,99.1732 L143.05801,99.229904 L143.00043,99.3433 L142.83122,99.4 L142.66023,99.4 L142.48923,99.3433 L142.43343,99.229904 M144.27841,98.2084 L144.10922,98.266 L143.99402,98.435196 L143.93822,98.7196 L143.93822,98.8888 L143.99402,99.1732 L144.10922,99.3433 L144.27841,99.4 L144.39182,99.4 L144.56282,99.3433 L144.67442,99.1732 L144.73203,98.8888 L144.73203,98.7196 L144.67442,98.435196 L144.56282,98.266 L144.39182,98.2084 L144.27841,98.2084 M145.80843,98.3794 L145.75262,98.266 L145.58162,98.2084 L145.47002,98.2084 L145.29903,98.266 L145.18562,98.435196 L145.12802,98.7196 L145.12802,99.004 L145.18562,99.229904 L145.29903,99.3433 L145.47002,99.4 L145.52582,99.4 L145.69681,99.3433 L145.80843,99.229904 L145.86601,99.0598 L145.86601,99.004 L145.80843,98.833 L145.69681,98.7196 L145.52582,98.662 L145.47002,98.662 L145.29903,98.7196 L145.18562,98.833 L145.12802,99.004 M146.54642,98.2084 L146.37723,98.266 L146.26201,98.435196 L146.2062,98.7196 L146.2062,98.8888 L146.26201,99.1732 L146.37723,99.3433 L146.54642,99.4 L146.65982,99.4 L146.83081,99.3433 L146.94241,99.1732 L147.00002,98.8888 L147.00002,98.7196 L146.94241,98.435196 L146.83081,98.266 L146.65982,98.2084 L146.54642,98.2084" fill="none" stroke="black" stroke-width="0.4"/>
</svg>